<svg width="893" height="201" viewBox="0 0 893 201" fill="none" xmlns="http://www.w3.org/2000/svg">
<path d="M639.338 30.351L644.329 29.5711L639.338 28.7912C638.898 28.7246 638.491 28.5191 638.177 28.2047C637.863 27.8904 637.657 27.4836 637.591 27.0441L636.811 22.0447L636.031 27.0441C635.965 27.4825 635.76 27.8884 635.447 28.2026C635.134 28.5169 634.73 28.7231 634.291 28.7912L629.292 29.5711L634.291 30.351C634.728 30.4226 635.131 30.6299 635.443 30.9435C635.756 31.2571 635.961 31.6611 636.031 32.0981L636.811 37.0975L637.591 32.0981C637.661 31.66 637.867 31.2552 638.181 30.9414C638.495 30.6277 638.899 30.4211 639.338 30.351V30.351Z" fill="white"/>
<path d="M602.048 64.2152L607.048 63.4352L602.048 62.6553C601.611 62.5841 601.206 62.3771 600.893 62.0636C600.579 61.7501 600.372 61.3459 600.301 60.9082L599.521 55.9088L598.741 60.9082C598.673 61.3473 598.468 61.7534 598.153 62.0675C597.839 62.3817 597.433 62.5875 596.994 62.6553L591.995 63.4352L596.994 64.2152C597.433 64.2829 597.839 64.4888 598.153 64.8029C598.468 65.1171 598.673 65.5232 598.741 65.9622L599.521 70.9616L600.301 65.9622C600.372 65.5246 600.579 65.1204 600.893 64.8068C601.206 64.4933 601.611 64.2863 602.048 64.2152V64.2152Z" fill="#1070B7"/>
<path opacity="0.5" d="M602.048 64.2152L607.048 63.4352L602.048 62.6553C601.611 62.5841 601.206 62.3771 600.893 62.0636C600.579 61.7501 600.372 61.3459 600.301 60.9082L599.521 55.9088L598.741 60.9082C598.673 61.3473 598.468 61.7534 598.153 62.0675C597.839 62.3817 597.433 62.5875 596.994 62.6553L591.995 63.4352L596.994 64.2152C597.433 64.2829 597.839 64.4888 598.153 64.8029C598.468 65.1171 598.673 65.5232 598.741 65.9622L599.521 70.9616L600.301 65.9622C600.372 65.5246 600.579 65.1204 600.893 64.8068C601.206 64.4933 601.611 64.2863 602.048 64.2152V64.2152Z" fill="white"/>
<path d="M726.527 85.0628L731.526 84.2829L726.527 83.503C726.089 83.4357 725.683 83.2309 725.369 82.9183C725.055 82.6057 724.849 82.2013 724.78 81.7637L724 76.7643L723.22 81.7637C723.15 82.2013 722.944 82.6057 722.63 82.9183C722.316 83.2309 721.911 83.4357 721.473 83.503L716.473 84.2829L721.473 85.0628C721.911 85.1301 722.316 85.3349 722.63 85.6475C722.944 85.9601 723.15 86.3645 723.22 86.8021L724 91.8015L724.78 86.8021C724.849 86.3645 725.055 85.9601 725.369 85.6475C725.683 85.3349 726.089 85.1301 726.527 85.0628Z" fill="#1070B7"/>
<path opacity="0.5" d="M726.527 85.0628L731.526 84.2829L726.527 83.503C726.089 83.4357 725.683 83.2309 725.369 82.9183C725.055 82.6057 724.849 82.2013 724.78 81.7637L724 76.7643L723.22 81.7637C723.15 82.2013 722.944 82.6057 722.63 82.9183C722.316 83.2309 721.911 83.4357 721.473 83.503L716.473 84.2829L721.473 85.0628C721.911 85.1301 722.316 85.3349 722.63 85.6475C722.944 85.9601 723.15 86.3645 723.22 86.8021L724 91.8015L724.78 86.8021C724.849 86.3645 725.055 85.9601 725.369 85.6475C725.683 85.3349 726.089 85.1301 726.527 85.0628Z" fill="white"/>
<path d="M595.653 37.6193L598.96 37.0967L595.653 36.5742C595.363 36.5295 595.094 36.3935 594.887 36.1859C594.679 35.9784 594.543 35.71 594.499 35.4199L593.984 32.1207L593.461 35.4199C593.417 35.71 593.281 35.9784 593.073 36.1859C592.865 36.3935 592.597 36.5295 592.307 36.5742L589 37.0967L592.307 37.6193C592.597 37.664 592.865 37.8 593.073 38.0076C593.281 38.2152 593.417 38.4835 593.461 38.7736L593.984 42.0728L594.499 38.7736C594.543 38.4835 594.679 38.2152 594.887 38.0076C595.094 37.8 595.363 37.664 595.653 37.6193V37.6193Z" fill="#1070B7"/>
<path opacity="0.5" d="M595.653 37.6193L598.96 37.0967L595.653 36.5742C595.363 36.5295 595.094 36.3935 594.887 36.1859C594.679 35.9784 594.543 35.71 594.499 35.4199L593.984 32.1207L593.461 35.4199C593.417 35.71 593.281 35.9784 593.073 36.1859C592.865 36.3935 592.597 36.5295 592.307 36.5742L589 37.0967L592.307 37.6193C592.597 37.664 592.865 37.8 593.073 38.0076C593.281 38.2152 593.417 38.4835 593.461 38.7736L593.984 42.0728L594.499 38.7736C594.543 38.4835 594.679 38.2152 594.887 38.0076C595.094 37.8 595.363 37.664 595.653 37.6193V37.6193Z" fill="white"/>
<path d="M810.185 44.9208L813.492 44.406L810.185 43.8835C809.895 43.8377 809.627 43.7013 809.42 43.4939C809.213 43.2866 809.076 43.0188 809.031 42.7292L808.508 39.4222L807.993 42.7292C807.947 43.0188 807.811 43.2866 807.604 43.4939C807.396 43.7013 807.129 43.8377 806.839 43.8835L803.532 44.406L806.839 44.9208C807.129 44.9666 807.396 45.103 807.604 45.3104C807.811 45.5177 807.947 45.7855 807.993 46.0751L808.508 49.3821L809.031 46.0751C809.076 45.7855 809.213 45.5177 809.42 45.3104C809.627 45.103 809.895 44.9666 810.185 44.9208Z" fill="#1070B7"/>
<path opacity="0.5" d="M810.185 44.9208L813.492 44.406L810.185 43.8835C809.895 43.8377 809.627 43.7013 809.42 43.4939C809.213 43.2866 809.076 43.0188 809.031 42.7292L808.508 39.4222L807.993 42.7292C807.947 43.0188 807.811 43.2866 807.604 43.4939C807.396 43.7013 807.129 43.8377 806.839 43.8835L803.532 44.406L806.839 44.9208C807.129 44.9666 807.396 45.103 807.604 45.3104C807.811 45.5177 807.947 45.7855 807.993 46.0751L808.508 49.3821L809.031 46.0751C809.076 45.7855 809.213 45.5177 809.42 45.3104C809.627 45.103 809.895 44.9666 810.185 44.9208Z" fill="white"/>
<path d="M659.055 17.435L662.292 16.9281L659.055 16.4211C658.771 16.3767 658.509 16.2432 658.306 16.04C658.102 15.8367 657.969 15.5742 657.925 15.2902L657.41 12.0457L656.903 15.2902C656.857 15.5737 656.723 15.8356 656.52 16.0387C656.317 16.2417 656.055 16.3755 655.772 16.4211L652.527 16.9281L655.772 17.435C656.055 17.4806 656.317 17.6145 656.52 17.8175C656.723 18.0205 656.857 18.2824 656.903 18.566L657.379 21.8417L657.893 18.5971C657.933 18.303 658.069 18.0301 658.278 17.8202C658.488 17.6103 658.761 17.475 659.055 17.435V17.435Z" fill="white"/>
<path d="M766.289 49.4587L769.533 48.9439L766.289 48.437C766.005 48.3914 765.743 48.2576 765.54 48.0545C765.337 47.8515 765.203 47.5896 765.158 47.3061L764.651 44.0615L764.144 47.3061C764.098 47.5896 763.964 47.8515 763.761 48.0545C763.558 48.2576 763.296 48.3914 763.013 48.437L759.768 48.9439L763.013 49.4587C763.297 49.5031 763.56 49.6366 763.763 49.8399C763.966 50.0431 764.099 50.3056 764.144 50.5896L764.651 53.8264L765.158 50.5896C765.202 50.3056 765.336 50.0431 765.539 49.8399C765.742 49.6366 766.005 49.5031 766.289 49.4587Z" fill="white"/>
<path d="M743.321 95.4368C743.436 98.6481 737.832 105.825 737.832 105.825C737.832 105.825 731.727 99.0652 731.612 95.8539C731.497 92.6425 733.263 89.974 737.256 89.8312C741.249 89.6883 743.223 92.2254 743.321 95.4368Z" fill="#1070B7"/>
<path d="M738.051 95.6371H737.66V180.869H738.051V95.6371Z" fill="#263238"/>
<path d="M727.953 178.297C727.771 178.296 727.592 178.335 727.426 178.41C727.261 178.486 727.115 178.596 726.997 178.734C726.88 178.872 726.794 179.034 726.747 179.208C726.699 179.382 726.691 179.565 726.722 179.743C727.556 184.234 732.223 187.674 737.856 187.674C743.489 187.674 748.15 184.246 748.984 179.743C749.016 179.565 749.008 179.383 748.962 179.209C748.915 179.034 748.83 178.872 748.713 178.734C748.596 178.596 748.45 178.486 748.285 178.41C748.12 178.335 747.94 178.296 747.758 178.297H727.953Z" fill="#1070B7"/>
<path d="M734.748 112.842C732.678 110.742 730.125 109.173 727.309 108.271C724.961 110.665 727.211 113.951 734.748 112.842Z" fill="#1070B7"/>
<path d="M737.741 116.922C735.934 113.688 731.987 109.796 727.274 108.385L727.349 108.134C732.148 109.562 736.141 113.516 737.971 116.796L737.741 116.922Z" fill="#263238"/>
<path d="M733.615 135.041C733.615 127.327 727.959 125.184 723.459 128.784C720.26 132.07 723.286 136.55 733.615 135.041C732.845 134.278 732.03 133.561 731.175 132.893C732.03 133.561 732.845 134.278 733.615 135.041Z" fill="#1070B7"/>
<path d="M737.741 140.584C735.273 136.161 729.887 130.836 723.425 128.91L723.5 128.658C730.036 130.607 735.48 135.984 737.971 140.458L737.741 140.584Z" fill="#263238"/>
<path d="M741.838 122.511C744.487 119.809 747.763 117.792 751.378 116.636C754.364 119.722 751.521 123.928 741.838 122.511Z" fill="#1070B7"/>
<path d="M737.971 127.716L737.74 127.591C740.082 123.391 745.186 118.339 751.325 116.511L751.4 116.762C745.336 118.574 740.284 123.568 737.971 127.716Z" fill="#263238"/>
<path d="M742.044 144.915C744.949 141.012 748.771 137.873 753.177 135.773C757.539 139.224 754.645 145.069 742.044 144.915Z" fill="#1070B7"/>
<path d="M737.975 152.201L737.728 152.11C739.989 146.362 745.622 139.059 753.12 135.682L753.229 135.922C745.801 139.265 740.213 146.51 737.975 152.201Z" fill="#263238"/>
<path d="M708.97 165.989H669.941C669.331 165.989 668.745 165.749 668.314 165.32C667.882 164.891 667.64 164.31 667.64 163.704C667.64 163.098 667.882 162.516 668.314 162.088C668.745 161.659 669.331 161.418 669.941 161.418H708.97C709.581 161.418 710.166 161.659 710.598 162.088C711.029 162.516 711.272 163.098 711.272 163.704C711.272 164.31 711.029 164.891 710.598 165.32C710.166 165.749 709.581 165.989 708.97 165.989Z" fill="#1070B7"/>
<path d="M663.992 161.396H662.697L657.743 129.293H659.038L663.992 161.396Z" fill="#263238"/>
<path d="M683.814 161.396H682.513L677.559 129.293H678.86L683.814 161.396Z" fill="#263238"/>
<path d="M683.866 154.967H658.416C657.564 154.94 656.749 154.621 656.108 154.063C655.466 153.506 655.04 152.745 654.9 151.91L651.011 125.111C650.941 124.732 650.958 124.342 651.059 123.97C651.161 123.598 651.344 123.253 651.597 122.96C651.849 122.667 652.164 122.434 652.518 122.277C652.873 122.121 653.258 122.044 653.646 122.054H679.096C679.948 122.082 680.764 122.401 681.406 122.958C682.048 123.516 682.476 124.276 682.617 125.111L686.501 151.91C686.571 152.289 686.554 152.679 686.453 153.051C686.351 153.423 686.168 153.768 685.915 154.061C685.663 154.354 685.348 154.587 684.994 154.744C684.639 154.9 684.254 154.977 683.866 154.967Z" fill="#1070B7"/>
<path opacity="0.4" d="M651.01 125.088L654.9 151.887C654.998 152.536 655.279 153.145 655.711 153.641C656.644 154.733 658.301 154.139 658.105 152.807L653.956 124.168C653.761 122.836 651.931 122.248 651.315 123.334C651.024 123.87 650.917 124.486 651.01 125.088V125.088Z" fill="white"/>
<path d="M680.103 165.989H662.266C661.655 165.989 661.07 165.749 660.638 165.32C660.207 164.891 659.964 164.31 659.964 163.704C659.964 163.098 660.207 162.516 660.638 162.088C661.07 161.659 661.655 161.418 662.266 161.418H680.103C680.713 161.418 681.299 161.659 681.731 162.088C682.162 162.516 682.405 163.098 682.405 163.704C682.405 164.31 682.162 164.891 681.731 165.32C681.299 165.749 680.713 165.989 680.103 165.989Z" fill="#1070B7"/>
<path opacity="0.4" d="M680.103 165.989H662.266C661.655 165.989 661.07 165.749 660.638 165.32C660.207 164.891 659.964 164.31 659.964 163.704C659.964 163.098 660.207 162.516 660.638 162.088C661.07 161.659 661.655 161.418 662.266 161.418H680.103C680.713 161.418 681.299 161.659 681.731 162.088C682.162 162.516 682.405 163.098 682.405 163.704C682.405 164.31 682.162 164.891 681.731 165.32C681.299 165.749 680.713 165.989 680.103 165.989Z" fill="white"/>
<path d="M689.827 193.635H688.526L683.572 165.99H684.867L689.827 193.635Z" fill="#263238"/>
<path d="M712.342 193.635H711.042L706.088 165.99H707.388L712.342 193.635Z" fill="#263238"/>
<path d="M681.109 193.635H682.404L687.358 165.99H686.064L681.109 193.635Z" fill="#263238"/>
<path d="M658.588 193.635H659.889L664.843 165.99H663.548L658.588 193.635Z" fill="#263238"/>
<path d="M725.351 167.075L718.936 169.846L722.612 174.109L727.981 171.801L725.351 167.075Z" fill="#7F3E3B"/>
<path opacity="0.2" d="M725.352 167.081L718.931 169.852L720.996 172.241L726.825 169.726L725.352 167.081Z" fill="black"/>
<path d="M721.485 176.167L722.216 176.029C722.43 175.988 722.63 175.894 722.799 175.756C722.968 175.619 723.099 175.442 723.182 175.241L723.643 175.475C723.906 175.605 724.205 175.647 724.494 175.595L734.471 173.664C734.391 172.98 734.131 172.33 733.718 171.778C733.718 171.778 729.293 172.39 728.05 171.31C728.005 171.267 727.948 171.239 727.887 171.226C727.826 171.214 727.763 171.219 727.705 171.241C726.894 171.584 723.677 172.847 721.686 172.59C721.624 172.583 721.561 172.591 721.503 172.613C721.445 172.635 721.392 172.67 721.35 172.716C721.308 172.761 721.276 172.816 721.259 172.875C721.241 172.934 721.238 172.997 721.249 173.058C721.402 174.087 721.481 175.126 721.485 176.167Z" fill="#1070B7"/>
<path d="M727.866 171.567H727.831C727.812 171.56 727.795 171.548 727.783 171.532C727.771 171.515 727.763 171.496 727.762 171.476C727.722 170.83 728.033 169.641 728.47 169.436C728.537 169.405 728.612 169.397 728.684 169.411C728.757 169.425 728.823 169.462 728.873 169.516C728.919 169.556 728.955 169.607 728.979 169.663C729.003 169.719 729.014 169.78 729.011 169.841C729.011 170.464 727.987 171.499 727.941 171.556C727.918 171.568 727.891 171.572 727.866 171.567V171.567ZM728.62 169.607H728.562C728.286 169.739 728.015 170.567 727.987 171.184C728.32 170.819 728.821 170.19 728.815 169.824C728.815 169.792 728.808 169.76 728.795 169.731C728.783 169.702 728.764 169.675 728.74 169.653C728.725 169.637 728.706 169.625 728.685 169.617C728.664 169.609 728.642 169.606 728.62 169.607V169.607Z" fill="#1070B7"/>
<path d="M728.816 171.641C728.492 171.639 728.169 171.614 727.849 171.567C727.828 171.563 727.809 171.554 727.794 171.539C727.779 171.525 727.768 171.507 727.763 171.487C727.759 171.467 727.761 171.446 727.768 171.427C727.775 171.408 727.787 171.391 727.803 171.378C728.298 170.973 729.454 170.515 729.874 170.75C729.939 170.786 729.99 170.841 730.022 170.908C730.054 170.974 730.065 171.048 730.053 171.121C730.034 171.242 729.968 171.351 729.869 171.424C729.545 171.592 729.18 171.668 728.816 171.641V171.641ZM728.148 171.39C728.682 171.49 729.234 171.443 729.742 171.253C729.769 171.234 729.791 171.211 729.808 171.183C729.825 171.155 729.836 171.125 729.84 171.093C729.84 170.99 729.84 170.955 729.777 170.933C729.512 170.79 728.672 171.058 728.148 171.39Z" fill="#1070B7"/>
<path d="M667.68 147.014L670.431 152.728C674.487 161.167 684.488 165.413 692.468 162.093C697.129 160.145 702.216 156.048 705.703 154.173C708.666 160.613 714.207 167.727 718.448 172.67L727.032 168.384C723.828 161.076 718.833 149.671 715.668 142.259C715.101 140.953 714.174 139.831 712.995 139.023C711.816 138.214 710.431 137.752 709 137.688C694.707 137.282 667.68 147.014 667.68 147.014Z" fill="#263238"/>
<path d="M709.391 185.783L702.4 185.458L703.81 190.898L709.65 191.172L709.391 185.783Z" fill="#7F3E3B"/>
<path opacity="0.2" d="M709.39 185.783L702.393 185.458L703.181 188.503L709.534 188.8L709.39 185.783Z" fill="black"/>
<path d="M702.733 193.76H703.481C703.698 193.762 703.912 193.711 704.105 193.611C704.297 193.511 704.462 193.366 704.585 193.189V193.189L704.988 193.497C705.221 193.68 705.509 193.779 705.805 193.777H715.961C716.016 193.092 715.887 192.403 715.587 191.783C715.587 191.783 711.128 191.543 710.115 190.246C710.08 190.196 710.03 190.157 709.973 190.135C709.916 190.112 709.853 190.107 709.793 190.12C708.93 190.298 705.552 190.932 703.624 190.298C703.564 190.279 703.501 190.274 703.439 190.284C703.377 190.294 703.318 190.319 703.267 190.355C703.216 190.392 703.175 190.44 703.146 190.495C703.117 190.551 703.101 190.612 703.101 190.675C703.053 191.711 702.93 192.742 702.733 193.76V193.76Z" fill="#1070B7"/>
<path d="M709.908 190.457C709.89 190.463 709.87 190.463 709.851 190.457C709.834 190.447 709.821 190.431 709.812 190.413C709.804 190.395 709.802 190.374 709.805 190.355C709.891 189.72 710.42 188.606 710.892 188.492C710.963 188.473 711.038 188.478 711.107 188.504C711.175 188.531 711.233 188.579 711.272 188.64C711.308 188.69 711.334 188.747 711.347 188.807C711.359 188.867 711.36 188.929 711.347 188.989C711.238 189.606 710.018 190.423 709.966 190.457C709.947 190.463 709.927 190.463 709.908 190.457V190.457ZM710.979 188.669H710.944C710.645 188.743 710.225 189.509 710.064 190.103C710.467 189.812 711.071 189.292 711.14 188.926C711.146 188.894 711.146 188.862 711.139 188.83C711.132 188.799 711.119 188.769 711.099 188.743C711.087 188.723 711.069 188.707 711.047 188.696C711.026 188.685 711.003 188.68 710.979 188.68V188.669Z" fill="#1070B7"/>
<path d="M711.421 190.772C710.892 190.739 710.371 190.632 709.873 190.452C709.854 190.446 709.837 190.433 709.825 190.417C709.812 190.401 709.805 190.381 709.804 190.361C709.802 190.341 709.806 190.32 709.815 190.302C709.824 190.284 709.839 190.269 709.856 190.258C710.431 189.955 711.645 189.727 712.014 190.035C712.072 190.081 712.114 190.144 712.132 190.215C712.151 190.286 712.146 190.362 712.117 190.429C712.097 190.487 712.065 190.54 712.024 190.586C711.982 190.631 711.932 190.667 711.876 190.692C711.732 190.751 711.577 190.778 711.421 190.772V190.772ZM710.195 190.338C710.7 190.535 711.249 190.593 711.784 190.504C711.844 190.476 711.891 190.427 711.916 190.367C711.945 190.269 711.916 190.224 711.881 190.195C711.674 190.001 710.777 190.109 710.195 190.338V190.338Z" fill="#1070B7"/>
<path d="M663.68 144.75L663.726 150.79C663.801 159.699 671.396 162.287 680.488 162.967C685.787 163.356 692.951 163.476 697.082 163.396C697.686 169.635 699.648 182.349 701.622 187.675L710.552 187.058C710.788 179.498 711.128 168.773 711.421 161.664C711.432 160.244 711.036 158.85 710.278 157.645C709.519 156.441 708.431 155.476 707.14 154.864C693.751 148.305 663.68 144.75 663.68 144.75Z" fill="#263238"/>
<path opacity="0.2" d="M706.029 154.921C707.558 157.971 709.333 160.892 711.334 163.658C711.288 164.904 711.242 166.23 711.191 167.601C708.032 162.647 706.012 154.91 706.012 154.91L706.029 154.921Z" fill="black"/>
<path d="M692.819 109.866L693.394 110.157L694.108 110.511C694.597 110.734 695.092 110.963 695.592 111.163C696.567 111.566 697.566 111.907 698.584 112.186C699.526 112.438 700.489 112.608 701.461 112.694C702.324 112.761 703.192 112.718 704.045 112.568L702.318 113.597C702.854 113.195 703.307 112.694 703.653 112.123C704.183 111.314 704.66 110.472 705.08 109.603C705.546 108.677 705.978 107.7 706.404 106.7L707.67 103.677L707.733 103.534C707.946 103.029 708.323 102.61 708.804 102.342C709.284 102.075 709.842 101.975 710.387 102.058C710.931 102.142 711.432 102.404 711.81 102.803C712.187 103.202 712.419 103.715 712.468 104.26C712.576 105.511 712.596 106.767 712.526 108.02C712.461 109.283 712.315 110.541 712.089 111.786C711.847 113.115 711.483 114.419 711.001 115.683C710.43 117.229 709.566 118.652 708.458 119.877C708.096 120.264 707.649 120.564 707.152 120.751L706.726 120.905C705.05 121.523 703.287 121.874 701.501 121.945C699.825 122.017 698.147 121.888 696.501 121.563C694.942 121.262 693.415 120.818 691.938 120.237C691.213 119.945 690.494 119.665 689.798 119.294C689.447 119.117 689.102 118.94 688.751 118.723L688.221 118.414L687.611 118.043C686.542 117.388 685.769 116.349 685.453 115.142C685.137 113.935 685.304 112.653 685.917 111.565C686.531 110.477 687.544 109.666 688.746 109.303C689.947 108.939 691.244 109.051 692.364 109.614L692.819 109.866Z" fill="#803E3C"/>
<path d="M709.58 106.477L707.647 104.426C706.53 101.706 710.305 100.889 710.305 100.889L711.962 99.7459C712.267 99.5689 712.626 99.5045 712.974 99.5641C713.323 99.6237 713.639 99.8034 713.867 100.072L715.219 101.494C715.514 101.77 715.689 102.15 715.707 102.553C715.724 102.956 715.582 103.349 715.311 103.649L714.051 104.849C713.684 105.198 713.235 105.452 712.745 105.586L709.58 106.477Z" fill="#7F3E3B"/>
<path d="M682.905 105.745C684.09 104.163 687.721 104.568 691.415 108.145C692.33 108.105 694.701 110.237 697.451 110.928C700.201 111.62 701.105 116.528 700.604 118.488C700.081 120.545 699.045 121.916 696.479 122.185C693.912 122.454 690.535 120.808 687.813 118.757C685.092 116.705 680.793 108.551 682.905 105.745Z" fill="#1070B7"/>
<path d="M681.553 104.489C676.407 104.517 671.274 105.01 666.218 105.963C665.385 106.135 664.596 106.475 663.899 106.961C663.203 107.447 662.613 108.069 662.167 108.789C661.721 109.509 661.428 110.312 661.305 111.148C661.183 111.985 661.233 112.838 661.454 113.654C665.24 127.939 663.1 143.579 663.399 146.442C663.399 146.442 693.538 150.75 698.158 141.87C700.615 130.019 693.814 125.225 690.195 111.083C689.649 109.213 688.516 107.565 686.962 106.379C685.407 105.193 683.512 104.531 681.553 104.489V104.489Z" fill="#1070B7"/>
<path opacity="0.8" d="M681.553 104.489C676.407 104.517 671.274 105.01 666.218 105.963C665.385 106.135 664.596 106.475 663.899 106.961C663.203 107.447 662.613 108.069 662.167 108.789C661.721 109.509 661.428 110.312 661.305 111.148C661.183 111.985 661.233 112.838 661.454 113.654C665.24 127.939 663.1 143.579 663.399 146.442C663.399 146.442 693.538 150.75 698.158 141.87C700.615 130.019 693.814 125.225 690.195 111.083C689.649 109.213 688.516 107.565 686.962 106.379C685.407 105.193 683.512 104.531 681.553 104.489V104.489Z" fill="white"/>
<g opacity="0.2">
<path opacity="0.2" d="M667.434 145.481C667.416 145.479 667.398 145.474 667.382 145.465C667.366 145.456 667.352 145.444 667.341 145.429C667.33 145.415 667.321 145.399 667.317 145.381C667.312 145.363 667.311 145.345 667.313 145.327C667.313 145.159 667.33 144.982 667.365 144.796C667.369 144.76 667.387 144.727 667.415 144.704C667.443 144.68 667.478 144.668 667.514 144.67C667.532 144.671 667.55 144.676 667.566 144.685C667.582 144.693 667.596 144.704 667.607 144.718C667.618 144.732 667.627 144.748 667.632 144.766C667.636 144.783 667.638 144.801 667.635 144.819C667.635 145.007 667.635 145.19 667.584 145.361C667.579 145.397 667.561 145.429 667.533 145.451C667.505 145.474 667.47 145.485 667.434 145.481V145.481Z" fill="#1070B7"/>
<path opacity="0.2" d="M667.553 143.841C667.517 143.838 667.484 143.822 667.46 143.795C667.437 143.769 667.424 143.734 667.426 143.698C667.426 143.35 667.426 142.984 667.426 142.596C667.428 142.56 667.443 142.526 667.468 142.5C667.494 142.475 667.528 142.46 667.564 142.459V142.459C667.6 142.461 667.634 142.478 667.659 142.504C667.683 142.531 667.697 142.565 667.697 142.601C667.697 142.99 667.697 143.361 667.662 143.71C667.662 143.741 667.652 143.772 667.632 143.796C667.612 143.82 667.584 143.836 667.553 143.841ZM667.599 141.63C667.562 141.63 667.527 141.616 667.501 141.59C667.475 141.564 667.461 141.529 667.461 141.493V141.43C667.461 141.087 667.461 140.744 667.461 140.384C667.46 140.367 667.463 140.349 667.469 140.332C667.475 140.316 667.485 140.3 667.497 140.288C667.51 140.275 667.525 140.265 667.541 140.258C667.557 140.251 667.575 140.247 667.593 140.247C667.611 140.246 667.63 140.249 667.647 140.256C667.664 140.263 667.679 140.273 667.692 140.286C667.705 140.298 667.716 140.314 667.722 140.331C667.729 140.348 667.732 140.366 667.731 140.384C667.731 140.739 667.731 141.087 667.731 141.424V141.493C667.731 141.528 667.717 141.562 667.693 141.588C667.668 141.613 667.634 141.629 667.599 141.63V141.63ZM667.57 139.413C667.535 139.413 667.501 139.399 667.476 139.374C667.452 139.35 667.438 139.316 667.438 139.281C667.438 138.916 667.438 138.55 667.409 138.173C667.408 138.155 667.411 138.137 667.417 138.12C667.423 138.103 667.433 138.088 667.445 138.074C667.457 138.061 667.472 138.05 667.489 138.043C667.505 138.035 667.523 138.031 667.541 138.03C667.578 138.03 667.613 138.045 667.639 138.07C667.665 138.096 667.679 138.131 667.679 138.167C667.679 138.544 667.679 138.91 667.679 139.276C667.68 139.293 667.677 139.311 667.671 139.328C667.665 139.344 667.655 139.36 667.643 139.372C667.63 139.385 667.615 139.395 667.599 139.402C667.583 139.409 667.565 139.413 667.547 139.413H667.57ZM667.507 137.202C667.471 137.202 667.437 137.188 667.411 137.163C667.385 137.139 667.37 137.105 667.369 137.07C667.369 136.704 667.369 136.333 667.323 135.962C667.322 135.926 667.336 135.891 667.361 135.864C667.385 135.838 667.419 135.822 667.455 135.819V135.819C667.491 135.819 667.525 135.832 667.551 135.857C667.576 135.881 667.591 135.915 667.593 135.95C667.593 136.327 667.593 136.693 667.639 137.059C667.639 137.095 667.626 137.129 667.601 137.156C667.576 137.182 667.543 137.199 667.507 137.202V137.202ZM667.409 134.967C667.375 134.967 667.342 134.954 667.317 134.931C667.293 134.907 667.278 134.875 667.276 134.842C667.276 134.476 667.236 134.104 667.219 133.733C667.217 133.698 667.23 133.663 667.253 133.636C667.277 133.61 667.31 133.593 667.346 133.59V133.59C667.381 133.591 667.414 133.606 667.44 133.63C667.465 133.654 667.481 133.687 667.484 133.722L667.535 134.824C667.537 134.842 667.535 134.86 667.529 134.877C667.524 134.894 667.515 134.909 667.503 134.923C667.491 134.936 667.477 134.947 667.46 134.955C667.444 134.962 667.427 134.967 667.409 134.967ZM667.294 132.756C667.259 132.755 667.227 132.742 667.201 132.718C667.176 132.695 667.16 132.664 667.156 132.63C667.156 132.265 667.115 131.893 667.092 131.522C667.092 131.485 667.107 131.45 667.133 131.425C667.159 131.399 667.194 131.385 667.23 131.385C667.267 131.385 667.302 131.399 667.328 131.425C667.354 131.45 667.369 131.485 667.369 131.522C667.369 131.893 667.409 132.265 667.432 132.63C667.433 132.666 667.421 132.7 667.398 132.727C667.374 132.754 667.341 132.77 667.305 132.773L667.294 132.756ZM667.161 130.55C667.126 130.55 667.091 130.537 667.066 130.512C667.04 130.488 667.025 130.454 667.023 130.419C667.023 130.053 666.977 129.682 666.949 129.316C666.947 129.298 666.949 129.279 666.955 129.262C666.961 129.245 666.971 129.229 666.983 129.216C666.995 129.202 667.011 129.191 667.027 129.184C667.044 129.177 667.062 129.173 667.081 129.173C667.099 129.172 667.117 129.174 667.134 129.179C667.151 129.185 667.166 129.194 667.18 129.205C667.193 129.217 667.204 129.232 667.212 129.248C667.22 129.264 667.224 129.281 667.225 129.299C667.225 129.665 667.271 130.036 667.3 130.402C667.3 130.42 667.297 130.438 667.291 130.455C667.285 130.472 667.275 130.487 667.263 130.5C667.251 130.514 667.236 130.524 667.22 130.532C667.203 130.54 667.185 130.544 667.167 130.545L667.161 130.55ZM667.012 128.339C666.976 128.339 666.942 128.325 666.916 128.301C666.89 128.276 666.875 128.243 666.874 128.207C666.874 127.842 666.822 127.47 666.793 127.105C666.793 127.068 666.808 127.033 666.834 127.008C666.86 126.982 666.895 126.968 666.931 126.968C666.968 126.968 667.003 126.982 667.029 127.008C667.055 127.033 667.069 127.068 667.069 127.105C667.069 127.47 667.121 127.836 667.15 128.207C667.152 128.244 667.139 128.281 667.114 128.308C667.089 128.336 667.055 128.353 667.018 128.356L667.012 128.339ZM666.845 126.128C666.811 126.128 666.778 126.114 666.753 126.091C666.729 126.068 666.714 126.036 666.713 126.002L666.626 124.899C666.622 124.879 666.622 124.858 666.627 124.839C666.632 124.819 666.641 124.8 666.654 124.785C666.667 124.769 666.684 124.756 666.702 124.747C666.721 124.739 666.741 124.734 666.762 124.734C666.782 124.734 666.802 124.739 666.821 124.747C666.839 124.756 666.856 124.769 666.869 124.785C666.882 124.8 666.891 124.819 666.896 124.839C666.901 124.858 666.901 124.879 666.897 124.899L666.983 126.002C666.985 126.02 666.983 126.038 666.977 126.055C666.972 126.072 666.963 126.088 666.951 126.102C666.939 126.116 666.925 126.127 666.909 126.136C666.892 126.144 666.875 126.149 666.856 126.15L666.845 126.128ZM666.672 123.922C666.638 123.922 666.604 123.909 666.579 123.886C666.553 123.863 666.537 123.831 666.534 123.796L666.442 122.693C666.439 122.658 666.45 122.622 666.472 122.595C666.495 122.567 666.527 122.549 666.563 122.545C666.581 122.542 666.6 122.544 666.618 122.549C666.635 122.554 666.652 122.563 666.666 122.575C666.68 122.587 666.691 122.601 666.699 122.618C666.707 122.634 666.712 122.652 666.713 122.67L666.805 123.773C666.808 123.809 666.797 123.844 666.775 123.872C666.752 123.9 666.719 123.918 666.684 123.922H666.672ZM666.482 121.71C666.448 121.712 666.415 121.7 666.389 121.678C666.363 121.656 666.347 121.624 666.344 121.59C666.31 121.213 666.275 120.848 666.241 120.488C666.237 120.451 666.248 120.415 666.271 120.387C666.294 120.358 666.328 120.34 666.364 120.336C666.401 120.332 666.438 120.343 666.466 120.366C666.495 120.389 666.513 120.423 666.517 120.459C666.551 120.825 666.586 121.19 666.615 121.568C666.616 121.585 666.614 121.602 666.609 121.619C666.604 121.635 666.596 121.651 666.584 121.664C666.573 121.677 666.559 121.688 666.544 121.696C666.528 121.704 666.511 121.709 666.494 121.71H666.482ZM666.275 119.539C666.242 119.538 666.21 119.526 666.184 119.504C666.159 119.482 666.143 119.452 666.137 119.419C666.103 119.042 666.068 118.671 666.028 118.316C666.026 118.298 666.028 118.28 666.034 118.263C666.039 118.246 666.048 118.23 666.06 118.216C666.072 118.202 666.086 118.191 666.102 118.182C666.119 118.174 666.136 118.169 666.154 118.168C666.172 118.165 666.19 118.167 666.208 118.171C666.225 118.176 666.241 118.185 666.255 118.196C666.269 118.207 666.281 118.221 666.289 118.237C666.298 118.253 666.303 118.27 666.304 118.288C666.339 118.648 666.379 119.013 666.413 119.391C666.415 119.409 666.413 119.427 666.407 119.444C666.402 119.461 666.393 119.477 666.381 119.491C666.369 119.505 666.355 119.516 666.339 119.524C666.323 119.533 666.305 119.538 666.287 119.539H666.275ZM666.057 117.339C666.039 117.34 666.022 117.337 666.006 117.331C665.989 117.325 665.974 117.316 665.961 117.305C665.949 117.293 665.938 117.279 665.931 117.263C665.923 117.248 665.919 117.231 665.919 117.213C665.876 116.833 665.836 116.467 665.798 116.116C665.794 116.08 665.805 116.044 665.827 116.015C665.85 115.987 665.882 115.968 665.919 115.962C665.937 115.96 665.955 115.963 665.972 115.968C665.99 115.973 666.006 115.982 666.02 115.994C666.034 116.006 666.045 116.02 666.053 116.036C666.062 116.052 666.067 116.07 666.068 116.088C666.108 116.431 666.149 116.802 666.189 117.185C666.191 117.203 666.19 117.221 666.185 117.239C666.181 117.256 666.172 117.273 666.161 117.287C666.15 117.302 666.136 117.314 666.12 117.322C666.104 117.331 666.086 117.337 666.068 117.339H666.057Z" fill="#1070B7"/>
<path opacity="0.2" d="M665.805 115.122C665.774 115.123 665.744 115.113 665.72 115.094C665.696 115.075 665.679 115.049 665.672 115.019L665.609 114.476C665.611 114.444 665.625 114.414 665.647 114.391C665.67 114.368 665.7 114.353 665.732 114.35C665.764 114.346 665.797 114.354 665.824 114.372C665.851 114.39 665.87 114.417 665.879 114.448L665.943 114.956C665.948 114.993 665.939 115.031 665.918 115.062C665.896 115.092 665.864 115.114 665.828 115.122H665.805Z" fill="#1070B7"/>
</g>
<path d="M669.453 120.036L668.768 121.579L668.06 123.213C667.588 124.31 667.151 125.419 666.714 126.516C666.277 127.613 665.903 128.733 665.529 129.83C665.155 130.927 664.855 132.03 664.579 133.122L664.418 131.127C664.452 131.213 664.468 131.304 664.464 131.396C664.54 131.547 664.604 131.703 664.654 131.864C664.857 132.262 665.089 132.644 665.35 133.007C665.983 133.91 666.675 134.771 667.422 135.584C668.198 136.464 669.038 137.339 669.907 138.213L672.548 140.853L672.629 140.933C673.014 141.33 673.252 141.845 673.306 142.393C673.359 142.942 673.225 143.492 672.924 143.956C672.622 144.419 672.173 144.767 671.647 144.945C671.122 145.122 670.551 145.118 670.028 144.933C668.732 144.438 667.468 143.866 666.242 143.218C665.007 142.578 663.81 141.869 662.657 141.093C661.424 140.271 660.268 139.34 659.205 138.31C658.606 137.725 658.051 137.099 657.542 136.436C657.266 136.053 657.001 135.653 656.754 135.253C656.501 134.762 656.27 134.259 656.052 133.75C655.861 133.303 655.786 132.816 655.833 132.333L655.891 131.762C656.019 130.344 656.227 128.934 656.512 127.539C656.8 126.152 657.159 124.781 657.588 123.43C657.991 122.088 658.463 120.785 658.981 119.493C659.245 118.853 659.51 118.208 659.809 117.573C659.959 117.259 660.103 116.939 660.264 116.625L660.787 115.619C661.377 114.517 662.372 113.682 663.565 113.29C664.759 112.898 666.058 112.979 667.194 113.515C668.329 114.052 669.212 115.003 669.658 116.169C670.105 117.336 670.081 118.629 669.591 119.779L669.453 120.036Z" fill="#803E3C"/>
<path d="M671.438 141.824L670.466 143.304C669.827 146.161 673.682 146.35 673.682 146.35L675.506 147.184C675.836 147.309 676.2 147.314 676.533 147.198C676.866 147.082 677.146 146.852 677.325 146.55L678.418 144.921C678.663 144.6 678.773 144.197 678.723 143.797C678.674 143.397 678.469 143.031 678.153 142.779L676.703 141.807C676.284 141.523 675.799 141.348 675.293 141.299L673.044 141.07C672.732 141.04 672.419 141.094 672.136 141.226C671.853 141.359 671.612 141.566 671.438 141.824V141.824Z" fill="#7F3E3B"/>
<path d="M665.068 107.443C663.117 107.083 660.464 110.837 660.05 114.986C658.393 116.7 658.238 119.517 656.88 121.991C654.135 127.065 656.437 128.74 658.249 129.688C662.116 131.722 666.449 130.968 667.599 128.682C668.75 126.397 669.987 123.711 670.333 120.357C670.822 115.42 668.52 108.112 665.068 107.443Z" fill="#1070B7"/>
<path d="M693.735 119.231L687.02 119.74C686.849 119.737 686.684 119.68 686.548 119.577C686.413 119.474 686.314 119.331 686.266 119.168L685.34 116.26C685.31 116.194 685.297 116.122 685.301 116.05C685.305 115.978 685.326 115.908 685.362 115.845C685.399 115.783 685.45 115.73 685.511 115.691C685.572 115.652 685.641 115.627 685.714 115.62L692.434 115.106C692.605 115.108 692.771 115.164 692.906 115.267C693.042 115.37 693.141 115.514 693.188 115.677L694.109 118.58C694.141 118.646 694.156 118.72 694.153 118.793C694.15 118.867 694.13 118.939 694.093 119.003C694.056 119.066 694.004 119.121 693.942 119.161C693.88 119.2 693.809 119.225 693.735 119.231V119.231Z" fill="white"/>
<path d="M681.788 106.032C681.334 105.278 680.636 104.698 679.809 104.386C679.46 103.627 679.384 102.771 679.596 101.963L670.275 99.6262C671.195 102.586 671.92 104.923 670.89 106.449C672.755 107.426 676.069 109.306 679.671 109.506C682.375 109.649 682.45 107.255 681.788 106.032Z" fill="#7F3E3B"/>
<path opacity="0.2" d="M679.539 102.248H672.635C674.936 104.397 678.227 105.054 679.654 104.037C679.465 103.46 679.426 102.845 679.539 102.248Z" fill="black"/>
<path d="M680.851 96.1911C682.002 94.5968 682.313 92.2255 681.427 91.8998C681.501 90.2884 681.306 88.597 679.7 88.317C679.248 88.2369 678.783 88.2551 678.338 88.3702C677.893 88.4854 677.478 88.6948 677.122 88.9842C676.766 89.2735 676.478 89.6359 676.276 90.0465C676.075 90.457 675.965 90.906 675.955 91.3626C673.641 94.0083 677.335 97.0768 680.851 96.1911Z" fill="#E0E0E0"/>
<path d="M668.521 94.7516C669.671 98.9629 670.517 101.803 673.371 103.106C679.056 105.694 681.559 102.769 681.72 98.2943C681.864 94.2944 679.994 88.0489 675.437 87.2318C674.429 87.0497 673.39 87.1248 672.419 87.4502C671.448 87.7756 670.576 88.3405 669.885 89.092C669.193 89.8436 668.706 90.7571 668.467 91.747C668.228 92.7369 668.247 93.7707 668.521 94.7516V94.7516Z" fill="#7F3E3B"/>
<path d="M678.44 98.5629C678.68 98.5515 678.919 98.5189 679.153 98.4657C679.169 98.4625 679.184 98.456 679.198 98.4465C679.211 98.437 679.222 98.4248 679.23 98.4108C679.238 98.3967 679.243 98.3811 679.245 98.365C679.247 98.3488 679.245 98.3325 679.24 98.3171C679.229 98.2844 679.207 98.2566 679.177 98.2387C679.148 98.2209 679.113 98.2142 679.078 98.22C678.549 98.3404 677.998 98.3407 677.468 98.2211C676.939 98.1014 676.443 97.8647 676.017 97.5286C675.993 97.5065 675.961 97.4943 675.928 97.4943C675.895 97.4943 675.863 97.5065 675.839 97.5286C675.827 97.5398 675.817 97.5535 675.81 97.5688C675.803 97.584 675.8 97.6005 675.8 97.6172C675.8 97.6338 675.803 97.6503 675.81 97.6656C675.817 97.6808 675.827 97.6945 675.839 97.7057C676.568 98.3039 677.495 98.6097 678.44 98.5629V98.5629Z" fill="#263238"/>
<path d="M668.975 97.7397C670.638 96.6483 671.725 94.5227 671.023 93.9112C671.656 92.4313 671.921 90.277 670.672 89.9685C669.424 89.6599 667.03 89.5571 666.098 91.5456C662.968 93.2198 665.367 97.3626 668.975 97.7397Z" fill="#E0E0E0"/>
<path opacity="0.2" d="M674.327 94.4428C674.07 94.3804 673.803 94.3689 673.541 94.4091C673.279 94.4493 673.028 94.5404 672.802 94.6771C673.321 94.6995 673.839 94.6199 674.327 94.4428V94.4428Z" fill="black"/>
<path opacity="0.2" d="M674.361 94.8083C674.117 94.8043 673.875 94.8533 673.652 94.952C673.43 95.0508 673.231 95.1968 673.072 95.3798C673.537 95.2829 673.977 95.088 674.361 94.8083V94.8083Z" fill="black"/>
<path opacity="0.2" d="M680.258 93.317C680.258 93.317 680.569 92.8599 680.833 93.0599C680.682 93.2156 680.476 93.3077 680.258 93.317V93.317Z" fill="black"/>
<path opacity="0.2" d="M680.361 93.6489C680.361 93.6489 680.609 93.2432 680.833 93.5803C680.772 93.6394 680.693 93.6777 680.608 93.69C680.524 93.7023 680.437 93.6879 680.361 93.6489V93.6489Z" fill="black"/>
<path opacity="0.2" d="M678.112 89.6207C676.812 89.5724 675.513 89.7267 674.262 90.0778C675.553 89.9967 676.838 89.8441 678.112 89.6207Z" fill="black"/>
<path opacity="0.2" d="M678.682 90.2313C678.682 90.2313 675.724 90.4199 674.326 91.237C675.806 91.0356 677.264 90.6989 678.682 90.2313V90.2313Z" fill="black"/>
<path d="M667.761 99.0889C668.083 99.5268 668.489 99.8968 668.956 100.177C669.424 100.458 669.942 100.643 670.482 100.723C671.927 100.929 672.473 99.5803 671.927 98.3346C671.426 97.1918 670.074 95.7233 668.693 96.1004C668.392 96.1857 668.118 96.3441 667.894 96.5613C667.671 96.7784 667.505 97.0475 667.412 97.3441C667.32 97.6408 667.303 97.9557 667.364 98.2603C667.425 98.5649 667.561 98.8497 667.761 99.0889V99.0889Z" fill="#7F3E3B"/>
<path d="M675.511 94.4428C675.58 94.7913 675.828 95.0142 676.052 94.9856C676.277 94.957 676.409 94.6142 676.34 94.2713C676.271 93.9285 676.029 93.6999 675.799 93.7285C675.569 93.7571 675.425 94.0942 675.511 94.4428Z" fill="#263238"/>
<path d="M679.234 93.7461C679.303 94.0947 679.545 94.3176 679.775 94.289C680.005 94.2604 680.132 93.9233 680.063 93.5747C679.994 93.2262 679.746 93.0033 679.522 93.0319C679.297 93.0604 679.159 93.3976 679.234 93.7461Z" fill="#263238"/>
<path d="M678.082 94.2655L678.658 97.1911C679.284 97.217 679.898 97.0136 680.384 96.6197C679.845 95.6429 679.05 94.8294 678.082 94.2655V94.2655Z" fill="#630F0F"/>
<path d="M674.177 93.6201C674.141 93.6286 674.104 93.6286 674.068 93.6201C674.042 93.6123 674.017 93.5994 673.996 93.5822C673.975 93.565 673.958 93.5439 673.945 93.52C673.932 93.4961 673.924 93.47 673.921 93.443C673.919 93.4161 673.922 93.3889 673.93 93.363C674.019 93.0424 674.184 92.7476 674.411 92.5032C674.639 92.2587 674.921 92.0715 675.236 91.9573C675.262 91.9495 675.29 91.947 675.317 91.9499C675.345 91.9529 675.371 91.9613 675.395 91.9746C675.42 91.9879 675.441 92.0059 675.458 92.0274C675.475 92.049 675.487 92.0737 675.495 92.1001C675.509 92.1532 675.502 92.2096 675.475 92.2576C675.448 92.3056 675.404 92.3414 675.351 92.3573V92.3573C675.102 92.4544 674.88 92.6086 674.703 92.8072C674.526 93.0059 674.399 93.2433 674.332 93.5001C674.318 93.5311 674.297 93.5581 674.27 93.579C674.242 93.5999 674.211 93.614 674.177 93.6201V93.6201Z" fill="#E0E0E0"/>
<path d="M681.035 92.2886C681.001 92.2951 680.966 92.2933 680.933 92.2833C680.9 92.2734 680.87 92.2555 680.845 92.2314C680.669 92.0375 680.448 91.8885 680.202 91.797C679.956 91.7055 679.691 91.6742 679.43 91.7057C679.402 91.7115 679.374 91.7118 679.347 91.7066C679.32 91.7013 679.294 91.6906 679.271 91.6751C679.247 91.6597 679.228 91.6397 679.213 91.6165C679.197 91.5933 679.187 91.5673 679.182 91.54C679.174 91.4857 679.186 91.4301 679.217 91.3845C679.248 91.3389 679.295 91.3067 679.349 91.2943C679.684 91.2458 680.026 91.2792 680.345 91.3918C680.664 91.5043 680.95 91.6925 681.179 91.94C681.198 91.9591 681.214 91.9818 681.224 92.0068C681.234 92.0318 681.24 92.0586 681.24 92.0857C681.24 92.1128 681.234 92.1396 681.224 92.1646C681.214 92.1896 681.198 92.2123 681.179 92.2314C681.161 92.2508 681.138 92.2659 681.113 92.2757C681.088 92.2856 681.062 92.29 681.035 92.2886V92.2886Z" fill="#E0E0E0"/>
<path d="M682.392 113.637C677.473 113.162 667.501 106.654 671.339 105.271C673.801 107.963 678.244 108.665 680.16 108.665C680.873 107.991 681.552 106.083 679.809 104.385C681.811 104.214 685.821 110.328 682.392 113.637Z" fill="#1070B7"/>
<path d="M811.64 165.738H850.669C851.28 165.738 851.865 165.497 852.297 165.068C852.728 164.64 852.971 164.058 852.971 163.452C852.971 162.846 852.728 162.265 852.297 161.836C851.865 161.407 851.28 161.167 850.669 161.167H811.64C811.03 161.167 810.444 161.407 810.013 161.836C809.581 162.265 809.339 162.846 809.339 163.452C809.339 164.058 809.581 164.64 810.013 165.068C810.444 165.497 811.03 165.738 811.64 165.738Z" fill="#1070B7"/>
<path d="M856.617 161.149H857.917L862.871 129.047H861.571L856.617 161.149Z" fill="#263238"/>
<path d="M836.796 161.149H838.097L843.051 129.047H841.756L836.796 161.149Z" fill="#263238"/>
<path d="M836.745 154.698H862.194C863.046 154.671 863.862 154.351 864.504 153.794C865.146 153.237 865.574 152.476 865.716 151.641L869.6 124.842C869.669 124.463 869.652 124.073 869.551 123.701C869.45 123.329 869.266 122.984 869.014 122.691C868.761 122.399 868.447 122.165 868.092 122.009C867.737 121.852 867.352 121.775 866.964 121.785H841.515C840.663 121.812 839.847 122.131 839.206 122.689C838.565 123.246 838.138 124.007 837.999 124.842L834.109 151.641C834.04 152.021 834.056 152.41 834.158 152.782C834.259 153.154 834.443 153.499 834.695 153.792C834.947 154.085 835.262 154.318 835.617 154.475C835.971 154.632 836.357 154.708 836.745 154.698V154.698Z" fill="#1070B7"/>
<path opacity="0.4" d="M869.599 124.842L865.715 151.642C865.612 152.291 865.329 152.898 864.898 153.396C863.966 154.487 862.308 153.893 862.504 152.562L866.658 123.922C866.848 122.591 868.678 121.997 869.294 123.088C869.587 123.624 869.694 124.24 869.599 124.842V124.842Z" fill="white"/>
<path d="M840.507 165.738H858.344C858.955 165.738 859.54 165.497 859.972 165.068C860.403 164.64 860.646 164.058 860.646 163.452C860.646 162.846 860.403 162.265 859.972 161.836C859.54 161.407 858.955 161.167 858.344 161.167H840.507C839.896 161.167 839.311 161.407 838.879 161.836C838.448 162.265 838.205 162.846 838.205 163.452C838.205 164.058 838.448 164.64 838.879 165.068C839.311 165.497 839.896 165.738 840.507 165.738Z" fill="#1070B7"/>
<path opacity="0.4" d="M840.507 165.738H858.344C858.955 165.738 859.54 165.497 859.972 165.068C860.403 164.64 860.646 164.058 860.646 163.452C860.646 162.846 860.403 162.265 859.972 161.836C859.54 161.407 858.955 161.167 858.344 161.167H840.507C839.896 161.167 839.311 161.407 838.879 161.836C838.448 162.265 838.205 162.846 838.205 163.452C838.205 164.058 838.448 164.64 838.879 165.068C839.311 165.497 839.896 165.738 840.507 165.738Z" fill="white"/>
<path d="M830.788 193.388H832.083L837.043 165.743H835.742L830.788 193.388Z" fill="#263238"/>
<path d="M808.273 193.388H809.568L814.522 165.743H813.227L808.273 193.388Z" fill="#263238"/>
<path d="M839.506 193.388H838.205L833.251 165.743H834.552L839.506 193.388Z" fill="#263238"/>
<path d="M862.021 193.388H860.72L855.766 165.743H857.066L862.021 193.388Z" fill="#263238"/>
<path d="M818.613 105.214C820.005 107.025 820.73 106.551 821.668 104.265C822.243 102.796 823.9 103.442 824.286 100.837C824.441 99.7565 820.995 97.6766 819.107 98.2366C817.22 98.7966 817.548 103.802 818.613 105.214Z" fill="#263238"/>
<path d="M821.49 116.99C820.903 116.822 820.289 116.77 819.682 116.838C819.075 116.905 818.487 117.091 817.953 117.385C817.418 117.678 816.947 118.074 816.567 118.548C816.187 119.023 815.904 119.567 815.736 120.15L815.644 120.459L815.402 121.299L815.12 122.225C814.919 122.842 814.718 123.459 814.487 124.059C814.07 125.215 813.572 126.342 812.997 127.43C812.531 128.317 811.951 129.139 811.271 129.876C811.076 130.087 810.86 130.279 810.627 130.447C810.281 130.224 809.93 129.99 809.579 129.727C808.637 129.022 807.73 128.271 806.863 127.476C805.949 126.665 805.057 125.796 804.159 124.905C803.261 124.013 802.364 123.076 801.506 122.219L801.403 122.116C801.024 121.741 800.527 121.507 799.995 121.451C799.463 121.396 798.928 121.523 798.479 121.811C798.03 122.1 797.693 122.532 797.526 123.037C797.359 123.541 797.371 124.088 797.559 124.585C798.069 125.895 798.663 127.172 799.337 128.407C800.008 129.646 800.746 130.848 801.547 132.007C802.381 133.216 803.304 134.362 804.309 135.436C805.408 136.632 806.655 137.686 808.02 138.573C808.574 138.919 809.213 139.107 809.867 139.116H810.212C811.513 139.122 812.802 138.88 814.01 138.401C815.115 137.961 816.146 137.354 817.065 136.601C818.604 135.325 819.913 133.799 820.938 132.087C821.85 130.594 822.621 129.02 823.239 127.384C823.544 126.59 823.815 125.802 824.062 124.996C824.183 124.59 824.304 124.185 824.407 123.773L824.557 123.15L824.712 122.447C824.973 121.302 824.785 120.1 824.186 119.087C823.588 118.074 822.624 117.324 821.49 116.99V116.99Z" fill="black"/>
<path d="M793.215 122.533L794.665 123.676C795.241 124.129 795.908 124.452 796.622 124.625L798.607 125.111C799.057 125.22 799.53 125.201 799.97 125.054C800.411 124.907 800.8 124.64 801.092 124.282C801.495 123.796 801.691 123.174 801.639 122.546C801.588 121.919 801.293 121.337 800.816 120.922C800.074 120.334 799.248 119.859 798.365 119.511L796.334 118.328C795.999 118.134 795.606 118.064 795.225 118.131C794.843 118.198 794.498 118.397 794.251 118.694L792.974 120.231C792.835 120.397 792.732 120.589 792.669 120.795C792.606 121.001 792.586 121.218 792.608 121.432C792.631 121.647 792.696 121.855 792.8 122.044C792.904 122.233 793.045 122.399 793.215 122.533V122.533Z" fill="#FFB573"/>
<path d="M832.773 113.94C828.015 114.323 822.664 114.923 818.63 116.797C817.655 117.272 816.857 118.044 816.353 118.999C815.848 119.954 815.662 121.044 815.822 122.111C816.426 126.579 816.898 130.042 817.997 133.722C820.374 141.722 814.614 145.225 819.971 151.407C822.318 154.053 836.709 156.55 846.899 153.219C848.223 147.75 847.601 136.705 845.956 124.522C845.544 121.416 843.946 118.586 841.493 116.617C839.039 114.647 835.918 113.689 832.773 113.94V113.94Z" fill="#263238"/>
<path d="M843.131 130.442C845.784 142.801 843.787 146.087 838.654 149.533C831.45 150.641 828.562 147.687 828.562 147.687L843.131 130.442Z" fill="black"/>
<path d="M826.576 132.264L832.82 132.304C832.967 132.305 833.109 132.248 833.217 132.147C833.324 132.046 833.388 131.908 833.395 131.762L833.562 129.104C833.571 129.034 833.565 128.963 833.544 128.896C833.524 128.828 833.49 128.766 833.444 128.712C833.398 128.658 833.341 128.614 833.277 128.584C833.213 128.553 833.144 128.536 833.073 128.533L826.83 128.493C826.682 128.493 826.54 128.549 826.433 128.65C826.326 128.751 826.262 128.889 826.254 129.036L826.087 131.693C826.078 131.763 826.083 131.834 826.103 131.902C826.123 131.97 826.157 132.033 826.203 132.087C826.249 132.141 826.306 132.185 826.371 132.215C826.435 132.246 826.505 132.263 826.576 132.264Z" fill="white"/>
<g opacity="0.2">
<path opacity="0.2" d="M823.198 123.768C823.156 123.768 823.115 123.755 823.08 123.732C823.045 123.708 823.018 123.675 823.002 123.637C822.986 123.585 822.989 123.529 823.013 123.48C823.036 123.431 823.078 123.393 823.129 123.374C826.668 122.128 831.697 118.911 833.273 116.877C833.288 116.851 833.308 116.829 833.332 116.812C833.355 116.795 833.383 116.783 833.411 116.777C833.44 116.771 833.47 116.771 833.499 116.778C833.528 116.784 833.555 116.797 833.578 116.814C833.602 116.832 833.621 116.854 833.635 116.88C833.649 116.906 833.658 116.934 833.66 116.963C833.662 116.992 833.658 117.022 833.648 117.049C833.638 117.077 833.622 117.102 833.601 117.123C831.795 119.448 826.564 122.597 823.244 123.757C823.23 123.763 823.214 123.767 823.198 123.768Z" fill="white"/>
<path opacity="0.2" d="M826.703 124.111H826.64C823.274 123.077 821.881 119.666 821.588 117.826C821.583 117.799 821.584 117.772 821.59 117.745C821.596 117.719 821.607 117.694 821.623 117.672C821.64 117.65 821.66 117.631 821.684 117.618C821.707 117.604 821.733 117.595 821.76 117.591C821.787 117.587 821.814 117.589 821.84 117.595C821.866 117.602 821.89 117.613 821.912 117.629C821.933 117.645 821.951 117.665 821.965 117.688C821.978 117.711 821.987 117.736 821.991 117.763C822.273 119.523 823.59 122.757 826.761 123.734C826.787 123.741 826.811 123.754 826.832 123.77C826.853 123.787 826.87 123.807 826.883 123.831C826.896 123.854 826.904 123.88 826.907 123.907C826.909 123.933 826.907 123.96 826.899 123.986C826.883 124.024 826.855 124.056 826.82 124.078C826.786 124.101 826.745 124.112 826.703 124.111Z" fill="white"/>
</g>
<path d="M829.804 107.448C829.712 109.802 830.339 113.385 832.151 114.745C832.351 114.893 832.512 115.087 832.619 115.31C832.726 115.533 832.777 115.779 832.767 116.026C832.756 116.273 832.686 116.514 832.56 116.728C832.435 116.942 832.259 117.122 832.048 117.253C830.73 118.088 827.146 119.899 825.356 119.899C823.567 119.899 822.531 117.933 822.732 116.968C822.85 116.507 823.112 116.095 823.48 115.791C824.689 114.699 823.802 113.573 823.308 112.756L829.804 107.448Z" fill="#FFB573"/>
<path opacity="0.2" d="M827.855 110.728C827.814 110.585 827.764 110.443 827.705 110.306L823.303 112.757C823.741 113.302 824.012 113.96 824.086 114.654C826.301 113.768 828.252 112.077 827.855 110.728Z" fill="black"/>
<path d="M800.937 181.172C801.662 180.417 806.375 178.983 806.375 178.983C807.607 182.496 808.623 186.079 809.418 189.714L803.331 190.32C803.331 190.32 802.33 184.194 800.937 181.172Z" fill="#FFB573"/>
<path d="M829.632 148.453C812.025 148.699 788.854 147.762 794.314 163.699C796.651 170.521 794.688 168.201 797.422 176.458C798.572 180.018 798.998 181.064 799.85 183.532C800.782 185.738 806.386 185.327 808.481 184.464C810.966 183.15 808.86 179.601 808.573 177.607C807.157 167.853 809.752 168.956 806.668 162.562C812.284 163.373 830.19 162.807 832.561 153.219C832.509 153.219 835.754 149.396 829.632 148.453Z" fill="#1070B7"/>
<path opacity="0.4" d="M829.632 148.453C812.025 148.699 788.854 147.762 794.314 163.699C796.651 170.521 794.688 168.201 797.422 176.458C798.572 180.018 798.998 181.064 799.85 183.532C800.782 185.738 806.386 185.327 808.481 184.464C810.966 183.15 808.86 179.601 808.573 177.607C807.157 167.853 809.752 168.956 806.668 162.562C812.284 163.373 830.19 162.807 832.561 153.219C832.509 153.219 835.754 149.396 829.632 148.453Z" fill="black"/>
<path d="M801.282 184.68L802.036 186.155C802.08 186.244 802.152 186.317 802.242 186.361C802.331 186.405 802.433 186.419 802.531 186.4C803.527 186.229 806.501 185.755 808.228 185.966C808.29 185.973 808.353 185.968 808.413 185.95C808.473 185.932 808.529 185.902 808.577 185.862C808.625 185.821 808.664 185.772 808.692 185.716C808.72 185.661 808.736 185.6 808.74 185.538C808.774 184.966 808.768 184.2 808.74 183.732C808.737 183.611 808.686 183.496 808.599 183.412C808.512 183.328 808.395 183.28 808.274 183.281C806.022 183.304 803.778 183.551 801.576 184.018C801.509 184.036 801.447 184.07 801.394 184.115C801.341 184.16 801.3 184.217 801.271 184.28C801.243 184.344 801.23 184.412 801.232 184.482C801.234 184.551 801.251 184.619 801.282 184.68V184.68Z" fill="#263238"/>
<path d="M810.742 193.543L810.069 189.292C810.046 189.193 809.988 189.106 809.905 189.046C809.823 188.986 809.722 188.958 809.62 188.966L803.377 188.995C802.875 188.962 802.375 189.095 801.956 189.372C800.552 190.514 798.371 191.657 795.206 192.229C794.205 192.423 794.631 194.394 796.979 194.383C800.863 194.383 800.701 194.246 804.01 194.234C806.841 194.234 807.549 194.36 809.798 194.383C809.917 194.397 810.038 194.385 810.152 194.349C810.266 194.313 810.372 194.253 810.461 194.174C810.55 194.095 810.621 193.997 810.67 193.889C810.718 193.78 810.743 193.662 810.742 193.543V193.543Z" fill="#263238"/>
<path d="M830.542 101.825C830.542 106.111 830.761 108.602 828.672 111.059C825.531 114.756 819.978 113.482 818.66 109.345C817.475 105.642 817.682 99.2539 821.883 97.0311C826.083 94.8083 830.548 97.5454 830.542 101.825Z" fill="#FFB573"/>
<path d="M822.583 103.717C822.554 104.105 822.738 104.431 822.991 104.448C823.245 104.465 823.481 104.168 823.509 103.78C823.538 103.391 823.354 103.06 823.101 103.042C822.848 103.025 822.612 103.328 822.583 103.717Z" fill="#263238"/>
<path d="M818.545 103.626C818.51 104.014 818.694 104.346 818.947 104.363C819.201 104.38 819.436 104.077 819.465 103.689C819.494 103.3 819.316 102.974 819.062 102.957C818.809 102.94 818.573 103.237 818.545 103.626Z" fill="#263238"/>
<path d="M829.666 105.454C827.543 106.323 827.157 105.552 827.514 103.106C827.738 101.54 826.001 101.277 826.996 98.826C827.41 97.8203 831.444 97.7403 832.75 99.1574C834.056 100.575 831.323 104.78 829.666 105.454Z" fill="#263238"/>
<path d="M828.786 99.9397C823.93 100.357 817.692 100.38 816.818 96.837C816.242 94.437 819.154 90.8428 823.642 94.3399C826.766 96.7627 829.799 95.2656 831.323 95.7855C832.71 96.2598 835.386 99.3683 828.786 99.9397Z" fill="#263238"/>
<path d="M831.933 99.3225C831.711 99.3206 831.49 99.2995 831.272 99.2596C831.237 99.2532 831.203 99.24 831.173 99.2208C831.143 99.2015 831.117 99.1766 831.097 99.1474C831.076 99.1183 831.062 99.0854 831.055 99.0507C831.047 99.016 831.047 98.9802 831.053 98.9453C831.059 98.9104 831.073 98.8771 831.092 98.8473C831.111 98.8176 831.137 98.7918 831.166 98.7717C831.195 98.7515 831.228 98.7373 831.263 98.7298C831.298 98.7224 831.334 98.7218 831.369 98.7282C831.662 98.8102 831.969 98.825 832.268 98.7716C832.568 98.7181 832.85 98.5978 833.096 98.4196C833.224 98.3141 833.326 98.1812 833.395 98.0307C833.464 97.8803 833.497 97.7163 833.493 97.5511C833.491 97.5156 833.497 97.4802 833.509 97.447C833.522 97.4138 833.541 97.3834 833.566 97.3578C833.591 97.3321 833.621 97.3118 833.653 97.2978C833.686 97.2839 833.722 97.2768 833.757 97.2768C833.793 97.276 833.828 97.2823 833.86 97.2951C833.893 97.308 833.923 97.3273 833.948 97.3517C833.973 97.3762 833.994 97.4055 834.007 97.4377C834.021 97.47 834.028 97.5046 834.028 97.5396C834.039 97.7844 833.992 98.0283 833.893 98.2523C833.793 98.4764 833.642 98.6744 833.452 98.831C833.024 99.1748 832.483 99.3498 831.933 99.3225V99.3225Z" fill="#263238"/>
<path d="M823.135 108.111C822.93 108.171 822.72 108.211 822.508 108.231C822.493 108.232 822.479 108.231 822.465 108.227C822.451 108.223 822.438 108.216 822.427 108.207C822.416 108.198 822.406 108.187 822.4 108.175C822.393 108.162 822.388 108.148 822.387 108.134C822.385 108.119 822.385 108.104 822.389 108.09C822.393 108.075 822.399 108.062 822.408 108.05C822.417 108.038 822.429 108.028 822.442 108.021C822.455 108.014 822.47 108.009 822.485 108.008C822.952 107.968 823.403 107.821 823.802 107.578C824.202 107.335 824.539 107.003 824.786 106.608C824.792 106.595 824.801 106.583 824.812 106.573C824.823 106.563 824.836 106.555 824.85 106.551C824.864 106.546 824.879 106.544 824.894 106.545C824.908 106.546 824.923 106.55 824.936 106.557C824.961 106.571 824.98 106.594 824.988 106.622C824.997 106.65 824.995 106.679 824.982 106.705C824.576 107.397 823.913 107.901 823.135 108.111V108.111Z" fill="#263238"/>
<path d="M823.827 101.38C823.866 101.375 823.906 101.382 823.941 101.4C823.976 101.419 824.005 101.447 824.022 101.483C824.138 101.71 824.305 101.906 824.511 102.057C824.717 102.208 824.955 102.309 825.208 102.351C825.237 102.35 825.267 102.354 825.295 102.365C825.322 102.375 825.347 102.392 825.368 102.413C825.389 102.434 825.405 102.459 825.415 102.487C825.425 102.515 825.429 102.545 825.426 102.574C825.424 102.603 825.415 102.632 825.4 102.658C825.386 102.683 825.366 102.706 825.342 102.723C825.318 102.74 825.29 102.752 825.261 102.758C825.232 102.764 825.202 102.764 825.173 102.757C824.854 102.708 824.55 102.585 824.288 102.397C824.026 102.209 823.813 101.963 823.665 101.677C823.652 101.654 823.644 101.628 823.641 101.602C823.638 101.575 823.64 101.549 823.648 101.523C823.655 101.498 823.668 101.474 823.685 101.453C823.702 101.432 823.722 101.415 823.746 101.403C823.77 101.387 823.798 101.379 823.827 101.38V101.38Z" fill="#263238"/>
<path d="M819.344 101.476C819.391 101.481 819.434 101.503 819.464 101.539C819.484 101.558 819.499 101.58 819.509 101.605C819.52 101.629 819.525 101.656 819.525 101.682C819.525 101.709 819.52 101.735 819.509 101.76C819.499 101.784 819.484 101.806 819.464 101.825C819.237 102.056 818.956 102.228 818.646 102.328C818.337 102.427 818.007 102.451 817.686 102.396C817.635 102.384 817.59 102.352 817.562 102.307C817.534 102.262 817.525 102.208 817.537 102.156C817.549 102.103 817.582 102.058 817.629 102.029C817.675 102 817.731 101.99 817.784 102.002C818.037 102.044 818.296 102.024 818.54 101.944C818.783 101.865 819.004 101.728 819.182 101.545C819.203 101.523 819.228 101.506 819.256 101.494C819.284 101.483 819.313 101.477 819.344 101.476V101.476Z" fill="#263238"/>
<path d="M832.301 106.008C831.819 106.932 830.994 107.633 830 107.962C828.665 108.374 827.957 107.197 828.274 105.928C828.573 104.785 829.632 103.191 830.989 103.334C831.284 103.371 831.565 103.48 831.807 103.652C832.049 103.824 832.243 104.053 832.374 104.319C832.504 104.584 832.565 104.878 832.553 105.172C832.54 105.467 832.454 105.755 832.301 106.008V106.008Z" fill="#FFB573"/>
<path d="M820.506 103.763C820.202 104.858 819.747 105.906 819.154 106.877C819.409 107.022 819.693 107.11 819.986 107.136C820.279 107.162 820.574 107.124 820.851 107.025L820.506 103.763Z" fill="#ED893E"/>
<path d="M818.521 180.846C819.165 180.023 823.699 178.121 823.699 178.121C825.281 181.493 826.657 184.956 827.819 188.492L821.824 189.703C821.824 189.703 820.213 183.715 818.521 180.846Z" fill="#FFB573"/>
<path d="M831.887 147.281C814.585 148.453 801.201 148.487 808.837 163.515C812.105 169.944 810.983 168.567 814.539 176.509C816.069 179.938 816.576 180.932 817.681 183.298C818.831 185.4 824.367 184.441 826.312 183.366C828.653 181.806 826.196 178.486 825.736 176.509C823.337 166.95 826.058 168.384 822.387 162.298C828.055 162.59 847.394 164.481 846.876 153.196C846.893 153.218 844.057 147.281 831.887 147.281Z" fill="#1070B7"/>
<path opacity="0.4" d="M831.887 147.281C814.585 148.453 801.201 148.487 808.837 163.515C812.105 169.944 810.983 168.567 814.539 176.509C816.069 179.938 816.576 180.932 817.681 183.298C818.831 185.4 824.367 184.441 826.312 183.366C828.653 181.806 826.196 178.486 825.736 176.509C823.337 166.95 826.058 168.384 822.387 162.298C828.055 162.59 847.394 164.481 846.876 153.196C846.893 153.218 844.057 147.281 831.887 147.281Z" fill="black"/>
<path d="M819.223 184.32L820.12 185.714C820.174 185.797 820.254 185.861 820.347 185.896C820.44 185.931 820.542 185.935 820.638 185.909C821.616 185.64 824.522 184.869 826.265 184.903C826.328 184.904 826.391 184.892 826.449 184.868C826.507 184.844 826.559 184.808 826.603 184.763C826.647 184.718 826.681 184.665 826.703 184.606C826.725 184.548 826.735 184.485 826.731 184.423C826.731 183.851 826.622 183.097 826.565 182.629C826.55 182.509 826.489 182.399 826.395 182.324C826.3 182.248 826.179 182.212 826.058 182.223C823.82 182.473 821.613 182.946 819.47 183.634C819.403 183.657 819.342 183.693 819.291 183.743C819.241 183.792 819.202 183.851 819.178 183.917C819.154 183.983 819.146 184.054 819.154 184.124C819.161 184.194 819.185 184.261 819.223 184.32V184.32Z" fill="#263238"/>
<path d="M829.534 191.891L828.285 187.589C828.25 187.494 828.181 187.415 828.09 187.367C828 187.32 827.895 187.307 827.796 187.332L821.622 188.257C821.121 188.296 820.646 188.497 820.27 188.829C818.706 190.642 816.552 191.855 814.182 192.257C813.181 192.451 813.607 194.423 815.955 194.411C819.833 194.411 819.666 193.909 822.94 193.429C825.42 193.069 826.467 193.057 828.694 192.857C828.816 192.857 828.936 192.83 829.047 192.78C829.157 192.729 829.256 192.656 829.335 192.564C829.415 192.473 829.474 192.365 829.508 192.249C829.542 192.133 829.551 192.011 829.534 191.891Z" fill="#263238"/>
<path d="M814.763 146.361L816.564 145.944C817.282 145.787 818.026 145.787 818.745 145.944L820.741 146.35C821.196 146.442 821.615 146.66 821.95 146.978C822.285 147.297 822.522 147.703 822.634 148.15V148.15C822.79 148.76 822.7 149.407 822.383 149.952C822.066 150.498 821.547 150.899 820.937 151.07C820.015 151.29 819.064 151.371 818.118 151.31L815.77 151.51C815.385 151.543 815 151.439 814.684 151.217C814.368 150.996 814.141 150.67 814.044 150.298L813.549 148.367C813.491 148.156 813.478 147.936 813.508 147.719C813.538 147.503 813.613 147.295 813.726 147.107C813.839 146.92 813.99 146.758 814.168 146.629C814.346 146.501 814.548 146.41 814.763 146.361V146.361Z" fill="#FFB573"/>
<path d="M843.327 125.659C843.206 124.059 843.062 122.527 842.815 120.876C842.637 119.686 841.999 118.612 841.037 117.882C840.074 117.151 838.863 116.822 837.661 116.964C836.458 117.106 835.358 117.708 834.595 118.642C833.832 119.577 833.466 120.769 833.574 121.967V122.036L833.954 126.378C834.086 127.841 834.195 129.31 834.293 130.756C834.339 131.481 834.379 132.201 834.408 132.915C834.437 133.63 834.472 134.344 834.477 135.041C834.477 135.904 834.477 136.755 834.477 137.578C833.827 138.035 833.137 138.498 832.435 138.95C831.123 139.784 829.759 140.63 828.367 141.441C826.974 142.252 825.564 143.081 824.149 143.898C822.733 144.715 821.272 145.544 819.903 146.384H819.862C819.476 146.642 819.193 147.026 819.062 147.469C818.93 147.913 818.959 148.388 819.143 148.812C819.54 150.029 820.323 150.904 821.577 150.629C823.274 150.258 824.891 149.806 826.525 149.321C828.159 148.835 829.765 148.292 831.37 147.698C832.975 147.104 834.581 146.475 836.175 145.721C837.868 144.967 839.497 144.08 841.048 143.069C841.841 142.532 842.396 141.715 842.602 140.784L842.677 140.441C843.034 138.745 843.27 137.027 843.384 135.298C843.517 133.641 843.54 132.03 843.534 130.418C843.528 128.807 843.442 127.241 843.327 125.659Z" fill="#263238"/>
<path d="M763.677 124.682C763.429 123.105 760.512 122.442 760.512 122.442L758.786 121.739C758.505 121.623 758.192 121.61 757.902 121.703C757.613 121.796 757.367 121.99 757.209 122.248L756.375 123.579C756.285 123.723 756.225 123.883 756.199 124.051C756.172 124.218 756.18 124.389 756.22 124.553C756.261 124.717 756.334 124.872 756.436 125.008C756.538 125.144 756.665 125.258 756.812 125.345L758.394 126.27C758.676 126.436 758.99 126.54 759.315 126.573L760.638 126.71C761.195 126.768 761.757 126.666 762.259 126.419C762.76 126.171 763.18 125.786 763.469 125.31L763.55 125.185C763.649 125.037 763.694 124.859 763.677 124.682Z" fill="#FF8B7B"/>
<path d="M783.463 112.225C782.83 114.968 782.128 119.996 784.01 121.893C780.396 122.645 777.052 124.346 774.326 126.819C772.49 123.162 775.385 121.624 775.385 121.624C778.503 120.99 778.498 118.705 778.026 116.55L783.463 112.225Z" fill="#FF8B7B"/>
<path d="M773.71 124.19C774.671 121.276 772.358 120.693 776.317 119.493C779.412 118.55 785.178 118.808 786.49 119.848C787.22 120.419 786.104 122.185 786.104 122.185L773.71 124.19Z" fill="#E0E0E0"/>
<path d="M788.279 126.87L788.084 127.11L787.917 127.316L787.583 127.693C787.364 127.939 787.134 128.167 786.91 128.402C786.455 128.853 785.989 129.287 785.506 129.71C784.546 130.551 783.52 131.316 782.439 131.996C781.904 132.344 781.34 132.647 780.788 132.961C780.235 133.276 779.637 133.533 779.061 133.79C777.883 134.304 776.665 134.724 775.419 135.047L775.258 135.087C775.028 135.153 774.788 135.174 774.55 135.15C773.683 135.066 772.835 134.84 772.042 134.481C771.409 134.204 770.794 133.889 770.2 133.539C769.103 132.887 768.044 132.174 767.03 131.401C766.04 130.64 765.081 129.857 764.153 129.053C763.238 128.23 762.352 127.413 761.483 126.51C761.24 126.262 761.096 125.935 761.078 125.589C761.06 125.244 761.169 124.903 761.386 124.632C761.603 124.361 761.911 124.178 762.254 124.116C762.597 124.055 762.951 124.12 763.249 124.299H763.278C764.285 124.87 765.304 125.504 766.322 126.076C767.341 126.647 768.359 127.219 769.372 127.79C770.384 128.362 771.403 128.847 772.393 129.282C772.857 129.49 773.334 129.671 773.819 129.824C774.131 129.932 774.457 129.994 774.786 130.007L773.917 130.11C774.87 129.751 775.799 129.332 776.696 128.853C777.597 128.379 778.466 127.849 779.297 127.264C780.135 126.683 780.938 126.053 781.702 125.379C782.088 125.047 782.456 124.705 782.813 124.35L783.331 123.819L783.572 123.562L783.768 123.35L783.923 123.179C784.435 122.672 785.12 122.375 785.842 122.346C786.564 122.318 787.27 122.561 787.82 123.026C788.37 123.491 788.724 124.144 788.812 124.857C788.899 125.569 788.713 126.288 788.291 126.87H788.279Z" fill="#FF8B7B"/>
<path d="M766.772 127.853C766.772 129.71 763.71 133.904 767.266 136.504C767.577 140.264 767.997 143.967 768.808 150.144L787.797 150.715C785.984 143.858 787.543 139.327 790.438 127.459C790.597 126.809 790.617 126.134 790.496 125.476C790.375 124.819 790.116 124.194 789.737 123.642C789.357 123.09 788.864 122.624 788.291 122.273C787.718 121.923 787.077 121.696 786.41 121.607C785.656 121.51 784.85 121.419 784.033 121.356C781.167 121.059 778.282 120.967 775.402 121.082C774.47 121.139 773.504 121.225 772.583 121.327C770.97 121.501 769.48 122.266 768.405 123.473C767.33 124.68 766.748 126.242 766.772 127.853V127.853Z" fill="#1070B7"/>
<path opacity="0.4" d="M766.772 127.853C766.772 129.71 763.71 133.904 767.266 136.504C767.577 140.264 767.997 143.967 768.808 150.144L787.797 150.715C785.984 143.858 787.543 139.327 790.438 127.459C790.597 126.809 790.617 126.134 790.496 125.476C790.375 124.819 790.116 124.194 789.737 123.642C789.357 123.09 788.864 122.624 788.291 122.273C787.718 121.923 787.077 121.696 786.41 121.607C785.656 121.51 784.85 121.419 784.033 121.356C781.167 121.059 778.282 120.967 775.402 121.082C774.47 121.139 773.504 121.225 772.583 121.327C770.97 121.501 769.48 122.266 768.405 123.473C767.33 124.68 766.748 126.242 766.772 127.853V127.853Z" fill="black"/>
<path d="M773.82 107.928C773.768 108.265 773.538 108.499 773.313 108.499C773.089 108.499 772.951 108.156 773.008 107.813C773.066 107.471 773.29 107.242 773.515 107.242C773.739 107.242 773.9 107.585 773.82 107.928Z" fill="#263238"/>
<path d="M773.636 107.276L772.847 106.911C772.847 106.911 773.164 107.619 773.636 107.276Z" fill="#263238"/>
<path d="M773.647 108.254C773.216 108.985 772.685 109.654 772.071 110.242C772.226 110.396 772.413 110.513 772.619 110.586C772.825 110.659 773.044 110.686 773.262 110.665L773.647 108.254Z" fill="#FF5652"/>
<path d="M773.354 105.934C773.329 105.926 773.305 105.913 773.285 105.895C773.265 105.877 773.25 105.855 773.239 105.831C773.227 105.807 773.219 105.782 773.217 105.755C773.215 105.729 773.218 105.702 773.227 105.677C773.235 105.652 773.249 105.628 773.267 105.609C773.285 105.589 773.307 105.573 773.331 105.562C773.62 105.413 773.941 105.334 774.266 105.334C774.592 105.334 774.913 105.413 775.201 105.562C775.246 105.592 775.278 105.637 775.291 105.689C775.304 105.741 775.297 105.796 775.27 105.842C775.243 105.888 775.198 105.921 775.146 105.933C775.095 105.946 775.04 105.938 774.994 105.911C774.762 105.801 774.508 105.746 774.251 105.752C773.994 105.758 773.742 105.824 773.515 105.945C773.489 105.955 773.461 105.959 773.434 105.957C773.406 105.955 773.379 105.947 773.354 105.934V105.934Z" fill="#263238"/>
<path d="M785.402 108.608C784.475 112.768 784.17 114.545 781.731 116.373C778.06 119.116 773.221 117.082 772.904 112.733C772.616 108.819 774.182 102.676 778.514 101.648C782.847 100.619 786.334 104.448 785.402 108.608Z" fill="#FF8B7B"/>
<path d="M775.454 109.55C776.242 113.43 780.057 116.624 782.934 116.504C785.811 116.384 790.052 110.967 789.931 106.91C789.81 102.853 786.951 99.2706 782.284 99.4821C777.618 99.6935 771.651 99.9563 775.454 109.55Z" fill="#263238"/>
<path d="M780.724 101.031C777.18 97.3907 772.266 99.9907 771.581 103.831C773.647 103.431 775.361 106.31 778.043 106.15C781.115 105.968 782.692 103.065 780.724 101.031Z" fill="#263238"/>
<path d="M784.821 101.791C785.305 98.3286 788.849 98.9914 790.293 100.791C791.738 102.591 792.388 108.105 788.843 106.911C785.299 105.717 784.58 103.54 784.821 101.791Z" fill="#1070B7"/>
<path d="M788.09 103.025C787.457 99.0767 790.328 90.4883 797.383 93.7911C803.217 96.5224 795.196 111.071 803.217 113.711C800.173 118.322 789.73 113.253 788.09 103.025Z" fill="#263238"/>
<path d="M804.011 115.539H803.959C799.684 113.854 799.563 107.197 799.465 101.825C799.396 98.3454 799.344 95.3398 798.199 94.6141C797.973 94.496 797.719 94.4377 797.463 94.4447C797.207 94.4517 796.958 94.5238 796.738 94.6541C796.722 94.6616 796.704 94.6658 796.686 94.6664C796.668 94.667 796.651 94.664 796.634 94.6576C796.617 94.6512 796.602 94.6415 796.589 94.6291C796.576 94.6167 796.566 94.6019 796.559 94.5855C796.545 94.552 796.545 94.5145 796.558 94.4805C796.57 94.4466 796.596 94.4187 796.629 94.4027C796.893 94.2571 797.19 94.1807 797.492 94.1807C797.794 94.1807 798.091 94.2571 798.355 94.4027C799.621 95.2083 799.678 98.2825 799.741 101.831C799.839 107.105 799.96 113.665 804.063 115.282C804.08 115.288 804.095 115.298 804.108 115.31C804.122 115.323 804.132 115.338 804.14 115.354C804.147 115.37 804.152 115.388 804.152 115.406C804.153 115.424 804.15 115.442 804.143 115.459C804.131 115.484 804.112 115.504 804.089 115.518C804.065 115.533 804.038 115.54 804.011 115.539Z" fill="#263238"/>
<path d="M777.318 110.11C776.743 111.047 776.484 111.453 775.753 111.705C775.526 111.8 775.276 111.826 775.034 111.782C774.792 111.737 774.568 111.623 774.39 111.453C774.213 111.284 774.089 111.066 774.035 110.827C773.98 110.589 773.998 110.339 774.085 110.11C774.384 109.139 775.316 107.767 776.386 107.865C776.631 107.898 776.863 107.995 777.059 108.145C777.255 108.296 777.408 108.494 777.502 108.721C777.596 108.949 777.629 109.197 777.597 109.44C777.565 109.684 777.469 109.915 777.318 110.11Z" fill="#FF8B7B"/>
<path d="M774.746 112.122L774.171 113.339L773.595 112.122L774.171 110.91L774.746 112.122Z" fill="white"/>
<path d="M775.92 150.441C775.92 150.441 759.918 149.624 749.377 154.361C746.097 155.835 745.591 158.298 745.01 161.824C742.587 176.629 738.818 191.537 738.818 191.537L742.409 192.594C742.409 192.594 755.798 173.058 753.963 162.458C778.814 167.692 786.674 159.492 786.674 159.492L775.92 150.441Z" fill="#FF8B7B"/>
<path d="M738.991 190.88C738.79 190.817 738.623 190.937 738.444 191.034C737.144 191.731 737.15 191.771 733.651 192.125C732.501 192.245 732.351 193.308 735.193 194.194L742.156 196.365C742.84 196.576 744.089 194.959 743.14 192.279C743.106 192.188 743.046 192.108 742.967 192.049C742.889 191.99 742.795 191.955 742.697 191.948C741.405 191.827 740.148 191.464 738.991 190.88V190.88Z" fill="#263238"/>
<path d="M785.328 151.744C785.328 151.744 772.6 149.635 762.07 154.327C760.466 155.038 759.139 156.248 758.289 157.775C757.438 159.302 757.112 161.062 757.358 162.789C759.498 177.646 764.838 195.091 764.838 195.091L768.584 195.034C768.584 195.034 768.308 174.292 766.472 163.692C768.59 164.378 772.197 164.395 774.067 164.309C780.972 163.983 786.611 162.132 785.754 155.327L785.328 151.744Z" fill="#FF8B7B"/>
<path d="M764.647 194.394C764.44 194.394 764.319 194.554 764.176 194.703C763.151 195.76 763.163 195.789 759.929 197.177C758.847 197.64 759.049 198.686 762.029 198.686H769.325C770.039 198.686 770.747 196.766 769.032 194.497C768.972 194.419 768.891 194.361 768.798 194.328C768.705 194.296 768.604 194.291 768.508 194.314C767.237 194.579 765.928 194.606 764.647 194.394V194.394Z" fill="#263238"/>
<path d="M768.809 150.144C768.809 150.144 758.625 150.081 750.937 153.218C750.937 163.978 755.431 168.286 755.431 168.286C755.431 168.286 797.274 175.589 787.797 150.738C782.889 149.252 768.918 149.704 768.809 150.144Z" fill="#263238"/>
<path d="M758.111 151.898C757.536 153.389 754.543 153.418 754.543 153.418L752.719 153.743C752.42 153.796 752.111 153.742 751.848 153.59C751.584 153.439 751.384 153.199 751.281 152.915L750.757 151.435C750.701 151.275 750.678 151.106 750.688 150.937C750.698 150.768 750.742 150.603 750.817 150.451C750.892 150.299 750.996 150.163 751.124 150.052C751.252 149.94 751.401 149.855 751.563 149.801L753.289 149.229C753.601 149.131 753.93 149.098 754.256 149.132L755.579 149.281C756.135 149.343 756.661 149.561 757.098 149.907C757.535 150.254 757.864 150.716 758.048 151.241L758.094 151.383C758.159 151.548 758.166 151.73 758.111 151.898V151.898Z" fill="#FF8B7B"/>
<path d="M773.289 127.602C773.071 129.013 772.789 130.344 772.501 131.704C772.213 133.064 771.886 134.407 771.517 135.75C770.801 138.492 769.882 141.177 768.767 143.784L768.692 143.95C768.628 144.1 768.543 144.241 768.439 144.367C767.676 145.266 766.837 146.097 765.93 146.853C765.084 147.59 764.204 148.241 763.318 148.875C762.432 149.51 761.523 150.093 760.602 150.653C759.681 151.213 758.755 151.738 757.765 152.23C757.461 152.375 757.114 152.408 756.787 152.325C756.459 152.242 756.172 152.047 755.975 151.774C755.778 151.501 755.684 151.169 755.709 150.834C755.735 150.499 755.878 150.184 756.114 149.944V149.944L758.323 147.79C759.06 147.07 759.791 146.356 760.498 145.63C761.206 144.904 761.902 144.184 762.553 143.464C763.173 142.785 763.75 142.067 764.279 141.316L763.951 141.887C764.359 140.71 764.71 139.47 765.056 138.219C765.401 136.967 765.694 135.687 765.993 134.402C766.293 133.116 766.569 131.824 766.839 130.527C767.11 129.23 767.369 127.916 767.622 126.659V126.625C767.779 125.903 768.212 125.269 768.83 124.857C769.448 124.446 770.202 124.287 770.935 124.416C771.667 124.545 772.321 124.95 772.759 125.547C773.197 126.145 773.385 126.887 773.284 127.619L773.289 127.602Z" fill="#FF8B7B"/>
<path d="M790.507 126.145C789.252 129.259 785.904 131.545 781.168 132.322C779.091 131.807 776.243 124.893 776.243 124.893C776.243 124.893 789.897 117.591 790.507 126.145Z" fill="#1070B7"/>
<path opacity="0.4" d="M790.507 126.145C789.252 129.259 785.904 131.545 781.168 132.322C779.091 131.807 776.243 124.893 776.243 124.893C776.243 124.893 789.897 117.591 790.507 126.145Z" fill="black"/>
<path d="M769.527 122.236C767.312 123.59 764.883 126.538 764.538 131.715C765.395 133.664 774.009 135.298 774.009 135.298C774.009 135.298 777.214 118.567 769.527 122.236Z" fill="#1070B7"/>
<path opacity="0.4" d="M769.527 122.236C767.312 123.59 764.883 126.538 764.538 131.715C765.395 133.664 774.009 135.298 774.009 135.298C774.009 135.298 777.214 118.567 769.527 122.236Z" fill="black"/>
<path d="M746.989 171.543H786.018C787.295 171.543 788.331 170.515 788.331 169.246C788.331 167.978 787.295 166.949 786.018 166.949H746.989C745.711 166.949 744.676 167.978 744.676 169.246C744.676 170.515 745.711 171.543 746.989 171.543Z" fill="#1070B7"/>
<path d="M769.676 160.504H795.109C795.961 160.476 796.777 160.157 797.418 159.599C798.06 159.042 798.488 158.282 798.63 157.447L802.514 130.642C802.584 130.263 802.569 129.874 802.468 129.502C802.367 129.13 802.184 128.785 801.932 128.493C801.68 128.2 801.366 127.968 801.011 127.811C800.657 127.655 800.272 127.58 799.884 127.59H774.446C773.595 127.616 772.779 127.934 772.138 128.491C771.497 129.047 771.07 129.808 770.93 130.642L767.041 157.447C766.971 157.826 766.988 158.216 767.089 158.588C767.191 158.96 767.374 159.305 767.627 159.598C767.879 159.89 768.194 160.124 768.548 160.28C768.903 160.437 769.288 160.513 769.676 160.504V160.504Z" fill="#1070B7"/>
<path opacity="0.4" d="M770.944 130.641L767.054 157.446C766.959 158.062 767.075 158.692 767.382 159.235C767.531 159.478 767.752 159.669 768.015 159.782C768.277 159.896 768.568 159.926 768.849 159.869C769.129 159.812 769.386 159.671 769.582 159.465C769.779 159.258 769.907 158.996 769.948 158.715L774.097 130.104C774.139 129.802 774.079 129.494 773.926 129.229C773.774 128.964 773.537 128.756 773.253 128.639C772.969 128.522 772.654 128.501 772.357 128.58C772.06 128.659 771.798 128.833 771.611 129.076C771.26 129.534 771.03 130.072 770.944 130.641V130.641Z" fill="white"/>
<path d="M791.968 166.955H793.269L798.223 134.853H796.922L791.968 166.955Z" fill="#263238"/>
<path d="M772.151 166.955H773.445L778.399 134.853H777.105L772.151 166.955Z" fill="#263238"/>
<path d="M775.857 171.543H793.718C794.995 171.543 796.031 170.515 796.031 169.246C796.031 167.978 794.995 166.949 793.718 166.949H775.857C774.58 166.949 773.544 167.978 773.544 169.246C773.544 170.515 774.58 171.543 775.857 171.543Z" fill="#1070B7"/>
<path opacity="0.4" d="M771.23 166.955H746.989C745.711 166.955 744.676 167.983 744.676 169.252C744.676 170.521 745.711 171.549 746.989 171.549H771.23C772.508 171.549 773.543 170.521 773.543 169.252C773.543 167.983 772.508 166.955 771.23 166.955Z" fill="white"/>
<path d="M766.138 199.194H767.432L772.386 171.544H771.092L766.138 199.194Z" fill="#263238"/>
<path d="M743.623 199.194H744.917L749.871 171.544H748.577L743.623 199.194Z" fill="#263238"/>
<path d="M774.855 199.194H773.555L768.601 171.544H769.901L774.855 199.194Z" fill="#263238"/>
<path d="M797.37 199.194H796.069L791.115 171.544H792.416L797.37 199.194Z" fill="#263238"/>
<path d="M686.566 24.2277C680.701 25.1804 675.383 28.2116 671.597 32.7599C667.81 37.3081 665.812 43.0651 665.972 48.9644C666.132 54.8637 668.44 60.5055 672.468 64.8446C676.495 69.1837 681.97 71.926 687.878 72.5636C687.627 74.3748 687.23 76.1633 686.693 77.912C686.693 77.912 690.479 75.7635 692.585 72.615C693.229 72.5636 693.879 72.4893 694.53 72.3807C697.726 71.8756 700.791 70.7482 703.547 69.0633C706.304 67.3784 708.698 65.1692 710.592 62.5627C712.486 59.9561 713.843 57.0036 714.585 53.8747C715.326 50.7458 715.438 47.5022 714.913 44.3303C714.389 41.1583 713.238 38.1206 711.528 35.3916C709.818 32.6626 707.581 30.2961 704.947 28.4281C702.313 26.5601 699.333 25.2274 696.179 24.5066C693.024 23.7857 689.757 23.691 686.566 24.2277V24.2277Z" fill="#1070B7"/>
<path opacity="0.5" d="M686.566 24.2277C680.701 25.1804 675.383 28.2116 671.597 32.7599C667.81 37.3081 665.812 43.0651 665.972 48.9644C666.132 54.8637 668.44 60.5055 672.468 64.8446C676.495 69.1837 681.97 71.926 687.878 72.5636C687.627 74.3748 687.23 76.1633 686.693 77.912C686.693 77.912 690.479 75.7635 692.585 72.615C693.229 72.5636 693.879 72.4893 694.53 72.3807C697.726 71.8756 700.791 70.7482 703.547 69.0633C706.304 67.3784 708.698 65.1692 710.592 62.5627C712.486 59.9561 713.843 57.0036 714.585 53.8747C715.326 50.7458 715.438 47.5022 714.913 44.3303C714.389 41.1583 713.238 38.1206 711.528 35.3916C709.818 32.6626 707.581 30.2961 704.947 28.4281C702.313 26.5601 699.333 25.2274 696.179 24.5066C693.024 23.7857 689.757 23.691 686.566 24.2277V24.2277Z" fill="white"/>
<path d="M693.339 70.6211C688.814 71.3599 684.169 70.7493 679.993 68.8667C675.817 66.984 672.297 63.9138 669.877 60.0443C667.458 56.1748 666.249 51.6799 666.403 47.1278C666.556 42.5758 668.065 38.1712 670.739 34.471C673.414 30.7708 677.133 27.9412 681.426 26.34C685.72 24.7388 690.395 24.4381 694.861 25.4757C699.326 26.5133 703.382 28.8427 706.515 32.1693C709.647 35.4959 711.716 39.6703 712.46 44.1647C713.447 50.1897 711.989 56.3577 708.405 61.317C704.821 66.2762 699.403 69.622 693.339 70.6211V70.6211ZM685.859 25.4794C681.391 26.2091 677.241 28.2382 673.934 31.31C670.627 34.3818 668.312 38.3585 667.281 42.7371C666.25 47.1157 666.549 51.6997 668.141 55.9093C669.733 60.1189 672.547 63.7651 676.226 66.3869C679.904 69.0087 684.284 70.4882 688.809 70.6385C693.335 70.7888 697.804 69.603 701.65 67.2311C705.497 64.8592 708.55 61.4078 710.422 57.3132C712.293 53.2186 712.9 48.6648 712.166 44.2275C711.178 38.2784 707.854 32.9614 702.923 29.4433C697.992 25.9253 691.857 24.4936 685.865 25.4623L685.859 25.4794Z" fill="white"/>
<path d="M687.728 58.8846C685.095 59.3141 682.392 58.9584 679.962 57.8626C677.532 56.7668 675.484 54.98 674.077 52.7283C672.67 50.4765 671.966 47.8609 672.056 45.2122C672.146 42.5635 673.024 40.0006 674.58 37.8477C676.137 35.6949 678.301 34.0486 680.799 33.1172C683.298 32.1858 686.018 32.0111 688.617 32.6151C691.215 33.2191 693.575 34.5748 695.398 36.5106C697.22 38.4465 698.424 40.8756 698.856 43.4908C699.433 46.9972 698.585 50.5875 696.499 53.4737C694.412 56.3599 691.258 58.3059 687.728 58.8846V58.8846ZM683.401 32.7253C680.825 33.1458 678.433 34.3153 676.527 36.0858C674.62 37.8564 673.285 40.1485 672.69 42.6725C672.095 45.1965 672.267 47.8389 673.184 50.2658C674.102 52.6927 675.723 54.7951 677.843 56.3071C679.963 57.8192 682.487 58.673 685.096 58.7607C687.705 58.8483 690.281 58.1659 692.499 56.7997C694.718 55.4334 696.478 53.4447 697.558 51.085C698.639 48.7252 698.99 46.1003 698.568 43.5422C697.994 40.114 696.076 37.0514 693.233 35.0242C690.391 32.9971 686.856 32.1705 683.401 32.7253V32.7253Z" fill="white"/>
<path d="M795.341 61.1181C795.343 56.3658 793.947 51.7162 791.326 47.7401C788.705 43.764 784.972 40.6344 780.585 38.7354C776.199 36.8364 771.349 36.2506 766.632 37.05C761.914 37.8494 757.535 39.9991 754.03 43.2353C750.526 46.4715 748.049 50.6534 746.904 55.2677C745.759 59.882 745.995 64.7279 747.584 69.2106C749.173 73.6933 752.046 77.6178 755.849 80.5024C759.652 83.387 764.22 85.1062 768.993 85.4489C770.932 88.6317 774.471 90.9173 774.471 90.9173C774.022 89.0898 773.727 87.2281 773.591 85.3518C779.578 84.6649 785.102 81.8164 789.113 77.3481C793.123 72.8799 795.339 67.1036 795.341 61.1181V61.1181Z" fill="#1070B7"/>
<path d="M773.898 59.2618C773.9 59.8782 773.716 60.4811 773.372 60.9941C773.028 61.5071 772.538 61.9072 771.965 62.1436C771.392 62.38 770.761 62.4421 770.152 62.3222C769.543 62.2022 768.984 61.9055 768.545 61.4696C768.106 61.0337 767.807 60.4783 767.687 59.8737C767.566 59.269 767.628 58.6424 767.866 58.0731C768.104 57.5039 768.507 57.0175 769.024 56.6758C769.54 56.334 770.148 56.1522 770.768 56.1533C771.598 56.1533 772.395 56.4808 772.982 57.0638C773.569 57.6467 773.898 58.4374 773.898 59.2618V59.2618Z" fill="white"/>
<path d="M784.752 62.9763C784.752 63.5922 784.568 64.1943 784.224 64.7064C783.879 65.2185 783.389 65.6177 782.816 65.8534C782.243 66.0891 781.613 66.1508 781.005 66.0306C780.396 65.9105 779.838 65.6139 779.399 65.1783C778.96 64.7428 778.662 64.1879 778.541 63.5838C778.42 62.9797 778.482 62.3536 778.719 61.7845C778.957 61.2155 779.358 60.7291 779.874 60.3869C780.39 60.0447 780.996 59.8621 781.616 59.8621C782.448 59.8621 783.246 60.1902 783.834 60.7742C784.422 61.3582 784.752 62.1503 784.752 62.9763Z" fill="white"/>
<path d="M763.066 61.1188C763.065 61.7334 762.88 62.3338 762.536 62.8443C762.191 63.3547 761.702 63.7522 761.13 63.9866C760.558 64.221 759.928 64.2818 759.322 64.1612C758.715 64.0406 758.158 63.7441 757.72 63.3091C757.283 62.8742 756.986 62.3203 756.865 61.7175C756.745 61.1146 756.807 60.4899 757.044 59.9222C757.282 59.3546 757.683 58.8694 758.197 58.5281C758.712 58.1868 759.317 58.0046 759.936 58.0046C760.347 58.0046 760.755 58.0852 761.135 58.2418C761.515 58.3984 761.86 58.6279 762.151 58.9171C762.442 59.2064 762.672 59.5497 762.829 59.9275C762.986 60.3053 763.067 60.7101 763.066 61.1188V61.1188Z" fill="white"/>
<path d="M821.577 63.1696C821.26 59.1859 822.103 55.1955 824.006 51.6745C825.909 48.1536 828.792 45.2507 832.311 43.3122C835.83 41.3737 839.836 40.4814 843.852 40.7418C847.867 41.0022 851.723 42.4043 854.958 44.7808C858.193 47.1573 860.671 50.4079 862.097 54.1447C863.523 57.8816 863.837 61.947 863 65.8558C862.163 69.7647 860.212 73.3521 857.379 76.1899C854.546 79.0277 850.95 80.9962 847.021 81.8605C845.866 84.0304 844.326 85.9758 842.476 87.6032C842.669 85.8598 842.727 84.1042 842.648 82.352C837.344 82.3943 832.221 80.4387 828.311 76.8792C824.401 73.3197 821.995 68.4208 821.577 63.1696V63.1696Z" fill="#1070B7"/>
<path opacity="0.4" d="M821.577 63.1696C821.26 59.1859 822.103 55.1955 824.006 51.6745C825.909 48.1536 828.792 45.2507 832.311 43.3122C835.83 41.3737 839.836 40.4814 843.852 40.7418C847.867 41.0022 851.723 42.4043 854.958 44.7808C858.193 47.1573 860.671 50.4079 862.097 54.1447C863.523 57.8816 863.837 61.947 863 65.8558C862.163 69.7647 860.212 73.3521 857.379 76.1899C854.546 79.0277 850.95 80.9962 847.021 81.8605C845.866 84.0304 844.326 85.9758 842.476 87.6032C842.669 85.8598 842.727 84.1042 842.648 82.352C837.344 82.3943 832.221 80.4387 828.311 76.8792C824.401 73.3197 821.995 68.4208 821.577 63.1696V63.1696Z" fill="black"/>
<path d="M835.558 63.3362L849.569 62.2391C849.901 62.2072 850.207 62.0476 850.422 61.7946C850.637 61.5416 850.744 61.2151 850.72 60.8849C850.687 60.5542 850.526 60.2493 850.27 60.0357C850.014 59.822 849.684 59.7165 849.35 59.742L835.385 60.822C835.052 60.8525 834.744 61.0124 834.528 61.2671C834.313 61.5217 834.207 61.8505 834.235 62.182V62.182C834.261 62.5073 834.414 62.8097 834.661 63.0251C834.908 63.2406 835.23 63.3521 835.558 63.3362V63.3362Z" fill="white"/>
<path d="M835.961 68.2497L849.972 67.1469C850.304 67.1164 850.611 66.9572 850.827 66.7039C851.042 66.4505 851.148 66.1232 851.123 65.7927V65.7927C851.089 65.4626 850.927 65.1586 850.671 64.9452C850.416 64.7318 850.086 64.6258 849.753 64.6498L835.742 65.7469C835.41 65.7803 835.104 65.941 834.889 66.195C834.674 66.4489 834.567 66.7761 834.591 67.1069C834.625 67.4369 834.787 67.741 835.043 67.9544C835.298 68.1678 835.628 68.2737 835.961 68.2497V68.2497Z" fill="white"/>
<path d="M835.168 58.4267L849.196 57.3296C849.528 57.2962 849.834 57.1355 850.049 56.8816C850.264 56.6276 850.371 56.3004 850.347 55.9696V55.9696C850.317 55.6389 850.158 55.3331 849.902 55.119C849.647 54.9049 849.316 54.7998 848.983 54.8268L834.972 55.9239C834.64 55.9544 834.333 56.1135 834.117 56.3669C833.902 56.6203 833.796 56.9476 833.821 57.2781V57.2781C833.851 57.6061 834.008 57.9097 834.259 58.1243C834.511 58.3388 834.837 58.4473 835.168 58.4267Z" fill="white"/>
</svg>
