<svg width="893" height="201" viewBox="0 0 893 201" fill="none" xmlns="http://www.w3.org/2000/svg">
<g clip-path="url(#clip0)">
<path d="M720.618 86.1944C720.618 86.1944 708.829 91.891 704.113 98.7935C699.397 105.696 700.774 118.439 708.037 122.561C715.299 126.683 740.65 141.82 758.532 139.66C776.414 137.5 773.66 119.222 764.625 111.951C755.589 104.679 743.404 98.1996 743.404 98.1996C743.404 98.1996 742.819 94.2758 742.027 92.8989C741.235 91.522 732.209 82.6576 720.618 86.1944Z" fill="#263238" stroke="#263238" stroke-linecap="round" stroke-linejoin="round"/>
<path d="M698.678 80.7048L692.379 110.088H697.446L709.937 86.9324C709.937 86.9324 707.498 79.5079 698.678 80.7048Z" fill="white" stroke="#263238" stroke-linecap="round" stroke-linejoin="round"/>
<path d="M777.852 66.4509C772.696 60.1513 765.883 54.3107 753.401 53.3118C753.401 53.3118 742.764 52.9788 728.293 59.1344C716.981 63.9401 704.894 74.4333 698.676 80.7329C704.237 82.1458 707.549 84.4227 709.943 86.9605C712.409 84.6117 714.56 82.5688 716.144 81.2819C721.471 76.9532 729.292 73.2994 729.292 73.2994C729.292 73.2994 720.805 84.9356 719.14 87.9324C717.476 90.9292 718.645 95.7529 727.456 97.0848C736.266 98.4167 738.435 96.7518 741.927 94.754C745.419 92.7561 749.747 90.9292 751.412 90.9292C754.739 91.1651 758.041 90.2079 760.727 88.2294C765.046 85.2326 766.882 76.7552 768.376 76.0892C769.402 75.6303 778.482 87.4735 785.556 96.3649L786.168 96.0499C789.246 94.466 791.649 91.2352 793.295 88.3914C787.572 80.031 781.191 70.5366 777.852 66.4509Z" fill="#1070B7" stroke="#263238" stroke-linecap="round" stroke-linejoin="round"/>
<path d="M748.037 58.9004C748.037 58.9004 744.509 67.3868 751.574 70.5996" stroke="#263238" stroke-linecap="round" stroke-linejoin="round"/>
<path d="M729.289 73.2698L736.957 71.002" stroke="#263238" stroke-linecap="round" stroke-linejoin="round"/>
<path d="M729.191 88.0755C729.191 88.0755 734.024 92.3412 745.336 87.5176" stroke="#263238" stroke-linecap="round" stroke-linejoin="round"/>
<path d="M773.334 72.8555C770.544 73.2244 768.375 76.0952 768.375 76.0952C771.594 75.4094 774.868 75.0089 778.157 74.8983" stroke="#263238" stroke-linecap="round" stroke-linejoin="round"/>
<path d="M729.539 73.9741C729.539 73.9741 734.732 73.9741 739.744 73.7852" stroke="#263238" stroke-linecap="round" stroke-linejoin="round"/>
<path d="M732.324 85.8438C732.324 85.8438 732.882 89.1914 740.118 88.8134" stroke="#263238" stroke-linecap="round" stroke-linejoin="round"/>
<path d="M751.576 56.1371C751.576 56.1371 750.415 62.1217 751.243 65.2805C752.071 68.4393 755.068 72.102 757.237 68.2773C759.406 64.4525 760.558 60.1778 760.558 58.1349C760.558 56.0921 753.07 52.3123 751.576 56.1371Z" fill="white" stroke="#263238" stroke-linecap="round" stroke-linejoin="round"/>
<path d="M768.375 48.649C768.375 48.649 773.028 47.6501 777.024 42.4934C781.019 37.3368 775.863 36.6798 774.198 31.6942C772.533 26.7085 778.392 28.3644 769.914 19.716C761.437 11.0676 747.623 14.0644 741.116 16.8902C734.609 19.716 734.816 29.2013 730.146 29.8673C725.475 30.5332 723.486 26.0426 717.835 26.0426C712.183 26.0426 706.189 32.0271 708.52 37.0128C710.851 41.9985 715.342 39.8476 715.675 39.0107C716.008 38.1737 713.344 39.1817 713.173 36.6798C713.002 34.178 719.158 35.5189 720.993 38.8487C722.478 41.5485 719.751 45.3822 719.841 48.2171C720.03 53.9047 726.996 57.5404 731.469 58.3234C737.507 59.3763 744.851 59.0073 750.322 56.0105C757.045 52.3208 753.922 44.6713 758.872 42.6734C763.821 40.6756 766.359 43.6724 766.359 43.6724L768.375 48.649Z" fill="#263238" stroke="#263238" stroke-linecap="round" stroke-linejoin="round"/>
<path d="M717.54 29.1281C716.683 28.7558 715.739 28.6268 714.814 28.7554C713.888 28.884 713.016 29.2652 712.293 29.8571" stroke="white" stroke-linecap="round" stroke-linejoin="round"/>
<path d="M761.928 33.7909C761.928 33.7909 761.928 23.8916 754.981 21.8757C748.033 19.8599 740.096 28.8233 736.082 34.4749C732.068 40.1265 726.183 38.7766 721.854 32.819C721.447 32.2446 720.995 31.703 720.504 31.1991" stroke="white" stroke-linecap="round" stroke-linejoin="round"/>
<path d="M722.551 52.357C726.151 54.6698 728.85 55.3358 734.133 53.6799C739.416 52.024 738.768 43.4206 743.393 38.7949C748.019 34.1692 756.299 35.8161 756.299 35.8161C756.299 35.8161 747.038 30.8484 739.758 36.1401C732.477 41.4317 733.134 50.3681 726.52 52.024" stroke="white" stroke-linecap="round" stroke-linejoin="round"/>
<path d="M766.559 34.8157C766.559 34.8157 772.858 33.1598 772.516 27.5352" stroke="white" stroke-linecap="round" stroke-linejoin="round"/>
<path d="M714.719 98.584C714.719 98.584 731.818 100.744 740.457 106.683" stroke="white" stroke-linecap="round" stroke-linejoin="round"/>
<path d="M762.951 36.9583C761.886 36.6529 760.755 36.6601 759.694 36.9793C758.633 37.2984 757.686 37.9159 756.966 38.7582C754.14 41.746 754.266 43.2579 751.908 45.1208C751.205 45.7355 750.319 46.1014 749.387 46.1616C748.454 46.2218 747.528 45.973 746.752 45.4537C745.753 44.9588 744.592 45.2917 744.259 47.6136C743.926 49.9354 747.085 51.7713 747.589 51.7713C748.09 51.7985 748.588 51.8556 749.083 51.9423C749.083 51.9423 749.083 56.1 751.908 58.5928C754.734 61.0857 760.395 65.0814 764.22 64.2535C768.044 63.4255 769.538 54.6061 769.538 50.1154C769.398 45.5621 768.501 41.0639 766.883 36.8053C765.713 34.1775 762.951 36.9583 762.951 36.9583Z" fill="white" stroke="#263238" stroke-linecap="round" stroke-linejoin="round"/>
<path d="M759.79 47.0653C759.79 47.9652 759.466 48.7392 759.052 48.7392C758.638 48.7392 758.305 47.9922 758.305 47.0653C758.305 46.1383 758.638 45.4004 759.052 45.4004C759.466 45.4004 759.79 46.1473 759.79 47.0653Z" fill="#263238"/>
<path d="M765.719 46.5085C765.719 47.4085 765.386 48.1824 764.981 48.1824C764.576 48.1824 764.234 47.4355 764.234 46.5085C764.234 45.5816 764.567 44.8438 764.981 44.8438C765.395 44.8438 765.719 45.5906 765.719 46.5085Z" fill="#263238"/>
<path d="M756.27 43.6908C756.27 43.6908 757.376 42.0259 760.166 42.7908" stroke="#263238" stroke-linecap="round" stroke-linejoin="round"/>
<path d="M763.309 42.7908C763.309 42.7908 765.162 40.7479 766.836 42.7908" stroke="#263238" stroke-linecap="round" stroke-linejoin="round"/>
<path d="M763.125 46.5059C763.125 46.5059 763.305 50.2226 764.421 50.2226C765.537 50.2226 765.159 51.8875 763.674 52.4455" stroke="#263238" stroke-linecap="round" stroke-linejoin="round"/>
<path d="M762.193 56.1656C762.193 56.1656 758.855 57.6505 757.559 54.3027" stroke="#263238" stroke-linecap="round" stroke-linejoin="round"/>
<path d="M762.977 138.308C762.977 138.308 744.078 121.731 724.496 116.089C704.913 110.446 682.378 113.101 662.805 107.8C643.231 102.5 631.964 95.2012 631.964 95.2012L630.965 112.777L762.356 148.271L852.242 123.396L861.2 105.155C861.2 105.155 850.253 110.788 830.679 115.432C811.106 120.075 789.174 120.066 776.89 124.683C764.606 129.3 762.977 138.308 762.977 138.308Z" fill="white" stroke="#263238" stroke-linecap="round" stroke-linejoin="round"/>
<path d="M628.977 99.1738C628.977 99.1738 650.9 112.448 700.288 117.092C732.821 120.142 762.978 138.312 762.978 138.312C776.193 129.863 791.405 125.057 807.075 124.381C832.948 123.391 862.47 113.105 862.47 113.105L856.842 124.687L760.323 143.586L626.988 108.758L628.977 99.1738Z" fill="white" stroke="#263238" stroke-linecap="round" stroke-linejoin="round"/>
<path d="M625.33 103.158C643.989 111.586 663.959 116.736 684.366 118.385C719.851 121.04 761.977 138.283 761.977 138.283C761.977 138.283 784.196 126.35 808.774 126.35C827.028 126.194 845.191 123.742 862.83 119.051C862.28 120.884 862.15 122.816 862.43 124.708C862.72 126.6 863.42 128.405 864.49 129.994L761.644 151.908L624.664 112.086L625.33 103.158Z" fill="white" stroke="#263238" stroke-linecap="round" stroke-linejoin="round"/>
<path d="M625.997 111.033L757.334 143.953V148.597L768.61 148.93V143.584L867.45 127.997C867.45 127.997 871.76 126.998 868.12 131.975C864.47 136.952 800.783 192.343 800.783 192.343L730.138 199.642L623 176.126L623.639 112.851C623.641 112.564 623.708 112.282 623.836 112.025C623.963 111.768 624.148 111.543 624.375 111.368C624.602 111.193 624.866 111.071 625.147 111.014C625.428 110.956 625.719 110.962 625.997 111.033Z" fill="#1070B7"/>
<path opacity="0.3" d="M757.333 148.598V143.955L623.665 110.459L623.008 176.128L730.137 199.679L732.053 199.481L760.33 148.688L757.333 148.598Z" fill="black"/>
<path d="M625.997 111.033L757.334 143.953V148.597L768.61 148.93V143.584L867.45 127.997C867.45 127.997 871.76 126.998 868.12 131.975C864.47 136.952 800.783 192.343 800.783 192.343L730.138 199.642L623 176.126L623.639 112.851C623.641 112.564 623.708 112.282 623.836 112.025C623.963 111.768 624.148 111.543 624.375 111.368C624.602 111.193 624.866 111.071 625.147 111.014C625.428 110.956 625.719 110.962 625.997 111.033Z" stroke="#263238" stroke-linecap="round" stroke-linejoin="round"/>
<path d="M757.338 148.596L727.82 199.676L733.463 200L768.615 148.929L757.338 148.596Z" fill="#1070B7" stroke="#263238" stroke-linecap="round" stroke-linejoin="round"/>
<path d="M855.855 130.085C855.855 130.085 864.67 131.732 862.83 137.608L868.12 131.993C868.12 131.993 870.54 128.978 869.44 128.393C868.33 127.808 855.855 130.085 855.855 130.085Z" fill="#263238"/>
<path d="M638.179 114.373C638.179 114.373 625.715 117.82 623.78 127.134L623.672 112.852C623.672 112.852 624.05 110.701 626.021 111.052C627.992 111.403 638.179 114.373 638.179 114.373Z" fill="#263238"/>
<path d="M623.125 171.75L629.388 177.717L623.008 176.124L623.125 171.75Z" fill="#263238"/>
<path d="M796.273 192.766L804.769 188.59L800.296 192.469L796.273 192.766Z" fill="#263238"/>
<path d="M793.298 88.3984L817.2 117.053L811.18 118.006L785.559 96.4079C785.559 96.4079 792.191 92.0612 793.298 88.3984Z" fill="white" stroke="#263238" stroke-linecap="round" stroke-linejoin="round"/>
<path d="M687.301 107.459C687.301 107.459 686.104 106.01 685.798 107.306C685.492 108.602 682.783 113.102 684.898 113.417C687.013 113.732 688.21 108.593 688.21 108.593L687.301 107.459Z" fill="white" stroke="#263238" stroke-linecap="round" stroke-linejoin="round"/>
<path d="M690.163 107.29C690.163 107.29 688.957 105.842 688.66 107.128C688.363 108.415 685.645 112.924 687.76 113.248C689.875 113.572 691.081 108.415 691.081 108.415L690.163 107.29Z" fill="white" stroke="#263238" stroke-linecap="round" stroke-linejoin="round"/>
<path d="M693.033 107.181C693.033 107.181 691.602 105.57 691.233 107.001C690.864 108.432 687.633 113.435 690.162 113.795C692.691 114.155 694.095 108.396 694.095 108.396L693.033 107.181Z" fill="white" stroke="#263238" stroke-linecap="round" stroke-linejoin="round"/>
<path d="M695.535 107.723L700.359 112.366H694.645L695.535 107.723Z" fill="white" stroke="#263238" stroke-linecap="round" stroke-linejoin="round"/>
<path d="M695.537 107.722C695.537 107.722 694.106 106.111 693.737 107.542C693.368 108.973 690.137 113.976 692.666 114.327C695.195 114.678 696.599 108.928 696.599 108.928L695.537 107.722Z" fill="white" stroke="#263238" stroke-linecap="round" stroke-linejoin="round"/>
<path d="M823.684 111.887C823.684 111.887 824.647 110.267 825.151 111.491C825.654 112.714 829.029 116.746 827.004 117.394C824.98 118.042 822.973 113.146 822.973 113.146L823.684 111.887Z" fill="white" stroke="#263238" stroke-linecap="round" stroke-linejoin="round"/>
<path d="M820.859 112.158C820.859 112.158 821.822 110.538 822.326 111.762C822.83 112.986 826.214 117.018 824.18 117.666C822.146 118.314 820.148 113.418 820.148 113.418L820.859 112.158Z" fill="white" stroke="#263238" stroke-linecap="round" stroke-linejoin="round"/>
<path d="M818.016 112.508C818.016 112.508 819.177 110.708 819.753 112.049C820.329 113.39 824.253 117.845 821.877 118.592C819.501 119.339 817.152 113.912 817.152 113.912L818.016 112.508Z" fill="white" stroke="#263238" stroke-linecap="round" stroke-linejoin="round"/>
<path d="M815.634 113.434L811.594 118.779L817.245 117.879L815.634 113.434Z" fill="white" stroke="#263238" stroke-linecap="round" stroke-linejoin="round"/>
<path d="M815.633 113.436C815.633 113.436 816.785 111.636 817.37 112.977C817.955 114.318 821.87 118.764 819.494 119.511C817.118 120.257 814.77 114.84 814.77 114.84L815.633 113.436Z" fill="white" stroke="#263238" stroke-linecap="round" stroke-linejoin="round"/>
<path d="M382.385 70.3295C382.385 70.3295 378.552 66.9694 374.586 65.8209C370.621 64.6725 366.05 64.6492 362.1 63.5705C358.151 62.4919 355.792 61.584 355.792 61.584L355.59 65.1536L382.222 72.3471L400.443 67.3031L402.258 63.6016C400.273 64.5258 398.191 65.2259 396.05 65.689C392.085 66.628 387.646 66.628 385.186 67.5747C382.727 68.5214 382.385 70.3295 382.385 70.3295Z" fill="white" stroke="#263238" stroke-linecap="round" stroke-linejoin="round"/>
<path d="M355.216 62.3906C360.422 63.9829 365.758 65.1124 371.163 65.7662C375.228 66.3177 379.088 67.8872 382.384 70.3291C385.065 68.6153 388.152 67.6408 391.331 67.5044C395.155 67.2147 398.928 66.4456 402.56 65.2152L401.419 67.5432L381.848 71.3767L354.812 64.3151L355.216 62.3906Z" fill="white" stroke="#263238" stroke-linecap="round" stroke-linejoin="round"/>
<path d="M354.48 63.1973C358.616 64.7825 362.95 65.793 367.361 66.2004C374.562 66.7436 382.183 70.3287 382.183 70.3287C385.13 68.8421 388.366 68.0159 391.665 67.9076C395.368 67.8755 399.052 67.3775 402.63 66.4254C402.519 66.797 402.491 67.1888 402.549 67.5725C402.606 67.9562 402.748 68.3223 402.964 68.6448L382.113 73.0835L354.34 65.0131L354.48 63.1973Z" fill="white" stroke="#263238" stroke-linecap="round" stroke-linejoin="round"/>
<path d="M354.14 64.6797L381.245 71.4697V72.4009L383.527 72.463V71.3921L403.571 68.226C403.571 68.226 404.448 68.0243 403.703 69.002C402.958 69.9798 390.053 81.2473 390.053 81.2473L375.728 82.7217L354 77.9493L354.14 64.6797Z" fill="#1070B7"/>
<path opacity="0.3" d="M381.245 72.4164V71.4697L354.14 64.6797L354.008 77.9959L375.728 82.7682L376.116 82.7295L381.851 72.4319L381.245 72.4164Z" fill="black"/>
<path d="M354.14 64.6797L381.245 71.4697V72.4009L383.527 72.463V71.3921L403.571 68.226C403.571 68.226 404.448 68.0243 403.703 69.002C402.958 69.9798 390.053 81.2473 390.053 81.2473L375.728 82.7217L354 77.9493L354.14 64.6797Z" stroke="#263238" stroke-linecap="round" stroke-linejoin="round"/>
<path d="M381.245 72.416L375.254 82.7679L376.402 82.8377L383.526 72.4781L381.245 72.416Z" fill="#1070B7" stroke="#263238" stroke-linecap="round" stroke-linejoin="round"/>
<path d="M380.281 135.528C380.281 135.528 378.977 138.26 377.239 139.509C375.501 140.758 373.281 141.348 371.528 142.551C370.575 143.195 369.663 143.898 368.796 144.654L368.098 142.279L379.846 134.186L389.585 135.365L391.091 137.631C390.003 137.263 388.87 137.043 387.723 136.979C385.635 136.832 383.47 137.375 382.097 137.041C381.701 136.939 381.333 136.75 381.019 136.489C380.705 136.227 380.453 135.899 380.281 135.528Z" fill="white" stroke="#263238" stroke-linecap="round" stroke-linejoin="round"/>
<path d="M368.371 144.183C370.603 142.504 373.023 141.09 375.581 139.969C377.558 138.995 379.197 137.449 380.283 135.531C381.771 136.306 383.47 136.578 385.125 136.307C387.074 136.038 389.054 136.096 390.984 136.477L390.03 135.026L379.849 134.871L367.852 142.918L368.371 144.183Z" fill="white" stroke="#263238" stroke-linecap="round" stroke-linejoin="round"/>
<path d="M367.876 143.733C369.575 142.201 371.532 140.985 373.658 140.14C377.072 138.898 380.192 135.554 380.192 135.554C381.79 136.179 383.533 136.343 385.22 136.027C387.052 135.598 388.945 135.485 390.815 135.694C390.58 135.212 390.507 134.668 390.605 134.142L379.695 133.707L367.504 142.53L367.876 143.733Z" fill="white" stroke="#263238" stroke-linecap="round" stroke-linejoin="round"/>
<path d="M367.434 142.777L379.508 134.893L379.345 134.265L380.455 133.939L380.633 134.66L390.939 134.35C390.939 134.35 391.397 134.35 390.869 133.791C390.341 133.233 382.178 127.203 382.178 127.203L374.938 127.979L365.145 133.838L367.434 142.777Z" fill="#1070B7"/>
<path opacity="0.3" d="M379.373 134.264L379.535 134.892L367.461 142.776L365.148 133.814L374.942 127.955L375.136 127.932L379.667 134.178L379.373 134.264Z" fill="black"/>
<path d="M367.434 142.777L379.508 134.893L379.345 134.265L380.455 133.939L380.633 134.66L390.939 134.35C390.939 134.35 391.397 134.35 390.869 133.791C390.341 133.233 382.178 127.203 382.178 127.203L374.938 127.979L365.145 133.838L367.434 142.777Z" stroke="#263238" stroke-linecap="round" stroke-linejoin="round"/>
<path d="M379.375 134.263L374.719 128.008L375.262 127.822L380.484 133.937L379.375 134.263Z" fill="#1070B7" stroke="#263238" stroke-linecap="round" stroke-linejoin="round"/>
<path d="M560.826 52L582.741 74.1936L535.948 87.3779L532.852 65.1299L560.826 52Z" fill="#1070B7" stroke="#263238" stroke-linecap="round" stroke-linejoin="round"/>
<path d="M580.219 77.3983L531.82 91.6224L535.724 66.0454L560.144 55.1504L580.219 77.3983Z" fill="white" stroke="#263238" stroke-linecap="round" stroke-linejoin="round"/>
<path d="M561.295 56.5312L579.298 79.8114L533.887 92.9955L539.164 65.0131L561.295 56.5312Z" fill="white"/>
<path opacity="0.17" d="M561.295 56.5312L579.298 79.8114L533.887 92.9955L539.164 65.0131L561.295 56.5312Z" fill="black"/>
<path d="M561.295 56.5312L579.298 79.8114L533.887 92.9955L539.164 65.0131L561.295 56.5312Z" stroke="#263238" stroke-linecap="round" stroke-linejoin="round"/>
<path d="M561.293 56.5312L553.036 85.1968L520.809 94.951L533.194 68.5671L561.293 56.5312Z" fill="white" stroke="#263238" stroke-linecap="round" stroke-linejoin="round"/>
<path d="M550.744 82.9088L519.666 93.3459L518.742 88.9848L547.532 78.6641L550.744 82.9088Z" fill="white" stroke="#263238" stroke-linecap="round" stroke-linejoin="round"/>
<path d="M560.494 52.6289L581.136 74.0776L580.22 77.3988L561.294 56.5322L550.748 82.9084L547.535 78.6637L560.494 52.6289Z" fill="white" stroke="#263238" stroke-linecap="round" stroke-linejoin="round"/>
<path d="M560.83 52L547.654 79.4704L517.258 89.7912L532.855 65.1299L560.83 52Z" fill="#1070B7"/>
<path opacity="0.3" d="M560.83 52L547.654 79.4704L517.258 89.7912L532.855 65.1299L560.83 52Z" fill="black"/>
<path d="M560.83 52L547.654 79.4704L517.258 89.7912L532.855 65.1299L560.83 52Z" stroke="#263238" stroke-linecap="round" stroke-linejoin="round"/>
<path d="M531.594 67.6589L556.046 56.5" stroke="#263238" stroke-linecap="round" stroke-linejoin="round"/>
<path d="M459.017 131.75L481.459 104.14L435.163 101.967L431.477 125.161L459.017 131.75Z" fill="#1070B7" stroke="#263238" stroke-linecap="round" stroke-linejoin="round"/>
<path d="M479.032 101.5L431.16 98.668L434.357 123.554L458.421 128.738L479.032 101.5Z" fill="white" stroke="#263238" stroke-linecap="round" stroke-linejoin="round"/>
<path d="M459.599 127.07L478.177 99.2819L433.254 96.7832L437.762 123.772L459.599 127.07Z" fill="white"/>
<path opacity="0.17" d="M459.599 127.07L478.177 99.2819L433.254 96.7832L437.762 123.772L459.599 127.07Z" fill="black"/>
<path d="M459.599 127.07L478.177 99.2819L433.254 96.7832L437.762 123.772L459.599 127.07Z" stroke="#263238" stroke-linecap="round" stroke-linejoin="round"/>
<path d="M459.601 127.07L452.144 100.097L420.273 97.9316L431.913 121.607L459.601 127.07Z" fill="white" stroke="#263238" stroke-linecap="round" stroke-linejoin="round"/>
<path d="M449.789 102.959L419.083 99.8242L418.051 104.441L446.476 108.003L449.789 102.959Z" fill="white" stroke="#263238" stroke-linecap="round" stroke-linejoin="round"/>
<path d="M458.687 131.199L479.848 104.637L479.026 101.502L459.595 127.071L449.786 102.961L446.473 108.005L458.687 131.199Z" fill="white" stroke="#263238" stroke-linecap="round" stroke-linejoin="round"/>
<path d="M459.018 131.75L446.609 107.166L416.586 103.984L431.477 125.161L459.018 131.75Z" fill="#1070B7"/>
<path opacity="0.3" d="M459.018 131.75L446.609 107.166L416.586 103.984L431.477 125.161L459.018 131.75Z" fill="black"/>
<path d="M459.018 131.75L446.609 107.166L416.586 103.984L431.477 125.161L459.018 131.75Z" stroke="#263238" stroke-linecap="round" stroke-linejoin="round"/>
<path d="M429.188 122.104L453.639 127.248" stroke="#263238" stroke-linecap="round" stroke-linejoin="round"/>
<path d="M696.63 61.1035C692.805 59.0161 691.066 60.7543 689.646 59.0161C688.226 57.2778 693.472 52.7537 683.035 48.2297C683.035 48.2297 682.344 38.4909 668.081 38.1417C653.818 37.7925 657.698 47.8882 653.818 50.3171C649.938 52.746 648.945 48.9281 645.119 51.3647C641.294 53.8013 643.032 58.6669 639.905 59.3653C636.777 60.0637 632.603 56.2613 628.777 58.6669C624.951 61.0725 624.951 63.1909 623.205 63.1909C621.459 63.1909 617.99 61.8019 615.903 63.1909C613.816 64.58 611.379 66.2949 611.379 66.2949H699.416C699.416 66.2949 700.464 63.1909 696.63 61.1035Z" fill="#1070B7"/>
<path opacity="0.5" d="M696.63 61.1035C692.805 59.0161 691.066 60.7543 689.646 59.0161C688.226 57.2778 693.472 52.7537 683.035 48.2297C683.035 48.2297 682.344 38.4909 668.081 38.1417C653.818 37.7925 657.698 47.8882 653.818 50.3171C649.938 52.746 648.945 48.9281 645.119 51.3647C641.294 53.8013 643.032 58.6669 639.905 59.3653C636.777 60.0637 632.603 56.2613 628.777 58.6669C624.951 61.0725 624.951 63.1909 623.205 63.1909C621.459 63.1909 617.99 61.8019 615.903 63.1909C613.816 64.58 611.379 66.2949 611.379 66.2949H699.416C699.416 66.2949 700.464 63.1909 696.63 61.1035Z" fill="#1070B7"/>
<path d="M563.389 16.6083C561.123 15.3744 560.091 16.4065 559.268 15.3744C558.446 14.3424 561.534 11.6652 555.388 8.9802C555.388 8.9802 554.977 3.20675 546.526 3.00499C538.076 2.80323 540.318 8.77843 538.076 10.2218C535.833 11.6652 535.189 9.39924 532.915 10.8348C530.642 12.2704 531.682 15.1649 529.811 15.584C527.941 16.003 525.481 13.7216 523.215 15.1649C520.95 16.6083 520.95 17.8499 519.917 17.8499C518.885 17.8499 516.813 17.0196 515.587 17.8499C514.361 18.6802 512.91 19.7045 512.91 19.7045H565.042C565.042 19.7045 565.663 17.8732 563.389 16.6083Z" fill="#1070B7"/>
<path opacity="0.5" d="M563.389 16.6083C561.123 15.3744 560.091 16.4065 559.268 15.3744C558.446 14.3424 561.534 11.6652 555.388 8.9802C555.388 8.9802 554.977 3.20675 546.526 3.00499C538.076 2.80323 540.318 8.77843 538.076 10.2218C535.833 11.6652 535.189 9.39924 532.915 10.8348C530.642 12.2704 531.682 15.1649 529.811 15.584C527.941 16.003 525.481 13.7216 523.215 15.1649C520.95 16.6083 520.95 17.8499 519.917 17.8499C518.885 17.8499 516.813 17.0196 515.587 17.8499C514.361 18.6802 512.91 19.7045 512.91 19.7045H565.042C565.042 19.7045 565.663 17.8732 563.389 16.6083Z" fill="#1070B7"/>
<g opacity="0.5">
<path opacity="0.5" d="M696.63 61.1035C692.805 59.0161 691.066 60.7543 689.646 59.0161C688.226 57.2778 693.472 52.7537 683.035 48.2297C683.035 48.2297 682.344 38.4909 668.081 38.1417C653.818 37.7925 657.698 47.8882 653.818 50.3171C649.938 52.746 648.945 48.9281 645.119 51.3647C641.294 53.8013 643.032 58.6669 639.905 59.3653C636.777 60.0637 632.603 56.2613 628.777 58.6669C624.951 61.0725 624.951 63.1909 623.205 63.1909C621.459 63.1909 617.99 61.8019 615.903 63.1909C613.816 64.58 611.379 66.2949 611.379 66.2949H699.416C699.416 66.2949 700.464 63.1909 696.63 61.1035Z" fill="white"/>
<path opacity="0.5" d="M696.63 61.1035C692.805 59.0161 691.066 60.7543 689.646 59.0161C688.226 57.2778 693.472 52.7537 683.035 48.2297C683.035 48.2297 682.344 38.4909 668.081 38.1417C653.818 37.7925 657.698 47.8882 653.818 50.3171C649.938 52.746 648.945 48.9281 645.119 51.3647C641.294 53.8013 643.032 58.6669 639.905 59.3653C636.777 60.0637 632.603 56.2613 628.777 58.6669C624.951 61.0725 624.951 63.1909 623.205 63.1909C621.459 63.1909 617.99 61.8019 615.903 63.1909C613.816 64.58 611.379 66.2949 611.379 66.2949H699.416C699.416 66.2949 700.464 63.1909 696.63 61.1035Z" fill="white"/>
</g>
<g opacity="0.5">
<path opacity="0.5" d="M563.389 16.6083C561.123 15.3744 560.091 16.4065 559.268 15.3744C558.446 14.3424 561.534 11.6652 555.388 8.9802C555.388 8.9802 554.977 3.20675 546.526 3.00499C538.076 2.80323 540.318 8.77843 538.076 10.2218C535.833 11.6652 535.189 9.39924 532.915 10.8348C530.642 12.2704 531.682 15.1649 529.811 15.584C527.941 16.003 525.481 13.7216 523.215 15.1649C520.95 16.6083 520.95 17.8499 519.917 17.8499C518.885 17.8499 516.813 17.0196 515.587 17.8499C514.361 18.6802 512.91 19.7045 512.91 19.7045H565.042C565.042 19.7045 565.663 17.8732 563.389 16.6083Z" fill="white"/>
<path opacity="0.5" d="M563.389 16.6083C561.123 15.3744 560.091 16.4065 559.268 15.3744C558.446 14.3424 561.534 11.6652 555.388 8.9802C555.388 8.9802 554.977 3.20675 546.526 3.00499C538.076 2.80323 540.318 8.77843 538.076 10.2218C535.833 11.6652 535.189 9.39924 532.915 10.8348C530.642 12.2704 531.682 15.1649 529.811 15.584C527.941 16.003 525.481 13.7216 523.215 15.1649C520.95 16.6083 520.95 17.8499 519.917 17.8499C518.885 17.8499 516.813 17.0196 515.587 17.8499C514.361 18.6802 512.91 19.7045 512.91 19.7045H565.042C565.042 19.7045 565.663 17.8732 563.389 16.6083Z" fill="white"/>
</g>
<path d="M595.182 192.115C588.663 188.553 585.699 191.517 583.325 188.553C580.95 185.589 589.843 177.891 572.065 170.185C572.065 170.185 570.878 153.586 546.581 152.997C522.284 152.407 528.795 169.588 522.277 173.739C515.758 177.891 513.981 171.365 507.463 175.516C500.944 179.668 503.901 187.932 498.57 189.15C493.239 190.369 486.154 183.812 479.604 187.963C473.055 192.115 473.086 195.669 470.122 195.669C467.157 195.669 461.229 193.294 457.706 195.669C454.183 198.043 450 201 450 201H599.923C599.923 201 601.7 195.669 595.182 192.115Z" fill="#1070B7"/>
<path opacity="0.5" d="M595.182 192.115C588.663 188.553 585.699 191.517 583.325 188.553C580.95 185.589 589.843 177.891 572.065 170.185C572.065 170.185 570.878 153.586 546.581 152.997C522.284 152.407 528.795 169.588 522.277 173.739C515.758 177.891 513.981 171.365 507.463 175.516C500.944 179.668 503.901 187.932 498.57 189.15C493.239 190.369 486.154 183.812 479.604 187.963C473.055 192.115 473.086 195.669 470.122 195.669C467.157 195.669 461.229 193.294 457.706 195.669C454.183 198.043 450 201 450 201H599.923C599.923 201 601.7 195.669 595.182 192.115Z" fill="#1070B7"/>
<g opacity="0.5">
<path opacity="0.5" d="M595.182 192.115C588.663 188.553 585.699 191.517 583.325 188.553C580.95 185.589 589.843 177.891 572.065 170.185C572.065 170.185 570.878 153.586 546.581 152.997C522.284 152.407 528.795 169.588 522.277 173.739C515.758 177.891 513.981 171.365 507.463 175.516C500.944 179.668 503.901 187.932 498.57 189.15C493.239 190.369 486.154 183.812 479.604 187.963C473.055 192.115 473.086 195.669 470.122 195.669C467.157 195.669 461.229 193.294 457.706 195.669C454.183 198.043 450 201 450 201H599.923C599.923 201 601.7 195.669 595.182 192.115Z" fill="white"/>
<path opacity="0.5" d="M595.182 192.115C588.663 188.553 585.699 191.517 583.325 188.553C580.95 185.589 589.843 177.891 572.065 170.185C572.065 170.185 570.878 153.586 546.581 152.997C522.284 152.407 528.795 169.588 522.277 173.739C515.758 177.891 513.981 171.365 507.463 175.516C500.944 179.668 503.901 187.932 498.57 189.15C493.239 190.369 486.154 183.812 479.604 187.963C473.055 192.115 473.086 195.669 470.122 195.669C467.157 195.669 461.229 193.294 457.706 195.669C454.183 198.043 450 201 450 201H599.923C599.923 201 601.7 195.669 595.182 192.115Z" fill="white"/>
</g>
<path d="M521.026 103.942L525.993 103.166L521.026 102.39C520.589 102.324 520.184 102.119 519.871 101.807C519.559 101.494 519.354 101.089 519.288 100.652L518.512 95.6777L517.736 100.652C517.67 101.088 517.467 101.492 517.155 101.805C516.844 102.117 516.441 102.322 516.005 102.39L511.031 103.166L516.005 103.942C516.44 104.013 516.841 104.22 517.152 104.532C517.462 104.844 517.667 105.246 517.736 105.68L518.512 110.655L519.288 105.68C519.358 105.244 519.563 104.842 519.875 104.53C520.187 104.217 520.59 104.012 521.026 103.942Z" fill="white"/>
<path d="M483.925 137.634L488.899 136.858L483.925 136.082C483.489 136.011 483.087 135.805 482.775 135.493C482.463 135.181 482.257 134.779 482.186 134.343L481.41 129.369L480.634 134.343C480.567 134.78 480.362 135.184 480.049 135.497C479.737 135.809 479.333 136.014 478.896 136.082L473.922 136.858L478.896 137.634C479.333 137.701 479.737 137.906 480.049 138.218C480.362 138.531 480.567 138.935 480.634 139.372L481.41 144.346L482.186 139.372C482.257 138.936 482.463 138.534 482.775 138.222C483.087 137.91 483.489 137.704 483.925 137.634Z" fill="#1070B7"/>
<path opacity="0.5" d="M483.925 137.634L488.899 136.858L483.925 136.082C483.489 136.011 483.087 135.805 482.775 135.493C482.463 135.181 482.257 134.779 482.186 134.343L481.41 129.369L480.634 134.343C480.567 134.78 480.362 135.184 480.049 135.497C479.737 135.809 479.333 136.014 478.896 136.082L473.922 136.858L478.896 137.634C479.333 137.701 479.737 137.906 480.049 138.218C480.362 138.531 480.567 138.935 480.634 139.372L481.41 144.346L482.186 139.372C482.257 138.936 482.463 138.534 482.775 138.222C483.087 137.91 483.489 137.704 483.925 137.634Z" fill="white"/>
<path d="M607.772 158.378L612.746 157.602L607.772 156.826C607.336 156.759 606.933 156.555 606.621 156.244C606.308 155.933 606.103 155.531 606.034 155.095L605.258 150.121L604.482 155.095C604.413 155.531 604.208 155.933 603.895 156.244C603.583 156.555 603.179 156.759 602.744 156.826L597.77 157.602L602.744 158.378C603.179 158.445 603.583 158.648 603.895 158.959C604.208 159.27 604.413 159.673 604.482 160.108L605.258 165.082L606.034 160.108C606.103 159.673 606.308 159.27 606.621 158.959C606.933 158.648 607.336 158.445 607.772 158.378Z" fill="#1070B7"/>
<path opacity="0.5" d="M607.772 158.378L612.746 157.602L607.772 156.826C607.336 156.759 606.933 156.555 606.621 156.244C606.308 155.933 606.103 155.531 606.034 155.095L605.258 150.121L604.482 155.095C604.413 155.531 604.208 155.933 603.895 156.244C603.583 156.555 603.179 156.759 602.744 156.826L597.77 157.602L602.744 158.378C603.179 158.445 603.583 158.648 603.895 158.959C604.208 159.27 604.413 159.673 604.482 160.108L605.258 165.082L606.034 160.108C606.103 159.673 606.308 159.27 606.621 158.959C606.933 158.648 607.336 158.445 607.772 158.378Z" fill="white"/>
<path d="M477.561 111.174L480.851 110.654L477.561 110.134C477.272 110.09 477.005 109.954 476.798 109.748C476.592 109.541 476.457 109.274 476.412 108.986L475.9 105.703L475.38 108.986C475.336 109.274 475.2 109.541 474.994 109.748C474.787 109.954 474.52 110.09 474.232 110.134L470.941 110.654L474.232 111.174C474.52 111.218 474.787 111.354 474.994 111.56C475.2 111.767 475.336 112.034 475.38 112.322L475.9 115.605L476.412 112.322C476.457 112.034 476.592 111.767 476.798 111.56C477.005 111.354 477.272 111.218 477.561 111.174Z" fill="#1070B7"/>
<path opacity="0.5" d="M477.561 111.174L480.851 110.654L477.561 110.134C477.272 110.09 477.005 109.954 476.798 109.748C476.592 109.541 476.457 109.274 476.412 108.986L475.9 105.703L475.38 108.986C475.336 109.274 475.2 109.541 474.994 109.748C474.787 109.954 474.52 110.09 474.232 110.134L470.941 110.654L474.232 111.174C474.52 111.218 474.787 111.354 474.994 111.56C475.2 111.767 475.336 112.034 475.38 112.322L475.9 115.605L476.412 112.322C476.457 112.034 476.592 111.767 476.798 111.56C477.005 111.354 477.272 111.218 477.561 111.174Z" fill="white"/>
<path d="M691.01 118.438L694.3 117.925L691.01 117.406C690.722 117.36 690.455 117.224 690.249 117.018C690.043 116.812 689.907 116.545 689.861 116.257L689.341 112.967L688.829 116.257C688.784 116.545 688.648 116.812 688.442 117.018C688.235 117.224 687.969 117.36 687.681 117.406L684.391 117.925L687.681 118.438C687.969 118.483 688.235 118.619 688.442 118.825C688.648 119.032 688.784 119.298 688.829 119.586L689.341 122.876L689.861 119.586C689.907 119.298 690.043 119.032 690.249 118.825C690.455 118.619 690.722 118.483 691.01 118.438Z" fill="#1070B7"/>
<path opacity="0.5" d="M691.01 118.438L694.3 117.925L691.01 117.406C690.722 117.36 690.455 117.224 690.249 117.018C690.043 116.812 689.907 116.545 689.861 116.257L689.341 112.967L688.829 116.257C688.784 116.545 688.648 116.812 688.442 117.018C688.235 117.224 687.969 117.36 687.681 117.406L684.391 117.925L687.681 118.438C687.969 118.483 688.235 118.619 688.442 118.825C688.648 119.032 688.784 119.298 688.829 119.586L689.341 122.876L689.861 119.586C689.907 119.298 690.043 119.032 690.249 118.825C690.455 118.619 690.722 118.483 691.01 118.438Z" fill="white"/>
<path d="M540.644 91.0907L543.864 90.5863L540.644 90.0819C540.361 90.0377 540.1 89.9049 539.898 89.7026C539.695 89.5004 539.563 89.2392 539.518 88.9567L539.006 85.7285L538.502 88.9567C538.456 89.2388 538.323 89.4993 538.121 89.7014C537.919 89.9034 537.659 90.0365 537.377 90.0819L534.148 90.5863L537.377 91.0907C537.659 91.136 537.919 91.2692 538.121 91.4712C538.323 91.6732 538.456 91.9338 538.502 92.2159L538.975 95.4751L539.487 92.2469C539.527 91.9543 539.662 91.6827 539.871 91.4739C540.079 91.265 540.351 91.1304 540.644 91.0907Z" fill="white"/>
<path d="M647.335 122.952L650.563 122.44L647.335 121.935C647.053 121.89 646.792 121.757 646.59 121.555C646.388 121.353 646.255 121.092 646.21 120.81L645.705 117.582L645.201 120.81C645.156 121.092 645.023 121.353 644.82 121.555C644.618 121.757 644.358 121.89 644.076 121.935L640.848 122.44L644.076 122.952C644.358 122.996 644.62 123.129 644.822 123.331C645.024 123.533 645.157 123.795 645.201 124.077L645.705 127.298L646.21 124.077C646.254 123.795 646.387 123.533 646.589 123.331C646.791 123.129 647.052 122.996 647.335 122.952Z" fill="white"/>
<path d="M339.161 128.189C339.423 128.065 339.71 128 340.001 128C340.291 128 340.578 128.065 340.841 128.189L345.715 130.498C345.799 130.538 345.871 130.601 345.922 130.681C345.973 130.76 346 130.851 346.001 130.945C346.001 131.039 345.976 131.132 345.927 131.212C345.877 131.292 345.807 131.356 345.723 131.398L340.873 133.804C340.602 133.938 340.303 134.008 340.001 134.008C339.698 134.008 339.4 133.938 339.129 133.804L335.001 131.756V134C335.001 134.133 334.948 134.26 334.854 134.353C334.76 134.447 334.633 134.5 334.501 134.5C334.368 134.5 334.241 134.447 334.147 134.353C334.053 134.26 334.001 134.133 334.001 134V131V130.975C333.996 130.876 334.021 130.778 334.071 130.693C334.122 130.608 334.197 130.54 334.287 130.498L339.161 128.188V128.189ZM336.001 133.369V135C336.001 135.066 336.014 135.131 336.039 135.192C336.064 135.252 336.101 135.307 336.148 135.354L336.15 135.357L336.173 135.378L336.233 135.434C336.546 135.713 336.885 135.963 337.245 136.179C337.913 136.58 338.878 137 340.001 137C341.124 137 342.089 136.58 342.758 136.179C343.117 135.963 343.456 135.713 343.77 135.434L343.83 135.378L343.846 135.362L343.852 135.356L343.853 135.355L343.855 135.354C343.901 135.307 343.938 135.252 343.963 135.191C343.988 135.131 344.001 135.066 344.001 135V133.368L341.317 134.7C340.908 134.903 340.457 135.008 340.001 135.008C339.544 135.008 339.094 134.903 338.685 134.7L336.001 133.368V133.369Z" fill="black"/>
</g>
<defs>
<clipPath id="clip0">
<rect width="893" height="201" fill="white"/>
</clipPath>
</defs>
</svg>
