<svg width="89" height="89" viewBox="0 0 89 89" fill="none" xmlns="http://www.w3.org/2000/svg">
<path fill-rule="evenodd" clip-rule="evenodd" d="M43.7759 0.517132C53.7226 -1.96782 63.6484 4.99593 71.7931 10.8968C79.7471 16.6595 88.5368 23.8601 88.9888 33.2739C89.4303 42.4694 76.678 47.3932 73.9702 56.2411C71.0818 65.6794 80.3142 77.7875 73.1689 84.9675C66.3062 91.8636 53.6938 88.1655 43.7759 86.5822C35.2652 85.2235 27.9899 81.1736 20.8559 76.6161C13.4818 71.9052 5.00065 67.6413 1.86707 59.809C-1.32192 51.8382 -0.349895 42.3577 4.20265 34.9916C8.39949 28.2011 18.7161 27.9672 24.8487 22.6248C32.4176 16.031 33.7915 3.01149 43.7759 0.517132Z" fill="white" fill-opacity="0.4"/>
<circle cx="43.8097" cy="44.5" r="26.5" fill="white"/>
<circle cx="43.8097" cy="44.5" r="27" stroke="black"/>
<path d="M42.1678 68.8097C56.8033 68.8097 68.6678 56.9452 68.6678 42.3097C68.6678 36.844 67.0131 31.7648 64.1773 27.5457C68.0063 32.1405 70.3097 38.0512 70.3097 44.4999C70.3097 59.1354 58.4452 70.9999 43.8097 70.9999C34.6398 70.9999 26.5578 66.3424 21.8002 59.2639C26.6612 65.0972 33.9809 68.8097 42.1678 68.8097Z" fill="black"/>
<path d="M32.9881 68.4746C43.8041 67.3509 65.8073 58.4909 66.974 31.0724" stroke="black" stroke-linecap="round" stroke-linejoin="round"/>
<path d="M24.3028 26.3524L64.9699 60.1047" stroke="black" stroke-linecap="round" stroke-linejoin="round"/>
<path d="M17 45.351C18.0954 48.7056 23.4363 54.4682 38.4047 54.7679C53.3731 55.0676 57.8418 62.0107 58.2051 65.4448" stroke="black" stroke-linecap="round" stroke-linejoin="round"/>
<path d="M47.6375 18C50.8806 21.9648 57.345 32.0901 58.0793 40.8737C58.8136 49.6573 64.9938 52.4631 67.9922 52.7681" stroke="black" stroke-linecap="round" stroke-linejoin="round"/>
</svg>
