<svg width="90" height="79" viewBox="0 0 90 79" fill="none" xmlns="http://www.w3.org/2000/svg">
<path fill-rule="evenodd" clip-rule="evenodd" d="M5.7385 70.7489C-8.38426 60.9104 8.52983 47.8734 4.39809 32.2843C0.266341 16.6951 -9.74215 -6.54854 29.7423 1.7338C69.7482 10.1255 95.1214 20.9312 89.1252 54.402C83.1289 87.8727 19.8613 80.5873 5.7385 70.7489Z" fill="white" fill-opacity="0.32"/>
<path d="M22.1996 42.7947C22.1996 39.481 24.8859 36.7947 28.1996 36.7947H72.2292C73.2801 36.7947 73.9027 38.6642 73.2744 39.5065C72.4359 40.6305 71.7566 42.1052 71.7566 43.9335C71.7566 45.8716 72.52 47.4343 73.427 48.6071C74.0626 49.4288 73.4647 51.2052 72.426 51.2052H28.1996C24.8859 51.2052 22.1996 48.5189 22.1996 45.2052V42.7947Z" fill="black"/>
<path d="M17.6036 26.1634C17.6036 24.0247 19.3374 22.2909 21.4762 22.2909H67.6422C67.6422 22.2909 64.0672 24.5984 63.695 28.9592C63.3228 33.32 67.6422 35.5972 67.6422 35.5972H21.4762C19.3374 35.5972 17.6036 33.8634 17.6036 31.7246V26.1634Z" fill="white"/>
<path fill-rule="evenodd" clip-rule="evenodd" d="M68.3448 23.3737C68.3442 23.3741 68.3436 23.3745 68.3431 23.3749L68.3306 23.3834C68.3141 23.3946 68.2858 23.4144 68.247 23.4425C68.1695 23.4989 68.0512 23.5885 67.9047 23.7107C67.6106 23.9561 67.2094 24.3274 66.7976 24.8188C65.9711 25.805 65.1382 27.2293 64.9812 29.0689C64.8366 30.7633 65.5901 32.0808 66.4756 33.0358C66.9167 33.5115 67.372 33.8748 67.7173 34.1185C67.8888 34.2395 68.0299 34.3286 68.1239 34.3854C68.1709 34.4137 68.2058 34.4337 68.2266 34.4454C68.237 34.4513 68.2439 34.455 68.2469 34.4567L68.2459 34.4561L68.2451 34.4557C68.2461 34.4563 68.2472 34.4568 68.2483 34.4574C68.7706 34.7351 69.0375 35.3326 68.8953 35.9072C68.7527 36.4833 68.2357 36.888 67.6422 36.888H21.4761C18.6245 36.888 16.3128 34.5763 16.3128 31.7246V26.1634C16.3128 23.3117 18.6245 21 21.4761 21H67.6422C68.2146 21 68.7186 21.3769 68.8804 21.9259C69.0417 22.4734 68.8244 23.0616 68.3464 23.3727C68.3459 23.3731 68.3453 23.3734 68.3448 23.3737ZM65.9171 34.3063C66.8158 35.1615 67.6422 35.5971 67.6422 35.5971H21.4761C19.3374 35.5971 17.6036 33.8633 17.6036 31.7246V26.1634C17.6036 24.0246 19.3374 22.2908 21.4761 22.2908H67.6422C67.6422 22.2908 66.9647 22.7281 66.1689 23.5817C65.1366 24.6889 63.9052 26.4967 63.695 28.9591C63.4856 31.4125 64.7612 33.2064 65.9171 34.3063Z" fill="black"/>
<path d="M14.2909 56.2755C14.2909 54.1367 16.0247 52.403 18.1634 52.403H64.3295C64.3295 52.403 61.0871 54.4301 60.5486 58.9714C60.0101 63.5127 64.3295 65.7092 64.3295 65.7092H18.1634C16.0247 65.7092 14.2909 63.9754 14.2909 61.8367V56.2755Z" fill="white"/>
<path fill-rule="evenodd" clip-rule="evenodd" d="M65.017 53.4953C65.0168 53.4954 65.0171 53.4952 65.017 53.4953C65.0163 53.4958 65.0155 53.4962 65.0148 53.4966C65.0148 53.4967 65.0149 53.4966 65.0148 53.4966M62.8883 53.6936C63.6653 52.818 64.3295 52.4028 64.3295 52.4028H18.1634C16.0246 52.4028 14.2908 54.1366 14.2908 56.2753V61.8365C14.2908 63.9753 16.0246 65.7091 18.1634 65.7091H64.3295C64.3295 65.7091 63.4916 65.283 62.6 64.4182C61.467 63.3195 60.2472 61.5125 60.5486 58.9713C60.8434 56.4853 61.9484 54.7527 62.8883 53.6936ZM64.9155 64.5589C64.9168 64.5596 64.918 64.5602 64.9193 64.5609C64.9199 64.5612 64.9198 64.5611 64.9193 64.5609C65.4484 64.8326 65.7235 65.4311 65.5848 66.0099C65.4456 66.5905 64.9265 66.9999 64.3295 66.9999H18.1634C15.3117 66.9999 13 64.6882 13 61.8365V56.2753C13 53.4237 15.3117 51.1119 18.1634 51.1119H64.3295C64.9053 51.1119 65.4115 51.4933 65.5703 52.0468C65.7283 52.5978 65.504 53.1868 65.0203 53.4932C65.0193 53.4938 65.018 53.4947 65.017 53.4953M64.9185 64.5604C64.9159 64.5591 64.9095 64.5557 64.8995 64.5503C64.8796 64.5394 64.8457 64.5205 64.7999 64.4935C64.7081 64.4394 64.5699 64.3538 64.402 64.2365C64.0637 64.0003 63.6193 63.6459 63.1934 63.1761C62.3469 62.2425 61.6181 60.9139 61.8304 59.1233C62.0651 57.1442 62.8847 55.7259 63.6406 54.8008C64.0199 54.3366 64.3819 53.9985 64.6421 53.7811C64.7718 53.6727 64.8752 53.5952 64.9411 53.5479C64.974 53.5243 64.9975 53.5084 65.0101 53.4999L65.017 53.4953L65.0156 53.4962L65.0148 53.4966M64.9185 64.5604L64.9178 64.5601L64.9164 64.5594" fill="black"/>
<path d="M26.0666 40.6949H56.1575" stroke="white" stroke-width="2" stroke-linecap="round" stroke-linejoin="round"/>
<path d="M26.0666 44.0001H42.4924" stroke="white" stroke-width="2" stroke-linecap="round" stroke-linejoin="round"/>
<path d="M53.0518 21.8479H58.4003V28.905C58.4003 29.7959 57.3231 30.2421 56.6932 29.6121L56.4331 29.3521C56.0426 28.9615 55.4095 28.9615 55.0189 29.3521L54.7589 29.6121C54.1289 30.2421 53.0518 29.7959 53.0518 28.905V21.8479Z" fill="black"/>
<path d="M17.2326 55.751H47.3235" stroke="black" stroke-width="2" stroke-linecap="round" stroke-linejoin="round"/>
<path d="M17.2326 59.0563H33.6584" stroke="black" stroke-width="2" stroke-linecap="round" stroke-linejoin="round"/>
<path d="M21.0975 25.7419H46.3573" stroke="black" stroke-width="2" stroke-linecap="round" stroke-linejoin="round"/>
</svg>
