<svg width="108" height="108" viewBox="0 0 108 108" fill="none" xmlns="http://www.w3.org/2000/svg">
<path fill-rule="evenodd" clip-rule="evenodd" d="M56.2159 7.20692C66.7406 5.3885 77.1748 -3.47486 86.9687 1.49448C97.1963 6.68386 103.27 19.9363 106.461 32.7007C109.606 45.2846 107.439 58.4601 104.359 71.0671C101.191 84.0316 98.4935 99.3408 88.6021 105.791C78.8429 112.155 67.3195 102.776 56.2159 102.461C45.5176 102.158 33.1156 112.247 24.9236 103.984C16.6193 95.6076 24.3944 78.3597 20.3472 66.2807C15.766 52.6081 -2.54486 44.8249 0.298144 30.4886C3.06247 16.5491 20.0072 15.8114 31.2871 11.115C39.4029 7.73585 47.7131 8.676 56.2159 7.20692Z" fill="white" fill-opacity="0.32"/>
<g opacity="0.5">
<path opacity="0.5" d="M18.8749 41.044C19.2545 41.2085 19.6201 41.404 19.9681 41.6285C20.1271 41.7537 20.2926 41.8704 20.4637 41.9781C20.2687 41.8806 20.3799 41.9124 20.4522 41.9714C20.4896 42.0018 20.5266 42.0327 20.5633 42.0639C20.6442 42.1324 20.7236 42.2026 20.8017 42.2745C21.0979 42.5508 21.3736 42.8486 21.6267 43.1655C21.7578 43.3275 21.4969 42.9856 21.6183 43.1551C21.6464 43.1944 21.6753 43.233 21.7033 43.2724C21.7649 43.3589 21.8246 43.4467 21.8825 43.5359C21.9983 43.7142 22.1055 43.8977 22.2063 44.085C22.3354 44.3033 22.5444 44.4617 22.7882 44.5261C23.0321 44.5906 23.2913 44.556 23.51 44.4297C23.7242 44.2974 23.8795 44.0868 23.9432 43.8418C24.0069 43.5968 23.9742 43.3365 23.8519 43.1153C22.9589 41.4589 21.547 40.1472 19.8368 39.3849C19.612 39.2633 19.3508 39.2288 19.1025 39.2881C18.9218 39.3384 18.7598 39.4412 18.6368 39.5838C18.5137 39.7265 18.4352 39.9025 18.4109 40.0899C18.3866 40.2773 18.4176 40.4678 18.5002 40.6375C18.5827 40.8072 18.7131 40.9486 18.8749 41.044Z" fill="white"/>
</g>
<g opacity="0.5">
<path opacity="0.5" d="M23.1307 64.036C23.8164 65.5504 24.8875 66.8549 26.2351 67.8168C26.3451 67.8812 26.4666 67.9228 26.5926 67.9394C26.7187 67.9561 26.8467 67.9473 26.9694 67.9137C27.1501 67.8634 27.3121 67.7605 27.4351 67.6179C27.5582 67.4753 27.6367 67.2993 27.661 67.1119C27.6853 66.9245 27.6543 66.734 27.5717 66.5643C27.4892 66.3946 27.3588 66.2532 27.197 66.1578C27.1595 66.1305 27.1222 66.1031 27.085 66.0752C26.9654 65.9854 27.07 66.0547 27.1235 66.1067C27.058 66.043 26.9778 65.9898 26.9078 65.9308C26.7731 65.817 26.6421 65.699 26.5148 65.5767C26.2534 65.3259 26.0084 65.0584 25.7812 64.7758C25.7579 64.7468 25.735 64.7175 25.7119 64.6884C25.5899 64.5346 25.8099 64.8223 25.7423 64.7276C25.6883 64.6519 25.6324 64.5777 25.5792 64.5014C25.4783 64.3563 25.3819 64.2082 25.2902 64.057C25.0975 63.7384 24.9258 63.4075 24.7762 63.0663C24.6507 62.85 24.4464 62.6915 24.2067 62.6248C23.9589 62.5583 23.695 62.5931 23.4725 62.7216C23.2585 62.8488 23.1015 63.0546 23.0346 63.2958C22.9809 63.5463 23.0149 63.8078 23.1307 64.036V64.036Z" fill="white"/>
</g>
<g opacity="0.5">
<path opacity="0.5" d="M43.8038 51.0034C44.2971 52.9859 44.4459 55.0396 44.2436 57.0733C44.2444 57.3278 44.3451 57.5717 44.5236 57.7517C44.7021 57.9316 44.944 58.0331 45.1965 58.034C45.4471 58.0274 45.6857 57.9241 45.863 57.7454C46.0403 57.5666 46.1428 57.326 46.1493 57.0733C46.3535 54.8666 46.1818 52.6409 45.6415 50.4926C45.5743 50.2469 45.413 50.0382 45.1932 49.9124C44.9734 49.7866 44.713 49.7539 44.4693 49.8217C44.2256 49.8894 44.0186 50.052 43.8938 50.2736C43.769 50.4952 43.7366 50.7577 43.8038 51.0034Z" fill="white"/>
</g>
<g opacity="0.5">
<path opacity="0.5" d="M36.0222 32.6481C36.01 32.7484 35.9968 32.8486 35.9847 32.9489C35.9754 33.0197 35.9774 33.0062 35.9904 32.9082C35.9827 32.9654 35.9748 33.0226 35.9668 33.0798C35.9428 33.2513 35.9176 33.4226 35.8911 33.5938C35.8338 33.9647 35.7707 34.3346 35.7019 34.7035C35.5643 35.4413 35.404 36.1743 35.2211 36.9023C35.1874 37.0241 35.1779 37.1514 35.1931 37.2769C35.2083 37.4024 35.2479 37.5236 35.3096 37.6337C35.3714 37.7437 35.454 37.8404 35.5529 37.9181C35.6518 37.9959 35.7649 38.0532 35.8858 38.0868C36.0067 38.1204 36.133 38.1296 36.2574 38.114C36.3819 38.0983 36.502 38.058 36.611 37.9954C36.7199 37.9328 36.8156 37.8491 36.8924 37.7492C36.9692 37.6493 37.0258 37.5351 37.0587 37.4131C37.4467 35.8446 37.737 34.2532 37.928 32.6482C37.9275 32.3935 37.827 32.1494 37.6484 31.9694C37.4698 31.7893 37.2277 31.688 36.9751 31.6875C36.7247 31.6948 36.4865 31.7984 36.3093 31.977C36.1322 32.1556 36.0295 32.3957 36.0222 32.6482V32.6481Z" fill="white"/>
</g>
<g opacity="0.5">
<path opacity="0.5" d="M42.3153 22.9109C42.3473 22.8956 42.3794 22.8811 42.4121 22.8671L42.1845 22.964C42.3255 22.9072 42.4727 22.8675 42.623 22.8455L42.3697 22.8798C42.5436 22.8576 42.7195 22.8571 42.8935 22.8782L42.6402 22.8439C42.8385 22.8709 43.0325 22.9236 43.2174 23.0007L42.9898 22.9038C43.1629 22.9786 43.3264 23.0742 43.4767 23.1885L43.2838 23.0383C43.4222 23.1468 43.5468 23.272 43.6547 23.4111L43.5057 23.2167C43.5972 23.339 43.674 23.4717 43.7346 23.6121L43.6385 23.3826C43.652 23.4156 43.6646 23.4488 43.6767 23.4824C43.749 23.7208 43.9046 23.9248 44.1146 24.0565C44.2782 24.1529 44.4667 24.198 44.6558 24.1859C44.845 24.1739 45.0262 24.1052 45.1765 23.9888C45.3268 23.8723 45.4392 23.7133 45.4994 23.5321C45.5596 23.351 45.5648 23.1558 45.5144 22.9716C45.3719 22.5521 45.1377 22.1703 44.8292 21.8543C44.5121 21.5458 44.1361 21.3055 43.7241 21.148C43.3442 20.9951 42.9364 20.9253 42.5277 20.9432C42.119 20.9611 41.7187 21.0663 41.3534 21.2519C41.1393 21.3789 40.9823 21.5847 40.9155 21.826C40.8496 22.0759 40.8841 22.3419 41.0116 22.5663C41.1377 22.7821 41.3418 22.9403 41.581 23.0077C41.8294 23.0643 42.0897 23.03 42.3153 22.9109Z" fill="white"/>
</g>
<g opacity="0.5">
<path opacity="0.5" d="M32.6644 86.0961C33.7577 87.6837 35.0015 89.3492 36.9388 89.8941C37.1822 89.961 37.442 89.9279 37.6612 89.8019C37.8804 89.676 38.0412 89.4676 38.1082 89.2224C38.1753 88.9772 38.1432 88.7152 38.0189 88.4938C37.8947 88.2725 37.6884 88.1098 37.4454 88.0415C37.3462 88.0136 37.248 87.983 37.1511 87.9478C37.1093 87.9274 37.0658 87.9107 37.0211 87.8979C37.1546 87.9559 37.188 87.9701 37.1211 87.9404C37.0958 87.9292 37.0706 87.9176 37.0456 87.9057C36.8624 87.8189 36.6854 87.7193 36.516 87.6076C36.4385 87.5569 36.3641 87.5021 36.2884 87.4488C36.1231 87.3327 36.4605 87.5921 36.3046 87.4626C36.2687 87.4328 36.2324 87.4036 36.1967 87.3734C36.0385 87.2395 35.8872 87.0973 35.742 86.9493C35.6014 86.806 35.4663 86.6573 35.3358 86.5047C35.2669 86.4242 35.1992 86.3427 35.1326 86.2601C35.0851 86.2013 34.8835 85.912 35.049 86.1579C34.8134 85.8077 34.5496 85.4744 34.31 85.1264C34.1824 84.9064 33.9734 84.7464 33.7289 84.6818C33.4844 84.6172 33.2245 84.6531 33.0063 84.7817C32.7881 84.9103 32.6295 85.121 32.5653 85.3675C32.5012 85.614 32.5369 85.8761 32.6644 86.0961V86.0961Z" fill="white"/>
</g>
<g opacity="0.5">
<path opacity="0.5" d="M42.5053 76.7581C43.0324 77.9819 43.324 79.2956 43.3645 80.6292C43.3042 82.0232 42.4843 82.9479 41.6266 83.9485C40.2127 85.598 39.3384 87.391 39.7721 89.6166C39.9724 90.5783 40.4125 91.4726 41.0508 92.2153C41.6891 92.958 42.5045 93.5244 43.4202 93.8613C44.3358 94.1981 45.3215 94.2942 46.2842 94.1405C47.247 93.9868 48.1549 93.5883 48.9225 92.9827C50.7244 91.5549 51.2648 89.2376 51.5949 87.0648C52.0064 84.355 52.4265 81.6356 52.6885 78.9064C52.978 76.3305 52.9581 73.7288 52.6292 71.1577C52.3069 68.9232 51.6866 66.2412 50.2042 64.4689C48.1479 62.0106 44.7837 63.4502 42.0907 63.0197C40.8852 62.8061 39.7656 62.2492 38.864 61.4148C37.9623 60.5804 37.3163 59.5034 37.0022 58.3108C36.9281 58.0732 36.7654 57.8739 36.5484 57.7548C36.3315 57.6357 36.0771 57.6061 35.8389 57.6723C35.6008 57.7385 35.3974 57.8953 35.2716 58.1096C35.1458 58.324 35.1074 58.5792 35.1645 58.8216C35.6768 60.676 36.8005 62.2991 38.3504 63.4233C39.9003 64.5475 41.7839 65.1058 43.6907 65.006C44.8609 64.8907 46.0382 64.8674 47.212 64.9363C48.604 65.1196 49.1801 66.1958 49.6741 67.3946C50.5388 69.6197 50.9831 71.9883 50.9841 74.3782C50.9973 76.7349 50.833 79.0892 50.4924 81.4207C50.2545 83.7552 49.8974 86.0758 49.4225 88.3732C48.9433 90.3831 47.8027 92.131 45.5937 92.2968C44.6518 92.3745 43.7159 92.088 42.976 91.4953C42.2361 90.9026 41.7476 90.0483 41.6097 89.1058C41.1983 86.648 43.2304 85.3534 44.3959 83.5177C45.8444 81.2365 45.1757 78.6197 44.343 76.2473C43.9367 75.0896 42.0947 75.5882 42.5053 76.758V76.7581Z" fill="white"/>
</g>
<g opacity="0.5">
<path opacity="0.5" d="M17.365 58.2246C14.1701 60.9794 14.3077 65.631 16.147 69.1178C17.0651 70.9418 18.395 72.5231 20.0296 73.7347C21.8453 74.9646 24.0545 75.4586 26.2157 75.118C27.9856 74.6766 29.6028 73.0944 30.68 71.6818C31.8898 70.1087 32.676 68.2472 32.9623 66.2777C33.1453 65.3635 33.0868 64.4168 32.7927 63.5326C32.4986 62.6483 31.9793 61.8575 31.2867 61.2393C29.7667 59.9 27.7907 59.4082 26.1494 58.275C25.1461 57.5261 24.4598 56.4236 24.2271 55.1871C23.9944 53.9507 24.2325 52.6713 24.894 51.604C25.282 51.1267 25.7612 50.7328 26.303 50.4457C26.8448 50.1586 27.4382 49.984 28.0482 49.9324C29.2746 49.6874 30.6959 49.3535 31.8404 50.0215C32.058 50.1399 32.3127 50.1684 32.5507 50.1011C32.7888 50.0337 32.9916 49.8758 33.1164 49.6606C33.2412 49.4453 33.2782 49.1897 33.2195 48.9475C33.1609 48.7053 33.0113 48.4956 32.8022 48.3625C31.1254 47.3836 29.1748 47.7379 27.3697 48.1152C26.4673 48.2348 25.6045 48.5627 24.8483 49.0733C24.0921 49.5839 23.463 50.2634 23.0098 51.0591C22.177 52.762 22.0279 54.7231 22.5935 56.5341C22.8818 57.3788 23.3325 58.1579 23.9198 58.8267C24.5071 59.4956 25.2194 60.0412 26.0161 60.4322C27.5505 61.2678 29.516 61.8093 30.598 63.2854C31.7653 64.878 30.951 67.4004 30.1365 68.9856C29.2923 70.7047 27.9453 72.1212 26.2773 73.0441C25.3029 73.5413 24.0274 73.2371 23.0118 72.9801C21.9413 72.7124 20.9615 72.1604 20.1743 71.3815C17.1563 68.4574 14.9368 62.8388 18.7126 59.5831C19.6461 58.7782 18.2928 57.4246 17.365 58.2245L17.365 58.2246Z" fill="white"/>
</g>
<g opacity="0.5">
<path opacity="0.5" d="M24.1068 76.3683C22.9502 79.1813 25.7525 82.094 27.9375 83.4346C29.2663 84.1598 30.7917 84.4335 32.2871 84.2152C33.7186 84.1033 35.3989 84.102 36.5758 83.1824C36.7533 83.0016 36.8529 82.7575 36.8529 82.5031C36.8529 82.2487 36.7533 82.0046 36.5758 81.8238C36.3941 81.6495 36.1528 81.5523 35.902 81.5523C35.6512 81.5523 35.4099 81.6495 35.2282 81.8238C34.8155 82.0252 34.3626 82.1289 33.9041 82.127C33.2998 82.2059 32.6932 82.2667 32.0844 82.3091C30.9934 82.4807 29.8767 82.2936 28.8993 81.7756C28.0281 81.2093 27.2528 80.5054 26.6031 79.691C26.2413 79.3327 25.9875 78.8786 25.8709 78.381C25.7544 77.8834 25.7799 77.3626 25.9445 76.879C26.0101 76.6334 25.9771 76.3716 25.8525 76.1504C25.7279 75.9291 25.5218 75.7663 25.2789 75.6973C25.0355 75.636 24.778 75.6715 24.5598 75.7964C24.3416 75.9214 24.1794 76.1261 24.1068 76.3683Z" fill="white"/>
</g>
<g opacity="0.5">
<path opacity="0.5" d="M13.7268 46.2187C12.9857 47.0079 12.4287 47.9539 12.0964 48.9878C11.7641 50.0216 11.6649 51.1172 11.806 52.1946C12.0025 54.6629 12.807 57.0428 14.1467 59.1183C14.8116 60.1521 16.4621 59.1901 15.7923 58.1485C14.653 56.4176 13.9444 54.4353 13.7265 52.3696C13.57 50.67 13.773 48.7997 15.0743 47.5774C15.9736 46.7327 14.6237 45.3763 13.7268 46.2188L13.7268 46.2187Z" fill="white"/>
</g>
<g opacity="0.5">
<path opacity="0.5" d="M18.5615 46.5157C15.9175 43.1315 13.0183 38.3569 15.5391 34.0919C16.4913 32.4746 18.0299 31.294 19.8297 30.7995C20.801 30.5071 21.8424 30.5602 22.7794 30.9499C23.7164 31.3397 24.492 32.0423 24.9762 32.9401C26.9885 36.1675 26.924 40.461 30.1768 42.8969C31.9177 44.0484 33.8972 44.7824 35.9633 45.0424C37.9957 45.5066 40.1205 45.3316 42.0513 44.5409C42.9967 44.0622 43.8242 43.3767 44.4734 42.5345C45.1226 41.6923 45.5771 40.7146 45.8039 39.6728C46.4309 37.4022 46.7991 34.8388 46.0525 32.5586C45.6698 31.3899 43.8288 31.8905 44.2148 33.0693C44.9142 35.205 44.4875 37.7304 43.765 39.818C43.4212 40.8574 42.76 41.7605 41.876 42.3978C40.992 43.0352 39.9307 43.3742 38.8439 43.3663C36.5028 43.4427 34.1804 42.9223 32.0918 41.8533C30.1053 40.7789 29.2509 38.8114 28.5666 36.7527C27.4528 33.4016 26.0492 29.1923 21.9843 28.7247C18.2833 28.299 14.6771 30.9467 13.3146 34.311C11.3252 39.2233 14.2755 44.1133 17.2139 47.8742C17.9723 48.8449 19.3126 47.477 18.5615 46.5156L18.5615 46.5157Z" fill="white"/>
</g>
<g opacity="0.5">
<path opacity="0.5" d="M24.4814 27.343C24.6664 25.7822 25.3682 24.33 26.4735 23.2213C27.5787 22.1127 29.0227 21.4124 30.5717 21.2338C30.8226 21.228 31.0616 21.1249 31.239 20.946C31.4165 20.7671 31.5187 20.5261 31.5246 20.2732C31.5225 20.019 31.4214 19.7759 31.2432 19.5962C31.0649 19.4165 30.8238 19.3146 30.5717 19.3125C28.5088 19.4534 26.5684 20.3503 25.1162 21.8342C23.6943 23.3407 22.8018 25.2759 22.5757 27.343C22.577 27.5974 22.6778 27.841 22.8562 28.0209C23.0346 28.2007 23.2762 28.3024 23.5286 28.3037C23.7793 28.2975 24.0182 28.1943 24.1956 28.0155C24.373 27.8367 24.4753 27.5959 24.4814 27.343H24.4814Z" fill="white"/>
</g>
<g opacity="0.5">
<path opacity="0.5" d="M37.9042 25.6374C36.2992 24.0491 34.7954 22.1147 34.5956 19.7698C34.5005 18.7061 34.7351 17.6388 35.2671 16.7152C35.7991 15.7916 36.6022 15.0572 37.5657 14.6132C39.6026 13.6995 41.849 13.3662 44.0606 13.6495C45.8455 13.8148 47.792 14.4225 48.786 16.0416C49.9419 17.9245 49.5646 20.4416 49.4681 22.5377C49.3507 25.0875 49.2946 27.64 49.2707 30.1924C49.2222 35.3577 49.2784 40.5243 49.3024 45.6896C49.316 48.6188 49.3879 51.5545 49.3333 54.4833C49.285 57.0754 48.8847 59.7686 46.7782 61.4999C45.8272 62.2814 47.1825 63.6336 48.1258 62.8584C50.0628 61.2665 50.8779 58.8484 51.1329 56.4134C51.3231 53.4108 51.3509 50.3999 51.2161 47.3942C51.1872 41.2357 51.1058 35.0743 51.1912 28.9161C51.2324 25.9463 51.4459 22.9792 51.4785 20.0112C51.5036 17.7329 51.0972 15.3304 49.3362 13.734C47.6678 12.3914 45.5917 11.669 43.4571 11.6884C40.996 11.4904 38.5285 11.9808 36.3261 13.1056C35.1478 13.7453 34.1778 14.7146 33.5327 15.8968C32.8877 17.079 32.595 18.4239 32.6898 19.7698C32.9038 22.6445 34.5741 25.0341 36.5567 26.996C37.4327 27.8629 38.7813 26.5054 37.9042 25.6374Z" fill="white"/>
</g>
<g opacity="0.5">
<path opacity="0.5" d="M32.5614 77.5568C34.2541 77.0299 35.8441 76.2131 37.2618 75.1421C37.9001 74.5815 38.4515 73.9278 38.8978 73.2026C39.4282 72.4118 39.9577 71.6204 40.4864 70.8285C40.6139 70.6085 40.6496 70.3464 40.5855 70.0999C40.5213 69.8535 40.3627 69.6427 40.1445 69.5141C39.9263 69.3855 39.6664 69.3496 39.4219 69.4142C39.1774 69.4789 38.9684 69.6388 38.8408 69.8588L37.4119 71.9944C37.0308 72.6293 36.5596 73.2046 36.0133 73.702C34.8193 74.5963 33.4797 75.2739 32.0548 75.7041C31.8144 75.777 31.611 75.9404 31.4871 76.1605C31.3632 76.3806 31.3281 76.6404 31.3892 76.8858C31.4584 77.1302 31.62 77.3375 31.8392 77.4629C32.0584 77.5884 32.3178 77.6221 32.5614 77.5568Z" fill="white"/>
</g>
<g opacity="0.5">
<path opacity="0.5" d="M18.8749 41.044C19.2545 41.2085 19.6201 41.404 19.9681 41.6285C20.1271 41.7537 20.2926 41.8704 20.4637 41.9781C20.2687 41.8806 20.3799 41.9124 20.4522 41.9714C20.4896 42.0018 20.5266 42.0327 20.5633 42.0639C20.6442 42.1324 20.7236 42.2026 20.8017 42.2745C21.0979 42.5508 21.3736 42.8486 21.6267 43.1655C21.7578 43.3275 21.4969 42.9856 21.6183 43.1551C21.6464 43.1944 21.6753 43.233 21.7033 43.2724C21.7649 43.3589 21.8246 43.4467 21.8825 43.5359C21.9983 43.7142 22.1055 43.8977 22.2063 44.085C22.3354 44.3033 22.5444 44.4617 22.7882 44.5261C23.0321 44.5906 23.2913 44.556 23.51 44.4297C23.7242 44.2974 23.8795 44.0868 23.9432 43.8418C24.0069 43.5968 23.9742 43.3365 23.8519 43.1153C22.9589 41.4589 21.547 40.1472 19.8368 39.3849C19.612 39.2633 19.3508 39.2288 19.1025 39.2881C18.9218 39.3384 18.7598 39.4412 18.6368 39.5838C18.5137 39.7265 18.4352 39.9025 18.4109 40.0899C18.3866 40.2773 18.4176 40.4678 18.5002 40.6375C18.5827 40.8072 18.7131 40.9486 18.8749 41.044Z" fill="#D8C9FE"/>
</g>
<g opacity="0.5">
<path opacity="0.5" d="M23.1307 64.036C23.8164 65.5504 24.8875 66.8549 26.2351 67.8168C26.3451 67.8812 26.4666 67.9228 26.5926 67.9394C26.7187 67.9561 26.8467 67.9473 26.9694 67.9137C27.1501 67.8634 27.3121 67.7605 27.4351 67.6179C27.5582 67.4753 27.6367 67.2993 27.661 67.1119C27.6853 66.9245 27.6543 66.734 27.5717 66.5643C27.4892 66.3946 27.3588 66.2532 27.197 66.1578C27.1595 66.1305 27.1222 66.1031 27.085 66.0752C26.9654 65.9854 27.07 66.0547 27.1235 66.1067C27.058 66.043 26.9778 65.9898 26.9078 65.9308C26.7731 65.817 26.6421 65.699 26.5148 65.5767C26.2534 65.3259 26.0084 65.0584 25.7812 64.7758C25.7579 64.7468 25.735 64.7175 25.7119 64.6884C25.5899 64.5346 25.8099 64.8223 25.7423 64.7276C25.6883 64.6519 25.6324 64.5777 25.5792 64.5014C25.4783 64.3563 25.3819 64.2082 25.2902 64.057C25.0975 63.7384 24.9258 63.4075 24.7762 63.0663C24.6507 62.85 24.4464 62.6915 24.2067 62.6248C23.9589 62.5583 23.695 62.5931 23.4725 62.7216C23.2585 62.8488 23.1015 63.0546 23.0346 63.2958C22.9809 63.5463 23.0149 63.8078 23.1307 64.036V64.036Z" fill="#D8C9FE"/>
</g>
<path d="M51.1877 42.7129C51.2006 40.6114 51.2135 38.5098 51.2265 36.4083L51.2932 25.5869C51.2481 26.6966 51.2067 27.8064 51.1913 28.9166C51.1274 33.5144 51.1568 38.114 51.1877 42.7129Z" fill="white"/>
<path d="M49.912 60.6592C49.4645 61.5028 48.8578 62.25 48.1258 62.8589C47.986 62.9754 47.8169 63.0507 47.6372 63.0764C47.7422 63.093 47.8481 63.1073 47.9512 63.1297C48.8409 62.5287 49.5255 61.6661 49.912 60.6592Z" fill="white"/>
<path d="M50.5239 64.9043C51.5892 66.5983 52.2722 68.5076 52.5246 70.4972L52.53 70.4666C52.7534 69.5924 52.7506 68.675 52.5218 67.8022C52.2929 66.9294 51.8458 66.1305 51.2231 65.4817C51.008 65.2681 50.774 65.0749 50.5239 64.9043Z" fill="white"/>
<path d="M20.0299 73.7348C18.3952 72.5232 17.0654 70.9419 16.1473 69.1179C14.9923 67.0042 14.6035 64.551 15.0476 62.1797C14.62 63.2374 14.5313 64.4034 14.7938 65.5145C15.5149 69.1097 17.3588 72.682 20.6639 74.1246C20.4459 74.006 20.2343 73.8758 20.0299 73.7348Z" fill="white"/>
<path d="M51.6996 86.374C51.6646 86.6041 51.6298 86.8342 51.5951 87.0643C51.525 87.5256 51.4414 87.9929 51.3423 88.4574C51.5013 87.7705 51.6206 87.0749 51.6996 86.374Z" fill="white"/>
<path d="M39.7723 89.6164C39.3387 87.3909 40.2129 85.5978 41.6268 83.9483C42.4846 82.9477 43.3045 82.023 43.3648 80.6291C43.3242 79.2955 43.0327 77.9818 42.5056 76.758C42.095 75.5881 43.9369 75.0895 44.3433 76.2472C45.176 78.6196 45.8446 81.2364 44.3962 83.5176C43.2307 85.3532 41.1985 86.6478 41.61 89.1057C41.7479 90.0482 42.2364 90.9025 42.9763 91.4952C43.7162 92.0878 44.6521 92.3744 45.594 92.2967C47.803 92.1308 48.9436 90.383 49.4227 88.3731C49.8976 86.0756 50.2548 83.7551 50.4927 81.4206C50.8332 79.089 50.9976 76.7347 50.9844 74.378C50.9834 71.9882 50.5391 69.6196 49.6744 67.3944C49.1804 66.1956 48.6043 65.1195 47.2123 64.9361C46.0385 64.8672 44.8612 64.8906 43.691 65.0059C41.7842 65.1057 39.9006 64.5474 38.3507 63.4232C36.8008 62.2989 35.6771 60.6758 35.1648 58.8214C35.1077 58.5791 35.1461 58.3239 35.2719 58.1096C35.3977 57.8952 35.6011 57.7384 35.8393 57.6722C36.0774 57.606 36.3318 57.6356 36.5487 57.7547C36.7657 57.8738 36.9284 58.0731 37.0025 58.3106C37.3166 59.5032 37.9626 60.5803 38.8643 61.4147C39.7659 62.2491 40.8855 62.8059 42.091 63.0195C43.6746 63.2727 45.4889 62.8836 47.1343 63.0163C46.9788 62.9782 46.8368 62.8976 46.724 62.7832C46.6112 62.6688 46.532 62.5252 46.4951 62.3682C46.4583 62.2113 46.4653 62.0471 46.5153 61.8939C46.5653 61.7407 46.6563 61.6044 46.7784 61.5002C48.885 59.7689 49.2853 57.0757 49.3336 54.4836C49.3881 51.5548 49.3162 48.6191 49.3027 45.69C49.2787 40.5246 49.2225 35.358 49.2709 30.1928C49.2948 27.6403 49.3509 25.0879 49.4684 22.538C49.5649 20.4419 49.9421 17.9248 48.7862 16.042C47.7922 14.4229 45.8458 13.8152 44.0608 13.6498C41.8492 13.3665 39.6028 13.6998 37.5659 14.6136C36.6024 15.0576 35.7993 15.792 35.2673 16.7156C34.7353 17.6392 34.5007 18.7064 34.5957 19.7701C34.7956 22.1151 36.2994 24.0495 37.9044 25.6378C38.7815 26.5057 37.4328 27.8632 36.5569 26.9964C34.5743 25.0345 32.904 22.6449 32.69 19.7702C32.593 18.4868 32.8582 17.2019 33.455 16.0641C33.4418 16.0813 33.4275 16.0967 33.4144 16.114C33.1584 16.4684 32.9733 16.8698 32.8696 17.2956C32.5896 17.8692 32.3737 18.4725 32.2259 19.0941C32.2137 19.1462 32.2099 19.1989 32.1987 19.251C30.6598 18.984 29.0828 19.0397 27.5662 19.4147C23.7511 20.5921 22.2364 24.4126 22.1904 28.1097C22.0905 28.3145 21.9821 28.5152 21.8777 28.7178C21.9132 28.7213 21.9488 28.7205 21.9844 28.7246C26.0493 29.1922 27.4529 33.4014 28.5667 36.7526C29.251 38.8113 30.1054 40.7788 32.0919 41.8532C34.1805 42.9223 36.5029 43.4426 38.844 43.3661C39.9308 43.3741 40.9921 43.0351 41.8761 42.3977C42.7601 41.7604 43.4214 40.8573 43.7652 39.8179C44.4876 37.7303 44.9142 35.2049 44.2149 33.0692C43.8289 31.8904 45.6698 31.3898 46.0525 32.5584C46.7992 34.8387 46.4309 37.4021 45.8039 39.6726C45.5772 40.7145 45.1227 41.6922 44.4735 42.5344C43.8243 43.3766 42.9968 44.062 42.0513 44.5408C40.1206 45.3315 37.9958 45.5065 35.9634 45.0422C33.8973 44.7822 31.9177 44.0483 30.1768 42.8968C26.9241 40.4609 26.9886 36.1674 24.9763 32.9399C24.4921 32.0422 23.7164 31.3395 22.7794 30.9498C21.8424 30.5601 20.801 30.507 19.8298 30.7994C18.03 31.2939 16.4914 32.4745 15.5391 34.0918C13.0183 38.3568 15.9176 43.1314 18.5616 46.5155C19.3127 47.4769 17.9724 48.8448 17.2141 47.8741C14.8641 44.8663 12.5139 41.1359 12.6815 37.25C12.3654 39.8948 12.8055 42.5757 13.9499 44.9769C14.0859 45.2511 14.2368 45.5175 14.402 45.7749C14.3348 45.8365 14.2744 45.9065 14.2093 45.9706C15.0171 45.8259 15.821 46.8758 15.0743 47.5771C13.7729 48.7995 13.5699 50.6698 13.7265 52.3694C13.9443 54.4351 14.6529 56.4174 15.7922 58.1483C16.4621 59.1899 14.8115 60.1519 14.1467 59.1181C12.807 57.0426 12.0024 54.6627 11.806 52.1944C11.7968 52.0737 11.7974 51.951 11.7923 51.8293C11.721 53.1113 11.8374 54.3968 12.1376 55.6446C12.6793 57.754 13.6468 59.7279 14.9799 61.443C15.0424 61.5258 15.1081 61.6057 15.1726 61.6866C15.5467 60.339 16.3099 59.1339 17.3651 58.2247C18.2928 57.4248 19.6461 58.7784 18.7126 59.5833C14.9368 62.839 17.1564 68.4576 20.1743 71.3816C20.9615 72.1606 21.9414 72.7126 23.0119 72.9802C24.0275 73.2372 25.303 73.5415 26.2774 73.0443C27.9453 72.1214 29.2923 70.7049 30.1365 68.9858C30.9511 67.4006 31.7654 64.8782 30.598 63.2856C29.516 61.8095 27.5506 61.268 26.0162 60.4324C25.2195 60.0414 24.5071 59.4958 23.9199 58.8269C23.3326 58.158 22.8819 57.379 22.5936 56.5343C22.028 54.7233 22.1771 52.7622 23.0098 51.0593C23.463 50.2636 24.0922 49.584 24.8484 49.0734C25.6046 48.5628 26.4674 48.235 27.3698 48.1154C29.1749 47.7381 31.1255 47.3838 32.8023 48.3627C33.0114 48.4957 33.161 48.7055 33.2196 48.9477C33.2782 49.1899 33.2412 49.4455 33.1165 49.6607C32.9917 49.876 32.7889 50.0339 32.5508 50.1012C32.3127 50.1686 32.058 50.14 31.8404 50.0217C30.696 49.3536 29.2747 49.6876 28.0482 49.9326C27.4383 49.9842 26.8448 50.1588 26.303 50.4459C25.7612 50.7331 25.2821 51.1269 24.894 51.6042C24.2326 52.6715 23.9944 53.9509 24.2271 55.1873C24.4598 56.4237 25.1462 57.5263 26.1494 58.2752C27.7907 59.4084 29.7667 59.9002 31.2867 61.2395C31.9793 61.8577 32.4987 62.6485 32.7927 63.5328C33.0868 64.417 33.1453 65.3637 32.9623 66.2779C32.7246 67.9179 32.1366 69.4863 31.2389 70.8748C31.33 70.8647 31.4215 70.8595 31.5131 70.8593L31.2311 70.8928L31.2274 70.8933C31.0543 71.1624 30.8744 71.4272 30.6801 71.6821C29.6029 73.0946 27.9856 74.6768 26.2157 75.1182C25.6709 75.2429 25.1109 75.2861 24.5536 75.2466C24.0178 76.0387 23.733 76.9761 23.7369 77.9349C23.7592 82.5735 28.0878 85.3711 32.3078 84.6433C32.3059 84.7345 32.2887 84.8227 32.2928 84.915C32.3878 87.0522 33.7854 89.4151 36.0238 89.8555C37.0626 90.0598 38.1015 90.2642 39.1404 90.4685L39.7754 90.5934C39.9832 90.916 40.2209 91.218 40.4851 91.4956C41.1169 92.6045 42.1359 93.4362 43.3433 93.8284C42.4387 93.4958 41.6346 92.9333 41.009 92.1954C40.3833 91.4575 39.9574 90.5691 39.7723 89.6164ZM30.5719 21.2344C29.0229 21.413 27.5789 22.1132 26.4737 23.2219C25.3684 24.3306 24.6666 25.7828 24.4816 27.3436C24.4756 27.5965 24.3732 27.8372 24.1958 28.0161C24.0184 28.1949 23.7796 28.2981 23.5288 28.3043C23.2765 28.303 23.0348 28.2013 22.8564 28.0214C22.678 27.8416 22.5772 27.598 22.5759 27.3436C22.802 25.2765 23.6945 23.3413 25.1164 21.8348C26.5686 20.3509 28.509 19.454 30.5719 19.3131C30.824 19.3152 31.0651 19.4171 31.2433 19.5968C31.4216 19.7765 31.5227 20.0196 31.5248 20.2737C31.519 20.5267 31.4167 20.7677 31.2393 20.9466C31.0618 21.1255 30.8228 21.2286 30.5719 21.2344V21.2344ZM37.0588 37.4133C37.0255 37.535 36.9688 37.6488 36.8919 37.7484C36.815 37.8479 36.7194 37.9313 36.6105 37.9936C36.5017 38.0559 36.3818 38.0959 36.2576 38.1115C36.1333 38.1271 36.0073 38.1178 35.8867 38.0843C35.766 38.0508 35.6531 37.9936 35.5543 37.9161C35.4556 37.8385 35.3729 37.7422 35.3111 37.6324C35.2493 37.5227 35.2096 37.4018 35.1941 37.2765C35.1787 37.1513 35.1878 37.0243 35.2211 36.9026C35.4032 36.1746 35.5635 35.4417 35.702 34.7038C35.7708 34.3349 35.8339 33.965 35.8912 33.5941C35.9176 33.4229 35.9428 33.2516 35.9668 33.08L35.983 32.9623L35.9847 32.9492C35.9968 32.8489 36.0101 32.7487 36.0223 32.6484C36.0295 32.396 36.1323 32.1558 36.3094 31.9772C36.4866 31.7986 36.7247 31.6951 36.9751 31.6878C37.2277 31.6882 37.4698 31.7896 37.6484 31.9696C37.827 32.1497 37.9276 32.3938 37.928 32.6484C37.737 34.2534 37.4467 35.8448 37.0588 37.4133ZM44.8489 24.1532C44.601 24.2198 44.3372 24.185 44.1146 24.0564C43.9176 23.9322 43.7697 23.7428 43.6963 23.5205L43.7346 23.612C43.6873 23.5111 43.6314 23.4145 43.5675 23.3234C43.5069 23.2541 43.4419 23.1888 43.373 23.1279C43.1966 22.9925 42.9879 22.9065 42.7679 22.8785C42.6778 22.873 42.5875 22.8733 42.4974 22.8794C42.3909 22.8986 42.2862 22.9268 42.1845 22.9639L42.2912 22.9185C42.0718 23.0299 41.8209 23.0614 41.581 23.0077C41.3418 22.9402 41.1377 22.782 41.0116 22.5662C40.8841 22.3419 40.8496 22.0758 40.9155 21.826C40.9823 21.5847 41.1392 21.3789 41.3534 21.2519C41.7187 21.0663 42.119 20.961 42.5277 20.9431C42.9364 20.9252 43.3441 20.995 43.7241 21.148C44.1361 21.3055 44.5121 21.5457 44.8292 21.8542C45.1377 22.1702 45.3719 22.5521 45.5145 22.9716C45.5785 23.2171 45.5447 23.4782 45.4204 23.699C45.296 23.9199 45.0909 24.0829 44.8489 24.1532L44.8489 24.1532ZM44.4696 49.8214C44.7131 49.7574 44.9719 49.7916 45.1908 49.9169C45.4097 50.0422 45.5715 50.2486 45.6418 50.4923C46.1821 52.6406 46.3538 54.8663 46.1496 57.073C46.1431 57.3257 46.0406 57.5663 45.8633 57.7451C45.686 57.9238 45.4474 58.0271 45.1967 58.0337C44.9443 58.0328 44.7024 57.9313 44.5239 57.7513C44.3454 57.5714 44.2447 57.3275 44.2439 57.073C44.4462 55.0393 44.2974 52.9856 43.8041 51.0031C43.7409 50.7576 43.775 50.4968 43.8992 50.2762C44.0235 50.0556 44.228 49.8925 44.4696 49.8214V49.8214ZM22.7727 38.3986C22.7716 38.3525 22.7653 38.3067 22.7538 38.262C22.768 38.3044 22.7753 38.3488 22.7752 38.3935L22.7727 38.3986ZM22.7993 38.3442C22.8982 38.0823 23.0129 37.911 22.7993 38.3442V38.3442ZM32.2874 84.2153C30.792 84.4336 29.2666 84.1599 27.9378 83.4348C25.7528 82.0941 22.9504 79.1815 24.1071 76.3684C24.1796 76.1262 24.3418 75.9215 24.56 75.7966C24.7782 75.6717 25.0357 75.6362 25.2792 75.6975C25.5221 75.7665 25.7282 75.9292 25.8528 76.1505C25.9773 76.3717 26.0104 76.6335 25.9447 76.8792C25.7801 77.3628 25.7546 77.8835 25.8712 78.3811C25.9877 78.8786 26.2416 79.3328 26.6034 79.6911C27.253 80.5056 28.0283 81.2094 28.8996 81.7757C29.8769 82.2937 30.9937 82.4808 32.0847 82.3092C32.6926 82.2662 33.2991 82.2055 33.9044 82.1271C34.3629 82.129 34.8158 82.0253 35.2285 81.8239C35.4102 81.6496 35.6515 81.5524 35.9023 81.5524C36.1531 81.5524 36.3944 81.6496 36.5761 81.8239C36.7536 82.0048 36.8531 82.2489 36.8531 82.5032C36.8531 82.7576 36.7536 83.0017 36.5761 83.1825C35.3991 84.1022 33.7188 84.1035 32.2873 84.2153L32.2874 84.2153ZM38.1109 89.2232C38.0412 89.4673 37.8795 89.6741 37.6604 89.7995C37.4414 89.9249 37.1824 89.9589 36.9388 89.8942C35.0015 89.3493 33.7576 87.6838 32.6644 86.0961C32.6013 85.9872 32.56 85.8668 32.543 85.7418C32.526 85.6168 32.5336 85.4896 32.5653 85.3676C32.6294 85.1211 32.7881 84.9104 33.0063 84.7818C33.2245 84.6532 33.4844 84.6172 33.7289 84.6819C33.9734 84.7465 34.1824 84.9064 34.31 85.1264C34.5497 85.4744 34.8133 85.8078 35.0489 86.1579C34.8835 85.912 35.0851 86.2014 35.1326 86.2601C35.1992 86.3427 35.2669 86.4242 35.3358 86.5048C35.4663 86.6573 35.6014 86.8061 35.742 86.9493C35.8872 87.0974 36.0384 87.2396 36.1967 87.3735C36.2263 87.3986 36.2565 87.423 36.2865 87.4478L36.2883 87.4489C36.364 87.5022 36.4385 87.5569 36.516 87.6077C36.6854 87.7194 36.8624 87.819 37.0456 87.9058L37.0666 87.9154C37.0953 87.9268 37.1245 87.9382 37.1511 87.9479C37.248 87.9831 37.3462 88.0137 37.4454 88.0416C37.6865 88.1134 37.8906 88.2766 38.0147 88.497C38.1388 88.7174 38.1733 88.9778 38.1109 89.2233L38.1109 89.2232ZM38.7258 87.7766L38.7193 87.7653C38.6541 86.8665 38.6402 86.6263 38.6775 87.0445C38.6884 87.1725 38.71 87.2992 38.7258 87.4267V87.7766ZM38.8983 73.2027C38.4519 73.9279 37.9005 74.5817 37.2622 75.1423C35.8445 76.2132 34.2545 77.03 32.5618 77.5569C32.3182 77.6222 32.0589 77.5885 31.8396 77.463C31.6204 77.3375 31.4588 77.1303 31.3896 76.8859C31.3285 76.6405 31.3636 76.3807 31.4875 76.1606C31.6115 75.9405 31.8148 75.777 32.0552 75.7042C33.4801 75.274 34.8197 74.5964 36.0136 73.702C36.56 73.2047 37.0312 72.6294 37.4123 71.9945C37.8886 71.2826 38.3649 70.5707 38.8412 69.8589C38.9688 69.6389 39.1778 69.4789 39.4223 69.4143C39.6668 69.3497 39.9267 69.3856 40.1449 69.5142C40.3631 69.6428 40.5218 69.8535 40.5859 70.1C40.65 70.3465 40.6143 70.6086 40.4868 70.8286C39.9573 71.62 39.4277 72.4114 38.8982 73.2027H38.8983Z" fill="white"/>
<path d="M42.5463 32.9543C42.5435 32.9394 42.544 32.9241 42.5477 32.9094C42.5514 32.8947 42.5582 32.881 42.5677 32.8692C42.714 32.5738 43.1236 32.1119 43.741 32.7175C43.7667 32.7453 43.7877 32.7772 43.8033 32.8117C43.8817 33.5191 43.9492 34.2346 43.9826 34.9592C44.0898 36.3989 43.9458 37.8464 43.557 39.236C43.1284 40.6959 42.2156 41.9632 40.9712 42.826C39.7255 43.6507 38.2636 44.0808 36.7734 44.0611C35.2942 44.0685 33.8428 43.655 32.5862 42.868C30.1548 41.2569 28.4434 38.7524 27.8166 35.8879C27.6075 34.5776 27.2861 33.288 26.856 32.0336C26.6054 31.4832 26.2493 30.9882 25.8082 30.577C25.3671 30.1659 24.8497 29.8468 24.2858 29.6381C23.1138 29.1749 21.8497 28.9979 20.5969 29.1217C19.344 29.2456 18.1381 29.6666 17.0776 30.3505C16.0186 31.0608 15.1155 31.9827 14.4243 33.0592C13.733 34.1356 13.2684 35.3437 13.0591 36.6086C12.6315 39.1851 13.0992 41.8315 14.3833 44.1006L14.6279 44.5332L14.7056 44.6594L14.8606 44.9118L15.1899 45.4045C15.1899 45.4045 15.425 45.8032 15.7812 46.324C16.1233 46.8909 16.5732 47.3838 17.1051 47.7745C17.3882 47.9634 17.7276 48.0473 18.0652 48.0118C18.2669 47.9829 18.3585 47.9891 18.3418 48.0773C18.2975 48.1681 18.2342 48.2482 18.1562 48.3118C18.0782 48.3755 17.9874 48.4213 17.8901 48.4461C17.5263 48.5557 17.1365 48.5395 16.7829 48.4001C16.2056 48.1852 15.6889 47.8319 15.2772 47.3708C14.8466 46.9364 14.4417 46.4768 14.0646 45.9945C13.9463 45.818 13.8242 45.644 13.7158 45.4608L13.5487 45.1891L13.5072 45.121L13.301 44.7524C13.1337 44.4446 12.9716 44.1329 12.83 43.8115C11.6062 41.2311 11.3152 38.3008 12.0073 35.527C12.346 34.1323 12.9681 32.8235 13.8341 31.6836C14.7002 30.5436 15.7915 29.5972 17.0389 28.9042C18.306 28.2159 19.717 27.8401 21.156 27.8079C22.595 27.7757 24.021 28.0879 25.3172 28.7189C25.9814 29.0557 26.5801 29.5103 27.0845 30.061C27.5799 30.629 27.9606 31.289 28.2053 32.0041C28.6898 33.3826 28.7973 34.7497 29.1432 35.9654C29.7606 38.438 31.3089 40.5709 33.46 41.9117C34.519 42.5209 35.7242 42.8238 36.943 42.7871C38.1618 42.7505 39.3469 42.3756 40.3681 41.7039C41.3385 40.9864 42.0427 39.9619 42.3684 38.7939C42.6981 37.565 42.817 36.2882 42.72 35.0189C42.6882 34.3357 42.6235 33.6473 42.5463 32.9543Z" fill="#2C2C2E"/>
<path d="M18.959 39.7597C18.9469 39.7579 18.9426 39.7575 18.9294 39.7251C18.8368 39.5368 18.7968 39.3266 18.8139 39.1172C18.831 38.9077 18.9044 38.7069 19.0264 38.5365C19.0411 38.5175 19.0597 38.5017 19.0807 38.4902C19.4058 38.5191 19.7276 38.5778 20.042 38.6658C20.7047 38.8447 21.3339 39.1316 21.9048 39.5151C22.4688 39.8918 22.9742 40.3509 23.4045 40.8773C23.5989 41.1168 23.7761 41.3699 23.9348 41.6348C24.0121 41.8093 24.0767 41.9891 24.1283 42.173C24.2322 42.5168 24.2863 42.8739 24.2889 43.2333C24.274 44.3636 23.8959 43.9276 23.612 43.4117C23.6071 43.4452 23.4548 43.1183 23.2576 42.8167C23.1597 42.6656 23.0469 42.5224 22.9713 42.4121L22.8242 42.2398C22.696 42.0297 22.552 41.8299 22.3935 41.642C22.0463 41.2217 21.6383 40.8564 21.1833 40.5585C20.7295 40.2579 20.2303 40.0335 19.7052 39.894C19.4611 39.8263 19.2113 39.7813 18.959 39.7597Z" fill="#2C2C2E"/>
<path d="M13.3761 44.9871C13.3852 44.9739 13.3969 44.9628 13.4104 44.9544C13.4239 44.946 13.439 44.9405 13.4548 44.9382C13.7875 44.8085 14.3703 44.8161 14.3941 45.6634C14.3938 45.6993 14.3876 45.735 14.3757 45.7688C13.3958 47.0439 12.7024 48.5182 12.3432 50.09C11.984 51.6617 11.9678 53.2934 12.2955 54.8721C12.3698 55.2363 12.4695 55.5949 12.578 55.9504C12.578 55.9504 12.6815 56.3982 12.871 56.9964C13.0882 57.6592 13.3479 58.3071 13.6483 58.936C14.1683 59.9374 14.3309 60.2718 14.149 60.2659C13.7037 60.0392 13.3224 59.7028 13.0406 59.2879C12.6759 58.8448 12.3573 58.365 12.09 57.8562C11.7974 57.3123 11.5428 56.7486 11.3279 56.169C11.2237 55.8298 11.136 55.4853 11.0631 55.1378C10.6961 53.3779 10.713 51.5586 11.1124 49.806C11.5118 48.0533 12.2842 46.409 13.3762 44.9871H13.3761Z" fill="#2C2C2E"/>
<path d="M17.2672 57.609C17.2803 57.5989 17.2952 57.5915 17.3112 57.5873C17.3272 57.5831 17.3438 57.5821 17.3601 57.5844C17.7365 57.5507 18.2601 57.7572 18.0408 58.5601C18.0309 58.5931 18.0155 58.6242 17.9952 58.6519C17.4765 59.0201 17.0197 59.4697 16.6421 59.9836C15.9031 60.9952 15.4291 62.1783 15.2639 63.4236C15.1041 64.6807 15.2282 65.958 15.627 67.1599C16.4563 69.6158 18.0521 71.7349 20.1757 73.2002C21.2004 73.9224 22.3838 74.3831 23.624 74.5426C24.8441 74.6711 26.0729 74.4019 27.13 73.7746C29.2886 72.524 30.8164 70.2121 31.824 67.8411C32.3445 66.7061 32.5585 65.4528 32.4445 64.2077C32.3407 63.6184 32.1196 63.0563 31.7946 62.5554C31.4695 62.0545 31.0472 61.6251 30.5531 61.2932C29.4648 60.5507 28.319 59.8974 27.1269 59.3398C25.823 58.7057 24.6762 57.7857 23.7705 56.647C23.3087 56.0122 23.0116 55.2711 22.9062 54.4911C22.8134 53.7004 22.9323 52.899 23.2506 52.1702C23.8962 50.7933 25.0031 49.6902 26.3762 49.0552C26.4581 49.0119 26.5424 48.9733 26.6287 48.9396L26.8174 48.8613L26.8959 48.8289C26.9481 48.8065 27.0014 48.787 27.0557 48.7703L27.3797 48.6638C27.5967 48.5988 27.8168 48.545 28.0393 48.5027C28.4501 48.4493 28.8653 48.4382 29.2784 48.4694C30.064 48.5162 30.8251 48.7625 31.4911 49.1853C31.8541 49.3977 32.1543 49.7039 32.3608 50.0723C32.4638 50.2804 32.4455 50.3625 32.3606 50.357C32.1849 50.3503 31.756 49.9962 31.1443 49.7994C30.6755 49.6467 30.1869 49.5651 29.6943 49.5572C29.165 49.5577 28.6383 49.6326 28.1295 49.7798C27.9521 49.8181 27.7771 49.8668 27.6053 49.9256C27.52 49.9561 27.4319 49.9774 27.3486 50.0145L26.956 50.1832C26.686 50.3119 26.4262 50.4611 26.1787 50.6296C25.1839 51.2527 24.4694 52.2424 24.1868 53.3882C24.0874 53.9342 24.1339 54.4971 24.3215 55.019C24.5334 55.5585 24.8518 56.049 25.2574 56.4606C26.1738 57.3265 27.2255 58.0341 28.3703 58.5548C29.6306 59.1263 30.8102 59.8639 31.8782 60.7481C32.4477 61.239 32.9086 61.8451 33.231 62.527C33.5535 63.209 33.7304 63.9516 33.7501 64.7068C33.737 66.1445 33.4006 67.5604 32.7662 68.8481C32.1972 70.1157 31.4705 71.3053 30.6037 72.388C29.7259 73.5112 28.6209 74.4329 27.3621 75.0918C26.0541 75.7558 24.5723 75.9891 23.1257 75.7586C21.7203 75.5115 20.3899 74.942 19.2375 74.0941C16.9508 72.4482 15.2481 70.1062 14.3794 67.4123C13.9299 66.044 13.809 64.5877 14.0267 63.1632C14.2443 61.7386 14.7944 60.3865 15.6315 59.2181C16.0883 58.5974 16.6405 58.0542 17.2672 57.609Z" fill="#2C2C2E"/>
<path d="M22.1851 63.6705C22.1829 63.6572 22.182 63.6523 22.2088 63.6295C22.3697 63.499 22.5602 63.411 22.7633 63.3733C22.9663 63.3356 23.1755 63.3494 23.3719 63.4134C23.3922 63.4182 23.4114 63.4265 23.4288 63.438C23.4669 63.6589 23.5225 63.8764 23.595 64.0883C23.7455 64.5437 23.96 64.975 24.232 65.3689C24.5023 65.7627 24.8228 66.119 25.1852 66.4287C25.3495 66.5677 25.5221 66.6964 25.7021 66.814C25.7021 66.814 25.8214 66.9363 25.9962 67.0958C26.1688 67.2583 26.4015 67.4538 26.6028 67.6293C27.3288 68.1398 26.9797 68.3343 26.3476 68.2854C26.112 68.2654 25.8802 68.2124 25.6591 68.1281C25.4188 68.0463 25.1838 67.9496 24.9554 67.8386C24.7359 67.6935 24.5263 67.5338 24.3281 67.3604C23.8877 66.9817 23.4991 66.5457 23.1726 66.0638C22.8408 65.5769 22.5784 65.0454 22.3933 64.4849C22.3033 64.2192 22.2337 63.947 22.1851 63.6705Z" fill="#2C2C2E"/>
<path d="M23.1987 76.3534C23.2015 76.3372 23.2075 76.3217 23.2164 76.3079C23.2253 76.2941 23.2369 76.2822 23.2504 76.2731C23.5181 76.0014 24.0556 75.8216 24.3947 76.5736C24.4096 76.6054 24.4191 76.6395 24.4229 76.6744C24.2647 77.2905 24.2082 77.9287 24.2557 78.5633C24.3113 79.405 24.5511 80.2239 24.958 80.961C25.3649 81.6982 25.9287 82.3353 26.6089 82.8266C27.2985 83.3184 28.0821 83.6603 28.9097 83.8305C29.7374 84.0007 30.5912 83.9954 31.4168 83.8152C31.7772 83.7484 32.1377 83.6694 32.4971 83.5677C32.4971 83.5677 32.9488 83.479 33.5666 83.3247L35.6284 82.7821C36.711 82.5058 36.9891 82.2918 36.997 82.4794C37.0038 82.6632 36.5013 83.1352 35.8488 83.4524C35.3624 83.7204 34.8627 83.963 34.3517 84.1795C33.5468 84.5465 32.6639 84.8373 32.6639 84.8373C32.3264 84.9288 31.9808 85.0027 31.6322 85.067C30.6448 85.2527 29.6323 85.2562 28.6437 85.0772C27.6425 84.8782 26.6961 84.4623 25.8699 83.8582C25.0406 83.2578 24.3529 82.4803 23.856 81.5811C23.359 80.6819 23.0651 79.6833 22.995 78.6563C22.9371 77.8826 23.0059 77.1046 23.1987 76.3534Z" fill="#2C2C2E"/>
<path d="M32.5668 78.8417C32.5551 78.8493 32.5417 78.8542 32.5277 78.8558C32.5138 78.8574 32.4997 78.8558 32.4865 78.8511C32.2074 78.8156 31.554 78.6883 31.8664 77.835C31.884 77.7988 31.9072 77.7656 31.9352 77.7368C32.585 77.3799 33.2676 77.0872 33.9734 76.8629C35.3063 76.5517 36.5376 75.9003 37.5489 74.9712C37.7953 74.7111 38.0217 74.4326 38.2262 74.1378C38.2262 74.1378 38.5122 73.7935 38.859 73.2722C39.2067 72.7523 39.6027 72.0479 39.9335 71.4554C40.9712 69.4009 40.9351 70.3414 40.5679 71.7538C40.4239 72.3026 40.2377 72.8393 40.0111 73.3591C39.771 73.9336 39.484 74.4869 39.1529 75.0135C38.9387 75.3097 38.7051 75.591 38.4536 75.8558C37.8916 76.4399 37.2292 76.9164 36.4985 77.2621C35.8095 77.572 35.1033 77.8413 34.3833 78.0685C33.7547 78.267 33.1464 78.5259 32.5668 78.8417Z" fill="#2C2C2E"/>
<path d="M41.7236 77.3188C41.7165 77.3057 41.7121 77.2912 41.7109 77.2763C41.7098 77.2614 41.7118 77.2465 41.7168 77.2324C41.7589 76.9108 41.9866 76.3292 42.773 76.6956C42.8068 76.7134 42.8373 76.7369 42.8632 76.7652C43.1883 77.4262 43.4621 78.1117 43.6824 78.8153C43.9595 79.6503 44.0533 80.5361 43.9574 81.4112C43.8315 82.3328 43.4038 83.1856 42.7422 83.834C42.127 84.4583 41.458 84.8971 40.9107 85.3786C40.3793 85.8013 39.9719 86.3617 39.7321 86.9998C39.5161 87.6542 39.4499 88.3495 39.5384 89.0335C39.6268 89.7174 39.8677 90.3724 40.2428 90.9491C41.0633 92.1209 42.2748 92.9555 43.6557 93.3004C45.0418 93.7021 46.5153 93.6779 47.8877 93.231C48.5423 93.0378 49.1353 92.6752 49.6076 92.1792C50.08 91.6832 50.4153 91.0712 50.5801 90.404C50.7528 89.6673 50.8774 88.92 50.9529 88.1669L51.2303 85.8372C51.4011 84.2824 51.5441 82.7248 51.6595 81.1645C51.8886 78.0444 52.0065 74.9187 52.0132 71.7875C52.0937 70.283 51.9349 68.7753 51.5428 67.3215C51.3597 66.6564 51.0276 66.0425 50.5721 65.5272C50.1165 65.0118 49.5497 64.6088 48.9154 64.3491C47.6401 63.919 46.0909 64.2372 44.4561 64.2132C42.7801 64.2508 41.123 63.8513 39.6452 63.0534L39.372 62.8817C39.2931 62.8364 39.1527 62.7291 39.176 62.7471L39.1058 62.6956L38.9656 62.5923L38.7002 62.3685C38.5268 62.216 38.3633 62.0524 38.2106 61.8788C37.9463 61.5496 37.7238 61.1885 37.5482 60.8037C37.2016 60.0885 37.0468 59.2942 37.0994 58.5C37.112 58.0791 37.2293 57.6681 37.4405 57.3048C37.5655 57.1105 37.6452 57.0844 37.6835 57.1611C37.765 57.3174 37.6848 57.873 37.7983 58.5113C37.8923 58.9976 38.0559 59.4676 38.2839 59.9066C38.5348 60.3677 38.8593 60.784 39.2443 61.1389C39.3686 61.2671 39.4994 61.3886 39.6362 61.5031C39.7027 61.5619 39.7727 61.6166 39.8457 61.667L39.8992 61.7063L39.9189 61.7209C39.9524 61.7469 39.9871 61.7712 40.0229 61.7937L40.2414 61.9322C40.5414 62.1086 40.8547 62.2609 41.1783 62.3879C42.5521 62.8582 44.0068 63.0402 45.4529 62.9228C46.2404 62.8605 47.0308 62.8426 47.8204 62.8689C48.6948 62.9002 49.547 63.1554 50.2966 63.6105C50.9996 64.0981 51.5992 64.7218 52.0606 65.4454C52.522 66.1689 52.836 66.9778 52.9842 67.825C53.2487 69.3965 53.3448 70.9922 53.2708 72.5845C53.2476 75.6907 53.1136 78.7934 52.869 81.8926C52.7475 83.4409 52.5988 84.9867 52.423 86.53L52.1391 88.8421C52.0576 89.6563 51.891 90.4595 51.6421 91.2384C51.3521 92.0806 50.8396 92.827 50.16 93.3972C49.4925 93.9405 48.7201 94.3376 47.8918 94.563C46.2804 94.9959 44.5792 94.9497 42.9932 94.4298C41.3585 93.943 39.9559 92.872 39.0479 91.4176C38.6031 90.6675 38.3324 89.8257 38.2562 88.9551C38.1801 88.0846 38.3004 87.2079 38.6083 86.3909C38.9515 85.582 39.4922 84.8737 40.18 84.3321C40.7739 83.8808 41.3445 83.3992 41.8897 82.8892C42.3442 82.4378 42.6333 81.8442 42.7095 81.2055C42.772 80.5227 42.6913 79.8342 42.4726 79.1849C42.2709 78.5444 42.0205 77.9205 41.7236 77.3188Z" fill="#2C2C2E"/>
<path d="M31.7771 85.8982C31.7716 85.8825 31.7693 85.8658 31.7702 85.8491C31.7712 85.8324 31.7754 85.8161 31.7826 85.8011C31.8668 85.4268 32.225 84.9957 32.9144 85.4536C32.9425 85.4731 32.9669 85.4973 32.9868 85.5252C33.1737 86.1314 33.4599 86.7017 33.8335 87.2127C33.8917 87.3034 33.9563 87.3898 34.0268 87.4711C34.2489 87.7494 34.496 88.0064 34.765 88.2387C35.0048 88.4909 35.2656 88.7219 35.5445 88.9292C36.0823 89.3366 36.6724 89.6687 37.2985 89.9166C37.8131 90.1097 38.1715 90.1923 38.3783 90.2674C38.5861 90.3459 38.6448 90.4102 38.5841 90.4714C38.1109 90.6633 37.591 90.7054 37.0935 90.5921C36.5098 90.5144 35.942 90.3436 35.4115 90.0861C34.8342 89.8205 34.293 89.4814 33.8012 89.0771C33.532 88.8281 33.281 88.5598 33.0503 88.2743C32.9647 88.1764 32.8855 88.0731 32.8131 87.9649C32.3558 87.3391 32.0057 86.6406 31.7771 85.8982Z" fill="#2C2C2E"/>
<path d="M37.4525 32.7312C37.4543 32.7206 37.4548 32.7167 37.487 32.7069C37.6818 32.6452 37.8877 32.6269 38.0902 32.6533C38.2928 32.6798 38.4872 32.7503 38.6601 32.86C38.6778 32.8708 38.6935 32.8849 38.7062 32.9014L38.6118 33.5808C38.5545 33.978 38.473 34.5063 38.3645 35.0354C38.2669 35.5252 38.1423 36.0092 37.9916 36.4852C37.8644 36.8778 37.758 37.1347 37.758 37.1347C37.5328 37.4899 37.2576 37.8102 36.9411 38.0856C36.2699 38.6481 36.238 38.1801 36.3458 37.7156C36.3243 37.7483 36.6371 36.6199 36.6081 36.6126C36.833 36.0082 37.0087 35.3864 37.1333 34.7533C37.2308 34.2684 37.3078 33.7707 37.362 33.3893L37.4525 32.7312Z" fill="#2C2C2E"/>
<path d="M36.9366 26.516C36.9484 26.5253 36.9581 26.5372 36.9648 26.5507C36.9716 26.5642 36.9754 26.579 36.9759 26.5942C37.0576 26.9132 37.0513 27.5337 36.1907 27.4861C36.1532 27.4821 36.1165 27.4721 36.0822 27.4563C35.5611 26.9743 35.0447 26.478 34.5486 25.9526C33.2015 24.6433 32.2012 23.0148 31.6388 21.2157C31.3933 20.269 31.347 19.281 31.503 18.3153C31.6694 17.363 32.0102 16.4503 32.508 15.6238C33.4934 13.9885 34.9525 12.6972 36.6886 11.9242C38.3854 11.1859 40.2141 10.8053 42.0622 10.8058C43.8932 10.7578 45.7205 10.9995 47.4773 11.5223C48.404 11.8201 49.2542 12.3205 49.9671 12.9877C50.6684 13.6729 51.2041 14.5113 51.5328 15.4384C52.0895 17.2006 52.3378 19.0469 52.2665 20.8949L52.282 26.2083L52.3374 47.4565C52.421 51.043 52.1367 54.6286 51.489 58.1561L51.2337 59.2692C51.1807 59.479 51.1212 59.6883 51.0591 59.8973C50.9202 60.2768 50.753 60.6451 50.5589 60.9991C50.2048 61.6977 49.6985 62.3064 49.0779 62.7796C48.7503 63.046 48.3563 63.2162 47.9391 63.2717C47.709 63.2907 47.6405 63.2425 47.6774 63.1653C47.75 63.0036 48.2329 62.7353 48.635 62.2316C48.9461 61.8401 49.2049 61.4091 49.4047 60.9497C49.617 60.44 49.7824 59.9119 49.8991 59.3718C49.9543 59.1861 50.0024 59.0003 50.0489 58.807L50.1168 58.5162L50.2448 57.9485C50.3328 57.5321 50.4133 57.1139 50.483 56.6929C50.9704 53.281 51.1689 49.8334 51.0763 46.3876L51.0181 25.4993L50.9969 20.2878C51.0485 18.6313 50.7654 16.9816 50.165 15.4388C49.8513 14.7325 49.3758 14.1113 48.7775 13.6264C48.15 13.1526 47.4374 12.8059 46.679 12.6054C45.0664 12.1972 43.4042 12.0235 41.7429 12.0896C40.0981 12.1209 38.4775 12.4952 36.9833 13.189C35.529 13.8883 34.3185 15.0148 33.5109 16.4205C33.1067 17.0963 32.8429 17.8478 32.7352 18.6295C32.6276 19.4112 32.6784 20.2067 32.8845 20.968C33.4004 22.5276 34.2858 23.9368 35.4638 25.0736C35.9317 25.5687 36.4276 26.0455 36.9366 26.516Z" fill="#2C2C2E"/>
<path d="M45.1928 50.728C45.19 50.7146 45.1889 50.7098 45.2145 50.6851C45.3584 50.5316 45.5426 50.4225 45.7457 50.3708C45.9488 50.319 46.1624 50.3267 46.3613 50.3929C46.3838 50.4004 46.4045 50.4124 46.4223 50.4281C46.4274 50.4475 46.521 50.8157 46.6103 51.3659C46.7188 52.0322 46.7747 52.7062 46.7773 53.3814C46.7787 54.3549 46.6758 55.3257 46.4706 56.277C46.2783 56.7846 46.0287 57.2682 45.7269 57.7184C45.0853 58.6476 44.9961 58.1077 45.0749 57.4629C45.0556 57.5173 45.292 55.9336 45.2554 55.9323C45.4318 55.084 45.519 54.2193 45.5154 53.3526C45.5104 52.7521 45.4588 52.1528 45.361 51.5604C45.2805 51.0719 45.1976 50.7455 45.1928 50.728Z" fill="#2C2C2E"/>
<path d="M22.8236 27.9454C22.824 27.9603 22.8212 27.975 22.8153 27.9887C22.8094 28.0023 22.8007 28.0144 22.7896 28.0243C22.6031 28.2821 22.1358 28.7004 21.607 28.0016C21.5856 27.9695 21.5695 27.9341 21.5596 27.8967C21.5873 27.1684 21.6559 26.4423 21.7652 25.7219C21.8828 24.5561 22.2511 23.4302 22.8444 22.4227C23.5025 21.4624 24.3436 20.6438 25.3187 20.0146C25.6642 19.784 26.0229 19.5742 26.3929 19.3863C26.7596 19.2255 27.1372 19.091 27.5227 18.9837C28.2443 18.7787 28.9892 18.6684 29.7389 18.6556C30.929 18.6468 31.2644 18.841 31.1454 18.9499C30.7139 19.1421 30.2605 19.2799 29.7955 19.3601C29.8685 19.364 29.0662 19.5318 28.3018 19.8446C27.79 20.0529 27.2957 20.3022 26.8234 20.5901C26.5463 20.7376 26.2772 20.8985 26.0159 21.073C25.1851 21.6077 24.4669 22.3022 23.9022 23.1168C23.4092 23.9733 23.1064 24.9276 23.0148 25.9136C22.913 26.5867 22.8492 27.265 22.8236 27.9454Z" fill="#2C2C2E"/>
<path d="M41.1417 21.6254C41.1343 21.6306 41.1318 21.6326 41.1041 21.6151C40.9226 21.52 40.7644 21.3854 40.6409 21.2209C40.5174 21.0565 40.4318 20.8664 40.3902 20.6644C40.3872 20.6416 40.3887 20.6184 40.3946 20.5961L40.6009 20.4544C40.7727 20.3451 40.9531 20.2499 41.1402 20.17C41.6957 19.9302 42.2984 19.8221 42.9018 19.8541C43.5066 19.8869 44.0945 20.067 44.6152 20.3789C44.8487 20.5172 45.0666 20.681 45.2648 20.8672C45.3688 20.9979 45.4611 21.1378 45.5404 21.2851C45.6926 21.5567 45.7933 21.8545 45.8376 22.1632C45.9141 22.6459 45.7899 22.8054 45.6678 22.7981C45.5357 22.7919 45.3772 22.6339 45.2052 22.4637C45.2051 22.4907 45.0293 22.2689 44.82 22.0891C44.6831 21.9681 44.5349 21.8609 44.3773 21.7691C44.2436 21.6456 44.0954 21.539 43.9361 21.4516C43.593 21.2518 43.2069 21.1391 42.8111 21.1231C42.4065 21.1062 42.0033 21.1818 41.6318 21.3442C41.4579 21.418 41.2934 21.5123 41.1417 21.6254Z" fill="#2C2C2E"/>
<g opacity="0.5">
<path opacity="0.5" d="M89.1245 41.2276C88.745 41.3921 88.3794 41.5876 88.0313 41.8121C87.8723 41.9373 87.7068 42.054 87.5357 42.1617C87.7307 42.0642 87.6195 42.096 87.5472 42.155C87.5099 42.1854 87.4728 42.2163 87.4361 42.2475C87.3552 42.316 87.2758 42.3863 87.1977 42.4582C86.9015 42.7344 86.6258 43.0322 86.3727 43.3491C86.2416 43.5111 86.5025 43.1692 86.3811 43.3387C86.353 43.378 86.3241 43.4166 86.2961 43.456C86.2345 43.5425 86.1748 43.6304 86.117 43.7195C86.0012 43.8978 85.8939 44.0813 85.7931 44.2686C85.664 44.4869 85.455 44.6453 85.2112 44.7098C84.9673 44.7742 84.7081 44.7396 84.4894 44.6133C84.2752 44.4811 84.12 44.2704 84.0562 44.0254C83.9925 43.7805 84.0252 43.5201 84.1476 43.2989C85.0405 41.6425 86.4524 40.3308 88.1627 39.5686C88.3874 39.4469 88.6486 39.4124 88.8969 39.4717C89.0776 39.522 89.2396 39.6248 89.3626 39.7674C89.4857 39.9101 89.5642 40.0861 89.5885 40.2735C89.6128 40.4609 89.5817 40.6514 89.4992 40.8211C89.4167 40.9908 89.2864 41.1322 89.1245 41.2276Z" fill="white"/>
</g>
<g opacity="0.5">
<path opacity="0.5" d="M84.869 64.2195C84.1833 65.734 83.1122 67.0384 81.7645 68.0004C81.6545 68.0647 81.533 68.1064 81.407 68.123C81.2809 68.1397 81.1529 68.1309 81.0302 68.0972C80.8495 68.047 80.6875 67.9441 80.5645 67.8015C80.4415 67.6589 80.3629 67.4829 80.3386 67.2955C80.3143 67.1081 80.3454 66.9176 80.4279 66.7479C80.5104 66.5782 80.6408 66.4368 80.8026 66.3414C80.8401 66.3141 80.8774 66.2866 80.9146 66.2588C81.0343 66.169 80.9296 66.2383 80.8762 66.2903C80.9416 66.2266 81.0218 66.1734 81.0918 66.1143C81.2265 66.0006 81.3576 65.8826 81.4849 65.7603C81.7462 65.5095 81.9913 65.2419 82.2185 64.9593C82.2418 64.9304 82.2647 64.9011 82.2878 64.872C82.4098 64.7182 82.1898 65.0059 82.2573 64.9112C82.3113 64.8355 82.3672 64.7613 82.4204 64.6849C82.5213 64.5399 82.6177 64.3918 82.7095 64.2406C82.9021 63.922 83.0738 63.5911 83.2234 63.2498C83.349 63.0335 83.5533 62.8751 83.7929 62.8084C84.0407 62.7419 84.3046 62.7767 84.5271 62.9052C84.7411 63.0324 84.8981 63.2381 84.965 63.4794C85.0187 63.7299 84.9848 63.9914 84.869 64.2196V64.2195Z" fill="white"/>
</g>
<g opacity="0.5">
<path opacity="0.5" d="M64.1955 51.1862C63.7022 53.1687 63.5534 55.2224 63.7557 57.2561C63.7548 57.5106 63.6542 57.7545 63.4756 57.9345C63.2971 58.1144 63.0553 58.2159 62.8028 58.2168C62.5521 58.2102 62.3135 58.1069 62.1362 57.9281C61.9589 57.7494 61.8564 57.5088 61.8499 57.2561C61.6457 55.0494 61.8175 52.8237 62.3578 50.6754C62.4256 50.4304 62.5869 50.2225 62.8065 50.0973C63.0261 49.972 63.286 49.9396 63.5292 50.0072C63.7724 50.0748 63.9791 50.2369 64.104 50.4579C64.2289 50.6789 64.2618 50.9408 64.1955 51.1862Z" fill="white"/>
</g>
<g opacity="0.5">
<path opacity="0.5" d="M71.9775 32.8317C71.9897 32.932 72.0029 33.0322 72.0151 33.1325C72.0243 33.2034 72.0224 33.1898 72.0094 33.0918C72.0171 33.149 72.025 33.2062 72.033 33.2634C72.057 33.4349 72.0822 33.6062 72.1087 33.7774C72.1659 34.1483 72.229 34.5181 72.2978 34.8871C72.4355 35.6249 72.5958 36.3579 72.7787 37.0859C72.845 37.3313 72.8121 37.5932 72.6872 37.8143C72.5624 38.0353 72.3557 38.1973 72.1124 38.2649C71.8692 38.3325 71.6093 38.3001 71.3897 38.1749C71.1702 38.0496 71.0088 37.8417 70.941 37.5967C70.5531 36.0282 70.2628 34.4368 70.0718 32.8318C70.0722 32.5771 70.1728 32.333 70.3514 32.153C70.53 31.9729 70.7721 31.8715 71.0246 31.8711C71.2751 31.8784 71.5132 31.982 71.6904 32.1606C71.8675 32.3392 71.9703 32.5793 71.9775 32.8318V32.8317Z" fill="white"/>
</g>
<g opacity="0.5">
<path opacity="0.5" d="M65.6841 23.0945C65.652 23.0792 65.6199 23.0647 65.5873 23.0507L65.8149 23.1476C65.6738 23.0908 65.5266 23.0511 65.3763 23.0291L65.6296 23.0634C65.4558 23.0412 65.2799 23.0407 65.1059 23.0618L65.3592 23.0275C65.1609 23.0545 64.9669 23.1072 64.7819 23.1843L65.0095 23.0874C64.8365 23.1622 64.673 23.2578 64.5227 23.3721L64.7155 23.2219C64.5772 23.3304 64.4526 23.4556 64.3446 23.5947L64.4936 23.4003C64.4022 23.5226 64.3254 23.6553 64.2648 23.7957L64.3608 23.5662C64.3474 23.5993 64.3347 23.6324 64.3226 23.666C64.2504 23.9044 64.0948 24.1084 63.8847 24.2401C63.7211 24.3365 63.5327 24.3816 63.3435 24.3695C63.1544 24.3575 62.9731 24.2888 62.8229 24.1724C62.6726 24.0559 62.5602 23.8969 62.5 23.7157C62.4398 23.5346 62.4346 23.3394 62.485 23.1552C62.6275 22.7357 62.8616 22.3539 63.1701 22.0379C63.4873 21.7294 63.8633 21.4891 64.2753 21.3316C64.6552 21.1787 65.063 21.1089 65.4717 21.1268C65.8804 21.1447 66.2806 21.2499 66.6459 21.4355C66.8601 21.5625 67.0171 21.7683 67.0838 22.0096C67.1497 22.2595 67.1152 22.5255 66.9878 22.7499C66.8616 22.9657 66.6575 23.1239 66.4183 23.1913C66.1699 23.2479 65.9097 23.2136 65.6841 23.0945V23.0945Z" fill="white"/>
</g>
<g opacity="0.5">
<path opacity="0.5" d="M75.3353 86.2797C74.242 87.8674 72.9982 89.5328 71.0609 90.0778C70.8172 90.1455 70.5568 90.1129 70.337 89.987C70.1172 89.8612 69.956 89.6525 69.8888 89.4068C69.8216 89.1611 69.854 88.8986 69.9788 88.677C70.1036 88.4554 70.3106 88.2928 70.5543 88.2251C70.6535 88.1972 70.7517 88.1666 70.8486 88.1314C70.8904 88.111 70.9339 88.0943 70.9786 88.0816C70.8451 88.1395 70.8117 88.1537 70.8786 88.1239C70.9039 88.1128 70.9291 88.1012 70.9541 88.0894C71.1373 88.0025 71.3143 87.9029 71.4838 87.7912C71.5612 87.7405 71.6356 87.6857 71.7114 87.6324C71.8766 87.5163 71.5392 87.7757 71.6951 87.6462C71.731 87.6163 71.7674 87.5872 71.803 87.557C71.9613 87.4231 72.1125 87.2809 72.2578 87.1329C72.3984 86.9896 72.5334 86.8409 72.664 86.6883C72.7328 86.6078 72.8006 86.5262 72.8671 86.4437C72.9146 86.3849 73.1162 86.0956 72.9508 86.3415C73.1864 85.9913 73.4501 85.658 73.6898 85.31C73.7529 85.201 73.8367 85.1057 73.9364 85.0294C74.0361 84.9532 74.1498 84.8974 74.2708 84.8654C74.3919 84.8334 74.518 84.8257 74.642 84.8429C74.766 84.86 74.8854 84.9016 74.9935 84.9653C75.1015 85.029 75.1961 85.1135 75.2717 85.214C75.3474 85.3145 75.4027 85.4291 75.4344 85.5511C75.4661 85.6732 75.4737 85.8003 75.4567 85.9253C75.4397 86.0503 75.3985 86.1708 75.3353 86.2797Z" fill="white"/>
</g>
<g opacity="0.5">
<path opacity="0.5" d="M65.4937 76.9416C64.9667 78.1655 64.6751 79.4791 64.6346 80.8127C64.6949 82.2067 65.5148 83.1314 66.3725 84.132C67.7864 85.7815 68.6607 87.5745 68.227 89.8001C68.0266 90.7618 67.5866 91.6562 66.9483 92.3989C66.31 93.1415 65.4946 93.708 64.5789 94.0449C63.6632 94.3817 62.6776 94.4778 61.7149 94.3241C60.7522 94.1703 59.8442 93.7719 59.0766 93.1663C57.2746 91.7385 56.7343 89.4212 56.4042 87.2483C55.9926 84.5386 55.5726 81.8192 55.3106 79.09C55.0211 76.5141 55.041 73.9124 55.3699 71.3413C55.6922 69.1068 56.3125 66.4248 57.7949 64.6525C59.8512 62.1942 63.2154 63.6338 65.9084 63.2033C67.1138 62.9897 68.2335 62.4328 69.1351 61.5984C70.0368 60.764 70.6828 59.687 70.9969 58.4944C71.071 58.2568 71.2337 58.0574 71.4507 57.9383C71.6676 57.8192 71.922 57.7897 72.1602 57.8559C72.3983 57.9221 72.6017 58.0789 72.7275 58.2932C72.8533 58.5076 72.8917 58.7628 72.8345 59.0052C72.3223 60.8596 71.1986 62.4827 69.6487 63.6069C68.0988 64.7311 66.2152 65.2894 64.3083 65.1896C63.1382 65.0743 61.9609 65.051 60.7871 65.1199C59.3951 65.3032 58.819 66.3793 58.325 67.5781C57.4603 69.8033 57.016 72.1719 57.015 74.5618C57.0018 76.9184 57.1661 79.2727 57.5067 81.6043C57.7446 83.9388 58.1017 86.2594 58.5766 88.5568C59.0558 90.5667 60.1964 92.3146 62.4054 92.4804C63.3472 92.5581 64.2831 92.2716 65.0231 91.6789C65.763 91.0863 66.2515 90.2319 66.3894 89.2894C66.8008 86.8316 64.7687 85.5369 63.6032 83.7013C62.1547 81.42 62.8234 78.8033 63.6561 76.4309C64.0624 75.2732 65.9044 75.7718 65.4937 76.9416H65.4937Z" fill="white"/>
</g>
<g opacity="0.5">
<path opacity="0.5" d="M90.6346 58.4082C93.8295 61.1631 93.6919 65.8146 91.8526 69.3014C90.9345 71.1254 89.6047 72.7068 87.9701 73.9183C86.1544 75.1482 83.9452 75.6422 81.7839 75.3016C80.0141 74.8603 78.3968 73.278 77.3196 71.8655C76.1099 70.2923 75.3237 68.4308 75.0374 66.4613C74.8544 65.5471 74.9129 64.6005 75.2069 63.7162C75.501 62.832 76.0204 62.0411 76.713 61.4229C78.233 60.0836 80.209 59.5918 81.8503 58.4586C82.8535 57.7097 83.5399 56.6072 83.7726 55.3707C84.0053 54.1343 83.7671 52.8549 83.1057 51.7876C82.7176 51.3103 82.2385 50.9165 81.6967 50.6293C81.1549 50.3422 80.5614 50.1677 79.9515 50.116C78.725 49.871 77.3038 49.5371 76.1593 50.2051C75.9417 50.3235 75.687 50.352 75.4489 50.2847C75.2108 50.2173 75.008 50.0594 74.8833 49.8442C74.7585 49.629 74.7215 49.3733 74.7801 49.1311C74.8387 48.8889 74.9884 48.6792 75.1974 48.5461C76.8743 47.5672 78.8248 47.9215 80.6299 48.2988C81.5323 48.4184 82.3951 48.7463 83.1513 49.2569C83.9075 49.7675 84.5367 50.4471 84.9899 51.2428C85.8227 52.9456 85.9718 54.9067 85.4061 56.7177C85.1178 57.5624 84.6672 58.3415 84.0799 59.0104C83.4926 59.6792 82.7802 60.2248 81.9836 60.6158C80.4491 61.4514 78.4837 61.9929 77.4017 63.469C76.2343 65.0616 77.0486 67.584 77.8632 69.1692C78.7074 70.8883 80.0544 72.3048 81.7224 73.2277C82.6967 73.7249 83.9723 73.4207 84.9878 73.1637C86.0584 72.896 87.0382 72.344 87.8254 71.5651C90.8433 68.6411 93.0629 63.0225 89.2871 59.7667C88.3536 58.9618 89.7069 57.6082 90.6346 58.4081L90.6346 58.4082Z" fill="white"/>
</g>
<g opacity="0.5">
<path opacity="0.5" d="M83.8925 76.5519C85.0492 79.365 82.2468 82.2776 80.0618 83.6182C78.733 84.3434 77.2076 84.6171 75.7122 84.3988C74.2808 84.2869 72.6005 84.2857 71.4236 83.366C71.2461 83.1852 71.1465 82.9411 71.1465 82.6867C71.1465 82.4324 71.2461 82.1883 71.4236 82.0074C71.6053 81.8331 71.8465 81.7359 72.0973 81.7359C72.3482 81.7359 72.5894 81.8331 72.7711 82.0074C73.1838 82.2088 73.6367 82.3125 74.0952 82.3106C74.6995 82.3896 75.3061 82.4503 75.9149 82.4927C77.0059 82.6643 78.1227 82.4772 79.1 81.9592C79.9713 81.3929 80.7465 80.689 81.3962 79.8746C81.758 79.5163 82.0118 79.0621 82.1284 78.5645C82.245 78.0669 82.2195 77.5462 82.0549 77.0626C81.9892 76.817 82.0222 76.5552 82.1468 76.3339C82.2714 76.1127 82.4775 75.9499 82.7204 75.8809C82.9638 75.8196 83.2213 75.8551 83.4396 75.98C83.6578 76.1049 83.82 76.3097 83.8925 76.5519V76.5519Z" fill="white"/>
</g>
<g opacity="0.5">
<path opacity="0.5" d="M94.2727 46.4023C95.0138 47.1915 95.5708 48.1375 95.9031 49.1714C96.2354 50.2052 96.3346 51.3007 96.1935 52.3782C95.997 54.8465 95.1925 57.2263 93.8528 59.3018C93.1879 60.3356 91.5374 59.3737 92.2072 58.3321C93.3465 56.6012 94.0551 54.6189 94.2729 52.5531C94.4295 50.8536 94.2265 48.9833 92.9251 47.7609C92.0259 46.9163 93.3757 45.5599 94.2727 46.4024V46.4023Z" fill="white"/>
</g>
<g opacity="0.5">
<path opacity="0.5" d="M89.4378 46.6992C92.0819 43.3151 94.9811 38.5405 92.4603 34.2754C91.5081 32.6582 89.9695 31.4776 88.1696 30.983C87.1984 30.6907 86.157 30.7438 85.22 31.1335C84.283 31.5233 83.5074 32.2259 83.0232 33.1237C81.0109 36.3511 81.0754 40.6446 77.8227 43.0805C76.0817 44.232 74.1022 44.9659 72.0361 45.226C70.0036 45.6902 67.8789 45.5152 65.9481 44.7245C65.0027 44.2458 64.1752 43.5603 63.526 42.7181C62.8768 41.8759 62.4223 40.8982 62.1955 39.8564C61.5685 37.5858 61.2003 35.0224 61.947 32.7421C62.3296 31.5735 64.1706 32.0741 63.7846 33.2529C63.0852 35.3886 63.5119 37.914 64.2344 40.0016C64.5782 41.041 65.2394 41.9441 66.1234 42.5814C67.0074 43.2188 68.0687 43.5578 69.1555 43.5499C71.4966 43.6263 73.819 43.1059 75.9076 42.0369C77.8941 40.9625 78.7485 38.995 79.4328 36.9363C80.5466 33.5852 81.9502 29.3759 86.0151 28.9083C89.7161 28.4826 93.3223 31.1303 94.6848 34.4946C96.6742 39.4069 93.7239 44.2969 90.7855 48.0578C90.0271 49.0285 88.6869 47.6606 89.4379 46.6992H89.4378Z" fill="white"/>
</g>
<g opacity="0.5">
<path opacity="0.5" d="M83.5177 27.5276C83.3328 25.9668 82.6309 24.5146 81.5257 23.4059C80.4205 22.2972 78.9765 21.597 77.4275 21.4184C77.1766 21.4125 76.9376 21.3094 76.7601 21.1305C76.5827 20.9516 76.4804 20.7107 76.4746 20.4577C76.4767 20.2036 76.5778 19.9605 76.756 19.7808C76.9343 19.6011 77.1754 19.4992 77.4275 19.4971C79.4903 19.6379 81.4308 20.5349 82.883 22.0188C84.3049 23.5253 85.1974 25.4605 85.4235 27.5276C85.4222 27.782 85.3214 28.0255 85.143 28.2054C84.9645 28.3853 84.7229 28.4869 84.4706 28.4882C84.2198 28.4821 83.981 28.3789 83.8036 28.2001C83.6262 28.0212 83.5238 27.7804 83.5177 27.5276Z" fill="white"/>
</g>
<g opacity="0.5">
<path opacity="0.5" d="M70.0954 25.821C71.7004 24.2328 73.2042 22.2983 73.404 19.9534C73.4991 18.8897 73.2645 17.8224 72.7325 16.8988C72.2005 15.9752 71.3974 15.2408 70.434 14.7968C68.397 13.8831 66.1507 13.5498 63.939 13.8331C62.1541 13.9984 60.2076 14.6061 59.2136 16.2252C58.0577 18.1081 58.435 20.6252 58.5315 22.7213C58.6489 25.2712 58.705 27.8236 58.729 30.376C58.7774 35.5413 58.7212 40.7079 58.6972 45.8732C58.6836 48.8024 58.6118 51.7381 58.6663 54.6669C58.7146 57.259 59.1149 59.9522 61.2214 61.6834C62.1725 62.465 60.8171 63.8172 59.8739 63.042C57.9368 61.4501 57.1218 59.032 56.8668 56.597C56.6765 53.5944 56.6487 50.5835 56.7836 47.5778C56.8124 41.4193 56.8939 35.2579 56.8084 29.0997C56.7672 26.1299 56.5537 23.1628 56.5211 20.1948C56.496 17.9165 56.9024 15.514 58.6634 13.9176C60.3318 12.5749 62.4079 11.8526 64.5425 11.872C67.0036 11.674 69.4711 12.1644 71.6735 13.2891C72.8519 13.9289 73.8218 14.8982 74.4669 16.0804C75.112 17.2626 75.4047 18.6075 75.3098 19.9534C75.0959 22.8281 73.4255 25.2177 71.4429 27.1796C70.567 28.0465 69.2183 26.689 70.0954 25.821V25.821Z" fill="white"/>
</g>
<g opacity="0.5">
<path opacity="0.5" d="M75.4381 77.7404C73.7454 77.2135 72.1553 76.3967 70.7376 75.3257C70.0993 74.7652 69.5479 74.1114 69.1016 73.3862C68.5712 72.5954 68.0417 71.804 67.5131 71.0121C67.3855 70.7921 67.3499 70.53 67.414 70.2835C67.4781 70.037 67.6367 69.8263 67.8549 69.6977C68.0731 69.5691 68.3331 69.5332 68.5776 69.5978C68.822 69.6625 69.0311 69.8224 69.1586 70.0424L70.5875 72.178C70.9686 72.8129 71.4398 73.3882 71.9861 73.8855C73.1801 74.7799 74.5197 75.4575 75.9446 75.8877C76.185 75.9606 76.3884 76.124 76.5123 76.3441C76.6363 76.5642 76.6713 76.824 76.6102 77.0694C76.541 77.3138 76.3794 77.521 76.1602 77.6465C75.941 77.772 75.6817 77.8057 75.438 77.7404L75.4381 77.7404Z" fill="white"/>
</g>
<g opacity="0.5">
<path opacity="0.5" d="M89.1245 41.2276C88.745 41.3921 88.3794 41.5876 88.0313 41.8121C87.8723 41.9373 87.7068 42.054 87.5357 42.1617C87.7307 42.0642 87.6195 42.096 87.5472 42.155C87.5099 42.1854 87.4728 42.2163 87.4361 42.2475C87.3552 42.316 87.2758 42.3863 87.1977 42.4582C86.9015 42.7344 86.6258 43.0322 86.3727 43.3491C86.2416 43.5111 86.5025 43.1692 86.3811 43.3387C86.353 43.378 86.3241 43.4166 86.2961 43.456C86.2345 43.5425 86.1748 43.6304 86.117 43.7195C86.0012 43.8978 85.8939 44.0813 85.7931 44.2686C85.664 44.4869 85.455 44.6453 85.2112 44.7098C84.9673 44.7742 84.7081 44.7396 84.4894 44.6133C84.2752 44.4811 84.12 44.2704 84.0562 44.0254C83.9925 43.7805 84.0252 43.5201 84.1476 43.2989C85.0405 41.6425 86.4524 40.3308 88.1627 39.5686C88.3874 39.4469 88.6486 39.4124 88.8969 39.4717C89.0776 39.522 89.2396 39.6248 89.3626 39.7674C89.4857 39.9101 89.5642 40.0861 89.5885 40.2735C89.6128 40.4609 89.5817 40.6514 89.4992 40.8211C89.4167 40.9908 89.2864 41.1322 89.1245 41.2276Z" fill="#D8C9FE"/>
</g>
<g opacity="0.5">
<path opacity="0.5" d="M84.869 64.2195C84.1833 65.734 83.1122 67.0384 81.7645 68.0004C81.6545 68.0647 81.533 68.1064 81.407 68.123C81.2809 68.1397 81.1529 68.1309 81.0302 68.0972C80.8495 68.047 80.6875 67.9441 80.5645 67.8015C80.4415 67.6589 80.3629 67.4829 80.3386 67.2955C80.3143 67.1081 80.3454 66.9176 80.4279 66.7479C80.5104 66.5782 80.6408 66.4368 80.8026 66.3414C80.8401 66.3141 80.8774 66.2866 80.9146 66.2588C81.0343 66.169 80.9296 66.2383 80.8762 66.2903C80.9416 66.2266 81.0218 66.1734 81.0918 66.1143C81.2265 66.0006 81.3576 65.8826 81.4849 65.7603C81.7462 65.5095 81.9913 65.2419 82.2185 64.9593C82.2418 64.9304 82.2647 64.9011 82.2878 64.872C82.4098 64.7182 82.1898 65.0059 82.2573 64.9112C82.3113 64.8355 82.3672 64.7613 82.4204 64.6849C82.5213 64.5399 82.6177 64.3918 82.7095 64.2406C82.9021 63.922 83.0738 63.5911 83.2234 63.2498C83.349 63.0335 83.5533 62.8751 83.7929 62.8084C84.0407 62.7419 84.3046 62.7767 84.5271 62.9052C84.7411 63.0324 84.8981 63.2381 84.965 63.4794C85.0187 63.7299 84.9848 63.9914 84.869 64.2196V64.2195Z" fill="#D8C9FE"/>
</g>
<path d="M56.8116 42.8965C56.7987 40.795 56.7857 38.6934 56.7727 36.5919L56.7061 25.7705C56.7512 26.8802 56.7925 27.99 56.8079 29.1002C56.8718 33.6981 56.8425 38.2977 56.8116 42.8965Z" fill="white"/>
<path d="M58.0874 60.8428C58.5349 61.6864 59.1416 62.4336 59.8736 63.0425C60.0134 63.159 60.1825 63.2343 60.3622 63.26C60.2572 63.2766 60.1513 63.2909 60.0482 63.3133C59.1585 62.7123 58.4739 61.8497 58.0874 60.8428Z" fill="white"/>
<path d="M57.4753 65.0879C56.41 66.7819 55.727 68.6912 55.4746 70.6808L55.4692 70.6502C55.2458 69.776 55.2486 68.8586 55.4774 67.9859C55.7063 67.1131 56.1534 66.3141 56.7761 65.6653C56.9912 65.4517 57.2252 65.2585 57.4753 65.0879Z" fill="white"/>
<path d="M87.9699 73.9184C89.6045 72.7068 90.9344 71.1255 91.8525 69.3015C93.0075 67.1878 93.3963 64.7346 92.9522 62.3633C93.3798 63.421 93.4685 64.587 93.206 65.6981C92.4849 69.2933 90.641 72.8656 87.3359 74.3082C87.5539 74.1896 87.7655 74.0594 87.9699 73.9184Z" fill="white"/>
<path d="M56.2998 86.5576C56.3348 86.7877 56.3696 87.0178 56.4042 87.2479C56.4743 87.7092 56.558 88.1765 56.6571 88.641C56.4981 87.9541 56.3788 87.2585 56.2998 86.5576Z" fill="white"/>
<path d="M64.6559 94.012C65.8633 93.6198 66.8823 92.7881 67.5141 91.6791C67.7784 91.4016 68.016 91.0996 68.2239 90.777L68.8589 90.6521C69.8977 90.4478 70.9366 90.2434 71.9754 90.039C74.2138 89.5987 75.6115 87.2358 75.7064 85.0986C75.7105 85.0063 75.6933 84.9181 75.6915 84.8269C79.9115 85.5547 84.2401 82.757 84.2623 78.1184C84.2662 77.1597 83.9814 76.2223 83.4456 75.4302C82.8883 75.4697 82.3283 75.4265 81.7835 75.3018C80.0136 74.8604 78.3964 73.2781 77.3192 71.8656C77.1248 71.6108 76.9449 71.346 76.7719 71.0769L76.7681 71.0764L76.4861 71.0428C76.5777 71.0431 76.6693 71.0483 76.7603 71.0584C75.8627 69.6699 75.2747 68.1014 75.0369 66.4614C74.8539 65.5472 74.9124 64.6006 75.2065 63.7164C75.5006 62.8321 76.0199 62.0413 76.7126 61.4231C78.2325 60.0838 80.2086 59.592 81.8498 58.4588C82.8531 57.7099 83.5394 56.6073 83.7721 55.3709C84.0048 54.1345 83.7667 52.855 83.1052 51.7877C82.7172 51.3105 82.238 50.9166 81.6962 50.6295C81.1544 50.3424 80.561 50.1678 79.951 50.1162C78.7245 49.8712 77.3033 49.5372 76.1588 50.2052C75.9412 50.3236 75.6865 50.3521 75.4484 50.2848C75.2104 50.2175 75.0075 50.0595 74.8828 49.8443C74.758 49.6291 74.721 49.3734 74.7796 49.1313C74.8383 48.8891 74.9879 48.6793 75.197 48.5462C76.8738 47.5674 78.8243 47.9217 80.6295 48.299C81.5318 48.4186 82.3947 48.7464 83.1508 49.257C83.907 49.7676 84.5362 50.4472 84.9894 51.2429C85.8222 52.9458 85.9713 54.9069 85.4057 56.7178C85.1174 57.5625 84.6667 58.3416 84.0794 59.0105C83.4921 59.6794 82.7798 60.2249 81.9831 60.6159C80.4487 61.4515 78.4832 61.993 77.4012 63.4692C76.2339 65.0617 77.0482 67.5842 77.8627 69.1694C78.7069 70.8885 80.0539 72.305 81.7219 73.2279C82.6963 73.7251 83.9718 73.4209 84.9873 73.1638C86.0578 72.8962 87.0377 72.3441 87.8249 71.5652C90.8429 68.6412 93.0624 63.0226 89.2866 59.7669C88.3531 58.962 89.7064 57.6084 90.6341 58.4083C91.6893 59.3175 92.4525 60.5225 92.8266 61.8702C92.8912 61.7893 92.9568 61.7094 93.0194 61.6266C94.3524 59.9115 95.32 57.9375 95.8616 55.8282C96.1619 54.5804 96.2782 53.2948 96.2069 52.0129C96.2018 52.1346 96.2025 52.2572 96.1933 52.378C95.9968 54.8463 95.1923 57.2261 93.8526 59.3016C93.1877 60.3355 91.5371 59.3735 92.207 58.3319C93.3463 56.601 94.0549 54.6187 94.2727 52.553C94.4293 50.8534 94.2263 48.9831 92.9249 47.7607C92.1783 47.0594 92.9821 46.0095 93.7899 46.1542C93.7248 46.09 93.6644 46.0201 93.5972 45.9584C93.7624 45.701 93.9134 45.4346 94.0494 45.1604C95.1938 42.7593 95.6339 40.0784 95.3178 37.4335C95.4853 41.3195 93.1351 45.0499 90.7852 48.0577C90.0268 49.0284 88.6866 47.6604 89.4376 46.6991C92.0817 43.3149 94.9809 38.5404 92.4601 34.2753C91.5079 32.6581 89.9693 31.4775 88.1694 30.9829C87.1982 30.6905 86.1568 30.7436 85.2198 31.1334C84.2828 31.5231 83.5072 32.2257 83.023 33.1235C81.0106 36.3509 81.0752 40.6445 77.8224 43.0804C76.0815 44.2319 74.102 44.9658 72.0359 45.2258C70.0034 45.6901 67.8787 45.5151 65.9479 44.7244C65.0025 44.2456 64.175 43.5601 63.5258 42.7179C62.8766 41.8757 62.4221 40.8981 62.1953 39.8562C61.5684 37.5857 61.2001 35.0223 61.9467 32.742C62.3294 31.5733 64.1704 32.0739 63.7844 33.2528C63.085 35.3885 63.5116 37.9138 64.2341 40.0015C64.5779 41.0409 65.2392 41.9439 66.1231 42.5813C67.0071 43.2187 68.0685 43.5576 69.1552 43.5497C71.4964 43.6262 73.8188 43.1058 75.9074 42.0368C77.8939 40.9623 78.7483 38.9949 79.4325 36.9362C80.5463 33.585 81.9499 29.3758 86.0149 28.9082C86.0505 28.9041 86.086 28.9049 86.1216 28.9014C86.0172 28.6988 85.9088 28.4981 85.8088 28.2933C85.7628 24.5962 84.2481 20.7756 80.433 19.5983C78.9165 19.2233 77.3395 19.1676 75.8006 19.4346C75.7894 19.3825 75.7855 19.3297 75.7734 19.2777C75.6255 18.656 75.4096 18.0528 75.1297 17.4792C75.0259 17.0534 74.8409 16.652 74.5849 16.2975C74.5718 16.2803 74.5575 16.2649 74.5443 16.2477C75.1411 17.3855 75.4063 18.6704 75.3093 19.9537C75.0953 22.8285 73.425 25.218 71.4424 27.18C70.5664 28.0469 69.2178 26.6893 70.0949 25.8214C71.6999 24.2331 73.2037 22.2987 73.4035 19.9537C73.4986 18.89 73.2639 17.8228 72.732 16.8992C72.2 15.9756 71.3969 15.2412 70.4334 14.7972C68.3965 13.8834 66.1501 13.5501 63.9385 13.8334C62.1535 13.9988 60.2071 14.6065 59.2131 16.2256C58.0572 18.1084 58.4344 20.6255 58.5309 22.7216C58.6484 25.2715 58.7044 27.8239 58.7284 30.3764C58.7768 35.5417 58.7206 40.7082 58.6966 45.8736C58.683 48.8028 58.6112 51.7385 58.6657 54.6672C58.714 57.2593 59.1143 59.9526 61.2209 61.6838C61.3429 61.788 61.434 61.9243 61.484 62.0775C61.534 62.2307 61.541 62.3949 61.5042 62.5519C61.4673 62.7088 61.3881 62.8524 61.2753 62.9668C61.1625 63.0812 61.0205 63.1619 60.865 63.1999C62.5104 63.0672 64.3247 63.4563 65.9083 63.2031C67.1137 62.9895 68.2334 62.4327 69.135 61.5983C70.0367 60.7639 70.6827 59.6868 70.9968 58.4943C71.0709 58.2567 71.2336 58.0573 71.4506 57.9382C71.6676 57.8192 71.9219 57.7896 72.16 57.8558C72.3982 57.922 72.6016 58.0788 72.7274 58.2932C72.8532 58.5075 72.8915 58.7627 72.8344 59.005C72.3222 60.8594 71.1985 62.4826 69.6486 63.6068C68.0987 64.731 66.2151 65.2893 64.3083 65.1895C63.1381 65.0742 61.9608 65.0508 60.787 65.1198C59.395 65.3031 58.8189 66.3792 58.3249 67.578C57.4602 69.8032 57.0159 72.1718 57.0149 74.5616C57.0017 76.9183 57.166 79.2726 57.5066 81.6042C57.7445 83.9387 58.1016 86.2593 58.5765 88.5567C59.0557 90.5666 60.1963 92.3144 62.4053 92.4803C63.3471 92.558 64.283 92.2714 65.023 91.6788C65.7629 91.0861 66.2514 90.2318 66.3893 89.2893C66.8008 86.8314 64.7686 85.5368 63.6031 83.7012C62.1547 81.4199 62.8232 78.8032 63.656 76.4308C64.0623 75.2731 65.9043 75.7717 65.4937 76.9415C64.9666 78.1654 64.675 79.479 64.6345 80.8126C64.6948 82.2066 65.5147 83.1313 66.3724 84.1319C67.7863 85.7814 68.6606 87.5744 68.227 89.8C68.0419 90.7527 67.6159 91.6411 66.9903 92.379C66.3647 93.1169 65.5606 93.6794 64.6559 94.012ZM76.4745 20.4574C76.4766 20.2033 76.5777 19.9602 76.7559 19.7805C76.9342 19.6008 77.1753 19.4989 77.4274 19.4968C79.4903 19.6377 81.4307 20.5346 82.8829 22.0185C84.3048 23.525 85.1973 25.4602 85.4234 27.5273C85.4221 27.7817 85.3213 28.0253 85.1429 28.2051C84.9644 28.385 84.7228 28.4867 84.4705 28.488C84.2197 28.4818 83.9809 28.3786 83.8035 28.1998C83.6261 28.0209 83.5237 27.7801 83.5176 27.5273C83.3327 25.9665 82.6309 24.5143 81.5256 23.4056C80.4204 22.2969 78.9764 21.5967 77.4274 21.4181C77.1765 21.4122 76.9375 21.3091 76.76 21.1302C76.5826 20.9513 76.4803 20.7104 76.4745 20.4574ZM70.0713 32.8321C70.0717 32.5774 70.1722 32.3334 70.3508 32.1533C70.5294 31.9732 70.7716 31.8719 71.0241 31.8714C71.2746 31.8787 71.5127 31.9823 71.6899 32.1609C71.867 32.3395 71.9698 32.5796 71.977 32.8321C71.9892 32.9324 72.0024 33.0326 72.0146 33.1328L72.0163 33.146L72.0324 33.2637C72.0564 33.4352 72.0817 33.6066 72.1081 33.7778C72.1654 34.1487 72.2285 34.5185 72.2973 34.8874C72.435 35.6253 72.5952 36.3582 72.7782 37.0863C72.8453 37.332 72.813 37.5945 72.6882 37.8161C72.5633 38.0377 72.3563 38.2003 72.1126 38.268C71.8689 38.3357 71.6086 38.3031 71.3887 38.1772C71.1689 38.0514 71.0077 37.8427 70.9405 37.597C70.5526 36.0285 70.2623 34.4371 70.0713 32.8321ZM62.4849 23.1552C62.6274 22.7357 62.8616 22.3539 63.1701 22.0378C63.4872 21.7294 63.8632 21.4891 64.2753 21.3316C64.6552 21.1786 65.063 21.1088 65.4717 21.1267C65.8804 21.1447 66.2806 21.2499 66.6459 21.4355C66.8601 21.5625 67.017 21.7683 67.0838 22.0096C67.1497 22.2595 67.1152 22.5255 66.9877 22.7498C66.8616 22.9656 66.6576 23.1238 66.4183 23.1913C66.1785 23.245 65.9276 23.2135 65.7081 23.1021L65.8148 23.1475C65.7131 23.1105 65.6084 23.0822 65.5019 23.063C65.4119 23.0569 65.3215 23.0566 65.2314 23.0622C65.0115 23.0901 64.8027 23.1761 64.6263 23.3115C64.5574 23.3724 64.4924 23.4377 64.4318 23.507C64.3679 23.5981 64.312 23.6947 64.2648 23.7956L64.303 23.7042C64.2296 23.9264 64.0817 24.1159 63.8847 24.24C63.7211 24.3364 63.5327 24.3815 63.3435 24.3694C63.1544 24.3574 62.9731 24.2887 62.8228 24.1723C62.6726 24.0558 62.5602 23.8969 62.5 23.7157C62.4398 23.5345 62.4345 23.3393 62.4849 23.1551L62.4849 23.1552ZM64.1952 51.1868C63.7019 53.1693 63.5531 55.223 63.7554 57.2567C63.7546 57.5112 63.6539 57.755 63.4754 57.935C63.2969 58.115 63.055 58.2165 62.8026 58.2173C62.5519 58.2108 62.3133 58.1075 62.136 57.9287C61.9587 57.75 61.8562 57.5094 61.8497 57.2567C61.6455 55.05 61.8172 52.8243 62.3576 50.676C62.4247 50.4303 62.586 50.2216 62.8058 50.0958C63.0256 49.97 63.286 49.9373 63.5297 50.005C63.7734 50.0728 63.9804 50.2353 64.1052 50.4569C64.23 50.6786 64.2624 50.9411 64.1952 51.1868ZM85.2241 38.5772C85.224 38.5325 85.2313 38.4881 85.2455 38.4457C85.234 38.4903 85.2277 38.5362 85.2266 38.5823L85.2241 38.5772ZM85.2 38.5278C84.9864 38.0946 85.1011 38.2659 85.2 38.5278V38.5278ZM71.4232 83.3662C71.2457 83.1854 71.1461 82.9413 71.1461 82.6869C71.1461 82.4325 71.2457 82.1884 71.4232 82.0076C71.6049 81.8333 71.8462 81.7361 72.097 81.7361C72.3478 81.7361 72.5891 81.8333 72.7708 82.0076C73.1835 82.209 73.6364 82.3127 74.0949 82.3108C74.6992 82.3897 75.3058 82.4504 75.9146 82.4929C77.0056 82.6645 78.1223 82.4774 79.0997 81.9594C79.9709 81.3931 80.7462 80.6892 81.3959 79.8748C81.7577 79.5165 82.0115 79.0623 82.1281 78.5647C82.2446 78.0671 82.2191 77.5464 82.0545 77.0628C81.9889 76.8172 82.0219 76.5553 82.1465 76.3341C82.2711 76.1129 82.4772 75.9501 82.7201 75.8811C82.9635 75.8198 83.221 75.8553 83.4392 75.9802C83.6574 76.1051 83.8196 76.3099 83.8922 76.5521C85.0488 79.3651 82.2465 82.2778 80.0615 83.6184C78.7327 84.3436 77.2073 84.6173 75.7119 84.399C74.2805 84.2871 72.6001 84.2859 71.4232 83.3662ZM70.5539 88.2252C70.6531 88.1973 70.7512 88.1667 70.8482 88.1315C70.8747 88.1218 70.904 88.1104 70.9327 88.099L70.9537 88.0894C71.1369 88.0026 71.3139 87.903 71.4833 87.7913C71.5608 87.7406 71.6352 87.6858 71.7109 87.6325L71.7128 87.6313C71.7427 87.6066 71.7729 87.5822 71.8026 87.5571C71.9608 87.4232 72.1121 87.281 72.2573 87.1329C72.3979 86.9897 72.5329 86.841 72.6635 86.6884C72.7324 86.6079 72.8001 86.5263 72.8667 86.4438C72.9142 86.385 73.1158 86.0956 72.9504 86.3416C73.1859 85.9914 73.4496 85.6581 73.6893 85.31C73.7524 85.2011 73.8363 85.1058 73.936 85.0295C74.0357 84.9532 74.1493 84.8975 74.2704 84.8655C74.3914 84.8335 74.5175 84.8258 74.6415 84.843C74.7655 84.8601 74.8849 84.9017 74.993 84.9654C75.101 85.029 75.1956 85.1135 75.2712 85.2141C75.3469 85.3146 75.4022 85.4291 75.4339 85.5512C75.4657 85.6732 75.4733 85.8004 75.4563 85.9254C75.4393 86.0504 75.398 86.1708 75.3348 86.2797C74.2416 87.8674 72.9978 89.5329 71.0605 90.0778C70.8168 90.1456 70.5564 90.1129 70.3366 89.9871C70.1168 89.8613 69.9555 89.6525 69.8883 89.4069C69.8212 89.1612 69.8535 88.8987 69.9783 88.677C70.1032 88.4554 70.3102 88.2929 70.5539 88.2251V88.2252ZM69.2735 87.6104C69.2893 87.4829 69.3109 87.3562 69.3218 87.2282C69.3591 86.8099 69.3452 87.0502 69.28 87.9489L69.2735 87.9603V87.6104ZM67.5126 71.0123C67.385 70.7923 67.3493 70.5302 67.4135 70.2837C67.4776 70.0372 67.6362 69.8265 67.8544 69.6979C68.0726 69.5693 68.3325 69.5334 68.577 69.598C68.8215 69.6626 69.0306 69.8225 69.1581 70.0425C69.6344 70.7544 70.1107 71.4663 70.587 72.1782C70.9681 72.8131 71.4393 73.3884 71.9857 73.8857C73.1797 74.7801 74.5192 75.4577 75.9442 75.8879C76.1846 75.9608 76.3879 76.1242 76.5119 76.3443C76.6358 76.5644 76.6708 76.8242 76.6097 77.0696C76.5405 77.314 76.3789 77.5213 76.1597 77.6467C75.9405 77.7722 75.6812 77.8059 75.4375 77.7406C73.7449 77.2137 72.1548 76.3969 70.7371 75.3259C70.0988 74.7654 69.5474 74.1116 69.1011 73.3864C68.5707 72.5956 68.0412 71.8042 67.5126 71.0122V71.0123Z" fill="white"/>
<path d="M65.4532 33.1379C65.4559 33.123 65.4554 33.1077 65.4517 33.093C65.448 33.0783 65.4412 33.0646 65.4317 33.0528C65.2854 32.7574 64.8758 32.2954 64.2584 32.9011C64.2327 32.9289 64.2117 32.9607 64.1961 32.9953C64.1177 33.7027 64.0502 34.4182 64.0168 35.1428C63.9096 36.5825 64.0536 38.03 64.4424 39.4196C64.871 40.8795 65.7838 42.1468 67.0282 43.0096C68.2739 43.8343 69.7358 44.2644 71.226 44.2447C72.7052 44.2521 74.1566 43.8386 75.4132 43.0516C77.8446 41.4406 79.556 38.936 80.1828 36.0715C80.3919 34.7611 80.7133 33.4715 81.1434 32.2172C81.394 31.6667 81.7501 31.1717 82.1912 30.7606C82.6323 30.3495 83.1497 30.0304 83.7136 29.8217C84.8856 29.3585 86.1497 29.1815 87.4025 29.3053C88.6554 29.4292 89.8613 29.8502 90.9218 30.5341C91.9808 31.2444 92.8839 32.1663 93.5751 33.2428C94.2664 34.3192 94.731 35.5273 94.9403 36.7922C95.3679 39.3687 94.9002 42.0152 93.6161 44.2842L93.3715 44.7168L93.2938 44.843L93.1388 45.0954L92.8095 45.5881C92.8095 45.5881 92.5744 45.9868 92.2182 46.5076C91.8761 47.0745 91.4262 47.5675 90.8943 47.9582C90.6112 48.147 90.2719 48.2309 89.9342 48.1954C89.7325 48.1665 89.6409 48.1727 89.6576 48.2609C89.7019 48.3517 89.7652 48.4318 89.8432 48.4954C89.9212 48.5591 90.012 48.605 90.1093 48.6297C90.4732 48.7393 90.8629 48.7231 91.2165 48.5837C91.7938 48.3688 92.3105 48.0155 92.7222 47.5544C93.1528 47.12 93.5577 46.6604 93.9348 46.1781C94.0531 46.0015 94.1752 45.8275 94.2837 45.6444L94.4507 45.3727L94.4922 45.3046L94.6984 44.936C94.8657 44.6282 95.0278 44.3165 95.1694 43.9951C96.3932 41.4147 96.6842 38.4844 95.9921 35.7106C95.6534 34.3159 95.0313 33.0071 94.1653 31.8672C93.2992 30.7272 92.2079 29.7808 90.9605 29.0878C89.6934 28.3995 88.2824 28.0237 86.8434 27.9915C85.4044 27.9593 83.9783 28.2715 82.6822 28.9024C82.018 29.2393 81.4193 29.6939 80.9149 30.2446C80.4195 30.8126 80.0388 31.4726 79.7941 32.1877C79.3096 33.5662 79.2021 34.9333 78.8562 36.149C78.2389 38.6215 76.6904 40.7544 74.5394 42.0953C73.4803 42.7045 72.2752 43.0074 71.0564 42.9707C69.8377 42.934 68.6525 42.5592 67.6314 41.8874C66.6609 41.1699 65.9567 40.1455 65.631 38.9775C65.3013 37.7485 65.1824 36.4718 65.2794 35.2024C65.3112 34.5192 65.376 33.8309 65.4532 33.1379Z" fill="#2C2C2E"/>
<path d="M89.0404 39.9432C89.0525 39.9415 89.0568 39.9411 89.0699 39.9087C89.1626 39.7204 89.2025 39.5103 89.1855 39.3008C89.1684 39.0913 89.0949 38.8906 88.973 38.7201C88.9582 38.7011 88.9397 38.6853 88.9187 38.6738C88.5936 38.7027 88.2718 38.7614 87.9573 38.8494C87.2947 39.0283 86.6655 39.3152 86.0946 39.6987C85.5306 40.0754 85.0251 40.5345 84.5949 41.0609C84.4004 41.3004 84.2232 41.5535 84.0645 41.8184C83.9873 41.9929 83.9226 42.1728 83.871 42.3566C83.7672 42.7004 83.7131 43.0575 83.7104 43.4169C83.7253 44.5472 84.1035 44.1112 84.3874 43.5953C84.3922 43.6288 84.5446 43.3019 84.7417 43.0003C84.8396 42.8492 84.9525 42.706 85.0281 42.5957L85.1751 42.4234C85.3034 42.2133 85.4473 42.0135 85.6058 41.8256C85.9531 41.4052 86.361 41.04 86.8161 40.742C87.2699 40.4415 87.7691 40.217 88.2942 40.0775C88.5383 40.0099 88.7881 39.9649 89.0404 39.9432Z" fill="#2C2C2E"/>
<path d="M94.6233 45.1707C94.6143 45.1575 94.6026 45.1464 94.5891 45.138C94.5755 45.1296 94.5605 45.124 94.5447 45.1218C94.212 44.9921 93.6292 44.9997 93.6055 45.847C93.6057 45.8829 93.6119 45.9186 93.6239 45.9524C94.6037 47.2274 95.2972 48.7018 95.6563 50.2736C96.0155 51.8453 96.0318 53.477 95.704 55.0557C95.6298 55.4199 95.53 55.7785 95.4216 56.134C95.4216 56.134 95.318 56.5818 95.1285 57.18C94.9113 57.8428 94.6517 58.4907 94.3512 59.1196C93.8312 60.121 93.6686 60.4553 93.8506 60.4495C94.2958 60.2228 94.6771 59.8864 94.959 59.4715C95.3236 59.0284 95.6422 58.5486 95.9096 58.0398C96.2021 57.4959 96.4567 56.9322 96.6716 56.3526C96.7758 56.0134 96.8636 55.6689 96.9364 55.3214C97.3034 53.5615 97.2866 51.7422 96.8872 49.9895C96.4878 48.2369 95.7153 46.5926 94.6233 45.1707H94.6233Z" fill="#2C2C2E"/>
<path d="M90.7323 57.7925C90.7192 57.7824 90.7042 57.775 90.6883 57.7708C90.6723 57.7666 90.6557 57.7656 90.6394 57.768C90.263 57.7343 89.7394 57.9407 89.9587 58.7437C89.9685 58.7767 89.984 58.8077 90.0043 58.8355C90.523 59.2037 90.9798 59.6533 91.3574 60.1672C92.0964 61.1787 92.5704 62.3619 92.7356 63.6071C92.8954 64.8642 92.7713 66.1415 92.3725 67.3434C91.5431 69.7993 89.9473 71.9185 87.8238 73.3838C86.799 74.106 85.6157 74.5666 84.3754 74.7262C83.1554 74.8547 81.9266 74.5855 80.8695 73.9582C78.7109 72.7075 77.1831 70.3957 76.1755 68.0246C75.655 66.8897 75.441 65.6364 75.555 64.3913C75.6588 63.8019 75.8799 63.2399 76.2049 62.739C76.53 62.2381 76.9523 61.8087 77.4464 61.4768C78.5347 60.7342 79.6805 60.081 80.8725 59.5234C82.1765 58.8893 83.3233 57.9693 84.229 56.8306C84.6908 56.1958 84.9879 55.4547 85.0933 54.6747C85.1861 53.8839 85.0672 53.0825 84.7489 52.3538C84.1033 50.9768 82.9964 49.8737 81.6233 49.2388C81.5414 49.1955 81.4571 49.1569 81.3708 49.1232L81.1821 49.0449L81.1036 49.0125C81.0514 48.9901 80.9981 48.9705 80.9438 48.9539L80.6198 48.8474C80.4028 48.7823 80.1827 48.7285 79.9602 48.6863C79.5494 48.6329 79.1342 48.6218 78.7211 48.653C77.9355 48.6998 77.1743 48.9461 76.5084 49.3689C76.1454 49.5813 75.8451 49.8875 75.6387 50.2559C75.5356 50.464 75.554 50.5461 75.6389 50.5406C75.8145 50.5339 76.2435 50.1798 76.8552 49.983C77.324 49.8303 77.8126 49.7487 78.3052 49.7408C78.8345 49.7412 79.3612 49.8162 79.87 49.9634C80.0474 50.0017 80.2225 50.0504 80.3943 50.1092C80.4796 50.1397 80.5676 50.161 80.6509 50.1981L81.0436 50.3668C81.3135 50.4954 81.5734 50.6447 81.8208 50.8132C82.8156 51.4363 83.5302 52.4259 83.8127 53.5718C83.9121 54.1178 83.8656 54.6807 83.6781 55.2026C83.4662 55.7421 83.1478 56.2325 82.7422 56.6442C81.8258 57.5101 80.7741 58.2177 79.6292 58.7384C78.3689 59.3099 77.1894 60.0475 76.1214 60.9317C75.5519 61.4226 75.091 62.0287 74.7685 62.7106C74.4461 63.3926 74.2693 64.1352 74.2495 64.8903C74.2626 66.328 74.5991 67.744 75.2334 69.0317C75.8024 70.2993 76.5291 71.4888 77.3959 72.5716C78.2737 73.6947 79.3787 74.6165 80.6375 75.2754C81.9455 75.9394 83.4273 76.1726 84.8739 75.9422C86.2793 75.6951 87.6097 75.1256 88.7621 74.2777C91.0488 72.6318 92.7515 70.2898 93.6202 67.5959C94.0697 66.2276 94.1906 64.7713 93.9729 63.3468C93.7553 61.9222 93.2053 60.5701 92.3682 59.4017C91.9113 58.781 91.359 58.2377 90.7323 57.7925Z" fill="#2C2C2E"/>
<path d="M85.8144 63.8541C85.8165 63.8407 85.8174 63.8358 85.7906 63.813C85.6297 63.6826 85.4392 63.5946 85.2361 63.5569C85.0331 63.5192 84.8239 63.533 84.6275 63.597C84.6072 63.6018 84.588 63.6101 84.5706 63.6216C84.5325 63.8425 84.477 64.06 84.4045 64.2719C84.2539 64.7273 84.0394 65.1585 83.7674 65.5525C83.4971 65.9463 83.1766 66.3026 82.8142 66.6123C82.6499 66.7513 82.4773 66.88 82.2973 66.9976C82.2973 66.9976 82.178 67.1199 82.0033 67.2793C81.8306 67.4419 81.5979 67.6374 81.3966 67.8129C80.6706 68.3234 81.0197 68.5179 81.6518 68.4689C81.8875 68.4489 82.1192 68.396 82.3404 68.3116C82.5806 68.2299 82.8156 68.1332 83.0441 68.0222C83.2635 67.8771 83.4731 67.7173 83.6714 67.544C84.1118 67.1652 84.5003 66.7292 84.8268 66.2473C85.1586 65.7604 85.421 65.2289 85.6061 64.6684C85.6961 64.4027 85.7657 64.1305 85.8144 63.8541Z" fill="#2C2C2E"/>
<path d="M84.8008 76.5369C84.798 76.5207 84.792 76.5052 84.7831 76.4914C84.7742 76.4777 84.7626 76.4658 84.749 76.4567C84.4814 76.185 83.9438 76.0052 83.6047 76.7572C83.5899 76.789 83.5804 76.823 83.5765 76.858C83.7348 77.4741 83.7913 78.1123 83.7438 78.7469C83.6882 79.5886 83.4484 80.4075 83.0415 81.1446C82.6346 81.8818 82.0708 82.5189 81.3906 83.0102C80.701 83.502 79.9174 83.8439 79.0897 84.014C78.262 84.1842 77.4083 84.179 76.5827 83.9987C76.2223 83.932 75.8618 83.853 75.5024 83.7513C75.5024 83.7513 75.0507 83.6626 74.4329 83.5083L72.3711 82.9657C71.2885 82.6894 71.0104 82.4754 71.0025 82.6629C70.9957 82.8468 71.4981 83.3188 72.1507 83.636C72.6371 83.9039 73.1368 84.1466 73.6478 84.363C74.4527 84.7301 75.3356 85.0209 75.3356 85.0209C75.6731 85.1123 76.0187 85.1863 76.3673 85.2507C77.3546 85.4363 78.3672 85.4397 79.3557 85.2608C80.357 85.0618 81.3034 84.6459 82.1296 84.0418C82.9589 83.4414 83.6465 82.6639 84.1435 81.7647C84.6404 80.8655 84.9344 79.8668 85.0045 78.8399C85.0624 78.0662 84.9936 77.2881 84.8008 76.5369Z" fill="#2C2C2E"/>
<path d="M75.4329 79.0253C75.4446 79.033 75.458 79.0378 75.4719 79.0394C75.4859 79.041 75.5 79.0394 75.5132 79.0347C75.7923 78.9991 76.4457 78.8719 76.1333 78.0186C76.1157 77.9823 76.0925 77.9492 76.0645 77.9203C75.4147 77.5634 74.7321 77.2708 74.0263 77.0465C72.6933 76.7353 71.4621 76.0839 70.4508 75.1548C70.2044 74.8947 69.978 74.6161 69.7735 74.3214C69.7735 74.3214 69.4875 73.9771 69.1406 73.4558C68.793 72.9359 68.397 72.2315 68.0662 71.639C67.0285 69.5845 67.0646 70.525 67.4317 71.9374C67.5758 72.4862 67.762 73.0229 67.9886 73.5427C68.2287 74.1172 68.5157 74.6705 68.8468 75.1971C69.061 75.4932 69.2946 75.7746 69.5461 76.0394C70.1081 76.6235 70.7705 77.1 71.5012 77.4457C72.1901 77.7556 72.8964 78.0249 73.6164 78.2521C74.245 78.4506 74.8533 78.7096 75.4329 79.0253Z" fill="#2C2C2E"/>
<path d="M66.276 77.5014C66.2831 77.4883 66.2875 77.4739 66.2887 77.459C66.2898 77.4441 66.2878 77.4291 66.2828 77.415C66.2407 77.0934 66.013 76.5119 65.2266 76.8782C65.1928 76.896 65.1623 76.9195 65.1364 76.9478C64.8113 77.6088 64.5375 78.2943 64.3172 78.998C64.0401 79.833 63.9463 80.7187 64.0422 81.5939C64.168 82.5154 64.5958 83.3682 65.2574 84.0166C65.8726 84.6409 66.5416 85.0798 67.0889 85.5612C67.6203 85.9839 68.0277 86.5443 68.2675 87.1824C68.4835 87.8369 68.5497 88.5321 68.4612 89.2161C68.3728 89.9 68.1319 90.555 67.7568 91.1317C66.9363 92.3035 65.7248 93.1382 64.3439 93.4831C62.9578 93.8848 61.4843 93.8606 60.1118 93.4136C59.4573 93.2204 58.8643 92.8578 58.392 92.3618C57.9196 91.8659 57.5843 91.2538 57.4195 90.5866C57.2468 89.8499 57.1222 89.1026 57.0467 88.3495L56.7693 86.0198C56.5985 84.465 56.4555 82.9074 56.3401 81.3471C56.111 78.227 55.9931 75.1014 55.9864 71.9701C55.9059 70.4657 56.0647 68.9579 56.4568 67.5041C56.6399 66.839 56.972 66.2251 57.4275 65.7098C57.8831 65.1944 58.4498 64.7914 59.0842 64.5317C60.3595 64.1017 61.9087 64.4199 63.5435 64.3958C65.2195 64.4334 66.8766 64.0339 68.3544 63.236L68.6276 63.0644C68.7065 63.019 68.8469 62.9117 68.8236 62.9297L68.8938 62.8782L69.034 62.7749L69.2994 62.5511C69.4728 62.3986 69.6363 62.235 69.789 62.0614C70.0533 61.7322 70.2758 61.3711 70.4514 60.9863C70.798 60.2711 70.9528 59.4768 70.9002 58.6826C70.8876 58.2617 70.7703 57.8507 70.5591 57.4874C70.4341 57.2931 70.3544 57.267 70.3161 57.3437C70.2346 57.5 70.3148 58.0556 70.2012 58.6939C70.1073 59.1803 69.9437 59.6503 69.7157 60.0892C69.4648 60.5503 69.1403 60.9667 68.7553 61.3215C68.631 61.4497 68.5002 61.5712 68.3634 61.6857C68.2969 61.7445 68.2269 61.7992 68.1539 61.8496L68.1004 61.8889L68.0807 61.9035C68.0472 61.9295 68.0125 61.9538 67.9767 61.9763L67.7582 62.1148C67.4582 62.2912 67.1449 62.4436 66.8212 62.5706C65.4475 63.0408 63.9928 63.2228 62.5467 63.1054C61.7592 63.0432 60.9687 63.0252 60.1792 63.0515C59.3047 63.0829 58.4526 63.3381 57.703 63.7931C57 64.2807 56.4004 64.9044 55.939 65.628C55.4776 66.3515 55.1636 67.1605 55.0154 68.0076C54.7509 69.5792 54.6548 71.1748 54.7287 72.7671C54.752 75.8734 54.886 78.9761 55.1306 82.0752C55.2521 83.6235 55.4008 85.1693 55.5766 86.7126L55.8605 89.0247C55.942 89.8389 56.1086 90.6422 56.3575 91.4211C56.6475 92.2632 57.16 93.0096 57.8396 93.5798C58.507 94.1231 59.2795 94.5202 60.1077 94.7456C61.7192 95.1786 63.4204 95.1323 65.0064 94.6125C66.6411 94.1256 68.0437 93.0547 68.9517 91.6002C69.3965 90.8501 69.6672 90.0083 69.7433 89.1377C69.8195 88.2672 69.6992 87.3906 69.3913 86.5736C69.0481 85.7646 68.5074 85.0563 67.8196 84.5147C67.2257 84.0634 66.6551 83.5818 66.1099 83.0718C65.6554 82.6205 65.3663 82.0268 65.29 81.3882C65.2276 80.7053 65.3083 80.0169 65.527 79.3675C65.7287 78.727 65.9791 78.1031 66.276 77.5014Z" fill="#2C2C2E"/>
<path d="M76.2227 86.0818C76.2282 86.0661 76.2305 86.0494 76.2296 86.0327C76.2287 86.016 76.2245 85.9997 76.2172 85.9846C76.1331 85.6104 75.7749 85.1793 75.0854 85.6372C75.0574 85.6567 75.0329 85.6809 75.013 85.7088C74.8261 86.315 74.5399 86.8853 74.1663 87.3963C74.1081 87.487 74.0435 87.5734 73.973 87.6548C73.7509 87.933 73.5039 88.19 73.2349 88.4224C72.995 88.6745 72.7342 88.9055 72.4553 89.1128C71.9175 89.5202 71.3275 89.8523 70.7013 90.1002C70.1867 90.2933 69.8283 90.3759 69.6216 90.451C69.4138 90.5294 69.355 90.5938 69.4157 90.655C69.8889 90.8469 70.4088 90.889 70.9063 90.7757C71.49 90.6981 72.0578 90.5273 72.5883 90.2697C73.1656 90.0041 73.7068 89.665 74.1986 89.2607C74.4678 89.0117 74.7188 88.7435 74.9495 88.4579C75.0351 88.36 75.1143 88.2567 75.1867 88.1486C75.644 87.5227 75.9941 86.8242 76.2227 86.0818Z" fill="#2C2C2E"/>
<path d="M70.5467 32.9148C70.5449 32.9042 70.5444 32.9003 70.5122 32.8905C70.3173 32.8288 70.1115 32.8105 69.909 32.8369C69.7064 32.8634 69.512 32.9339 69.3391 33.0436C69.3213 33.0544 69.3057 33.0685 69.293 33.085L69.3874 33.7644C69.4447 34.1616 69.5262 34.6899 69.6347 35.219C69.7323 35.7088 69.8568 36.1928 70.0076 36.6688C70.1348 37.0614 70.2412 37.3183 70.2412 37.3183C70.4664 37.6735 70.7416 37.9938 71.0581 38.2692C71.7293 38.8317 71.7612 38.3638 71.6534 37.8992C71.6749 37.932 71.3621 36.8035 71.3911 36.7962C71.1662 36.1918 70.9905 35.57 70.8659 34.9369C70.7683 34.452 70.6913 33.9542 70.6372 33.5729L70.5467 32.9148Z" fill="#2C2C2E"/>
<path d="M71.0625 26.6995C71.0507 26.7089 71.0411 26.7208 71.0343 26.7343C71.0275 26.7478 71.0238 26.7626 71.0233 26.7778C70.9415 27.0968 70.9478 27.7172 71.8084 27.6697C71.846 27.6657 71.8826 27.6557 71.917 27.6399C72.438 27.1579 72.9544 26.6615 73.4506 26.1361C74.7976 24.8269 75.798 23.1984 76.3603 21.3992C76.6059 20.4526 76.6521 19.4646 76.4961 18.4989C76.3297 17.5466 75.989 16.6339 75.4911 15.8074C74.5058 14.1721 73.0467 12.8808 71.3106 12.1078C69.6138 11.3695 67.7851 10.9889 65.937 10.9894C64.1059 10.9413 62.2787 11.1831 60.5219 11.7059C59.5951 12.0037 58.7449 12.5041 58.032 13.1713C57.3307 13.8564 56.795 14.6949 56.4663 15.622C55.9096 17.3842 55.6613 19.2305 55.7326 21.0785L55.7172 26.3919L55.6617 47.6401C55.5782 51.2266 55.8625 54.8122 56.5101 58.3397L56.7654 59.4528C56.8184 59.6626 56.8779 59.8719 56.9401 60.0809C57.079 60.4604 57.2462 60.8287 57.4403 61.1827C57.7943 61.8813 58.3007 62.4899 58.9213 62.9631C59.2488 63.2295 59.6428 63.3998 60.06 63.4552C60.2901 63.4742 60.3586 63.4261 60.3218 63.3488C60.2491 63.1871 59.7662 62.9189 59.3642 62.4152C59.053 62.0237 58.7942 61.5927 58.5944 61.1333C58.3822 60.6236 58.2167 60.0955 58.1 59.5554C58.0448 59.3697 57.9967 59.1838 57.9502 58.9906L57.8823 58.6998L57.7544 58.1321C57.6664 57.7157 57.5858 57.2975 57.5162 56.8765C57.0287 53.4646 56.8302 50.017 56.9228 46.5712L56.9811 25.6829L57.0023 20.4713C56.9507 18.8149 57.2337 17.1652 57.8341 15.6224C58.1478 14.9161 58.6233 14.2949 59.2216 13.81C59.8491 13.3362 60.5618 12.9895 61.3201 12.789C62.9327 12.3808 64.5949 12.2071 66.2563 12.2732C67.9011 12.3045 69.5216 12.6788 71.0159 13.3726C72.4702 14.0719 73.6807 15.1984 74.4883 16.6041C74.8924 17.2799 75.1563 18.0314 75.2639 18.8131C75.3716 19.5947 75.3208 20.3903 75.1146 21.1516C74.5987 22.7112 73.7133 24.1204 72.5353 25.2571C72.0674 25.7522 71.5716 26.2291 71.0625 26.6995Z" fill="#2C2C2E"/>
<path d="M62.8068 50.9116C62.8095 50.8982 62.8106 50.8934 62.7851 50.8687C62.6412 50.7152 62.4569 50.6061 62.2538 50.5544C62.0507 50.5026 61.8372 50.5103 61.6382 50.5765C61.6158 50.584 61.595 50.596 61.5773 50.6117C61.5721 50.6311 61.4785 50.9993 61.3892 51.5495C61.2807 52.2158 61.2248 52.8898 61.2222 53.565C61.2208 54.5385 61.3237 55.5094 61.5289 56.4606C61.7212 56.9682 61.9708 57.4518 62.2726 57.902C62.9142 58.8312 63.0034 58.2913 62.9246 57.6465C62.9439 57.7009 62.7074 56.1172 62.744 56.1159C62.5676 55.2676 62.4805 54.4029 62.4841 53.5362C62.489 52.9357 62.5406 52.3365 62.6385 51.7441C62.719 51.2555 62.8019 50.9291 62.8068 50.9116Z" fill="#2C2C2E"/>
<path d="M85.1759 28.129C85.1754 28.1438 85.1783 28.1586 85.1841 28.1722C85.19 28.1859 85.1988 28.198 85.2098 28.2079C85.3964 28.4658 85.8637 28.884 86.3925 28.1852C86.4139 28.1531 86.4299 28.1177 86.4399 28.0803C86.4122 27.352 86.3435 26.6259 86.2343 25.9055C86.1166 24.7397 85.7483 23.6138 85.155 22.6063C84.497 21.646 83.6559 20.8274 82.6808 20.1981C82.3353 19.9676 81.9766 19.7578 81.6066 19.5699C81.2398 19.4091 80.8623 19.2746 80.4768 19.1673C79.7551 18.9623 79.0102 18.852 78.2606 18.8392C77.0705 18.8304 76.7351 19.0246 76.8541 19.1334C77.2856 19.3257 77.7389 19.4635 78.2039 19.5437C78.131 19.5476 78.9333 19.7154 79.6977 20.0281C80.2094 20.2365 80.7038 20.4858 81.176 20.7737C81.4531 20.9211 81.7223 21.0821 81.9836 21.2566C82.8144 21.7913 83.5326 22.4858 84.0972 23.3004C84.5902 24.1569 84.893 25.1112 84.9846 26.0972C85.0864 26.7703 85.1503 27.4486 85.1759 28.129Z" fill="#2C2C2E"/>
<path d="M66.8582 21.809C66.8655 21.8142 66.868 21.8161 66.8957 21.7987C67.0772 21.7036 67.2354 21.5689 67.3589 21.4045C67.4824 21.2401 67.568 21.05 67.6096 20.848C67.6127 20.8252 67.6111 20.802 67.6052 20.7797L67.3989 20.638C67.2271 20.5287 67.0467 20.4335 66.8596 20.3536C66.3041 20.1138 65.7014 20.0057 65.098 20.0377C64.4932 20.0705 63.9053 20.2506 63.3846 20.5625C63.1511 20.7008 62.9332 20.8646 62.735 21.0508C62.631 21.1815 62.5387 21.3214 62.4594 21.4687C62.3072 21.7403 62.2065 22.0381 62.1622 22.3468C62.0857 22.8295 62.2098 22.989 62.332 22.9817C62.4641 22.9755 62.6226 22.8175 62.7946 22.6473C62.7947 22.6743 62.9705 22.4525 63.1798 22.2727C63.3166 22.1517 63.4649 22.0445 63.6225 21.9526C63.7562 21.8292 63.9044 21.7226 64.0637 21.6352C64.4068 21.4354 64.7929 21.3227 65.1887 21.3067C65.5933 21.2898 65.9965 21.3654 66.368 21.5278C66.5419 21.6015 66.7064 21.6959 66.8582 21.809Z" fill="#2C2C2E"/>
</svg>
