<svg width="112" height="109" viewBox="0 0 112 109" fill="none" xmlns="http://www.w3.org/2000/svg">
<path fill-rule="evenodd" clip-rule="evenodd" d="M57.8697 2.08735C72.5332 0.848472 83.2249 13.0548 92.9046 21.7191C100.816 28.8003 105.813 37.3907 107.67 46.6636C109.309 54.8499 104.405 62.4221 102.692 70.5991C100.548 80.8276 107.221 94.5125 96.3819 100.529C85.5161 106.56 71.192 99.9268 57.8697 100.529C43.0771 101.198 29.0098 109.635 15.9647 104.164C3.35481 98.8761 4.01895 84.0383 4.00184 72.8874C3.98824 64.0198 6.66409 52.3433 10.9691 44.1336C14.8515 36.7297 17.3957 30.4113 23.299 23.8668C31.9389 14.2882 42.9234 3.35012 57.8697 2.08735Z" fill="white" fill-opacity="0.15"/>
<path d="M58.1233 50.3453C53.6809 47.478 52.1563 42.7485 51.9351 38.4225C51.1443 42.7454 49.152 51.5862 47.5097 52.366C46.6879 52.7563 43.0971 52.5103 38.7685 53.0517C42.7609 59.2098 53.731 69.408 65.672 60.9357C63.2414 58.6897 61.1086 57.0992 59.7114 56.2331L60.6872 51.4236C59.849 51.2552 58.9927 50.9065 58.1233 50.3453Z" fill="#D69A6E"/>
<path d="M74.5599 37.9113C75.2507 35.2687 75.8137 29.4464 72.5393 27.2978C67.5123 29.2152 56.5326 32.5839 52.8295 30.7194C52.2622 32.5753 51.7806 35.4005 51.9351 38.4225C52.1563 42.7485 53.6809 47.478 58.1233 50.3453C58.9927 50.9065 59.849 51.2552 60.6872 51.4236C67.1237 52.7165 72.4941 43.3739 74.5599 37.9113Z" fill="#D69A6E"/>
<path d="M51.9351 38.4225C51.7806 35.4005 52.2622 32.5753 52.8295 30.7194C51.4651 29.8242 48.5557 28.9247 47.8326 32.4883C47.1095 36.052 50.2663 37.9293 51.9351 38.4225Z" fill="#D69A6E"/>
<path d="M69.0772 64.3411L64.3079 75.0333C65.258 75.7151 68.6385 78.4737 74.5599 84.0539C80.4814 89.6341 84.8953 81.7288 86.9303 78.4423L95.2406 63.3325C96.1708 64.1152 103.99 69.2545 101.021 60.9357C97.3845 50.7486 91.5514 56.1655 89.4302 58.4428L77.8826 72.0307L69.0772 64.3411Z" fill="#D69A6E"/>
<path fill-rule="evenodd" clip-rule="evenodd" d="M57.1371 5.90178C56.2514 5.44669 55.0712 5.31578 53.484 5.78375C51.8685 6.26009 51.1297 6.91595 50.8546 7.56327C50.5795 8.21066 50.7003 9.00965 51.1839 9.93346C52.1259 11.7328 54.2631 13.6485 56.0447 14.9145C57.2605 14.7027 58.6177 14.6696 60.1291 14.8448C60.2527 12.837 60.0669 10.2097 59.1769 8.24608C58.697 7.18743 58.0307 6.36098 57.1371 5.90178ZM61.0987 14.9825C61.2368 12.8816 61.0595 10.0345 60.0662 7.84298C59.5289 6.65744 58.7346 5.62484 57.5834 5.0333C56.4241 4.43764 54.9751 4.32611 53.2079 4.84718C51.469 5.35989 50.3965 6.14459 49.956 7.1814C49.5154 8.21813 49.7746 9.34683 50.3188 10.3863C51.2417 12.1491 53.1212 13.9255 54.7975 15.2076C51.2353 16.2768 49.1858 19.0207 48.1167 22.1707C46.9635 25.5688 46.927 29.4889 47.3378 32.4748C46.9755 34.3959 47.648 35.8832 48.6293 36.9392C49.4651 37.8386 50.5263 38.4305 51.3778 38.7498C50.9744 40.8932 50.3189 43.9381 49.5718 46.5905C49.1729 48.0066 48.7519 49.2967 48.3339 50.2743C48.1246 50.7639 47.9219 51.1611 47.7308 51.4524C47.53 51.7582 47.3804 51.887 47.3003 51.925C47.2582 51.9449 47.1645 51.9748 46.9934 52.0041C46.8291 52.0322 46.6212 52.0553 46.3682 52.0749C45.8769 52.1129 45.2528 52.1352 44.5097 52.1616L44.4367 52.1642C42.8952 52.2192 40.8959 52.2936 38.7079 52.5672C33.4489 53.225 27.0658 54.9927 23.0581 60.6536C21.6383 62.6591 20.7566 64.3299 20.2371 66.209C19.7197 68.0805 19.5704 70.1281 19.5705 72.8691C19.5705 72.8959 19.5727 72.9226 19.5771 72.9491L22.975 93.4029C23.0013 93.5611 23.1036 93.6963 23.2487 93.7646C23.4435 93.8563 23.7682 93.9193 24.1241 93.9726C24.506 94.0297 25.0016 94.0853 25.5911 94.1396C26.7711 94.2483 28.3503 94.3538 30.1948 94.4548C33.885 94.6568 38.6549 94.8419 43.4559 94.9988C53.0554 95.3127 62.7993 95.5147 64.3079 95.5147C64.4374 95.5147 64.5616 95.4633 64.6531 95.3717C64.7447 95.2802 64.7961 95.156 64.7961 95.0265L64.7961 76.0232C66.2903 77.2143 69.4119 79.8734 74.2251 84.4092C75.7706 85.8656 77.272 86.4903 78.7077 86.4816C80.1345 86.4729 81.4091 85.8389 82.5088 84.9533C84.4919 83.3563 86.0451 80.8205 87.0608 79.1622C87.1609 78.9988 87.2558 78.8439 87.3454 78.6992C87.3498 78.6921 87.354 78.6849 87.3581 78.6775L95.3982 64.059C95.7371 64.2952 96.1979 64.5917 96.7136 64.8831C97.5444 65.3525 98.57 65.8389 99.4965 66.0257C99.9597 66.1191 100.44 66.1466 100.872 66.0266C101.326 65.9011 101.709 65.6175 101.94 65.144C102.161 64.6918 102.222 64.1098 102.149 63.4083C102.075 62.7019 101.859 61.8323 101.481 60.7716C100.556 58.1819 99.4702 56.5175 98.2824 55.5497C97.0754 54.5664 95.7952 54.3291 94.5765 54.5336C93.3802 54.7343 92.266 55.3556 91.3339 56.0468C90.3974 56.7414 89.6119 57.5314 89.073 58.1101C89.0709 58.1122 89.0689 58.1144 89.0669 58.1166C89.064 58.1199 89.0611 58.1233 89.0582 58.1266L77.831 71.3374L69.4179 63.9904C68.2464 62.7259 67.0953 61.5861 66.0034 60.5771C63.7145 58.4622 61.6798 56.9165 60.2568 56.0003L61.0723 51.9811C64.3721 52.3998 67.3158 50.2708 69.636 47.5152C72.0687 44.6259 73.942 40.9064 74.9923 38.1479C76.8312 35.6592 78.5599 31.5789 77.7266 27.3699C76.8783 23.0849 73.4115 18.8321 65.1492 16.0283C63.6947 15.5347 62.3469 15.1913 61.0987 14.9825ZM75.4822 35.4852C76.6068 33.2516 77.3347 30.4178 76.7688 27.5595C76.0099 23.7266 72.8885 19.6858 64.8355 16.953C63.2513 16.4154 61.8124 16.0663 60.507 15.8785C58.7884 15.6312 57.3038 15.6636 56.024 15.911C52.259 16.6389 50.1355 19.2605 49.0414 22.4845C48.1675 25.0594 47.9661 27.9858 48.1256 30.534C48.2053 30.4285 48.2896 30.3308 48.3783 30.2405C48.8629 29.7472 49.4462 29.5115 50.0372 29.4465C51.1732 29.3216 52.3436 29.8227 53.0724 30.295C53.8812 30.6928 55.1455 30.8352 56.7394 30.7534C58.3306 30.6718 60.1783 30.3714 62.0824 29.9501C65.8896 29.1078 69.8678 27.7942 72.3653 26.8416C72.5117 26.7858 72.676 26.8036 72.8071 26.8896C74.6323 28.0872 75.336 30.2695 75.5228 32.3761C75.6168 33.4355 75.5835 34.5076 75.4822 35.4852ZM52.2551 30.9433C51.6413 30.605 50.8474 30.3397 50.1439 30.4171C49.7466 30.4608 49.3817 30.6124 49.0748 30.9248C48.7629 31.2422 48.4788 31.7587 48.3111 32.5854C47.986 34.1874 48.5252 35.3928 49.3445 36.2745C49.9655 36.9426 50.7458 37.42 51.4219 37.7145C51.3722 35.1004 51.767 32.6801 52.2551 30.9433ZM51.8235 41.4795C51.4557 43.1969 51.0039 45.1077 50.5117 46.8552C50.1083 48.2872 49.6739 49.6237 49.2317 50.6581C49.0109 51.1746 48.7823 51.6298 48.5471 51.9882C48.3214 52.332 48.0496 52.6501 47.7191 52.807C47.5557 52.8846 47.3575 52.9324 47.1579 52.9665C46.9517 53.0018 46.7104 53.0277 46.4436 53.0484C45.9315 53.0881 45.2891 53.1109 44.5591 53.1369L44.4715 53.1401C43.1224 53.1882 41.4525 53.2504 39.6217 53.4446C41.6679 56.3746 45.1482 59.9857 49.4499 62.0395C53.917 64.1723 59.2671 64.6304 64.8894 60.8816C62.6655 58.87 60.7336 57.4412 59.4541 56.6481C59.2805 56.5405 59.1923 56.3362 59.2329 56.136L60.1149 51.7889C59.3668 51.5828 58.6135 51.2428 57.8585 50.7555C54.2763 48.4434 52.5325 44.9753 51.8235 41.4795ZM65.6278 61.5613C59.6083 65.6713 53.8117 65.204 49.0292 62.9207C44.3226 60.6736 40.5959 56.6727 38.5283 53.5748C33.4199 54.2513 27.5472 56.0026 23.8551 61.2178C22.4751 63.167 21.6578 64.7346 21.1782 66.4692C20.6989 68.2029 20.5483 70.1341 20.5469 72.8288L23.888 92.9407C23.9893 92.9619 24.1159 92.9841 24.2686 93.0069C24.6241 93.0601 25.099 93.1137 25.6806 93.1673C26.8427 93.2744 28.4078 93.379 30.2482 93.4798C33.9276 93.6812 38.689 93.866 43.4878 94.0229C52.3474 94.3126 61.3169 94.5065 63.8197 94.5347L63.8197 75.0332C63.8197 74.9647 63.8341 74.8969 63.862 74.8344L68.4998 64.4372C67.5179 63.3873 66.5526 62.4274 65.6278 61.5613ZM69.2539 65.1435L64.913 74.8751C66.1987 75.8575 69.5003 78.615 74.8947 83.6986C76.31 85.0323 77.5808 85.512 78.7018 85.5052C79.8316 85.4983 80.8979 84.9969 81.8963 84.1929C83.7381 82.7096 85.2025 80.3231 86.2324 78.6448C86.3282 78.4886 86.4203 78.3386 86.5086 78.1959L94.6208 63.4464C93.7878 62.7316 92.9826 61.9846 92.2697 61.2839C92.0774 61.0948 92.0748 60.7857 92.2638 60.5934C92.4528 60.4012 92.7619 60.3985 92.9542 60.5875C93.7384 61.3584 94.6356 62.1853 95.555 62.9589C95.757 63.1289 96.3927 63.5802 97.1939 64.033C97.998 64.4873 98.9161 64.9126 99.6895 65.0686C100.076 65.1466 100.385 65.1484 100.612 65.0857C100.818 65.0286 100.964 64.9178 101.062 64.7155C101.172 64.4919 101.241 64.1167 101.178 63.5101C101.114 62.9083 100.925 62.1188 100.561 61.0998C99.6672 58.5959 98.6605 57.1172 97.6656 56.3067C96.6899 55.5117 95.6974 55.3355 94.7381 55.4965C93.7566 55.6613 92.7875 56.1845 91.9156 56.8311C91.0523 57.4713 90.3162 58.2084 89.795 58.7674L78.2673 72.3318L77.0996 73.9548C76.9421 74.1736 76.637 74.2234 76.4182 74.0659C76.1993 73.9085 76.1495 73.6034 76.307 73.3845L77.2268 72.1061L69.2539 65.1435ZM53.1477 31.3796C52.6632 33.1748 52.2851 35.7067 52.4227 38.3975C52.6395 42.6387 54.1282 47.1856 58.388 49.9351C59.2115 50.4666 60.0112 50.7898 60.7834 50.9449C63.7249 51.5358 66.5107 49.7111 68.8891 46.8863C71.2412 44.0927 73.072 40.4583 74.0941 37.7629C74.4262 36.4808 74.7253 34.4358 74.5502 32.4624C74.381 30.5543 73.781 28.8271 72.4708 27.8458C69.9312 28.8018 66.0373 30.0751 62.2934 30.9035C60.3614 31.331 58.4555 31.6431 56.7895 31.7286C55.407 31.7995 54.1372 31.718 53.1477 31.3796Z" fill="black"/>
<path d="M72.5394 27.2983C75.8138 29.4469 75.2508 35.2692 74.5601 37.9118C78.1689 33.0785 81.3078 22.0278 64.9925 16.4912C63.3844 15.9455 61.9161 15.5885 60.5767 15.3958C58.8131 15.142 57.273 15.1728 55.9315 15.4322C47.9556 16.9742 47.0008 26.5939 47.8327 32.4888C48.5558 28.9252 51.4653 29.8247 52.8296 30.7199C56.5327 32.5844 67.5124 29.2157 72.5394 27.2983Z" fill="black"/>
<path d="M53.3461 5.316C46.6372 7.29409 52.2743 12.8843 55.9315 15.4322C57.273 15.1728 58.8131 15.142 60.5767 15.3958C60.9619 11.2117 60.055 3.33792 53.3461 5.316Z" fill="black"/>
<path d="M23.4567 60.9362C22.5329 62.2561 20.0586 67.4128 20.0589 72.8696L23.4567 93.3234C25.3617 94.2199 61.3087 95.027 64.308 95.027L64.308 75.0338L69.0774 64.3416C67.9088 63.0792 66.7606 61.942 65.6722 60.9362C53.7311 69.4085 42.761 59.2104 38.7686 53.0522C33.5506 53.7049 29.3768 56.2336 23.4567 60.9362Z" fill="black"/>
<path fill-rule="evenodd" clip-rule="evenodd" d="M57.1372 5.90229C56.2516 5.4472 55.0714 5.31629 53.4842 5.78426C51.8686 6.2606 51.1298 6.91646 50.8548 7.56377C50.5797 8.21117 50.7004 9.01016 51.184 9.93397C52.126 11.7333 54.2633 13.649 56.0449 14.915C57.2606 14.7032 58.6178 14.6701 60.1292 14.8453C60.2528 12.8375 60.067 10.2102 59.177 8.24658C58.6972 7.18793 58.0309 6.36148 57.1372 5.90229ZM61.0988 14.983C61.237 12.8822 61.0596 10.035 60.0663 7.84349C59.529 6.65795 58.7347 5.62535 57.5835 5.0338C56.4243 4.43815 54.9753 4.32662 53.208 4.84769C51.4691 5.3604 50.3967 6.1451 49.9561 7.18191C49.5156 8.21864 49.7748 9.34734 50.319 10.3868C51.2418 12.1496 53.1213 13.926 54.7977 15.2081C51.2354 16.2773 49.1859 19.0212 48.1169 22.1712C46.9636 25.5693 46.9271 29.4894 47.3379 32.4753C46.9756 34.3964 47.6481 35.8837 48.6294 36.9397C49.4653 37.8391 50.5265 38.431 51.378 38.7503C50.9746 40.8937 50.3191 43.9386 49.5719 46.591C49.1731 48.0071 48.752 49.2972 48.334 50.2748C48.1247 50.7644 47.9221 51.1617 47.7309 51.4529C47.5302 51.7587 47.3805 51.8875 47.3004 51.9255C47.2584 51.9455 47.1646 51.9753 46.9935 52.0046C46.8293 52.0327 46.6213 52.0558 46.3683 52.0754C45.8771 52.1134 45.253 52.1357 44.5099 52.1621L44.4369 52.1647C42.8954 52.2197 40.8961 52.2941 38.708 52.5677C33.3492 53.238 29.086 55.8411 23.1531 60.5539C23.1162 60.5832 23.0838 60.6177 23.0568 60.6562C22.5606 61.3651 21.693 63.0294 20.9496 65.1929C20.204 67.3628 19.5705 70.0714 19.5706 72.8696C19.5706 72.8964 19.5728 72.9231 19.5772 72.9496L22.9751 93.4034C23.0014 93.5616 23.1037 93.6968 23.2489 93.7651C23.4436 93.8568 23.7683 93.9199 24.1243 93.9731C24.5061 94.0302 25.0018 94.0858 25.5912 94.1401C26.7713 94.2488 28.3505 94.3543 30.1949 94.4553C33.8851 94.6573 38.655 94.8424 43.456 94.9993C53.0555 95.3132 62.7994 95.5152 64.308 95.5152C64.4375 95.5152 64.5617 95.4638 64.6533 95.3722C64.7448 95.2807 64.7963 95.1565 64.7963 95.027L64.7963 76.0237C66.2905 77.2148 69.4121 79.8739 74.2252 84.4097C75.7707 85.8661 77.2721 86.4908 78.7078 86.4821C80.1346 86.4734 81.4092 85.8394 82.5089 84.9538C84.492 83.3568 86.0453 80.821 87.061 79.1627C87.1611 78.9993 87.256 78.8444 87.3455 78.6998C87.3473 78.6969 87.3491 78.694 87.3508 78.691C87.3533 78.6867 87.3558 78.6824 87.3582 78.678L95.3984 64.0595C95.7372 64.2957 96.1981 64.5922 96.7137 64.8836C97.5445 65.353 98.5701 65.8394 99.4967 66.0262C99.9599 66.1197 100.44 66.1471 100.873 66.0272C101.326 65.9016 101.709 65.618 101.94 65.1445C102.161 64.6923 102.222 64.1103 102.149 63.4088C102.075 62.7024 101.859 61.8328 101.481 60.7721C100.556 58.1824 99.4704 56.518 98.2825 55.5502C97.0756 54.5669 95.7954 54.3296 94.5767 54.5341C93.3803 54.7349 92.2661 55.3561 91.3341 56.0474C90.3976 56.7419 89.6121 57.5319 89.0731 58.1106C89.0681 58.116 89.0631 58.1215 89.0583 58.1272L77.8311 71.3379L69.418 63.9909C68.2465 62.7264 67.0954 61.5866 66.0035 60.5776C63.7147 58.4627 61.68 56.917 60.2569 56.0008L61.0724 51.9816C64.3723 52.4003 67.316 50.2714 69.6362 47.5157C72.0689 44.6264 73.9421 40.907 74.9925 38.1484C76.8314 35.6597 78.5601 31.5795 77.7268 27.3704C76.8784 23.0854 73.4117 18.8326 65.1494 16.0288C63.6948 15.5352 62.3471 15.1918 61.0988 14.983ZM75.4824 35.4857C76.607 33.2521 77.3348 30.4183 76.7689 27.56C76.0101 23.7271 72.8886 19.6863 64.8356 16.9535C63.2514 16.4159 61.8125 16.0669 60.5071 15.879C58.7885 15.6317 57.304 15.6641 56.0242 15.9115C52.2592 16.6394 50.1357 19.261 49.0415 22.485C48.1676 25.0599 47.9662 27.9864 48.1257 30.5345C48.2054 30.429 48.2897 30.3313 48.3784 30.241C48.863 29.7477 49.4463 29.512 50.0373 29.447C51.1733 29.3221 52.3438 29.8233 53.0725 30.2955C53.8813 30.6933 55.1457 30.8357 56.7396 30.7539C58.3308 30.6723 60.1784 30.3719 62.0826 29.9506C65.8897 29.1083 69.868 27.7947 72.3654 26.8422C72.5118 26.7863 72.6762 26.8041 72.8072 26.8901C74.6324 28.0877 75.3361 30.27 75.523 32.3766C75.6169 33.436 75.5836 34.5081 75.4824 35.4857ZM52.2553 30.9438C51.6414 30.6055 50.8475 30.3402 50.1441 30.4176C49.7468 30.4613 49.3819 30.6129 49.0749 30.9253C48.7631 31.2427 48.4789 31.7592 48.3112 32.5859C47.9862 34.1879 48.5253 35.3933 49.3447 36.275C49.9656 36.9431 50.7459 37.4205 51.4221 37.715C51.3724 35.1009 51.7671 32.6806 52.2553 30.9438ZM51.8236 41.48C51.4559 43.1974 51.004 45.1082 50.5118 46.8557C50.1085 48.2877 49.6741 49.6242 49.2319 50.6587C49.0111 51.1751 48.7825 51.6303 48.5472 51.9887C48.3216 52.3325 48.0497 52.6506 47.7192 52.8075C47.5558 52.8851 47.3576 52.9329 47.1581 52.967C46.9518 53.0023 46.7106 53.0282 46.4437 53.0489C45.9317 53.0886 45.2893 53.1114 44.5592 53.1374L44.4717 53.1406C43.1226 53.1887 41.4526 53.2509 39.6218 53.4451C41.6681 56.3751 45.1483 59.9863 49.45 62.04C53.9171 64.1728 59.2673 64.6309 64.8895 60.8821C62.6657 58.8705 60.7338 57.4417 59.4543 56.6486C59.2807 56.541 59.1924 56.3367 59.233 56.1365L60.1151 51.7894C59.3669 51.5833 58.6136 51.2433 57.8586 50.756C54.2765 48.4439 52.5327 44.9758 51.8236 41.48ZM65.6279 61.5618C59.6085 65.6718 53.8118 65.2045 49.0293 62.9212C44.3233 60.6744 40.5969 56.6742 38.5292 53.5764C33.606 54.2673 29.5774 56.7028 23.8176 61.2731C23.3798 61.921 22.5761 63.4638 21.873 65.5102C21.1541 67.6023 20.553 70.1849 20.5471 72.8296L23.8882 92.9412C23.9895 92.9624 24.1161 92.9846 24.2687 93.0074C24.6242 93.0606 25.0991 93.1143 25.6808 93.1678C26.8429 93.2749 28.408 93.3795 30.2483 93.4803C33.9277 93.6817 38.6892 93.8665 43.4879 94.0234C52.3475 94.3131 61.3171 94.507 63.8198 94.5352L63.8198 75.0337C63.8198 74.9652 63.8343 74.8974 63.8622 74.8349L68.4999 64.4377C67.5181 63.3878 66.5527 62.4279 65.6279 61.5618ZM69.254 65.144L64.9132 74.8756C66.1988 75.858 69.5004 78.6155 74.8949 83.6991C76.3101 85.0328 77.581 85.5125 78.7019 85.5057C79.8317 85.4988 80.8981 84.9974 81.8965 84.1934C83.7382 82.7101 85.2026 80.3236 86.2325 78.6453C86.3283 78.4891 86.4204 78.3391 86.5087 78.1965L94.6209 63.4469C93.7879 62.7321 92.9827 61.9851 92.2698 61.2844C92.0776 61.0953 92.0749 60.7862 92.2639 60.594C92.4529 60.4017 92.7621 60.399 92.9543 60.588C93.7385 61.3589 94.6358 62.1858 95.5551 62.9594C95.7572 63.1295 96.3928 63.5807 97.1941 64.0335C97.9982 64.4878 98.9163 64.9131 99.6897 65.0691C100.076 65.1471 100.386 65.1489 100.612 65.0862C100.818 65.0291 100.964 64.9183 101.063 64.716C101.172 64.4924 101.241 64.1173 101.178 63.5106C101.115 62.9088 100.925 62.1193 100.561 61.1003C99.6674 58.5964 98.6606 57.1177 97.6658 56.3072C96.69 55.5122 95.6976 55.3361 94.7383 55.497C93.7567 55.6618 92.7876 56.185 91.9157 56.8316C91.0525 57.4718 90.3164 58.2089 89.7952 58.768L78.2675 72.3322L77.0997 73.9553C76.9423 74.1742 76.6372 74.2239 76.4183 74.0664C76.1994 73.909 76.1497 73.6039 76.3071 73.385L77.2269 72.1066L69.254 65.144ZM53.1479 31.3801C52.6633 33.1753 52.2853 35.7072 52.4228 38.398C52.6397 42.6392 54.1284 47.1861 58.3882 49.9356C59.2116 50.4671 60.0113 50.7903 60.7835 50.9454C63.7251 51.5363 66.5109 49.7116 68.8892 46.8868C71.2414 44.0932 73.0721 40.4588 74.0942 37.7634C74.4263 36.4814 74.7254 34.4363 74.5504 32.4629C74.3811 30.5548 73.7811 28.8276 72.4709 27.8463C69.9314 28.8023 66.0375 30.0756 62.2935 30.904C60.3615 31.3315 58.4557 31.6436 56.7896 31.7291C55.4071 31.8 54.1374 31.7185 53.1479 31.3801Z" fill="black"/>
<path d="M65.7394 48.0974C68.2313 48.0974 67.1533 49.491 67.1533 55.195C67.3838 63.8489 64.5223 73.3924 57.3305 83.6645C54.4364 87.7982 46.7562 87.7085 41.3082 87.0735C22.786 84.9145 19.9439 76.0511 19.9439 72.7557C19.9439 69.4603 20.0588 68.2104 21.4224 65.3696C22.786 62.5287 44.2595 79.1192 46.7562 76.8492C57.9807 66.6436 59.0997 56.3597 59.0997 56.3597C59.9441 55.195 59.2935 48.0974 65.7394 48.0974Z" fill="#D69A6E"/>
<path fill-rule="evenodd" clip-rule="evenodd" d="M61.7972 48.8427C62.7529 48.0819 64.0318 47.6093 65.7393 47.6093C66.3756 47.6093 66.9399 47.6904 67.3344 48.0381C67.7433 48.3984 67.8467 48.9321 67.8687 49.4879C67.888 49.9772 67.8453 50.6033 67.794 51.357C67.7861 51.4724 67.778 51.5908 67.77 51.7121C67.7082 52.6392 67.6417 53.7814 67.6415 55.1887C67.8737 63.965 64.9681 73.6069 57.7304 83.9445C56.1652 86.1802 53.3506 87.2199 50.3448 87.6408C47.322 88.0641 43.9926 87.878 41.2517 87.5585C31.9202 86.4707 26.4673 83.6858 23.3426 80.6934C20.217 77.7002 19.4557 74.5315 19.4557 72.7558C19.4557 71.1102 19.4834 69.9324 19.6917 68.8036C19.9016 67.6658 20.2904 66.5998 20.9823 65.1583C21.1566 64.7951 21.4883 64.6243 21.8314 64.5726C22.1566 64.5235 22.5308 64.5715 22.9165 64.6662C23.6945 64.8572 24.6952 65.2841 25.8231 65.8473C28.0512 66.9598 30.9028 68.6699 33.774 70.3918L33.9155 70.4767C36.8462 72.2342 39.7893 73.9954 42.1545 75.177C43.3394 75.7689 44.3549 76.2028 45.1378 76.4209C45.5301 76.5302 45.8392 76.578 46.0688 76.575C46.3018 76.572 46.3948 76.518 46.4278 76.488C51.984 71.4362 55.0316 66.3723 56.6898 62.5818C57.5192 60.6859 58.0014 59.1077 58.2757 58.0079C58.4129 57.4581 58.4981 57.028 58.5487 56.7377C58.574 56.5926 58.5907 56.4824 58.6009 56.4098C58.606 56.3735 58.6095 56.3465 58.6116 56.3293L58.6139 56.3107L58.6143 56.307M58.6144 56.3066C58.6236 56.2223 58.6546 56.1419 58.7044 56.0732C58.7487 56.012 58.8136 55.8582 58.8891 55.5531C58.9535 55.2929 59.0133 54.9789 59.0834 54.6116C59.0912 54.5703 59.0992 54.5284 59.1074 54.4858C59.2656 53.6576 59.4717 52.6209 59.8641 51.6145C60.2574 50.6057 60.8488 49.5977 61.7972 48.8427M59.5702 56.529C59.5694 56.5344 59.5686 56.5399 59.5678 56.5457C59.5562 56.6287 59.5378 56.7495 59.5106 56.9055C59.4562 57.2175 59.3663 57.6705 59.2231 58.2443C58.9369 59.3917 58.4378 61.0223 57.5844 62.9731C55.877 66.8759 52.7529 72.0568 47.0846 77.2105C46.8055 77.4643 46.4382 77.5467 46.0817 77.5514C45.7217 77.5561 45.3122 77.4831 44.8758 77.3615C44.0011 77.1179 42.9187 76.6503 41.7181 76.0505C39.3122 74.8485 36.3335 73.0653 33.4133 71.3141L33.2982 71.245C30.4062 69.5107 27.5809 67.8163 25.3869 66.7208C24.2709 66.1636 23.3508 65.7782 22.6837 65.6145C22.3469 65.5318 22.1174 65.5169 21.977 65.5381C21.9112 65.548 21.8817 65.5635 21.8724 65.5695C21.8671 65.5729 21.8659 65.574 21.8626 65.5809C21.1909 66.9803 20.8403 67.9597 20.6519 68.9808C20.4618 70.0111 20.4321 71.106 20.4321 72.7558C20.4321 74.2754 21.0919 77.1861 24.0179 79.9882C26.9447 82.791 32.1741 85.5173 41.3648 86.5886C44.0719 86.9042 47.3065 87.0803 50.2094 86.6738C53.1291 86.2649 55.6017 85.2826 56.9306 83.3845C64.0747 73.1806 66.8925 63.7377 66.6653 55.208C66.6652 55.2037 66.6651 55.1994 66.6651 55.195C66.6651 53.7532 66.7333 52.5843 66.7957 51.6472C66.8039 51.5233 66.812 51.4041 66.8198 51.2894C66.8718 50.5235 66.9101 49.959 66.893 49.5265C66.873 49.021 66.7786 48.8498 66.6888 48.7706C66.5845 48.6787 66.3491 48.5857 65.7393 48.5857C64.2239 48.5857 63.167 49.0003 62.4054 49.6066C61.6364 50.2188 61.1291 51.058 60.7738 51.9692C60.4176 52.8828 60.2251 53.8389 60.0664 54.6691C60.0582 54.712 60.0501 54.7548 60.042 54.7974C59.9733 55.1578 59.9081 55.4999 59.8369 55.7876C59.7734 56.0445 59.693 56.3132 59.5702 56.529Z" fill="black"/>
<path fill-rule="evenodd" clip-rule="evenodd" d="M64.7004 36.8404C64.7922 37.0939 64.6611 37.3739 64.4076 37.4656L63.2274 37.893C62.9739 37.9847 62.6939 37.8536 62.6021 37.6001C62.5103 37.3466 62.6414 37.0666 62.895 36.9748L64.0752 36.5475C64.3287 36.4557 64.6087 36.5869 64.7004 36.8404ZM72.3909 39.6934C72.5435 39.9157 72.4871 40.2196 72.2649 40.3723L70.9943 41.245C70.772 41.3977 70.4681 41.3413 70.3154 41.119C70.1628 40.8968 70.2192 40.5928 70.4414 40.4402L71.712 39.5674C71.9343 39.4148 72.2382 39.4712 72.3909 39.6934ZM67.7971 41.689C67.8181 41.9578 67.6173 42.1927 67.3485 42.2138L64.0495 42.472C63.7807 42.4931 63.5457 42.2922 63.5247 42.0234C63.5036 41.7546 63.7045 41.5196 63.9733 41.4986L67.2723 41.2403C67.5411 41.2193 67.776 41.4202 67.7971 41.689ZM60.6772 42.9305C60.9461 42.9509 61.1475 43.1854 61.127 43.4543C61.024 44.8106 61.4188 45.3861 61.7937 45.637C62.2067 45.9135 62.7679 45.9169 63.1793 45.8059C63.4397 45.7357 63.7076 45.8898 63.7779 46.1501C63.8481 46.4104 63.694 46.6784 63.4336 46.7486C62.8638 46.9023 61.9808 46.9373 61.2505 46.4484C60.482 45.934 60.0344 44.9472 60.1534 43.3803C60.1738 43.1114 60.4083 42.91 60.6772 42.9305Z" fill="black"/>
<path fill-rule="evenodd" clip-rule="evenodd" d="M65.8881 34.7621C65.9417 34.4978 66.1994 34.3271 66.4636 34.3807L70.0273 35.1038C70.2915 35.1574 70.4623 35.4151 70.4087 35.6793C70.3551 35.9436 70.0974 36.1143 69.8331 36.0607L66.2695 35.3376C66.0052 35.284 65.8345 35.0263 65.8881 34.7621Z" fill="black"/>
<path fill-rule="evenodd" clip-rule="evenodd" d="M71.934 34.3478C71.0033 35.1557 70.2618 36.4036 69.9569 37.9063C69.652 39.409 69.8485 40.8472 70.3907 41.954C70.9326 43.0601 71.8042 43.8123 72.8551 44.0255C73.906 44.2387 75.0018 43.8858 75.9319 43.0783C76.8626 42.2703 77.6041 41.0225 77.909 39.5198C78.2139 38.0171 78.0174 36.5789 77.4752 35.4721C76.9333 34.366 76.0617 33.6138 75.0108 33.4006C73.9599 33.1874 72.8642 33.5403 71.934 34.3478ZM71.2939 33.6105C72.4012 32.6492 73.7957 32.1577 75.205 32.4437C76.6143 32.7296 77.707 33.7257 78.3521 35.0426C78.9969 36.3588 79.21 38.0184 78.866 39.714C78.522 41.4095 77.6788 42.8548 76.572 43.8156C75.4647 44.7769 74.0702 45.2684 72.6609 44.9824C71.2516 44.6965 70.1589 43.7004 69.5138 42.3835C68.869 41.0673 68.6559 39.4076 68.9999 37.7121C69.344 36.0166 70.1871 34.5713 71.2939 33.6105Z" fill="black"/>
<path fill-rule="evenodd" clip-rule="evenodd" d="M62.4539 28.998C60.0838 28.5171 57.5656 30.4013 56.9545 33.4133C56.3433 36.4253 57.928 39.142 60.2981 39.6229C62.6683 40.1038 65.1864 38.2196 65.7976 35.2076C66.4087 32.1955 64.8241 29.4789 62.4539 28.998ZM55.9975 33.2192C56.6842 29.8347 59.6058 27.4238 62.6481 28.0411C65.6903 28.6583 67.4412 32.0173 66.7545 35.4017C66.0678 38.7862 63.1462 41.1971 60.104 40.5798C57.0617 39.9626 55.3108 36.6036 55.9975 33.2192Z" fill="black"/>
<path d="M88.5625 49.6158C88.3477 49.2067 88.5052 48.7009 88.9143 48.486C89.3235 48.2712 89.8293 48.4287 90.0441 48.8379L101.31 70.2949C101.525 70.704 101.368 71.2099 100.958 71.4247C100.549 71.6395 100.043 71.482 99.8287 71.0728L88.5625 49.6158Z" fill="black"/>
<path d="M63.3795 95.6105C71.4095 94.5499 89.0151 93.0651 95.1967 95.6105C102.924 98.7922 98.833 83.7927 63.3795 95.6105Z" fill="#D69A6E"/>
<path fill-rule="evenodd" clip-rule="evenodd" d="M97.5737 96.5223C96.8968 96.6224 96.0226 96.4786 95.0109 96.062C93.5389 95.4559 91.3425 95.0756 88.7094 94.8744C86.0876 94.674 83.0751 94.6538 79.9959 94.7463C73.838 94.9313 67.4459 95.566 63.4434 96.0946C63.1939 96.1275 62.9602 95.9654 62.9037 95.7202C62.8472 95.475 62.9863 95.227 63.2251 95.1474C80.9932 89.2247 91.0184 89.9789 95.669 91.9216C96.8339 92.4082 97.683 92.9784 98.2288 93.5581C98.7609 94.1233 99.068 94.772 98.9502 95.3834C98.8228 96.0444 98.256 96.4214 97.5737 96.5223ZM68.4827 94.5361C83.0683 90.351 91.388 91.1915 95.2927 92.8226C96.372 93.2734 97.0924 93.7756 97.5179 94.2274C97.9569 94.6938 98.0228 95.0359 97.9914 95.1986C97.9696 95.3117 97.8653 95.4922 97.4309 95.5564C96.9909 95.6214 96.3027 95.538 95.3826 95.1591C93.7638 94.4925 91.4414 94.1039 88.7838 93.9008C86.1152 93.6968 83.0653 93.6772 79.9666 93.7703C76.0029 93.8894 71.946 94.1933 68.4827 94.5361Z" fill="black"/>
<path d="M12.6015 15.4634C5.91153 15.4634 0.48822 20.8126 0.48822 27.4111C0.48822 34.0097 5.91153 39.3589 12.6015 39.3589H17.0604C17.4236 39.3589 17.7513 39.5684 17.9173 39.887C19.3769 42.6888 21.7505 44.9513 24.6495 46.2914C25.3369 46.6092 26.1124 45.9292 26.0248 45.1854C25.8492 43.6954 25.7323 41.7167 25.6793 40.2938C25.6601 39.7798 26.0813 39.3623 26.6013 39.3224C32.845 38.8422 37.7599 33.6928 37.7599 27.4111C37.7599 20.8126 32.3366 15.4634 25.6466 15.4634H12.6015Z" fill="#E5E5E5"/>
<path fill-rule="evenodd" clip-rule="evenodd" d="M12.6015 15.9516C6.1748 15.9516 0.976431 21.0885 0.976431 27.4111C0.976431 33.7338 6.1748 38.8707 12.6015 38.8707H17.0604C17.6143 38.8707 18.1043 39.1893 18.3503 39.6614C19.7597 42.3668 22.0527 44.5531 24.8544 45.8483C24.9932 45.9125 25.1607 45.8898 25.3159 45.7609C25.4753 45.6285 25.5618 45.4285 25.5399 45.2426C25.3621 43.7339 25.2446 41.7405 25.1914 40.312C25.1611 39.5005 25.8195 38.8928 26.5638 38.8356C32.5608 38.3744 37.2717 33.4301 37.2717 27.4111C37.2717 21.0885 32.0733 15.9516 25.6466 15.9516H12.6015ZM0 27.4111C0 20.5366 5.64824 14.9752 12.6015 14.9752H25.6466C32.5999 14.9752 38.2481 20.5366 38.2481 27.4111C38.2481 33.9555 33.1292 39.31 26.6387 39.8091C26.3431 39.8319 26.1591 40.0591 26.1671 40.2757C26.22 41.6929 26.3362 43.6569 26.5096 45.1283C26.5753 45.6861 26.318 46.1979 25.9397 46.5121C25.5572 46.8297 24.9932 46.9882 24.4447 46.7346C21.4482 45.3494 18.9941 43.0107 17.4843 40.1125C17.3983 39.9474 17.2328 39.8471 17.0604 39.8471H12.6015C5.64824 39.8471 0 34.2857 0 27.4111Z" fill="black"/>
<path fill-rule="evenodd" clip-rule="evenodd" d="M18.2866 20.4495C17.0525 21.2264 16.0148 22.7038 15.384 24.0158C15.2672 24.2588 14.9755 24.3611 14.7325 24.2443C14.4895 24.1274 14.3872 23.8357 14.504 23.5927C15.1717 22.2039 16.3105 20.5397 17.7665 19.6232C18.5033 19.1593 19.3425 18.8744 20.2495 18.9405C21.1595 19.0069 22.0791 19.4227 22.9808 20.2542C23.9381 21.1371 24.1274 22.3278 23.8485 23.4341C23.5731 24.5261 22.8401 25.5685 21.8915 26.2795C20.8002 27.0974 19.8609 27.9863 19.3659 28.8258C19.1206 29.2418 19.0031 29.6145 19.0033 29.9401C19.0034 30.2514 19.1106 30.5589 19.3937 30.8659C19.5765 31.0641 19.564 31.373 19.3658 31.5558C19.1676 31.7386 18.8587 31.7261 18.6759 31.5279C18.2371 31.0521 18.0271 30.5121 18.0268 29.9406C18.0265 29.3833 18.2252 28.8379 18.5248 28.3299C19.1193 27.3215 20.1839 26.3391 21.3059 25.4981C22.0958 24.9061 22.6869 24.0471 22.9017 23.1953C23.1129 22.3577 22.9586 21.562 22.3188 20.972C21.5441 20.2575 20.8246 19.9615 20.1784 19.9144C19.5291 19.867 18.8948 20.0667 18.2866 20.4495ZM17.8985 33.6657C18.1681 33.6657 18.3867 33.8843 18.3867 34.1539V35.6324C18.3867 35.902 18.1681 36.1206 17.8985 36.1206C17.6289 36.1206 17.4103 35.902 17.4103 35.6324V34.1539C17.4103 33.8843 17.6289 33.6657 17.8985 33.6657Z" fill="black"/>
</svg>
