<svg width="59" height="59" viewBox="0 0 59 59" fill="none" xmlns="http://www.w3.org/2000/svg">
<circle cx="29.5" cy="29.5" r="29.5" fill="#00B4F2" fill-opacity="0.2"/>
<circle cx="29.5" cy="29.5" r="21.5" fill="#00B4F2" fill-opacity="0.2"/>
<circle cx="30" cy="29" r="14" fill="#00B4F2"/>
<path d="M29.99 19C24.47 19 20 23.48 20 29C20 34.52 24.47 39 29.99 39C35.52 39 40 34.52 40 29C40 23.48 35.52 19 29.99 19ZM34 33C33.9075 33.0927 33.7976 33.1663 33.6766 33.2164C33.5557 33.2666 33.426 33.2924 33.295 33.2924C33.164 33.2924 33.0343 33.2666 32.9134 33.2164C32.7924 33.1663 32.6825 33.0927 32.59 33L29.3 29.71C29.2055 29.6174 29.1303 29.5069 29.0788 29.3851C29.0273 29.2632 29.0005 29.1323 29 29V25C29 24.45 29.45 24 30 24C30.55 24 31 24.45 31 25V28.59L34 31.59C34.39 31.98 34.39 32.61 34 33Z" fill="white"/>
</svg>
