<svg width="59" height="59" viewBox="0 0 59 59" fill="none" xmlns="http://www.w3.org/2000/svg">
<circle cx="29.5" cy="29.5" r="29.5" fill="#CB455B" fill-opacity="0.2"/>
<circle cx="29.4984" cy="29.5" r="23.6" fill="#CB455B" fill-opacity="0.2"/>
<circle cx="29.4998" cy="29.5" r="14.16" fill="#CB455B"/>
<path d="M28 34.3803C28 34.1669 28.042 33.9557 28.1237 33.7586C28.2053 33.5615 28.325 33.3824 28.4758 33.2315C28.6267 33.0807 28.8058 32.961 29.0029 32.8794C29.2 32.7977 29.4113 32.7557 29.6246 32.7557C29.8379 32.7557 30.0492 32.7977 30.2463 32.8794C30.4434 32.961 30.6225 33.0807 30.7734 33.2315C30.9242 33.3824 31.0439 33.5615 31.1255 33.7586C31.2072 33.9557 31.2492 34.1669 31.2492 34.3803C31.2492 34.8112 31.078 35.2244 30.7734 35.529C30.4687 35.8337 30.0555 36.0049 29.6246 36.0049C29.1937 36.0049 28.7805 35.8337 28.4758 35.529C28.1712 35.2244 28 34.8112 28 34.3803ZM28.1592 24.6246C28.1376 24.4196 28.1593 24.2124 28.2229 24.0164C28.2865 23.8204 28.3906 23.6399 28.5285 23.4867C28.6664 23.3335 28.8349 23.211 29.0232 23.1272C29.2115 23.0433 29.4153 23 29.6213 23C29.8274 23 30.0312 23.0433 30.2195 23.1272C30.4078 23.211 30.5763 23.3335 30.7142 23.4867C30.8521 23.6399 30.9562 23.8204 31.0198 24.0164C31.0834 24.2124 31.1051 24.4196 31.0835 24.6246L30.5149 30.322C30.4918 30.5429 30.3877 30.7474 30.2227 30.8961C30.0577 31.0447 29.8434 31.127 29.6213 31.127C29.3993 31.127 29.185 31.0447 29.02 30.8961C28.855 30.7474 28.7509 30.5429 28.7278 30.322L28.1592 24.6246Z" fill="white"/>
</svg>
