<svg width="285" height="245" viewBox="0 0 285 245" fill="none" xmlns="http://www.w3.org/2000/svg">
<rect x="112.5" y="0.5" width="172" height="182" rx="7.5" fill="white" stroke="#D5EBFA"/>
<rect x="120" y="8" width="157" height="79" rx="8" fill="#F3F7FA"/>
<rect width="157" height="12" rx="4" transform="matrix(1 0 0 -1 120 111)" fill="#E9F4FB"/>
<rect width="157" height="8" rx="2" transform="matrix(1 0 0 -1 120 143)" fill="#F2F8FD"/>
<rect width="157" height="8" rx="2" transform="matrix(1 0 0 -1 120 167)" fill="#F2F8FD"/>
<rect width="138" height="12" rx="4" transform="matrix(1 0 0 -1 120 127)" fill="#E9F4FB"/>
<rect width="157" height="8" rx="2" transform="matrix(1 0 0 -1 120 155)" fill="#F2F8FD"/>
<rect x="0.5" y="62.5" width="172" height="182" rx="7.5" fill="white" stroke="#D5EBFA"/>
<rect x="8" y="70" width="157" height="79" rx="8" fill="#F3F7FA"/>
<rect width="157" height="12" rx="4" transform="matrix(1 0 0 -1 8 173)" fill="#E9F4FB"/>
<rect width="157" height="8" rx="2" transform="matrix(1 0 0 -1 8 205)" fill="#F2F8FD"/>
<rect width="157" height="8" rx="2" transform="matrix(1 0 0 -1 8 229)" fill="#F2F8FD"/>
<rect width="138" height="12" rx="4" transform="matrix(1 0 0 -1 8 189)" fill="#E9F4FB"/>
<rect width="157" height="8" rx="2" transform="matrix(1 0 0 -1 8 217)" fill="#F2F8FD"/>
</svg>
