<svg width="285" height="245" viewBox="0 0 285 245" fill="none" xmlns="http://www.w3.org/2000/svg">
<path d="M277 0.5H120C115.858 0.5 112.5 3.85786 112.5 8V175C112.5 179.142 115.858 182.5 120 182.5H277C281.142 182.5 284.5 179.142 284.5 175V8C284.5 3.85786 281.142 0.5 277 0.5Z" fill="white" stroke="#D5EBFA"/>
<path d="M269 8H128C123.582 8 120 11.5817 120 16V79C120 83.4183 123.582 87 128 87H269C273.418 87 277 83.4183 277 79V16C277 11.5817 273.418 8 269 8Z" fill="#F3F7FA"/>
<path d="M273 111H124C121.791 111 120 109.209 120 107V103C120 100.791 121.791 99 124 99H273C275.209 99 277 100.791 277 103V107C277 109.209 275.209 111 273 111Z" fill="#E9F4FB"/>
<path d="M275 143H122C120.895 143 120 142.105 120 141V137C120 135.895 120.895 135 122 135H275C276.105 135 277 135.895 277 137V141C277 142.105 276.105 143 275 143Z" fill="#F2F8FD"/>
<path d="M275 167H122C120.895 167 120 166.105 120 165V161C120 159.895 120.895 159 122 159H275C276.105 159 277 159.895 277 161V165C277 166.105 276.105 167 275 167Z" fill="#F2F8FD"/>
<path d="M254 127H124C121.791 127 120 125.209 120 123V119C120 116.791 121.791 115 124 115H254C256.209 115 258 116.791 258 119V123C258 125.209 256.209 127 254 127Z" fill="#E9F4FB"/>
<path d="M275 155H122C120.895 155 120 154.105 120 153V149C120 147.895 120.895 147 122 147H275C276.105 147 277 147.895 277 149V153C277 154.105 276.105 155 275 155Z" fill="#F2F8FD"/>
<path d="M165 62.5H8C3.85786 62.5 0.5 65.8579 0.5 70V237C0.5 241.142 3.85786 244.5 8 244.5H165C169.142 244.5 172.5 241.142 172.5 237V70C172.5 65.8579 169.142 62.5 165 62.5Z" fill="white" stroke="#D5EBFA"/>
<path d="M157 70H16C11.5817 70 8 73.5817 8 78V141C8 145.418 11.5817 149 16 149H157C161.418 149 165 145.418 165 141V78C165 73.5817 161.418 70 157 70Z" fill="#F3F7FA"/>
<path d="M161 173H12C9.79086 173 8 171.209 8 169V165C8 162.791 9.79086 161 12 161H161C163.209 161 165 162.791 165 165V169C165 171.209 163.209 173 161 173Z" fill="#E9F4FB"/>
<path d="M163 205H10C8.89543 205 8 204.105 8 203V199C8 197.895 8.89543 197 10 197H163C164.105 197 165 197.895 165 199V203C165 204.105 164.105 205 163 205Z" fill="#F2F8FD"/>
<path d="M163 229H10C8.89543 229 8 228.105 8 227V223C8 221.895 8.89543 221 10 221H163C164.105 221 165 221.895 165 223V227C165 228.105 164.105 229 163 229Z" fill="#F2F8FD"/>
<path d="M142 189H12C9.79086 189 8 187.209 8 185V181C8 178.791 9.79086 177 12 177H142C144.209 177 146 178.791 146 181V185C146 187.209 144.209 189 142 189Z" fill="#E9F4FB"/>
<path d="M163 217H10C8.89543 217 8 216.105 8 215V211C8 209.895 8.89543 209 10 209H163C164.105 209 165 209.895 165 211V215C165 216.105 164.105 217 163 217Z" fill="#F2F8FD"/>
</svg>
