<svg width="259" height="250" viewBox="0 0 259 250" fill="none" xmlns="http://www.w3.org/2000/svg">
<path fill-rule="evenodd" clip-rule="evenodd" d="M139.055 7.42429C160.408 11.0216 180.88 16.0601 199.04 27.8316C218.083 40.1747 235.143 55.4257 244.771 75.9485C255.338 98.4716 263.706 124.509 255.396 147.955C247.151 171.217 220.995 180.895 201.985 196.672C181.202 213.919 165.326 238.159 139.055 244.504C109.016 251.759 71.4633 255.024 49.2751 233.553C26.9735 211.973 43.7306 173.718 35.1212 143.932C26.9815 115.77 -4.96035 94.1198 0.658854 65.3516C6.31372 36.4008 35.0436 16.2023 62.2985 4.79449C86.4989 -5.33492 113.178 3.06482 139.055 7.42429Z" fill="white"/>
<path d="M129.386 139.616V227.309C126.866 226.383 123.971 225.295 51.3325 198.078V110.385L129.386 139.616Z" fill="#D1A788"/>
<path d="M231.831 74.6579L207.44 110.385L137.078 84.028L158.266 47.0508L231.831 74.6579Z" fill="#D1A788"/>
<path d="M126.297 76.6066C126.297 76.7852 123.695 83.1024 123.613 83.3135L51.3326 110.385L26.9409 74.6579L100.523 47.0508L109.434 51.9226L126.297 76.6066Z" fill="#D1A788"/>
<path d="M207.44 110.385V198.078C134.801 225.295 131.907 226.383 129.386 227.309V139.616L207.44 110.385Z" fill="#D1A788"/>
<path d="M126.134 76.9472L123.581 83.313L51.3326 110.384L47.5601 104.863C132.638 73.0334 121.109 76.6711 126.134 76.9472Z" fill="#CBA07A"/>
<path d="M211.212 104.863L207.44 110.384L137.078 84.0278L140.33 78.3115L211.212 104.863Z" fill="#CBA07A"/>
<path d="M207.439 110.384L129.386 139.615L51.3325 110.384L123.613 83.313L137.078 84.0275L207.439 110.384Z" fill="#9B756D"/>
<path d="M207.439 110.385L129.386 139.616L51.3325 110.385L129.386 133.12L207.439 110.385Z" fill="#8A6762"/>
<path d="M135.89 97.3928H122.882V89.3705C122.901 84.606 124.225 79.9375 126.71 75.8702C129.195 71.8028 132.747 68.4915 136.98 66.2943C139.527 64.9511 141.67 62.9567 143.192 60.5149C144.714 58.0731 145.559 55.2715 145.641 52.3966C145.723 49.5217 145.039 46.6766 143.658 44.1523C142.278 41.6279 140.252 39.5149 137.786 38.0293C135.32 36.5436 132.503 35.7387 129.623 35.6967C126.744 35.6547 123.905 36.3772 121.396 37.7902C118.888 39.2033 116.801 41.2564 115.347 43.7394C113.894 46.2224 113.127 49.0463 113.125 51.9223H100.116C100.118 46.7452 101.496 41.6613 104.11 37.1906C106.724 32.72 110.481 29.0228 114.995 26.4774C119.509 23.9319 124.619 22.6295 129.803 22.7032C134.986 22.7769 140.057 24.2241 144.497 26.8968C148.937 29.5696 152.586 33.372 155.072 37.9152C157.558 42.4583 158.79 47.5793 158.644 52.7544C158.498 57.9295 156.979 62.9731 154.241 67.3693C151.503 71.7655 147.645 75.3567 143.062 77.7756C140.921 78.8714 139.122 80.531 137.858 82.5747C136.594 84.6184 135.913 86.9685 135.89 89.3705V97.3928Z" fill="#1070B7"/>
<path d="M129.386 121.752C132.978 121.752 135.891 118.844 135.891 115.257C135.891 111.669 132.978 108.761 129.386 108.761C125.794 108.761 122.882 111.669 122.882 115.257C122.882 118.844 125.794 121.752 129.386 121.752Z" fill="#1070B7"/>
<path d="M129.386 139.616V151.162L107.499 183.219L51.3325 162.189V110.385L129.386 139.616Z" fill="#CBA07A"/>
<path d="M129.386 139.616L104.994 175.343L26.9409 146.112L51.3326 110.385L129.386 139.616Z" fill="#D1A788"/>
<path d="M207.44 110.385V162.189L151.274 183.219L129.386 151.162V139.616L207.44 110.385Z" fill="#CBA07A"/>
<path d="M129.386 139.616L153.778 175.343L231.831 146.112L207.44 110.385L129.386 139.616Z" fill="#D1A788"/>
<path d="M131.012 144.487V226.708C129.061 227.422 129.809 227.471 127.76 226.708V144.487H131.012Z" fill="#CBA07A"/>
</svg>
