<svg width="416" height="217" viewBox="0 0 416 217" fill="none" xmlns="http://www.w3.org/2000/svg">
<rect width="416" height="217" rx="5" fill="#FBFDFE"/>
<path d="M181.333 64C181.333 61.1711 182.457 58.458 184.458 56.4576C186.458 54.4572 189.171 53.3334 192 53.3334H224C226.829 53.3334 229.542 54.4572 231.543 56.4576C233.543 58.458 234.667 61.1711 234.667 64V96C234.667 98.829 233.543 101.542 231.543 103.543C229.542 105.543 226.829 106.667 224 106.667H192C189.171 106.667 186.458 105.543 184.458 103.543C182.457 101.542 181.333 98.829 181.333 96V64Z" stroke="#8F9AA3" stroke-width="2" stroke-linecap="round" stroke-linejoin="round"/>
<path d="M198.667 77.3333C202.349 77.3333 205.333 74.3486 205.333 70.6667C205.333 66.9848 202.349 64 198.667 64C194.985 64 192 66.9848 192 70.6667C192 74.3486 194.985 77.3333 198.667 77.3333Z" stroke="#8F9AA3" stroke-width="2" stroke-linecap="round" stroke-linejoin="round"/>
<path d="M214.736 81.6566L192 106.667H224.355C227.09 106.667 229.712 105.581 231.646 103.647C233.58 101.713 234.667 99.0902 234.667 96.3553V96.0006C234.667 94.7579 234.2 94.2806 233.36 93.3606L222.613 81.6406C222.112 81.0942 221.503 80.6583 220.824 80.3605C220.146 80.0628 219.412 79.9098 218.671 79.9113C217.93 79.9128 217.197 80.0688 216.52 80.3693C215.842 80.6698 215.235 81.1082 214.736 81.6566V81.6566Z" stroke="#8F9AA3" stroke-width="2" stroke-linecap="round" stroke-linejoin="round"/>
</svg>
