<svg width="40" height="40" viewBox="0 0 40 40" fill="none" xmlns="http://www.w3.org/2000/svg">
<g clip-path="url(#clip0)">
<path d="M3.50001 38.3326C2.46112 38.3326 1.66667 37.5382 1.66667 36.4993V31.2437C1.66667 25.1326 5.02778 21.7715 11.1389 21.7715H21.8333C27.9444 21.7715 31.3056 25.1326 31.3056 31.2437V36.4993C31.3056 37.5382 30.5111 38.3326 29.4722 38.3326C28.4333 38.3326 27.6389 37.5382 27.6389 36.4993V31.2437C27.6389 27.1493 25.8667 25.4382 21.8333 25.4382H11.1389C7.04445 25.4382 5.33334 27.2104 5.33334 31.2437V36.4993C5.33334 37.477 4.53889 38.3326 3.50001 38.3326Z" fill="#F8F8FF"/>
<path d="M16.4555 20.2438C11.3222 20.2438 7.16663 16.0882 7.16663 10.9549C7.16663 5.82157 11.3222 1.66602 16.4555 1.66602C21.5888 1.66602 25.7444 5.82157 25.7444 10.9549C25.7444 16.0882 21.5888 20.2438 16.4555 20.2438ZM16.4555 5.33268C13.3388 5.33268 10.8333 7.83824 10.8333 10.9549C10.8333 14.0716 13.3388 16.5771 16.4555 16.5771C19.5722 16.5771 22.0777 14.0716 22.0777 10.9549C22.0777 7.83824 19.5722 5.33268 16.4555 5.33268Z" fill="#F8F8FF"/>
<path d="M36.5 38.3335C35.4611 38.3335 34.6667 37.539 34.6667 36.5001V31.2446C34.6667 27.639 33.2611 26.539 32.1611 26.0501C31.2445 25.6223 30.8778 24.5223 31.3056 23.6057C31.7334 22.689 32.8334 22.3223 33.75 22.7501C35.8278 23.7279 38.3334 26.0501 38.3334 31.2446V36.5001C38.3334 37.4779 37.4778 38.3335 36.5 38.3335Z" fill="#F8F8FF"/>
<path d="M26.2335 19.6948C25.5002 19.6948 24.8279 19.267 24.5224 18.5337C24.1557 17.617 24.5835 16.517 25.5613 16.1504C27.7001 15.2948 29.1057 13.2781 29.1057 10.9559C29.1057 8.63369 27.7001 6.61702 25.5613 5.76146C24.6446 5.3948 24.1557 4.2948 24.5224 3.37813C24.889 2.46147 25.989 1.97258 26.9057 2.33924C30.4502 3.7448 32.7113 7.10591 32.7113 10.9559C32.7113 14.8059 30.4502 18.1059 26.9057 19.5726C26.6613 19.6337 26.4779 19.6948 26.2335 19.6948Z" fill="#F8F8FF"/>
</g>
<defs>
<clipPath id="clip0">
<rect width="36.6667" height="36.6667" fill="white" transform="translate(1.66667 1.66602)"/>
</clipPath>
</defs>
</svg>
