<svg width="218" height="149" viewBox="0 0 218 149" fill="none" xmlns="http://www.w3.org/2000/svg">
<g clip-path="url(#clip0_259_1399)">
<path d="M152.083 91.6043V92.1576C152.083 92.671 152.122 92.7341 152.747 92.7872V93.065H150.546V92.7883C151.14 92.7352 151.17 92.6478 151.17 92.1332V91.6043H149.022V91.2944C149.869 90.1281 150.813 88.8378 151.56 87.8485H152.089V91.1506H152.873V91.6021L152.083 91.6043ZM151.165 88.892C150.722 89.5194 150.15 90.3306 149.589 91.1528H151.161L151.165 88.892Z" fill="#F77C7C"/>
<path d="M156.543 87.9093L156.592 87.9857L156.344 88.7105H154.337C154.262 89.1011 154.155 89.6821 154.075 90.0451C154.455 89.9079 154.915 89.7939 155.133 89.7939C156.183 89.7939 156.739 90.4877 156.739 91.1915C156.739 91.6994 156.51 92.1952 155.951 92.6091C155.489 92.9521 154.892 93.1624 154.415 93.1624C154.1 93.1665 153.792 93.064 153.543 92.8713C153.389 92.7474 153.356 92.6699 153.362 92.557C153.372 92.4814 153.396 92.4084 153.434 92.3424C153.472 92.2764 153.523 92.2188 153.584 92.1731C153.628 92.1419 153.682 92.128 153.736 92.1341C153.79 92.1403 153.84 92.1659 153.876 92.2063C154.088 92.3944 154.421 92.6987 154.946 92.6987C155.523 92.6987 155.795 92.1941 155.795 91.5921C155.795 90.8529 155.329 90.3527 154.512 90.3527C154.223 90.3567 153.937 90.4052 153.662 90.4966L153.627 90.4523C153.779 89.7374 153.971 88.6397 154.078 87.9071L156.543 87.9093Z" fill="#F77C7C"/>
<path d="M161.01 89.276L161.408 90.4136L161.187 90.5154L160.523 89.4851L159.527 90.2L159.37 89.9908L160.162 89.141L159.217 88.3276L159.35 88.1152L160.429 88.7005L160.83 87.5663L161.077 87.605L160.955 88.7813L162.081 88.7337L162.102 88.9728L161.01 89.276Z" fill="#F77C7C"/>
<path d="M167.719 87.9093L167.768 87.9857L167.521 88.7105H165.514C165.44 89.1011 165.331 89.6821 165.252 90.0451C165.631 89.9078 166.093 89.7939 166.31 89.7939C167.361 89.7939 167.915 90.4877 167.915 91.1915C167.915 91.6994 167.687 92.1952 167.129 92.609C166.667 92.9521 166.068 93.1623 165.593 93.1623C165.277 93.1667 164.97 93.0641 164.721 92.8713C164.567 92.7474 164.534 92.6699 164.539 92.557C164.55 92.4816 164.577 92.4092 164.617 92.3443C164.657 92.2795 164.71 92.2234 164.773 92.1797C164.817 92.1488 164.871 92.1351 164.924 92.1412C164.978 92.1474 165.027 92.1728 165.064 92.2129C165.276 92.401 165.609 92.7053 166.134 92.7053C166.711 92.7053 166.984 92.2007 166.984 91.5987C166.984 90.8595 166.518 90.3593 165.7 90.3593C165.411 90.3633 165.124 90.4118 164.85 90.5032L164.816 90.4589C164.966 89.7441 165.159 88.6463 165.266 87.9137L167.719 87.9093Z" fill="#F77C7C"/>
<path d="M170.572 90.3948V89.878H174.594V90.3948H170.572ZM170.572 92.0093V91.4925H174.594V92.0093H170.572Z" fill="#F77C7C"/>
<path d="M178.902 91.4128C178.499 91.2679 177.958 90.8839 177.958 90.4036C177.958 90.0838 178.137 89.8171 178.732 89.3833C179.306 88.9783 179.495 88.7548 179.495 88.529C179.495 88.3033 179.333 88.1196 179.039 88.1196C178.444 88.1196 178.062 88.7625 177.911 88.7625C177.761 88.7625 177.48 88.5069 177.48 88.2435C177.48 88.0952 177.537 88.0222 177.658 87.9005C177.938 87.6855 178.281 87.5688 178.634 87.5685C179.003 87.5677 179.357 87.7101 179.623 87.9657C179.889 88.2212 180.045 88.57 180.058 88.9385C180.058 89.2704 179.964 89.5891 179.465 89.9576C178.927 90.3483 178.801 90.4789 178.801 90.7146C178.801 90.8783 178.885 91.0012 179.077 91.2081L178.902 91.4128ZM178.695 93.1756C178.569 93.1785 178.445 93.1437 178.338 93.0758C178.232 93.0079 178.148 92.9098 178.098 92.7942C178.048 92.6785 178.033 92.5505 178.056 92.4264C178.078 92.3023 178.137 92.1878 178.225 92.0974C178.313 92.0071 178.426 91.945 178.55 91.919C178.673 91.8931 178.802 91.9045 178.918 91.9517C179.035 91.999 179.136 92.0801 179.206 92.1845C179.277 92.289 179.315 92.4121 179.316 92.5382C179.32 92.6217 179.307 92.7051 179.277 92.7833C179.248 92.8614 179.203 92.9327 179.144 92.9925C179.086 93.0524 179.016 93.0995 178.939 93.131C178.861 93.1625 178.778 93.1777 178.695 93.1756Z" fill="#F77C7C"/>
<path d="M152.774 101.737C152.65 102.158 152.498 102.677 152.415 103.011H149.149V102.796C149.591 102.354 150.079 101.871 150.495 101.399C151.082 100.735 151.439 100.134 151.439 99.4622C151.439 98.8392 151.123 98.453 150.545 98.453C150.023 98.453 149.666 98.8359 149.413 99.2011L149.185 99.0063L149.695 98.2594C149.85 98.0927 150.039 97.9612 150.249 97.8737C150.459 97.7863 150.685 97.745 150.912 97.7525C151.726 97.7525 152.395 98.3058 152.395 99.2177C152.395 99.8816 152.144 100.364 151.32 101.151C150.988 101.475 150.501 101.932 150.182 102.218H151.641C152.131 102.218 152.239 102.182 152.537 101.664L152.774 101.737Z" fill="#F77C7C"/>
<path d="M156.97 97.9705C156.17 99.6404 155.368 101.319 154.595 103.017L153.86 103.102L153.796 103C154.681 101.589 155.547 100.02 156.238 98.6533H154.489C153.929 98.6533 153.879 98.7164 153.65 99.2309H153.356C153.46 98.6378 153.51 98.2184 153.556 97.8521H156.916L156.97 97.9705Z" fill="#F77C7C"/>
<path d="M161.01 99.2188L161.408 100.356L161.187 100.458L160.523 99.4279L159.527 100.143L159.37 99.9336L160.162 99.0838L159.217 98.266L159.35 98.0535L160.429 98.6389L160.83 97.5047L161.077 97.5434L160.955 98.7197L162.081 98.6721L162.102 98.9111L161.01 99.2188Z" fill="#F77C7C"/>
<path d="M168.147 97.9705C167.347 99.6404 166.544 101.319 165.773 103.017L165.037 103.102L164.974 103C165.859 101.589 166.725 100.02 167.416 98.6533H165.666C165.106 98.6533 165.057 98.7164 164.828 99.2309H164.532C164.643 98.6378 164.686 98.2184 164.734 97.8521H168.092L168.147 97.9705Z" fill="#F77C7C"/>
<path d="M170.572 100.338V99.8208H174.594V100.338H170.572ZM170.572 101.952V101.435H174.594V101.952H170.572Z" fill="#F77C7C"/>
<path d="M178.902 101.356C178.499 101.211 177.958 100.827 177.958 100.346C177.958 100.027 178.137 99.7599 178.732 99.3261C179.306 98.9211 179.495 98.6976 179.495 98.4718C179.495 98.2461 179.333 98.0624 179.039 98.0624C178.444 98.0624 178.062 98.7053 177.911 98.7053C177.761 98.7053 177.48 98.4497 177.48 98.1863C177.48 98.038 177.537 97.965 177.658 97.8433C177.938 97.6278 178.281 97.5111 178.634 97.5113C179.003 97.5105 179.357 97.6529 179.623 97.9084C179.889 98.164 180.045 98.5128 180.058 98.8812C180.058 99.2132 179.964 99.5319 179.465 99.9004C178.927 100.291 178.801 100.422 178.801 100.657C178.801 100.821 178.885 100.944 179.077 101.151L178.902 101.356ZM178.695 103.116C178.569 103.119 178.445 103.084 178.338 103.016C178.232 102.948 178.148 102.85 178.098 102.735C178.048 102.619 178.033 102.491 178.056 102.367C178.078 102.243 178.137 102.128 178.225 102.038C178.313 101.948 178.426 101.886 178.55 101.86C178.673 101.834 178.802 101.845 178.918 101.892C179.035 101.94 179.136 102.021 179.206 102.125C179.277 102.23 179.315 102.353 179.316 102.479C179.32 102.562 179.307 102.646 179.277 102.724C179.248 102.802 179.203 102.873 179.144 102.933C179.086 102.993 179.016 103.04 178.939 103.072C178.861 103.103 178.778 103.118 178.695 103.116Z" fill="#F77C7C"/>
<path d="M65.12 42.064L73.3288 24.7579L81.7157 41.9976L65.12 42.064ZM73.3421 27.1792L66.7279 41.1135L80.089 41.0604L73.3421 27.1792Z" fill="#F77C7C"/>
<path d="M83.2882 40.6465L76.4283 26.7697L77.3114 26.4588L74.9311 24.3585V27.2987L75.7655 27.0043L82.6342 40.8977L83.2882 40.6465Z" fill="#F77C7C"/>
<path d="M71.6899 25.4684L71.0359 25.2161L64.1783 39.0829L63.2587 38.7608L63.3494 41.7298L65.6423 39.5952L64.8423 39.3152L71.6899 25.4684Z" fill="#F77C7C"/>
<path d="M80.0569 79.7249V89.463C80.0569 89.9753 79.716 90.3914 79.2944 90.3914H67.8478C67.7043 90.3971 67.5655 90.4438 67.4479 90.526C67.3302 90.6082 67.2385 90.7224 67.1838 90.8551L66.6781 91.9219L65.9533 93.4567L65.2273 91.9263L64.7205 90.8595C64.6658 90.7268 64.5741 90.6126 64.4565 90.5304C64.3388 90.4482 64.2 90.4015 64.0565 90.3959H63.5508C63.1292 90.3959 62.7884 89.9798 62.7884 89.4674V79.7293C62.7884 79.217 63.1292 78.8009 63.5508 78.8009H79.2867C79.716 78.7965 80.0569 79.2126 80.0569 79.7249Z" fill="#F77C7C"/>
<path d="M77.9886 80.8924C73.6036 80.8924 69.2174 80.8894 64.8301 80.8835V81.1812H64.9905C65.0278 81.178 65.0625 81.1609 65.0878 81.1334C65.113 81.1058 65.1271 81.0698 65.1271 81.0324C65.1271 80.995 65.113 80.9589 65.0878 80.9314C65.0625 80.9038 65.0278 80.8868 64.9905 80.8835H64.8301C64.7928 80.8868 64.7581 80.9038 64.7328 80.9314C64.7076 80.9589 64.6935 80.995 64.6935 81.0324C64.6935 81.0698 64.7076 81.1058 64.7328 81.1334C64.7581 81.1609 64.7928 81.178 64.8301 81.1812C69.2166 81.1812 73.6028 81.1842 77.9886 81.1901C78.0259 81.1869 78.0606 81.1698 78.0859 81.1422C78.1112 81.1147 78.1252 81.0786 78.1252 81.0412C78.1252 81.0038 78.1112 80.9678 78.0859 80.9402C78.0606 80.9127 78.0259 80.8956 77.9886 80.8924Z" fill="white"/>
<path d="M77.9887 83.079H72.9691C72.9319 83.0822 72.8972 83.0993 72.8719 83.1269C72.8466 83.1544 72.8326 83.1905 72.8326 83.2279C72.8326 83.2653 72.8466 83.3013 72.8719 83.3289C72.8972 83.3564 72.9319 83.3735 72.9691 83.3767H73.1307C73.1679 83.3735 73.2026 83.3564 73.2279 83.3289C73.2532 83.3013 73.2672 83.2653 73.2672 83.2279C73.2672 83.1905 73.2532 83.1544 73.2279 83.1269C73.2026 83.0993 73.1679 83.0822 73.1307 83.079H72.9691V83.3767H77.9887C78.0259 83.3735 78.0606 83.3564 78.0859 83.3289C78.1112 83.3013 78.1252 83.2653 78.1252 83.2279C78.1252 83.1905 78.1112 83.1544 78.0859 83.1269C78.0606 83.0993 78.0259 83.0822 77.9887 83.079Z" fill="white"/>
<path d="M71.9986 83.0801H64.8644C64.8271 83.0834 64.7924 83.1004 64.7672 83.128C64.7419 83.1555 64.7278 83.1916 64.7278 83.229C64.7278 83.2664 64.7419 83.3024 64.7672 83.33C64.7924 83.3575 64.8271 83.3746 64.8644 83.3778H71.9986C72.0359 83.3746 72.0706 83.3575 72.0959 83.33C72.1212 83.3024 72.1352 83.2664 72.1352 83.229C72.1352 83.1916 72.1212 83.1555 72.0959 83.128C72.0706 83.1004 72.0359 83.0834 71.9986 83.0801Z" fill="white"/>
<path d="M77.9355 85.4294H76.0997C76.0624 85.4326 76.0277 85.4497 76.0025 85.4773C75.9772 85.5048 75.9632 85.5409 75.9632 85.5783C75.9632 85.6157 75.9772 85.6517 76.0025 85.6793C76.0277 85.7068 76.0624 85.7239 76.0997 85.7271H77.9355C77.9728 85.7239 78.0075 85.7068 78.0328 85.6793C78.0581 85.6517 78.0721 85.6157 78.0721 85.5783C78.0721 85.5409 78.0581 85.5048 78.0328 85.4773C78.0075 85.4497 77.9728 85.4326 77.9355 85.4294Z" fill="white"/>
<path d="M75.1812 85.4294H64.7792C64.7419 85.4326 64.7072 85.4497 64.6819 85.4773C64.6567 85.5048 64.6426 85.5409 64.6426 85.5783C64.6426 85.6157 64.6567 85.6517 64.6819 85.6793C64.7072 85.7068 64.7419 85.7239 64.7792 85.7271H75.1812C75.2185 85.7239 75.2532 85.7068 75.2785 85.6793C75.3037 85.6517 75.3178 85.6157 75.3178 85.5783C75.3178 85.5409 75.3037 85.5048 75.2785 85.4773C75.2532 85.4497 75.2185 85.4326 75.1812 85.4294Z" fill="white"/>
<path d="M77.9046 87.5884H69.0695C69.0322 87.5916 68.9975 87.6087 68.9723 87.6363C68.947 87.6638 68.933 87.6999 68.933 87.7373C68.933 87.7747 68.947 87.8107 68.9723 87.8383C68.9975 87.8658 69.0322 87.8829 69.0695 87.8861H69.2443C69.2816 87.8829 69.3163 87.8658 69.3416 87.8383C69.3669 87.8107 69.3809 87.7747 69.3809 87.7373C69.3809 87.6999 69.3669 87.6638 69.3416 87.6363C69.3163 87.6087 69.2816 87.5916 69.2443 87.5884H69.0695V87.8861H77.9046C77.9418 87.8829 77.9765 87.8658 78.0018 87.8383C78.0271 87.8107 78.0411 87.7747 78.0411 87.7373C78.0411 87.6999 78.0271 87.6638 78.0018 87.6363C77.9765 87.6087 77.9418 87.5916 77.9046 87.5884Z" fill="white"/>
<path d="M67.7714 87.6249H64.8644C64.8271 87.6282 64.7924 87.6452 64.7672 87.6728C64.7419 87.7003 64.7278 87.7364 64.7278 87.7738C64.7278 87.8112 64.7419 87.8472 64.7672 87.8748C64.7924 87.9023 64.8271 87.9194 64.8644 87.9226H67.7714C67.8087 87.9194 67.8434 87.9023 67.8687 87.8748C67.8939 87.8472 67.908 87.8112 67.908 87.7738C67.908 87.7364 67.8939 87.7003 67.8687 87.6728C67.8434 87.6452 67.8087 87.6282 67.7714 87.6249Z" fill="white"/>
<path d="M179.57 72.4435H158.088V43.1574H179.57V72.4435ZM159.155 71.4476H178.502V44.1588H159.155V71.4476Z" fill="#F77C7C"/>
<path d="M161.396 48.8386C164.172 48.8386 166.947 48.8361 169.721 48.8309C170.407 48.8309 170.408 47.8283 169.721 47.8283H169.621C168.933 47.8283 168.932 48.8309 169.621 48.8309H169.721V47.8283C166.946 47.8283 164.172 47.8361 161.396 47.8361C160.71 47.8361 160.708 48.8386 161.396 48.8386Z" fill="#F77C7C"/>
<path d="M161.396 46.5126C164.172 46.5126 166.947 46.51 169.721 46.5048C170.407 46.5048 170.408 45.5022 169.721 45.5022H169.621C168.933 45.5022 168.932 46.5048 169.621 46.5048H169.721V45.5022C166.946 45.5022 164.172 45.51 161.396 45.51C160.71 45.51 160.708 46.5126 161.396 46.5126Z" fill="#F77C7C"/>
<path d="M161.594 51.2765C166.43 51.2765 171.265 51.2743 176.1 51.2698C176.787 51.2698 176.788 50.2673 176.1 50.2673H175.924C175.238 50.2673 175.237 51.2698 175.924 51.2698H176.1V50.2673C171.265 50.2673 166.43 50.2695 161.594 50.2739C160.908 50.2739 160.907 51.2765 161.594 51.2765Z" fill="#F77C7C"/>
<path d="M161.594 53.6955C166.43 53.6955 171.265 53.6933 176.1 53.6889C176.787 53.6889 176.788 52.6863 176.1 52.6863H175.924C175.238 52.6863 175.237 53.6889 175.924 53.6889H176.1V52.6863C171.265 52.6863 166.43 52.6885 161.594 52.6929C160.908 52.6929 160.907 53.6955 161.594 53.6955Z" fill="#F77C7C"/>
<path d="M161.694 56.0216C166.528 56.0216 171.363 56.0193 176.199 56.0149C176.887 56.0149 176.888 55.0123 176.199 55.0123H176.023C175.336 55.0123 175.335 56.0149 176.023 56.0149H176.199V55.0123C171.364 55.0123 166.529 55.0146 161.694 55.019C161.007 55.019 161.006 56.0216 161.694 56.0216Z" fill="#F77C7C"/>
<path d="M161.594 58.5391C166.43 58.5391 171.265 58.5369 176.1 58.5325C176.787 58.5325 176.788 57.5299 176.1 57.5299H175.924C175.238 57.5299 175.237 58.5325 175.924 58.5325H176.1V57.5299C171.265 57.5299 166.43 57.5325 161.594 57.5376C160.908 57.5376 160.907 58.5391 161.594 58.5391Z" fill="#F77C7C"/>
<path d="M161.694 60.8629C166.528 60.8629 171.363 60.8607 176.199 60.8563C176.887 60.8563 176.888 59.8537 176.199 59.8537H176.023C175.336 59.8537 175.335 60.8563 176.023 60.8563H176.199V59.8537C171.364 59.8537 166.529 59.8563 161.694 59.8615C161.007 59.8615 161.006 60.8629 161.694 60.8629Z" fill="#F77C7C"/>
<path d="M161.694 63.1868C166.528 63.1868 171.363 63.1846 176.199 63.1802C176.887 63.1802 176.888 62.1776 176.199 62.1776H176.023C175.336 62.1776 175.335 63.1802 176.023 63.1802H176.199V62.1776C171.364 62.1776 166.529 62.1802 161.694 62.1853C161.007 62.1853 161.006 63.1813 161.694 63.1813V63.1868Z" fill="#F77C7C"/>
<path d="M161.694 65.5107C166.528 65.5107 171.363 65.5085 176.199 65.504C176.887 65.504 176.888 64.5014 176.199 64.5014H176.023C175.336 64.5014 175.335 65.504 176.023 65.504H176.199V64.5014C171.364 64.5014 166.529 64.504 161.694 64.5092C161.007 64.5092 161.006 65.5051 161.694 65.5051V65.5107Z" fill="#F77C7C"/>
<path d="M161.694 67.8345C166.528 67.8345 171.363 67.8323 176.199 67.8279C176.887 67.8279 176.888 66.8253 176.199 66.8253H176.023C175.336 66.8253 175.335 67.8279 176.023 67.8279H176.199V66.8253C171.364 66.8253 166.529 66.8279 161.694 66.833C161.007 66.833 161.006 67.829 161.694 67.829V67.8345Z" fill="#F77C7C"/>
<path d="M161.694 70.1639C166.528 70.1639 171.363 70.1617 176.199 70.1573C176.887 70.1573 176.888 69.1547 176.199 69.1547H176.023C175.336 69.1547 175.335 70.1573 176.023 70.1573H176.199V69.1547C171.364 69.1547 166.529 69.1573 161.694 69.1624C161.007 69.1624 161.006 70.1584 161.694 70.1584V70.1639Z" fill="#F77C7C"/>
<path d="M110.849 92.4884C110.777 91.7282 110.657 90.864 110.485 89.8581C110.419 89.4829 110.348 89.0834 110.264 88.6707C110.264 88.6519 110.255 88.6286 110.25 88.6076L110.925 88.4914L116.385 87.5497C116.313 88.1238 116.276 88.7018 116.275 89.2804C116.271 89.8032 116.294 90.3259 116.344 90.8462C116.399 91.4181 116.486 91.9863 116.606 92.5482C117.193 95.3258 119.395 101.721 119.395 101.721L110.022 102.692C110.72 101.16 111.018 95.4386 110.908 93.2465C110.893 93.0096 110.873 92.7551 110.849 92.4884Z" fill="#A04F48"/>
<g style="mix-blend-mode:multiply" opacity="0.4">
<g style="mix-blend-mode:multiply" opacity="0.4">
<path d="M116.342 90.8518C116.292 90.3314 116.268 89.8087 116.273 89.2859C116.274 88.7073 116.311 88.1293 116.383 87.5552L110.923 88.4969L110.248 88.6131C110.248 88.6341 110.258 88.6574 110.262 88.6762C110.342 89.0934 110.413 89.4884 110.483 89.8636C110.654 90.8695 110.775 91.7337 110.847 92.494C110.871 92.7606 110.891 93.0152 110.904 93.2564C110.928 93.6924 110.934 94.27 110.924 94.924C112.972 94.7249 115.008 94.3475 116.832 93.5264C116.742 93.1712 116.662 92.8425 116.601 92.5537C116.483 91.9918 116.396 91.4235 116.342 90.8518Z" fill="#A04F48"/>
</g>
</g>
<path d="M144.418 58.4196C144.418 69.8175 134.32 88.1262 120.09 80.9942C111.973 76.9274 102.665 74.3546 94.2269 71.1311C84.9149 67.5723 84.2354 54.573 87.8717 44.3923C90.5751 36.8243 101.382 31.0844 110.047 29.4831C110.548 29.3913 111.043 29.3127 111.527 29.2485C112.766 29.0763 114.018 29.01 115.268 29.0504C127.815 29.5683 135.015 34.0113 139.117 39.572C139.809 40.5088 140.429 41.496 140.973 42.5255C143.898 48.043 144.418 54.1227 144.418 58.4196Z" fill="#240A3A"/>
<path d="M149.459 125.239C149.459 121.796 148.092 118.494 145.657 116.059C143.222 113.624 139.92 112.256 136.477 112.256H115.925C108.755 112.256 103.433 117.797 103.433 124.968V151.707C103.433 158.878 103.322 164.2 110.497 164.2H135.64C136.273 166.405 137.673 168.383 140.692 168.145C147.834 167.582 148.852 157.512 148.991 154.652C149.298 153.534 149.453 152.38 149.454 151.221L149.459 125.239Z" fill="#985BC0"/>
<g style="mix-blend-mode:multiply" opacity="0.4">
<g style="mix-blend-mode:multiply" opacity="0.4">
<path d="M134.341 119.513C133.752 117.156 133.589 114.722 133.715 112.256H115.925C108.755 112.256 103.433 117.797 103.433 124.968V151.707C103.433 158.878 103.322 164.2 110.497 164.2H135.64C136.273 166.405 137.673 168.383 140.692 168.145C147.834 167.582 148.852 157.512 148.991 154.652C149.298 153.534 149.453 152.38 149.454 151.221V143.239C142.053 137.399 136.599 128.725 134.341 119.513Z" fill="#985BC0"/>
</g>
</g>
<path d="M55.1894 209.037L29.8317 149.789L6.17039 209.021L3.57652 208.562L29.7432 143.061L57.7711 208.547L55.1894 209.037Z" fill="#FF7B47"/>
<g style="mix-blend-mode:multiply" opacity="0.4">
<g style="mix-blend-mode:multiply" opacity="0.4">
<path d="M92.7164 57.6693C90.8164 55.33 87.1602 54.1603 86.868 50.9445C86.7597 50.1451 86.6936 49.3406 86.6699 48.5343C84.5674 57.8298 86.1421 68.0415 94.2269 71.1311C94.6142 66.4092 95.9023 61.5634 92.7164 57.6693Z" fill="#240A3A"/>
</g>
<g style="mix-blend-mode:multiply" opacity="0.4">
<path d="M126.053 77.5538C124.061 78.3506 122.41 79.7581 121.189 81.4977C134.838 87.1801 144.418 69.5221 144.418 58.4196C144.418 57.656 144.401 56.8338 144.357 55.9696C143.53 60.5819 142.711 65.026 139.943 68.9279C136.58 73.6066 131.17 75.6538 126.053 77.5538Z" fill="#240A3A"/>
</g>
</g>
<path d="M195.9 209.037L170.542 149.789L146.881 209.021L144.287 208.562L170.453 143.061L198.482 208.547L195.9 209.037Z" fill="#FF7B47"/>
<path d="M125.35 160.117L105.272 159.674C104.656 159.674 104.046 159.553 103.477 159.317C102.908 159.082 102.391 158.736 101.956 158.301C101.521 157.865 101.175 157.348 100.94 156.779C100.704 156.21 100.583 155.601 100.583 154.985V144.199C100.583 142.955 101.077 141.763 101.956 140.883C102.836 140.004 104.028 139.51 105.272 139.51H125.921C127.165 139.51 128.357 140.004 129.236 140.883C130.116 141.763 130.61 142.955 130.61 144.199L131.052 152.88C131.268 156.391 127.939 160.117 125.35 160.117Z" fill="#270048"/>
<path d="M103.018 159.152C102.993 159.151 102.968 159.151 102.944 159.152L102.846 159.147L102.64 159.137L102.217 159.121L101.348 159.097C100.765 159.085 100.177 159.079 99.5884 159.079C98.411 159.079 97.2302 159.101 96.0473 159.146C93.6913 159.236 91.3475 159.413 89.0536 159.707C86.7596 160 84.5165 160.414 82.414 161.002C81.4045 161.282 80.4136 161.624 79.4472 162.028C78.6042 162.374 77.7988 162.806 77.0436 163.316C76.5379 163.65 76.0895 164.063 75.7157 164.54C75.6582 164.619 75.6051 164.691 75.5697 164.762C75.5486 164.795 75.5309 164.829 75.5132 164.862C75.4955 164.895 75.4977 164.895 75.4878 164.914L75.4402 165.038C75.2889 165.463 75.1738 165.899 75.096 166.343C74.896 167.485 74.7781 168.641 74.743 169.8C74.6921 171.044 74.6988 172.338 74.743 173.651C74.8293 176.278 75.0595 178.974 75.3649 181.671C75.5184 183.022 75.6921 184.372 75.8861 185.724C75.9835 186.4 76.085 187.074 76.1905 187.748L76.352 188.754L76.518 189.735C74.8483 190.453 73.1191 191.024 71.3502 191.442C71.1986 191.244 71.0072 190.406 71.0072 190.406L70.6752 189.39C70.4605 188.713 70.2506 188.034 70.0455 187.354C69.6339 185.994 69.241 184.624 68.867 183.244C68.1211 180.477 67.4439 177.674 66.9017 174.757C66.6317 173.298 66.396 171.809 66.2233 170.261C66.0306 168.63 65.95 166.987 65.9821 165.345C66.0027 164.397 66.0885 163.452 66.2388 162.516L66.3052 162.132L66.4159 161.682C66.4922 161.382 66.5763 161.085 66.6715 160.797C66.8566 160.229 67.0783 159.675 67.3355 159.137C67.8137 158.148 68.4025 157.217 69.0905 156.361C69.6948 155.611 70.3611 154.914 71.0824 154.275C72.3374 153.178 73.7067 152.218 75.1669 151.413C76.4705 150.689 77.8188 150.049 79.2037 149.496C81.8762 148.421 84.5154 147.65 87.1436 147.013C89.7718 146.375 92.3878 145.896 95.0004 145.508C96.3095 145.314 97.6175 145.146 98.9322 145.001C99.5895 144.927 100.25 144.862 100.913 144.805L101.916 144.722L102.426 144.686L102.689 144.669L102.986 144.654L103.018 159.152Z" fill="#A04F48"/>
<g style="mix-blend-mode:multiply" opacity="0.4">
<g style="mix-blend-mode:multiply" opacity="0.4">
<path d="M102.994 144.644L102.698 144.659L102.435 144.676L101.924 144.712L100.922 144.795C100.258 144.853 99.5976 144.919 98.941 144.991C97.6263 145.136 96.3183 145.304 95.0092 145.498C92.3932 145.886 89.7772 146.371 87.1524 147.003C84.5275 147.635 81.885 148.412 79.2125 149.486C77.8277 150.039 76.4793 150.679 75.1757 151.403C74.3266 151.877 73.5052 152.399 72.7157 152.966C76.2114 153.317 79.8112 153.724 82.3431 156.361C84.0982 158.261 81.6128 160.601 79.7116 161.77C79.4283 161.949 79.1439 162.121 78.8606 162.292C79.0576 162.2 79.2579 162.109 79.4648 162.023C80.4313 161.619 81.4222 161.276 82.4316 160.997C84.5253 160.408 86.7761 160.001 89.0712 159.701C91.3663 159.401 93.709 159.231 96.0649 159.14C97.2424 159.096 98.4231 159.074 99.6061 159.074C100.195 159.074 100.782 159.074 101.366 159.091L102.234 159.116L102.658 159.131L102.864 159.141L102.961 159.147C102.986 159.145 103.011 159.145 103.035 159.147L102.994 144.644Z" fill="#A04F48"/>
</g>
</g>
<path d="M121.843 159.682C121.843 159.682 116.142 159.804 114.989 159.969C113.836 160.134 112.687 160.317 111.545 160.513C110.403 160.709 109.272 160.924 108.153 161.167C107.035 161.411 105.934 161.681 104.855 161.982C103.776 162.283 102.72 162.603 101.713 162.969C100.745 163.314 99.7983 163.716 98.8779 164.174C98.116 164.549 97.3957 165.003 96.7289 165.528C96.5244 165.693 96.3307 165.871 96.1491 166.061C96.0273 166.19 95.8735 166.38 95.8569 166.472C95.8403 166.564 95.8171 166.652 95.8016 166.75C95.7304 167.189 95.6916 167.633 95.6854 168.078C95.6804 169.172 95.7651 170.264 95.9388 171.344C96.1159 172.51 96.3815 173.718 96.6913 174.943C97.0011 176.168 97.3741 177.403 97.7835 178.638C98.193 179.873 98.6334 181.116 99.1114 182.349C99.5895 183.581 100.092 184.811 100.619 186.03C100.883 186.64 101.154 187.246 101.43 187.848L101.849 188.745L102.061 189.187L102.113 189.298C102.135 189.331 102.127 189.388 102.067 189.488C102.057 189.508 102.033 189.542 102.016 189.568C102 189.595 101.971 189.631 101.942 189.668C101.881 189.744 101.843 189.801 101.75 189.905L101.627 190.045L101.454 190.229L101.278 190.412C101.253 190.44 101.218 190.476 101.174 190.518L101.056 190.638L99.3726 192.077L99.2365 192.17C99.1878 192.204 99.1468 192.231 99.1159 192.249L98.9067 192.38L98.6987 192.511L98.5426 192.598C98.4583 192.646 98.3715 192.689 98.2826 192.727C98.2468 192.745 98.2098 192.761 98.1719 192.774C98.1442 192.785 98.1157 192.794 98.0867 192.801C97.9827 192.829 97.9296 192.815 97.9063 192.776L97.8256 192.666L97.5069 192.245L96.8816 191.404C96.47 190.842 96.0642 190.274 95.6644 189.701C94.8643 188.556 94.0875 187.385 93.3405 186.178C92.5936 184.97 91.8665 183.737 91.1716 182.462C90.4766 181.186 89.8215 179.862 89.2018 178.478C88.5597 177.056 87.9967 175.599 87.5154 174.114C86.9758 172.484 86.5811 170.808 86.3357 169.108C86.1991 168.151 86.1252 167.185 86.1144 166.218C86.1144 165.964 86.1144 165.708 86.1222 165.443C86.1299 165.179 86.1454 164.915 86.1664 164.646L86.1808 164.446V164.395L86.1886 164.329L86.2063 164.194C86.2295 164.013 86.2561 163.833 86.2882 163.656C86.3501 163.3 86.4276 162.948 86.5183 162.608C86.8555 161.35 87.3776 160.149 88.0676 159.045C88.63 158.142 89.2838 157.299 90.0185 156.53C91.3575 155.13 92.6987 154.141 94.0111 153.287C95.262 152.485 96.5647 151.767 97.9108 151.138C99.2 150.528 100.478 149.998 101.753 149.519C103.028 149.04 104.298 148.624 105.567 148.237C106.837 147.849 108.1 147.497 109.365 147.173C110.63 146.849 111.896 146.568 113.162 146.301C114.428 146.035 115.694 145.789 116.969 145.583C117.605 145.478 118.242 145.377 118.885 145.283C119.206 145.237 119.528 145.189 119.855 145.149L120.348 145.087L120.882 145.026L121.843 159.682Z" fill="#A04F48"/>
<path d="M132.94 76.2657C130.755 82.0876 126.542 86.9249 121.075 89.8882C115.608 92.8514 109.255 93.7414 103.184 92.3944C100.085 91.7072 97.0853 90.4235 94.633 88.4029C92.1808 86.3822 90.3173 83.5925 89.6755 80.4841C89.5622 79.9337 89.4842 79.3767 89.442 78.8164C89.4354 78.7312 89.4298 78.6482 89.4243 78.5641C89.3603 77.3456 89.4014 76.1238 89.5471 74.9123C89.5476 74.8849 89.5499 74.8576 89.5538 74.8304C89.7994 72.5774 90.2598 70.3089 90.439 68.0514C90.7035 64.7626 90.7876 61.6188 90.4036 58.5922C89.9909 55.341 89.037 52.2237 87.1779 49.206C102.76 46.9862 115.996 45.2433 131.007 47.5262C131.87 47.6575 132.739 47.8021 133.614 47.96C133.342 48.1005 134.146 51.7224 133.876 51.8608C134.901 60.0242 135.834 68.5671 132.94 76.2657Z" fill="#A04F48"/>
<g style="mix-blend-mode:multiply" opacity="0.4">
<g style="mix-blend-mode:multiply" opacity="0.4">
<path d="M120.886 145.03L120.353 145.091L119.859 145.153C119.527 145.192 119.211 145.24 118.89 145.286C118.247 145.381 117.609 145.481 116.972 145.586C115.698 145.792 114.433 146.043 113.166 146.305C111.899 146.566 110.634 146.858 109.37 147.177C108.105 147.495 106.84 147.853 105.572 148.24C104.304 148.627 103.033 149.051 101.757 149.523C100.481 149.994 99.2044 150.532 97.9152 151.141C96.5692 151.771 95.2664 152.489 94.0156 153.291C92.7031 154.145 91.3597 155.133 90.0229 156.533C89.39 157.196 88.8157 157.914 88.3066 158.676C91.1384 158.606 94.3564 160.593 95.0569 163.379C95.6423 165.573 94.3265 167.766 94.9108 170.105C95.0932 170.919 95.5039 171.664 96.0949 172.253C96.0373 171.946 95.9857 171.641 95.9399 171.339C95.7663 170.259 95.6815 169.167 95.6865 168.074C95.6927 167.629 95.7316 167.185 95.8027 166.746C95.8182 166.647 95.8359 166.554 95.858 166.468C95.8802 166.382 96.0285 166.186 96.1502 166.056C96.3321 165.866 96.5257 165.688 96.73 165.523C97.3971 164.998 98.1174 164.544 98.8791 164.17C99.7994 163.712 100.746 163.31 101.714 162.964C102.722 162.598 103.778 162.274 104.856 161.977C105.934 161.681 107.037 161.406 108.156 161.163C109.274 160.919 110.405 160.704 111.546 160.509C112.687 160.314 113.836 160.125 114.99 159.964C116.144 159.804 121.844 159.678 121.844 159.678L120.886 145.03Z" fill="#A04F48"/>
</g>
</g>
<g style="mix-blend-mode:multiply" opacity="0.4">
<g style="mix-blend-mode:multiply" opacity="0.4">
<path d="M131.706 69.4645C131.676 69.6794 131.596 69.8845 131.475 70.0642C131.353 70.2438 131.191 70.3934 131.003 70.5013C130.815 70.6093 130.604 70.6729 130.388 70.6873C130.171 70.7017 129.954 70.6665 129.753 70.5844C127.963 69.8585 126.345 63.0794 124.152 60.7357C121.666 58.3963 117.427 57.3993 114.502 57.5188C107.338 57.812 104.267 58.3963 97.249 56.057C94.4637 55.1285 92.1697 57.3849 90.408 58.5889C89.9953 55.3377 89.0414 52.2204 87.1823 49.2027C102.764 46.9829 116 45.24 131.011 47.5229C131.154 48.6394 131.423 50.1588 131.248 50.2495C131.997 56.2373 132.548 63.4081 131.706 69.4645Z" fill="#A04F48"/>
</g>
</g>
<path d="M103.153 109.467L102.803 110.195L102.461 110.893C102.233 111.357 101.996 111.813 101.76 112.269C101.284 113.18 100.795 114.083 100.293 114.977C99.2907 116.769 98.2147 118.527 97.0653 120.251C95.9131 122.005 94.6621 123.692 93.3184 125.304C91.9351 126.928 90.4412 128.513 88.56 129.903C87.6116 130.589 86.5681 131.239 85.3265 131.713C85.0089 131.835 84.6849 131.94 84.356 132.027C84.19 132.074 84.0185 132.114 83.8426 132.148L83.5803 132.2L83.38 132.229C82.8555 132.297 82.3287 132.375 81.8064 132.434C79.7216 132.676 77.6711 132.766 75.6305 132.808C73.5899 132.851 71.5626 132.808 69.5442 132.724C68.5339 132.688 67.5258 132.62 66.5177 132.554C65.5095 132.488 64.5114 132.406 63.4834 132.296C63.0575 132.252 62.6645 132.047 62.3838 131.724C62.1032 131.4 61.9558 130.982 61.9715 130.555C61.9873 130.127 62.165 129.721 62.4687 129.419C62.7723 129.117 63.1793 128.942 63.6073 128.929H63.6316C64.5922 128.898 65.587 128.861 66.5663 128.818C67.5457 128.775 68.5306 128.716 69.5099 128.658C71.4697 128.536 73.4217 128.387 75.355 128.184C75.8374 128.131 76.3221 128.086 76.8013 128.025L78.2399 127.84L79.6607 127.631L81.0617 127.387C81.5231 127.299 81.9757 127.197 82.4328 127.103L82.5999 127.067L82.7017 127.038C82.7727 127.021 82.8426 126.999 82.9108 126.973C83.0615 126.924 83.2093 126.867 83.3535 126.801C83.9565 126.534 84.6072 126.093 85.2347 125.576C86.5062 124.522 87.7179 123.151 88.84 121.689C89.9754 120.186 91.0343 118.627 92.0126 117.017C93.0085 115.393 93.9381 113.705 94.8422 112.004C95.2914 111.152 95.7285 110.293 96.1535 109.427L96.7787 108.129L97.0841 107.482L97.3685 106.858L97.3995 106.79C97.5711 106.409 97.8164 106.066 98.1211 105.78C98.4258 105.494 98.784 105.271 99.1752 105.124C99.5663 104.977 99.9826 104.909 100.4 104.923C100.818 104.937 101.229 105.034 101.609 105.208C101.989 105.381 102.331 105.628 102.615 105.935C102.899 106.241 103.121 106.6 103.266 106.992C103.411 107.384 103.477 107.801 103.46 108.218C103.444 108.636 103.345 109.046 103.169 109.425L103.153 109.467Z" fill="#A04F48"/>
<path d="M138.72 65.4332C138.316 65.4785 137.916 65.5491 137.521 65.6445C134.556 66.3461 132.458 68.2661 131.487 69.8164C131.031 68.7777 130.689 67.6924 130.468 66.5796C130.281 65.6943 130.136 64.7537 129.953 63.6803C129.749 62.4498 129.657 59.2119 130.25 58.1374C129.407 59.2196 127.33 59.7054 125.763 59.3624C124.103 59.0016 123.399 57.718 122.996 55.9242C122.832 55.2071 122.886 54.0319 123.073 52.7825C122.57 53.5857 121.931 54.295 121.185 54.8784C121.049 54.9836 120.91 55.0832 120.768 55.1783C119.393 56.0935 117.599 56.5063 116.177 55.6796C115.058 55.0323 114.354 53.7265 114.059 52.3775C113.765 51.0286 113.826 49.6221 113.888 48.2377C113.571 50.5328 112.498 52.7195 110.893 54.2134C110.47 54.6104 110.003 54.9589 109.502 55.2525C107.131 56.6357 104.044 56.5361 101.867 54.8187C100.881 54.0163 100.133 52.9609 99.7013 51.7656C99.6127 51.5277 99.5364 51.2853 99.4722 51.0408C99.3273 51.5078 99.127 51.9558 98.8757 52.3753C98.7658 52.56 98.6445 52.7378 98.5128 52.9076C97.7971 53.8344 96.7648 54.4648 95.6135 54.6781C94.8483 54.8231 94.057 54.7304 93.3461 54.4126C92.6307 54.0688 92.0359 53.5168 91.6397 52.829C91.5589 55.1086 90.7998 57.3218 88.9706 57.7645C88.2834 57.9282 87.4866 57.5431 86.8094 56.763C84.7954 54.4391 83.868 48.6483 90.2232 43.6786C91.9772 42.3086 95.8735 41.2861 99.989 40.6033C101.177 40.4074 102.384 40.2381 103.561 40.0965C107.13 39.6693 110.439 39.4978 112.204 39.5731C112.709 39.5941 113.288 39.6362 113.921 39.6937C116.902 39.9898 119.858 40.5047 122.764 41.2341C125.661 41.9733 128.335 42.9438 129.874 44.1212C130.837 44.8571 131.721 45.5897 132.53 46.3344C135.76 49.341 137.731 52.6542 138.284 57.76C138.303 57.9327 138.532 59.6014 138.668 61.5225C138.76 62.8437 138.81 64.2768 138.72 65.4332Z" fill="#240A3A"/>
<g style="mix-blend-mode:multiply" opacity="0.4">
<g style="mix-blend-mode:multiply" opacity="0.4">
<path d="M101.764 112.269C102.001 111.813 102.238 111.357 102.466 110.893L102.803 110.195L103.148 109.466C103.148 109.458 103.164 109.434 103.167 109.426C103.354 109.046 103.462 108.632 103.486 108.209C103.51 107.786 103.449 107.363 103.307 106.964C103.164 106.565 102.944 106.198 102.657 105.886C102.371 105.574 102.025 105.322 101.64 105.146C101.255 104.969 100.838 104.872 100.415 104.859C99.9911 104.847 99.5695 104.919 99.1744 105.072C98.7794 105.225 98.419 105.455 98.1145 105.75C97.8101 106.045 97.5677 106.397 97.4017 106.787L97.3707 106.854L97.0864 107.478L96.7809 108.126L96.1557 109.424C95.7308 110.288 95.2937 111.147 94.8444 112.001C94.5899 112.478 94.3317 112.954 94.0698 113.429C95.4995 114.879 97.3896 115.909 99.4025 116.516C99.7042 116.003 99.9993 115.487 100.288 114.967C100.798 114.079 101.29 113.179 101.764 112.269Z" fill="#A04F48"/>
</g>
</g>
<path d="M101.931 113.578L101.63 114.012L101.574 114.091C101.326 114.441 101.064 114.796 100.789 115.157C100.789 115.157 95.6987 114.633 93.4589 111.766C93.4589 111.766 93.6382 111.292 93.9624 110.528C94.0321 110.359 94.1107 110.175 94.1948 109.98C95.7607 106.388 99.5552 98.6931 103.069 99.5242C105.513 100.096 107.93 104.84 101.931 113.578Z" fill="#FFA395"/>
<g style="mix-blend-mode:multiply" opacity="0.4">
<g style="mix-blend-mode:multiply" opacity="0.4">
<path d="M103.069 99.5242C102.794 99.4605 102.51 99.4463 102.23 99.4821C101.525 101.94 101.083 104.471 99.9259 106.786C98.4873 109.425 96.2608 111.036 93.6913 112.043C96.0351 114.665 100.789 115.156 100.789 115.156C101.065 114.795 101.326 114.44 101.574 114.09L101.63 114.011L101.931 113.577C107.93 104.84 105.513 100.096 103.069 99.5242Z" fill="#FFA395"/>
</g>
</g>
<path d="M101.508 114.575C101.412 115.511 101.312 116.532 101.214 117.609C101.205 117.705 101.196 117.8 101.189 117.895C101.159 118.222 101.129 118.554 101.1 118.891C101.052 119.433 101.006 119.987 100.961 120.551C100.946 120.719 100.933 120.889 100.92 121.059C100.859 121.821 100.8 122.597 100.746 123.382C100.707 123.936 100.67 124.489 100.635 125.052C100.544 126.505 100.467 127.96 100.414 129.375C100.407 129.516 100.402 129.657 100.397 129.797C100.377 130.36 100.36 130.913 100.346 131.457C100.334 132.002 100.324 132.536 100.32 133.057C100.32 133.548 100.32 134.027 100.32 134.496C100.32 134.571 100.32 134.647 100.32 134.717C100.32 134.858 100.32 134.998 100.326 135.137C100.333 135.275 100.326 135.42 100.335 135.559C100.396 138.013 100.603 139.97 101.02 141.022C102.806 145.517 129.046 145.416 130.566 140.964C130.8 140.234 130.969 139.484 131.07 138.724C131.116 138.412 131.158 138.085 131.195 137.742L131.202 137.684C131.239 137.346 131.27 136.994 131.297 136.628V136.584C131.311 136.406 131.323 136.225 131.334 136.04C131.334 136.028 131.334 136.014 131.334 136.001C131.346 135.816 131.355 135.628 131.364 135.438C131.496 132.734 131.433 129.444 131.204 125.882C131.204 125.855 131.204 125.827 131.198 125.799C131.18 125.521 131.161 125.242 131.141 124.962C131.121 124.681 131.1 124.399 131.078 124.114L131.045 123.688C130.977 122.845 130.901 121.994 130.817 121.134C130.811 121.084 130.806 121.033 130.801 120.982C130.75 120.468 130.69 119.951 130.638 119.433L130.628 119.337C130.419 117.431 130.173 115.503 129.89 113.593C129.879 113.516 129.868 113.439 129.856 113.361C129.845 113.281 129.833 113.201 129.82 113.121C129.758 112.707 129.694 112.294 129.628 111.883C128.982 107.825 129.427 101.103 127.79 99.1933C127.6 98.9868 127.375 98.8146 127.126 98.6843C126.469 98.3169 125.51 98.0082 124.47 97.7702C122.744 97.3763 120.783 97.1749 119.561 97.2169H119.547C119.43 97.2169 119.319 97.2269 119.215 97.2369H119.169C119.128 97.2369 119.076 97.2435 119.012 97.2446H119.001C118.9 97.2446 118.771 97.2446 118.62 97.2446C118.398 97.2446 118.139 97.2358 117.845 97.228C116.276 97.1915 113.732 97.1351 111.884 97.4316L110.8 97.6031L110.404 97.6684L110.107 97.7216L109.775 97.7813L109.647 97.8057L109.537 97.8256H109.515L109.288 97.8687C109.087 97.9075 108.88 97.9484 108.67 97.9916L108.415 98.0436C108.271 98.0734 108.126 98.1033 107.98 98.1354L107.834 98.1664C107.017 98.3412 106.174 98.536 105.385 98.7341L105.259 98.7662L104.74 98.9012L104.526 98.9598C103.973 99.1092 103.481 99.2575 103.08 99.4025C103.001 99.429 102.926 99.4567 102.858 99.4833H102.847H102.838C102.759 99.5131 102.685 99.5419 102.617 99.5707C100.931 100.273 102.608 104.228 102.285 107.598C102.193 108.576 102.116 109.455 102.027 110.112C101.909 110.997 101.752 112.336 101.585 113.973C101.585 114.02 101.574 114.067 101.569 114.115L101.508 114.575Z" fill="#FFA395"/>
<path d="M138.934 39.8243C140.344 40.1961 142.091 41.0781 142.886 42.3518C143.371 43.1264 143.142 44.1666 142.863 44.9777C142.523 45.967 141.912 46.7361 141.314 47.5738C140.891 48.1669 140.526 48.9394 140.982 49.6166C141.195 49.9275 141.535 50.1356 141.835 50.3469C142.258 50.6413 142.683 50.9334 143.084 51.2566C143.824 51.8508 144.523 52.5657 144.812 53.4908C145.166 54.6062 144.914 55.8246 144.413 56.8549C143.94 57.832 143.236 58.673 142.523 59.4841C142.013 60.0651 141.077 60.8054 140.991 61.632C140.909 62.4067 141.63 62.9998 142.222 63.3639C143.029 63.8585 143.982 64.1197 144.684 64.7792C146.573 66.5498 143.708 68.8581 142.268 69.7877C141.466 70.2936 140.629 70.7421 139.763 71.13C139.112 71.4299 138.169 71.6036 138.122 72.4579C138.095 72.9658 138.242 73.4826 138.254 73.9928C138.266 74.5256 138.225 75.0583 138.131 75.5829C137.948 76.6015 137.578 77.5771 137.038 78.4601C136.477 79.3912 135.722 80.1909 134.825 80.805C133.593 81.6283 132.364 81.6405 130.987 81.1812C130.719 81.0916 130.604 81.5132 130.876 81.6039C131.887 81.9359 132.937 82.1174 133.963 81.7445C134.848 81.4236 135.623 80.8304 136.27 80.1631C137.546 78.837 138.367 77.1397 138.616 75.3162C138.68 74.8514 138.705 74.3821 138.691 73.9131C138.676 73.4572 138.48 72.8563 138.573 72.4159C138.683 71.9101 139.562 71.7021 139.986 71.5084C140.473 71.2871 140.955 71.0492 141.424 70.7947C143.022 69.9337 144.985 68.639 145.63 66.8474C146.374 64.7892 144.156 63.9183 142.738 63.1503C142.295 62.9124 141.802 62.6103 141.547 62.1621C141.15 61.4616 141.959 60.7855 142.381 60.3074C143.104 59.4886 143.846 58.6741 144.424 57.7423C145.464 56.0681 145.87 53.9069 144.646 52.2171C144.118 51.4867 143.404 50.9246 142.678 50.4023C142.302 50.1323 141.849 49.891 141.52 49.5635C140.946 48.9958 141.298 48.3462 141.69 47.7929C142.382 46.8202 143.064 45.9117 143.39 44.7431C143.619 43.9187 143.747 42.9471 143.291 42.1791C142.457 40.7715 140.581 39.8033 139.045 39.3994C138.773 39.3274 138.656 39.7502 138.935 39.8221L138.934 39.8243Z" fill="#150623"/>
<path d="M110.829 97.4006C111.149 97.3475 111.468 97.2988 111.78 97.2501C113.638 96.9514 116.146 96.9823 117.853 97.0222L117.981 97.4316L118.101 97.8068C117.738 99.1933 116.558 100.778 114.519 100.827C112.869 100.868 111.433 99.6869 110.786 97.986L110.829 97.4006Z" fill="#A04F48"/>
<g style="mix-blend-mode:multiply" opacity="0.4">
<g style="mix-blend-mode:multiply" opacity="0.4">
<path d="M131.333 136.001C131.333 136.014 131.333 136.028 131.333 136.04C131.321 136.225 131.309 136.406 131.296 136.584V136.628C131.268 136.994 131.236 137.347 131.201 137.684L131.194 137.742C131.156 138.085 131.115 138.412 131.069 138.724C130.968 139.484 130.799 140.234 130.565 140.964C129.048 145.416 102.809 145.517 101.019 141.022C100.602 139.97 100.395 138.013 100.334 135.56C100.334 135.42 100.328 135.278 100.325 135.137C100.323 134.995 100.325 134.858 100.319 134.717C100.319 134.643 100.319 134.568 100.319 134.496C100.319 134.264 100.319 134.028 100.319 133.789C100.319 133.55 100.319 133.309 100.319 133.063C100.319 132.542 100.332 132.007 100.345 131.463C100.359 130.918 100.375 130.364 100.396 129.803C100.396 129.662 100.406 129.522 100.413 129.38C100.468 127.966 100.546 126.511 100.634 125.058C100.67 124.505 100.707 123.942 100.745 123.388C100.799 122.607 100.855 121.831 100.919 121.064C100.932 120.895 100.945 120.724 100.959 120.556C101.005 119.994 101.051 119.44 101.099 118.896C101.128 118.56 101.157 118.228 101.187 117.9C101.195 117.805 101.204 117.71 101.213 117.615C101.902 116.096 102.602 114.582 103.355 113.1C105.592 108.814 103.984 104.058 102.825 99.4888L102.845 99.4811L103.066 99.4003C103.468 99.2597 103.964 99.1114 104.513 98.9576L104.726 98.899L105.245 98.764L105.371 98.7319C106.157 98.5338 107.004 98.339 107.82 98.1642L107.966 98.1332C108.113 98.1011 108.257 98.0712 108.401 98.0414L108.657 97.9894C108.867 97.9462 109.074 97.9053 109.274 97.8665L109.501 97.8234L109.631 97.799L109.758 97.7747C109.979 97.7337 110.191 97.6961 110.388 97.664C110.507 98.0181 110.618 98.3767 110.766 98.7098C112.094 102.03 109.549 108.227 113.865 108.448C119.508 108.824 118.757 102.168 118.607 97.2402C118.861 97.2402 119.05 97.2402 119.161 97.2313C120.318 97.1207 122.535 97.321 124.46 97.7603C122.102 104.329 125.361 114.173 130.468 119.182L130.627 119.331C130.688 119.882 130.745 120.431 130.8 120.978C130.8 121.029 130.81 121.08 130.815 121.129C130.9 121.989 130.975 122.842 131.043 123.683L131.077 124.11C131.099 124.394 131.12 124.676 131.14 124.957C131.16 125.238 131.179 125.517 131.197 125.795C131.197 125.823 131.197 125.85 131.203 125.878C131.447 129.693 131.503 133.192 131.333 136.001Z" fill="#FFA395"/>
</g>
</g>
<path d="M88.3708 139.968L37.9464 139.477C37.6578 139.473 37.3792 139.37 37.1575 139.186C36.9358 139.001 36.7845 138.745 36.7291 138.462L29.3038 100.531C29.2684 100.349 29.2737 100.162 29.3193 99.9818C29.3649 99.8021 29.4497 99.6347 29.5677 99.4916C29.6856 99.3485 29.8337 99.2333 30.0014 99.1541C30.1691 99.075 30.3523 99.034 30.5377 99.034H80.7994C81.0904 99.0338 81.3723 99.1347 81.5972 99.3194C81.822 99.5041 81.9758 99.7611 82.0322 100.047L89.619 138.468C89.6554 138.651 89.6504 138.84 89.6044 139.022C89.5583 139.203 89.4723 139.372 89.3527 139.516C89.233 139.659 89.0828 139.775 88.9129 139.853C88.743 139.931 88.5578 139.971 88.3708 139.968Z" fill="#C2BDBD"/>
<path d="M104.309 165.596C109.304 163.715 115.097 162.069 120.434 161.994C123.778 161.946 127.551 162.105 129.942 159.772C131.533 158.223 132.419 153.539 132.802 151.35C134.049 144.219 132.145 127.679 132.145 127.679C132.145 127.679 127.323 123.514 125.569 112.117C125.569 112.117 109.647 112.215 104.966 112.117C104.309 116.501 103.652 127.679 99.9259 127.898C99.7046 129.651 100.154 136.344 97.7337 139.518C96.5419 141.079 93.2144 142.985 91.3774 143.682C85.2612 146.006 77.1311 147.846 72.9669 152.01C83.2682 153.761 95.7618 159.461 104.309 165.596Z" fill="#4D4CAC"/>
<g style="mix-blend-mode:multiply" opacity="0.4">
<g style="mix-blend-mode:multiply" opacity="0.57">
<g style="mix-blend-mode:multiply" opacity="0.57">
<path d="M128.432 122.074C127.325 119.671 126.229 116.406 125.569 112.115C125.569 112.115 122.683 112.133 119.007 112.146C121.733 118.321 122.243 125.845 117.742 131.572C116.525 133.011 115.197 134.007 113.316 134.56C108.712 135.876 103.874 136.604 99.1745 136.19C98.868 137.451 98.4143 138.625 97.7359 139.51C96.5441 141.071 93.2166 142.977 91.3796 143.674C86.899 145.375 81.3395 146.82 77.0481 149.108C80.1333 148.001 83.5195 148.833 86.5383 149.94C91.9606 151.932 96.8296 154.919 102.584 155.805C106.789 156.358 110.994 155.694 115.089 154.587C119.404 153.481 123.499 150.936 125.38 146.841C127.925 141.308 128.7 135.333 128.921 129.357C129.076 126.932 128.678 124.503 128.432 122.074Z" fill="#4D4CAC"/>
</g>
</g>
<g style="mix-blend-mode:multiply" opacity="0.4">
<path d="M132.145 127.679C132.145 127.679 130.263 126.058 128.432 122.074C128.678 124.503 129.076 126.932 128.919 129.361C128.697 135.337 127.923 141.313 125.378 146.846C123.496 150.94 119.402 153.485 115.086 154.592C110.992 155.698 106.787 156.362 102.582 155.809C96.8274 154.924 91.9584 151.936 86.536 149.944C83.5172 148.838 80.131 148.005 77.0458 149.112C75.48 149.948 74.0813 150.894 72.9669 152.007C83.2682 153.761 95.7629 159.459 104.309 165.596C109.304 163.715 115.097 162.069 120.434 161.994C123.778 161.946 127.551 162.105 129.942 159.772C131.533 158.223 132.419 153.54 132.802 151.35C134.049 144.219 132.145 127.679 132.145 127.679Z" fill="#4D4CAC"/>
</g>
</g>
<path d="M186.507 141.154H14.7963C13.6962 141.154 12.8044 142.046 12.8044 143.146V147.167C12.8044 148.267 13.6962 149.158 14.7963 149.158H186.507C187.607 149.158 188.499 148.267 188.499 147.167V143.146C188.499 142.046 187.607 141.154 186.507 141.154Z" fill="#FF808B"/>
<g style="mix-blend-mode:multiply" opacity="0.4">
<g style="mix-blend-mode:multiply" opacity="0.4">
<path d="M188.499 145.138V147.167C188.499 147.695 188.289 148.202 187.916 148.575C187.542 148.949 187.036 149.158 186.507 149.158H14.7963C14.268 149.158 13.7614 148.949 13.3879 148.575C13.0143 148.202 12.8044 147.695 12.8044 147.167V145.138H188.499Z" fill="#FFBD77"/>
</g>
</g>
<path d="M114.705 137.445H86.7961C86.3628 137.445 86.0115 137.796 86.0115 138.23V140.37C86.0115 140.803 86.3628 141.154 86.7961 141.154H114.705C115.138 141.154 115.489 140.803 115.489 140.37V138.23C115.489 137.796 115.138 137.445 114.705 137.445Z" fill="#C2BDBD"/>
<path d="M29.9612 99.1723L28.0512 100.437L31.1552 100.354L32.7166 99.1822L29.9612 99.1723Z" fill="#C2BDBD"/>
<path d="M86.6146 141.139L35.9645 141.202C35.368 141.202 35.1898 140.791 35.0792 140.206L27.5443 101.703C27.5088 101.521 27.5139 101.333 27.5593 101.154C27.6048 100.974 27.6895 100.806 27.8073 100.663C27.9251 100.52 28.0732 100.405 28.2409 100.325C28.4085 100.246 28.5916 100.205 28.7771 100.205H79.0388C79.3299 100.205 79.612 100.306 79.8369 100.491C80.0617 100.675 80.2154 100.933 80.2716 101.218L87.8639 139.64C87.9002 139.823 87.8951 140.012 87.8488 140.194C87.8026 140.375 87.7165 140.543 87.5967 140.687C87.477 140.831 87.3267 140.946 87.1568 141.024C86.9869 141.102 86.8016 141.142 86.6146 141.139Z" fill="#DCD3D4"/>
<path d="M58.5463 124.622C59.7663 123.402 59.7663 121.424 58.5463 120.204C57.3263 118.985 55.3484 118.985 54.1284 120.205C52.9084 121.424 52.9084 123.402 54.1284 124.622C55.3484 125.842 57.3263 125.842 58.5463 124.622Z" fill="#F3EEEE"/>
<path d="M112.782 70.1584C112.858 71.8991 113.476 73.2867 114.162 73.2569C114.848 73.227 115.343 71.7906 115.269 70.0477C115.195 68.3048 114.575 66.9183 113.889 66.9492C113.203 66.9802 112.706 68.4199 112.782 70.1584Z" fill="black"/>
<path d="M115.031 65.8592C115.024 66.0529 114.608 65.8792 113.834 65.8592C113.059 65.8393 112.636 65.9478 112.642 65.7486C112.647 65.5494 113.077 65.3115 113.851 65.3358C114.626 65.3602 115.038 65.6656 115.031 65.8592Z" fill="black"/>
<path d="M97.4394 70.1384C97.519 71.8802 97.0277 73.3177 96.3416 73.3476C95.6555 73.3775 95.0347 71.9931 94.955 70.2491C94.8754 68.5051 95.3667 67.071 96.0528 67.04C96.7389 67.009 97.3597 68.3967 97.4394 70.1384Z" fill="black"/>
<path d="M94.8145 66.0551C94.8388 66.2477 95.2372 66.0374 96.0074 65.9445C96.7776 65.8515 97.208 65.9256 97.1848 65.7331C97.1616 65.5406 96.7167 65.3347 95.9421 65.4288C95.1675 65.5228 94.7912 65.8626 94.8145 66.0551Z" fill="black"/>
<path d="M94.7105 57.023C96.6913 56.4354 98.1022 56.5051 98.4098 57.5454C98.7175 58.5856 97.2634 59.2052 95.2815 59.7951C93.2996 60.3849 91.5434 60.7124 91.2357 59.6722C90.9281 58.632 92.733 57.6095 94.7105 57.023Z" fill="#240A3A"/>
<path d="M113.103 56.7231C110.906 56.2097 109.373 56.3768 109.104 57.5298C108.835 58.6829 110.461 59.2683 112.657 59.7818C114.854 60.2952 116.79 60.542 117.059 59.3878C117.328 58.2336 115.3 57.2366 113.103 56.7231Z" fill="#240A3A"/>
<path d="M120.188 79.3844C122.705 79.2295 124.681 78.0646 124.602 76.7824C124.523 75.5001 122.419 74.5862 119.902 74.741C117.385 74.8958 115.409 76.0608 115.488 77.343C115.567 78.6252 117.671 79.5392 120.188 79.3844Z" fill="#863F3B"/>
<path d="M96.5153 77.6036C96.3715 78.8806 94.2236 79.684 91.7171 79.3996C90.9341 79.3158 90.1674 79.119 89.4408 78.8153C89.4408 78.7323 89.4298 78.6482 89.4231 78.5641C89.3597 77.3456 89.4008 76.1238 89.546 74.9123C90.4301 74.7104 91.3427 74.664 92.2427 74.7751C94.747 75.0617 96.6625 76.3266 96.5153 77.6036Z" fill="#863F3B"/>
<path d="M102.491 75.9758C102.077 76.7725 102.218 78.148 103.708 77.3579C103.708 77.3579 104.96 78.9459 106.574 77.1985C106.574 77.1985 107.979 78.1082 107.661 76.3133C107.343 74.5184 103.246 74.5261 102.491 75.9758Z" fill="#863F3B"/>
<g style="mix-blend-mode:screen" opacity="0.5">
<g style="mix-blend-mode:screen" opacity="0.5">
<path d="M106.116 75.8839C106.105 75.6139 105.592 75.4147 104.969 75.4413C104.346 75.4678 103.851 75.7058 103.862 75.9769C103.873 76.248 104.387 76.4461 105.01 76.4195C105.633 76.393 106.123 76.155 106.116 75.8839Z" fill="#863F3B"/>
</g>
</g>
<path d="M135.016 107.212L135.411 108.013L135.789 108.799C136.038 109.322 136.279 109.848 136.519 110.373C136.997 111.425 137.462 112.483 137.915 113.547C138.818 115.678 139.653 117.848 140.421 120.056C140.803 121.163 141.166 122.285 141.496 123.427C141.827 124.569 142.117 125.736 142.357 126.945C142.62 128.2 142.783 129.474 142.844 130.755C142.876 131.48 142.844 132.207 142.75 132.927C142.64 133.702 142.457 134.559 141.936 135.496C141.868 135.607 141.801 135.729 141.73 135.842C141.659 135.955 141.564 136.074 141.478 136.188L141.346 136.356L141.194 136.521C141.091 136.632 140.987 136.742 140.878 136.839C140.65 137.042 140.404 137.224 140.143 137.383C140.014 137.46 139.881 137.54 139.748 137.604C139.615 137.669 139.479 137.724 139.343 137.779C139.212 137.834 139.078 137.879 138.941 137.915C138.808 137.954 138.675 137.99 138.54 138.026C138.405 138.063 138.286 138.069 138.159 138.089L137.969 138.116L137.88 138.127H137.824L136.926 138.183C136.628 138.2 136.324 138.226 136.032 138.233L135.147 138.261C134.853 138.268 134.559 138.281 134.268 138.285H133.397C131.073 138.301 128.787 138.233 126.504 138.131C124.221 138.029 121.948 137.872 119.68 137.705C118.544 137.621 117.411 137.518 116.279 137.416C115.147 137.315 114.018 137.205 112.876 137.078C112.447 137.031 112.053 136.822 111.773 136.493C111.494 136.164 111.351 135.74 111.374 135.309C111.398 134.878 111.585 134.473 111.898 134.176C112.211 133.879 112.626 133.713 113.058 133.713H113.078L116.447 133.719L119.821 133.703C122.069 133.695 124.313 133.662 126.552 133.602C128.789 133.549 131.019 133.458 133.217 133.315L134.041 133.261C134.315 133.242 134.583 133.213 134.855 133.191L135.667 133.118C135.938 133.096 136.196 133.056 136.461 133.026L137.253 132.93H137.301C137.318 132.93 137.311 132.93 137.318 132.93L137.336 132.922C137.347 132.919 137.36 132.916 137.372 132.916C137.372 132.909 137.372 132.906 137.379 132.904C137.385 132.901 137.386 132.904 137.379 132.904C137.376 132.902 137.373 132.901 137.37 132.901C137.367 132.901 137.365 132.902 137.362 132.904C137.362 132.904 137.34 132.904 137.332 132.911C137.325 132.919 137.286 132.925 137.275 132.948C137.265 132.948 137.256 132.948 137.25 132.959C137.247 132.962 137.245 132.966 137.244 132.97H137.237C137.235 132.962 137.235 132.954 137.237 132.946C137.308 132.731 137.348 132.508 137.359 132.282C137.385 131.878 137.379 131.473 137.341 131.07C137.241 130.096 137.065 129.13 136.817 128.183C136.566 127.187 136.254 126.169 135.915 125.155C135.575 124.142 135.209 123.12 134.817 122.104C134.032 120.072 133.157 118.052 132.237 116.045C131.782 115.041 131.312 114.041 130.83 113.046L130.101 111.561L129.733 110.824L129.369 110.11L129.344 110.059C128.989 109.313 128.94 108.458 129.206 107.676C129.472 106.894 130.033 106.246 130.769 105.872C131.505 105.497 132.359 105.424 133.148 105.669C133.937 105.913 134.599 106.456 134.994 107.182L135.016 107.212Z" fill="#A04F48"/>
<path d="M111.622 137.249C111.407 137.116 111.147 136.966 110.903 136.827C110.66 136.687 110.406 136.548 110.155 136.412C109.653 136.14 109.145 135.879 108.636 135.637C108.127 135.395 107.616 135.166 107.108 134.966C106.627 134.772 106.134 134.612 105.63 134.489C105.572 134.475 105.516 134.463 105.461 134.453L105.378 134.436H105.359L105.369 134.43C105.381 134.413 105.336 134.399 105.267 134.4C105.066 134.415 104.869 134.461 104.681 134.535C104.182 134.724 103.7 134.957 103.242 135.232C102.247 135.822 101.293 136.478 100.385 137.196L100.369 137.211C100.235 137.316 100.068 137.368 99.8986 137.356C99.7294 137.345 99.5702 137.272 99.4519 137.15C99.3336 137.029 99.2646 136.867 99.2581 136.698C99.2516 136.528 99.3082 136.363 99.4168 136.232C100.203 135.268 101.053 134.358 101.962 133.509C102.447 133.053 102.972 132.64 103.529 132.275C103.863 132.056 104.223 131.88 104.601 131.749C104.854 131.664 105.117 131.613 105.384 131.598H105.505H105.603H105.742C105.837 131.598 105.928 131.607 106.018 131.613C106.693 131.671 107.364 131.78 108.023 131.939C108.658 132.085 109.271 132.256 109.873 132.443C110.475 132.63 111.069 132.832 111.657 133.045C111.95 133.156 112.242 133.267 112.534 133.377C112.827 133.488 113.108 133.599 113.42 133.739L113.446 133.75C113.688 133.851 113.908 133.999 114.092 134.185C114.276 134.372 114.422 134.593 114.52 134.836C114.618 135.079 114.668 135.339 114.665 135.601C114.662 135.863 114.607 136.122 114.503 136.363C114.4 136.603 114.249 136.821 114.061 137.004C113.873 137.186 113.65 137.329 113.406 137.425C113.162 137.52 112.901 137.566 112.639 137.561C112.377 137.555 112.119 137.497 111.879 137.391C111.79 137.35 111.704 137.302 111.622 137.249Z" fill="#A04F48"/>
<g style="mix-blend-mode:multiply" opacity="0.4">
<g style="mix-blend-mode:multiply" opacity="0.4">
<path d="M137.456 112.352C137.1 111.527 136.891 111.191 136.519 110.373C136.279 109.848 136.038 109.322 135.789 108.799L135.411 108.013L135.016 107.212L134.996 107.173C134.601 106.447 133.939 105.904 133.15 105.66C132.361 105.415 131.507 105.488 130.771 105.863C130.035 106.238 129.474 106.885 129.208 107.667C128.942 108.449 128.991 109.304 129.346 110.05L129.371 110.101L129.735 110.815L130.103 111.553L130.832 113.037C131.005 113.393 131.438 114.329 131.607 114.687C133.509 114.253 135.509 113.205 137.456 112.352Z" fill="#A04F48"/>
</g>
<g style="mix-blend-mode:multiply" opacity="0.4">
<path d="M137.236 132.967H137.243C137.244 132.963 137.246 132.959 137.249 132.956C137.249 132.949 137.264 132.948 137.274 132.945C137.277 132.94 137.28 132.935 137.285 132.932H137.255H137.237C137.234 132.938 137.233 132.944 137.232 132.95C137.232 132.956 137.233 132.962 137.236 132.967Z" fill="#A04F48"/>
</g>
</g>
<path d="M136.741 108.43C136.695 108.354 136.645 108.274 136.592 108.19C134.901 105.505 130.533 99.1048 127.119 98.6732C126.688 98.6123 126.248 98.6661 125.845 98.8292C123.514 99.7942 121.887 104.924 129.372 112.662C129.516 112.812 129.665 112.962 129.815 113.113L129.926 113.224C130.076 113.373 130.231 113.524 130.388 113.674L130.61 113.889C130.61 113.889 135.547 112.552 137.298 109.362C137.298 109.362 137.216 109.22 137.064 108.968L136.741 108.43Z" fill="#FFA395"/>
<path d="M186.399 133.168H158.28C157.999 133.167 157.723 133.242 157.481 133.385C157.239 133.528 157.04 133.734 156.906 133.981C157.216 134.039 157.52 134.125 157.815 134.237C159.265 134.79 160.26 135.936 160.26 137.254C160.26 138.572 159.264 139.716 157.815 140.27C157.521 140.384 157.216 140.469 156.906 140.526C157.04 140.773 157.239 140.979 157.481 141.123C157.723 141.266 157.999 141.341 158.28 141.34H186.399C186.606 141.341 186.811 141.3 187.002 141.221C187.193 141.142 187.366 141.026 187.513 140.879C187.659 140.733 187.775 140.56 187.854 140.368C187.933 140.177 187.974 139.973 187.974 139.766V134.742C187.974 134.535 187.933 134.33 187.854 134.139C187.775 133.948 187.659 133.774 187.513 133.628C187.366 133.482 187.193 133.366 187.002 133.287C186.81 133.208 186.606 133.168 186.399 133.168Z" fill="#FFB159"/>
<path d="M181.577 135.254V139.254C181.577 139.525 181.469 139.783 181.278 139.974C181.087 140.165 180.828 140.273 180.558 140.274H157.904C157.874 140.275 157.845 140.275 157.815 140.274C159.265 139.72 159.193 138.753 159.193 137.435C159.193 136.117 159.265 134.795 157.815 134.24C157.845 134.239 157.874 134.239 157.904 134.24H180.558C180.827 134.241 181.085 134.348 181.276 134.538C181.467 134.727 181.575 134.985 181.577 135.254Z" fill="#D3BDBE"/>
<path d="M178.736 129.083C178.736 127.755 179.694 126.616 181.087 126.062C181.592 125.863 181.695 125.73 182.288 125.706C182.011 125.274 181.979 124.996 181.425 124.996H153.306C153.099 124.996 152.894 125.036 152.703 125.115C152.512 125.195 152.339 125.311 152.193 125.457C152.046 125.603 151.931 125.777 151.852 125.968C151.773 126.159 151.732 126.364 151.732 126.571V131.595C151.732 131.801 151.773 132.006 151.852 132.197C151.931 132.388 152.047 132.561 152.193 132.708C152.339 132.854 152.513 132.97 152.704 133.049C152.895 133.128 153.099 133.168 153.306 133.168H181.425C181.978 133.168 182.011 132.89 182.288 132.458C181.695 132.432 181.592 132.302 181.087 132.102C179.694 131.548 178.736 130.404 178.736 129.083Z" fill="#4D4CAC"/>
<path d="M181.087 132.102H159.148C158.877 132.102 158.618 131.994 158.427 131.803C158.236 131.612 158.128 131.353 158.127 131.082V127.082C158.128 126.811 158.236 126.552 158.427 126.361C158.618 126.17 158.877 126.062 159.148 126.062H181.087C179.694 126.615 179.801 127.943 179.801 129.26C179.801 130.576 179.694 131.548 181.087 132.102Z" fill="#D3BDBE"/>
<path d="M159.727 136.943C164.656 137.053 169.586 137.033 174.517 137.053C175.032 137.053 175.032 136.256 174.517 136.254C169.586 136.24 164.656 136.254 159.727 136.144C159.212 136.133 159.212 136.932 159.727 136.943Z" fill="#E1D2D3"/>
<path d="M165.023 139.479C169.94 139.632 174.859 139.665 179.779 139.58C180.293 139.571 180.294 138.771 179.779 138.78C174.859 138.866 169.94 138.832 165.023 138.679C164.508 138.663 164.509 139.462 165.023 139.479Z" fill="#E1D2D3"/>
<path d="M159.873 128.062C165.6 128.112 171.326 128.108 177.051 128.051C177.566 128.046 177.556 127.247 177.04 127.251C171.315 127.309 165.589 127.313 159.863 127.263C159.348 127.263 159.358 128.058 159.873 128.062Z" fill="#E1D2D3"/>
<path d="M166.444 130.247C170.839 130.381 175.229 130.279 179.623 130.198C180.138 130.188 180.139 129.389 179.623 129.398C175.229 129.479 170.839 129.582 166.444 129.447C165.929 129.431 165.93 130.23 166.444 130.247Z" fill="#E1D2D3"/>
<path d="M184.679 121.403C184.679 120.081 185.583 118.297 187.095 118.297C188.266 118.297 187.954 117.317 187.395 117.317H159.011C158.803 117.316 158.597 117.356 158.405 117.434C158.212 117.513 158.037 117.628 157.89 117.775C157.742 117.921 157.625 118.095 157.544 118.286C157.464 118.478 157.422 118.683 157.421 118.891V123.915C157.422 124.123 157.464 124.328 157.544 124.52C157.624 124.711 157.742 124.885 157.889 125.032C158.037 125.178 158.212 125.294 158.404 125.372C158.597 125.451 158.803 125.491 159.011 125.489H187.395C187.948 125.489 188.071 124.347 187.054 124.423C185.547 124.534 184.679 122.722 184.679 121.403Z" fill="#985BC0"/>
<path d="M187.29 124.466L160.19 124.543C159.482 124.543 158.904 124.075 158.904 123.503V119.424C158.904 118.852 159.482 118.385 160.19 118.385L187.29 118.297C186.119 118.893 185.923 120.333 185.923 121.679C185.923 123.026 185.923 124.466 187.29 124.466Z" fill="#D3BDBE"/>
<path d="M159.957 120.315C166.913 120.41 173.872 120.452 180.833 120.44C181.458 120.44 181.453 119.64 180.827 119.641C173.868 119.653 166.909 119.611 159.951 119.515C159.326 119.507 159.331 120.306 159.951 120.315H159.957Z" fill="#E1D2D3"/>
<path d="M168.62 122.952C173.961 123.087 179.297 122.984 184.637 122.903C185.261 122.894 185.263 122.094 184.637 122.104C179.297 122.185 173.961 122.287 168.62 122.153C167.995 122.136 167.995 122.936 168.62 122.952Z" fill="#E1D2D3"/>
<path d="M153.964 140.964H145.511L144.045 128.223H155.172L153.964 140.964Z" fill="#C8E6E4"/>
<path d="M155.172 128.351C155.172 129.378 152.681 130.136 149.609 130.136C146.537 130.136 144.045 129.304 144.045 128.276C144.045 127.248 146.536 126.417 149.609 126.417C152.682 126.417 155.172 127.323 155.172 128.351Z" fill="#C8E6E4"/>
<path d="M151.257 136.478L147.375 136.394L148.268 122.567L150.588 122.71L151.257 136.478Z" fill="#FF5C1D"/>
<g style="mix-blend-mode:multiply" opacity="0.4">
<g style="mix-blend-mode:multiply" opacity="0.4">
<path d="M150.588 122.71L148.272 122.567C149.521 124.397 150.96 127.192 149.398 129.343C148.927 129.98 148.362 130.542 147.722 131.009L147.375 136.394L151.257 136.478L150.588 122.71Z" fill="#AF6CF6"/>
</g>
</g>
<g style="mix-blend-mode:multiply" opacity="0.2">
<g style="mix-blend-mode:multiply" opacity="0.2">
<path d="M148.272 122.567L148.171 124.128C148.783 124.706 149.355 125.567 149.057 126.543C148.846 127.259 148.446 127.905 147.899 128.413L147.731 131.009C148.371 130.542 148.936 129.98 149.406 129.343C150.96 127.192 149.521 124.397 148.272 122.567Z" fill="#AF6CF6"/>
</g>
</g>
<path d="M148.268 122.567L149.038 119.997L149.425 118.704L149.805 120.01L150.588 122.71L148.268 122.567Z" fill="#FADC8A"/>
<path d="M149.038 119.997L149.425 118.704L149.805 120.01L149.038 119.997Z" fill="black"/>
<path d="M147.375 136.374C147.385 135.938 148.26 135.61 149.332 135.642C150.405 135.675 151.265 136.055 151.257 136.491C151.248 136.927 150.371 137.256 149.299 137.223C148.227 137.189 147.366 136.811 147.375 136.374Z" fill="#F89EDA"/>
<path d="M148.925 136.466C148.925 136.363 149.084 136.284 149.277 136.291C149.469 136.298 149.622 136.384 149.62 136.487C149.618 136.59 149.461 136.668 149.269 136.663C149.078 136.657 148.923 136.569 148.925 136.466Z" fill="black"/>
<path d="M153.928 129.417C153.143 132.612 152.175 134.98 152.585 135.126C152.994 135.272 153.962 132.802 154.748 129.605C155.534 126.408 155.838 123.702 155.428 123.556C155.019 123.41 154.712 126.222 153.928 129.417Z" fill="#6A3688"/>
<path d="M143.699 122.84L147.562 122.375L148.025 136.232L145.707 136.418L143.699 122.84Z" fill="#FF9420"/>
<path d="M151.231 123.366L154.985 124.561L150.575 139.302L149.184 138.929L151.231 123.366Z" fill="#FF356B"/>
<path d="M148.025 136.232L147.511 138.893L147.252 140.232L146.748 138.989L145.707 136.418L148.025 136.232Z" fill="#FADC8A"/>
<path d="M147.511 138.893L147.252 140.232L146.748 138.989L147.511 138.893Z" fill="black"/>
<g style="mix-blend-mode:multiply" opacity="0.2">
<g style="mix-blend-mode:multiply" opacity="0.2">
<path d="M143.913 124.297L144.231 126.438C145.884 128.063 146.535 130.92 145.227 133.188L145.559 135.401C146.309 134.68 146.9 133.835 146.959 132.707C147.067 129.701 146.363 125.73 143.913 124.297Z" fill="#FF9420"/>
</g>
</g>
<g style="mix-blend-mode:multiply" opacity="0.4">
<g style="mix-blend-mode:multiply" opacity="0.4">
<path d="M147.562 122.374L143.699 122.84L143.913 124.297C146.363 125.735 147.064 129.701 146.955 132.707C146.897 133.835 146.306 134.68 145.555 135.401L145.707 136.423L148.031 136.237L147.562 122.374Z" fill="#FF9420"/>
</g>
</g>
<path d="M147.563 122.39C147.596 122.825 146.758 123.275 145.69 123.394C144.623 123.512 143.731 123.257 143.699 122.823C143.666 122.388 144.503 121.937 145.57 121.819C146.637 121.7 147.53 121.959 147.563 122.39Z" fill="#FADC8A"/>
<g style="mix-blend-mode:multiply" opacity="0.4">
<g style="mix-blend-mode:multiply" opacity="0.4">
<path d="M139.117 39.572C135.977 44.5782 128.361 44.7597 122.314 42.6218C116.338 40.5137 110.929 35.1356 111.527 29.2485C112.766 29.0763 114.018 29.01 115.268 29.0504C127.812 29.5683 135.015 34.0113 139.117 39.572Z" fill="#240A3A"/>
</g>
</g>
<path d="M146.015 122.523C146.022 122.624 145.874 122.725 145.683 122.744C145.491 122.763 145.33 122.7 145.322 122.598C145.314 122.496 145.462 122.395 145.654 122.377C145.845 122.358 146.007 122.42 146.015 122.523Z" fill="black"/>
<path d="M149.57 140.603C150.111 140.789 150.575 139.302 150.575 139.302L149.184 138.929C149.184 138.929 149.1 140.442 149.57 140.603Z" fill="#FF6072"/>
<path d="M152.11 133.207L150.282 132.654C149.839 132.521 149.561 131.99 149.649 131.455L150.849 124.028C150.945 123.444 151.427 123.078 151.905 123.226L154.419 124.001C154.895 124.148 155.172 124.747 155.023 125.311L153.136 132.504C152.999 133.036 152.55 133.339 152.11 133.207Z" fill="#6A3688"/>
<g style="mix-blend-mode:multiply" opacity="0.4">
<g style="mix-blend-mode:multiply" opacity="0.4">
<path d="M154.419 124.009L153.02 123.575C153.424 124.994 153.537 126.479 153.352 127.943C153.12 129.343 152.306 130.183 151.375 130.882C151.127 131.026 150.846 131.103 150.56 131.105C150.273 131.106 149.991 131.033 149.742 130.892L149.65 131.458C149.562 131.997 149.84 132.524 150.283 132.657L152.111 133.21C152.554 133.342 152.996 133.04 153.137 132.52L155.025 125.327C155.172 124.755 154.895 124.16 154.419 124.009Z" fill="#2A438A"/>
</g>
</g>
<g style="mix-blend-mode:multiply" opacity="0.2">
<g style="mix-blend-mode:multiply" opacity="0.2">
<path d="M153.02 123.575L152.372 123.374C152.63 125.18 153.368 127.596 151.487 128.223C151.051 128.371 150.594 128.446 150.133 128.444L149.737 130.896C149.987 131.037 150.269 131.111 150.555 131.109C150.842 131.107 151.123 131.03 151.371 130.886C152.301 130.187 153.116 129.347 153.348 127.947C153.535 126.483 153.424 124.995 153.02 123.575Z" fill="#2A438A"/>
</g>
</g>
<g opacity="0.49">
<path opacity="0.49" d="M155.172 128.223H155.157C155.157 128.242 155.164 128.261 155.166 128.28L155.172 128.223Z" fill="#C8E6E4"/>
</g>
<g opacity="0.49">
<path opacity="0.49" d="M144.049 128.223V128.245C144.048 128.238 144.049 128.23 144.049 128.223Z" fill="#C8E6E4"/>
</g>
<g opacity="0.74">
<path opacity="0.74" d="M153.964 140.964H145.511L144.045 128.223H155.172L153.964 140.964Z" fill="#C8E6E4"/>
</g>
<path d="M114.354 80.6124C114.377 80.9344 114.398 81.2609 114.402 81.5829C114.402 81.7268 114.402 81.8717 114.402 82.0123C114.402 82.354 114.377 82.6953 114.329 83.0337C114.25 83.5807 114.106 84.1163 113.9 84.6294C113.662 85.2234 113.326 85.7727 112.904 86.2539C111.755 87.5431 109.93 88.2867 108.099 88.4671C107.06 88.5665 106.011 88.4973 104.994 88.2623C103.788 87.9941 102.649 87.4803 101.65 86.753C100.649 86.0171 99.8658 85.0246 99.3825 83.8802C99.3449 83.795 99.3084 83.7065 99.2719 83.6191C99.1867 83.3977 99.1125 83.1698 99.0506 82.9385C99.0054 82.7815 98.9988 82.6159 99.0314 82.4559C99.064 82.2958 99.1347 82.1459 99.2376 82.0191C99.3405 81.8922 99.4724 81.792 99.6223 81.727C99.7722 81.6621 99.9356 81.6343 100.098 81.646C105.037 82.0145 108.582 81.5896 112.952 79.7548C113.1 79.6926 113.26 79.6665 113.42 79.6786C113.58 79.6907 113.735 79.7407 113.872 79.8245C114.009 79.9083 114.124 80.0234 114.208 80.1604C114.292 80.2974 114.342 80.4523 114.354 80.6124Z" fill="#7F332F"/>
<g style="mix-blend-mode:multiply" opacity="0.4">
<g style="mix-blend-mode:multiply" opacity="0.4">
<path d="M114.394 82.3763C114.394 82.2568 114.404 82.1362 114.405 82.0123C114.406 81.8883 114.405 81.7268 114.405 81.5829C114.405 81.2609 114.379 80.9344 114.356 80.6124C114.344 80.4521 114.294 80.2969 114.211 80.1596C114.127 80.0223 114.012 79.907 113.875 79.8231C113.738 79.7391 113.582 79.6891 113.422 79.677C113.262 79.665 113.101 79.6912 112.953 79.7537C108.583 81.5884 105.038 82.0134 100.1 81.6449C99.9367 81.6332 99.7733 81.661 99.6235 81.7259C99.4736 81.7909 99.3416 81.8911 99.2387 82.0179C99.1358 82.1448 99.0651 82.2947 99.0325 82.4547C99 82.6148 99.0065 82.7804 99.0517 82.9374C99.1181 83.1687 99.1922 83.3944 99.273 83.6179C99.3062 83.7054 99.3427 83.7939 99.3837 83.8791C99.4802 84.1028 99.5881 84.3214 99.7068 84.5342C104.477 85.9429 110.468 85.5069 114.394 82.3763Z" fill="#7F332F"/>
</g>
</g>
<path d="M114.354 80.6124C114.377 80.9344 114.398 81.2609 114.402 81.5829C112.906 82.331 110.401 83.6002 107.229 83.9588C104.579 84.2654 101.896 84.1504 99.2807 83.6179C99.1955 83.3966 99.1214 83.1687 99.0594 82.9374C99.0143 82.7804 99.0077 82.6148 99.0403 82.4547C99.0729 82.2947 99.1436 82.1448 99.2465 82.0179C99.3493 81.891 99.4813 81.7909 99.6312 81.7259C99.7811 81.661 99.9444 81.6332 100.107 81.6449C105.046 82.0134 108.591 81.5884 112.961 79.7537C113.108 79.6932 113.268 79.6685 113.427 79.6816C113.586 79.6946 113.74 79.745 113.876 79.8288C114.011 79.9125 114.125 80.0271 114.209 80.1633C114.292 80.2995 114.341 80.4533 114.354 80.6124Z" fill="white"/>
<g style="mix-blend-mode:multiply" opacity="0.2">
<g style="mix-blend-mode:multiply" opacity="0.2">
<path d="M111.915 86.5704C112.318 86.4468 112.704 86.2732 113.065 86.0536C113.412 85.6221 113.694 85.1423 113.902 84.6294C114.108 84.1163 114.252 83.5807 114.332 83.0337C114.364 82.8158 114.384 82.5964 114.394 82.3763C110.468 85.5069 104.477 85.9429 99.7057 84.5342C100.186 85.4033 100.849 86.1583 101.649 86.7474C101.88 86.9172 102.119 87.0753 102.366 87.221C105.37 85.4295 108.792 87.3228 111.915 86.5704Z" fill="#7F332F"/>
</g>
</g>
<path d="M113.902 84.6294C113.665 85.2233 113.328 85.7726 112.906 86.2538C111.758 87.543 109.932 88.2867 108.101 88.467C107.062 88.5664 106.014 88.4973 104.996 88.2623C104.947 86.6179 107.263 84.3759 109.651 84.107C111.198 83.9289 112.85 84.0761 113.902 84.6294Z" fill="#C22005"/>
<path d="M104.309 98.7474L106.215 112.775L109.131 112.802L108.976 97.9229L104.309 98.7474Z" fill="#4D4CAC"/>
<g style="mix-blend-mode:multiply" opacity="0.4">
<g style="mix-blend-mode:multiply" opacity="0.4">
<path d="M124.921 99.4832C123.939 100.479 124.714 103.135 129.372 112.652C129.464 112.839 129.666 112.953 129.815 113.104C130.073 113.36 130.339 113.62 130.615 113.879C130.615 113.879 134.223 112.902 136.369 110.627C130.997 108.983 126.366 104.947 124.921 99.4832Z" fill="#FFA395"/>
</g>
</g>
<path d="M125.788 98.09L124.565 113.045L121.657 113.269L120.748 97.2136L125.788 98.09Z" fill="#4D4CAC"/>
<path d="M115.168 128.166C113.473 128.166 112.085 127.58 111.045 126.422C108.346 123.42 108.896 117.656 108.92 117.412L108.945 117.177H121.117L121.15 117.398C121.187 117.638 122 123.327 119.408 126.354C118.381 127.557 116.953 128.166 115.168 128.166ZM109.42 117.7C109.349 118.807 109.184 123.572 111.432 126.073C112.37 127.115 113.627 127.643 115.168 127.643C116.795 127.643 118.09 127.09 119.016 126.014C121.178 123.491 120.786 118.778 120.667 117.7H109.42Z" fill="#E05C2A"/>
<path d="M107.429 115.197C107.158 115.197 106.894 115.117 106.669 114.967C106.444 114.817 106.269 114.604 106.165 114.354C106.062 114.104 106.034 113.829 106.087 113.564C106.14 113.299 106.27 113.055 106.461 112.864C106.652 112.673 106.896 112.543 107.161 112.49C107.426 112.437 107.701 112.464 107.951 112.568C108.201 112.671 108.414 112.847 108.564 113.072C108.714 113.297 108.794 113.561 108.794 113.831C108.794 114.193 108.65 114.541 108.394 114.797C108.138 115.053 107.791 115.197 107.429 115.197ZM107.429 112.921C107.248 112.921 107.072 112.974 106.923 113.074C106.773 113.174 106.656 113.316 106.587 113.483C106.518 113.649 106.5 113.832 106.535 114.009C106.571 114.186 106.657 114.348 106.785 114.475C106.912 114.603 107.074 114.689 107.251 114.725C107.428 114.76 107.611 114.742 107.777 114.673C107.944 114.604 108.086 114.487 108.186 114.337C108.286 114.188 108.339 114.012 108.339 113.831C108.339 113.59 108.243 113.358 108.072 113.188C107.902 113.017 107.67 112.921 107.429 112.921Z" fill="#E05C2A"/>
<path d="M123.298 115.197C123.028 115.197 122.764 115.117 122.539 114.967C122.314 114.816 122.139 114.603 122.036 114.353C121.932 114.103 121.905 113.828 121.958 113.563C122.011 113.298 122.141 113.055 122.332 112.864C122.524 112.672 122.767 112.542 123.032 112.49C123.298 112.437 123.572 112.464 123.822 112.568C124.072 112.672 124.285 112.847 124.435 113.072C124.585 113.297 124.665 113.561 124.665 113.831C124.664 114.194 124.52 114.541 124.264 114.797C124.008 115.053 123.661 115.197 123.298 115.197ZM123.298 112.921C123.118 112.921 122.942 112.974 122.792 113.074C122.643 113.174 122.526 113.316 122.457 113.483C122.388 113.649 122.37 113.832 122.405 114.009C122.44 114.186 122.527 114.348 122.654 114.475C122.782 114.603 122.944 114.689 123.121 114.725C123.297 114.76 123.48 114.742 123.647 114.673C123.813 114.604 123.956 114.487 124.056 114.337C124.156 114.188 124.209 114.012 124.209 113.831C124.209 113.59 124.113 113.358 123.942 113.187C123.772 113.017 123.54 112.921 123.298 112.921Z" fill="#E05C2A"/>
<path d="M111.852 30.0685C109.71 28.9565 107.246 28.6296 104.888 29.1445C103.056 29.5495 100.52 30.6738 100.339 32.8394C100.242 33.9881 101.439 35.4289 100.228 36.2887C99.7621 36.6207 99.1789 36.7601 98.6378 36.9139C97.9546 37.108 97.2686 37.2883 96.5795 37.4551C94.218 38.0261 91.2479 38.14 89.4973 40.0611C88.768 40.8634 88.3365 41.9357 88.5877 43.0212C88.809 43.9973 89.5371 44.8383 90.543 45.0253C90.5253 44.8914 90.5076 44.7575 90.491 44.6247C89.4154 45.2101 88.3376 45.7922 87.2653 46.382C86.4818 46.8136 85.674 47.2883 85.0997 47.9899C83.8724 49.4882 84.5464 51.3097 85.7857 52.5568C85.9553 52.7258 86.1333 52.8861 86.3191 53.0371C86.4685 53.1577 86.9089 53.4111 86.9632 53.6147C87.0329 53.877 86.7795 54.2189 86.598 54.355C86.5128 54.4203 86.4254 54.4834 86.3379 54.5476C86.1476 54.6903 85.9573 54.832 85.7714 54.9803C85.1362 55.4871 84.4977 56.0869 84.2221 56.8703C83.6235 58.5988 85.1163 59.8913 86.1266 61.0632C86.4922 61.4801 86.8007 61.9438 87.044 62.4421C87.2963 62.9644 87.5032 63.5188 87.8451 63.9913C88.3663 64.7117 89.245 65.2351 90.1402 64.9319C90.4058 64.8412 90.2918 64.4173 90.0296 64.5092C88.944 64.8766 88.1838 63.8209 87.7765 62.9732C87.4025 62.1986 87.0561 61.4727 86.4929 60.812C85.4704 59.6136 83.7994 58.2027 84.8972 56.4963C85.3719 55.7582 86.1332 55.2481 86.8226 54.7257C87.3383 54.3373 87.7278 53.8615 87.2465 53.2573C87.0041 52.9541 86.6478 52.7449 86.3612 52.4827C85.9697 52.1404 85.6288 51.7444 85.3486 51.3064C84.8219 50.4543 84.6725 49.4384 85.2236 48.5576C85.7437 47.7265 86.6522 47.2108 87.4899 46.7505C88.5622 46.1596 89.64 45.5775 90.7157 44.9921C90.8728 44.9058 90.8507 44.6258 90.6625 44.5915C89.6201 44.3979 88.9573 43.3964 88.9517 42.3672C88.9451 41.2263 89.7518 40.2459 90.6537 39.6384C91.6286 38.98 92.8027 38.7 93.9381 38.4643C95.1719 38.2075 96.4025 37.9508 97.623 37.6332C99.1867 37.2249 101.673 36.8055 101.146 34.6266C101.019 34.1032 100.777 33.6052 100.769 33.0585C100.761 32.4698 101.021 31.921 101.391 31.475C102.065 30.6594 103.041 30.1559 104.029 29.8262C105.273 29.4174 106.586 29.2608 107.891 29.3655C109.196 29.4702 110.468 29.8341 111.63 30.4359C111.88 30.5654 112.103 30.1869 111.852 30.0574V30.0685Z" fill="#150623"/>
<path d="M114.224 32.7044C111.752 32.3857 109.11 32.0681 106.747 33.0784C104.937 33.8531 103.328 35.8826 104.534 37.8468C104.789 38.2451 105.104 38.6019 105.468 38.9047C105.66 39.0718 105.942 39.2223 106.103 39.4204C106.175 39.5225 106.224 39.6387 106.248 39.7613C106.272 39.884 106.27 40.0103 106.241 40.1319C106.177 40.3101 105.799 40.486 105.641 40.6C104.655 41.2994 103.56 41.8173 102.48 42.3562C101.927 42.6317 101.373 42.9095 100.832 43.2226C100.435 43.455 99.9812 43.7273 99.7875 44.1677C99.3748 45.1039 100.461 45.8597 101.034 46.4119C101.476 46.8335 102.513 47.5317 102.333 48.2211C102.16 48.8851 101.181 49.3156 100.657 49.6597C99.6857 50.2894 98.412 50.8703 97.9395 51.9991C97.8289 52.2591 98.2549 52.372 98.3622 52.1153C98.5913 51.5686 99.0682 51.2211 99.5463 50.898C100.139 50.503 100.743 50.1234 101.34 49.7339C101.969 49.3266 102.92 48.791 102.805 47.9002C102.754 47.5129 102.489 47.2141 102.223 46.9497C101.763 46.4915 101.287 46.0478 100.82 45.5963C100.267 45.0585 99.8097 44.4786 100.617 43.8755C101.097 43.517 101.67 43.2547 102.201 42.9847C103.25 42.4524 104.327 41.9655 105.325 41.3381C105.878 40.9895 107.105 40.3831 106.751 39.5565C106.59 39.1791 106.214 38.9545 105.909 38.7044C105.447 38.3259 105.005 37.8833 104.755 37.3311C104.18 36.0641 104.947 34.7085 105.999 33.9814C108.354 32.3525 111.564 32.8007 114.226 33.1426C114.505 33.1791 114.503 32.7398 114.226 32.7L114.224 32.7044Z" fill="#150623"/>
<path d="M121.543 34.1939C119.662 33.8564 117.329 35.0526 116.699 36.9128C115.972 39.0629 118.194 40.0888 119.734 40.8435C120.231 41.0858 121.221 41.4975 121.126 42.1714C121.041 42.78 120.171 43.3012 119.745 43.662L118.314 44.8693C117.864 45.2499 117.328 45.614 116.976 46.0954C116.494 46.7593 116.671 47.5207 117.295 48.0153C118.081 48.6383 119.797 48.5033 120.087 49.631C120.26 50.3027 119.401 51.1547 119.037 51.6782C118.78 52.0478 118.262 52.5513 118.289 53.047C118.308 53.462 118.674 53.711 119.011 53.8725C119.632 54.1555 120.289 54.3499 120.963 54.4502C121.239 54.4956 121.358 54.0728 121.074 54.0275C120.551 53.9451 120.037 53.8098 119.541 53.6236C119.16 53.4775 118.967 53.452 118.887 53.0404C118.824 52.7084 118.818 52.7538 118.976 52.5236C119.079 52.3761 119.183 52.2285 119.287 52.081C119.609 51.6173 119.951 51.1625 120.254 50.6867C120.457 50.3691 120.609 50.0293 120.546 49.6442C120.436 48.9382 119.772 48.5177 119.15 48.2986C118.686 48.1359 118.176 48.0629 117.751 47.8051C117.079 47.3989 116.959 46.7372 117.494 46.1573C118.24 45.3506 119.209 44.6834 120.049 43.9751C120.603 43.5059 121.548 42.9128 121.572 42.0862C121.596 41.2595 120.647 40.8125 120.034 40.5059C119.182 40.0799 118.227 39.7612 117.565 39.0419C115.484 36.7778 119.32 34.2426 121.417 34.6155C121.693 34.6642 121.811 34.2415 121.528 34.1917L121.543 34.1939Z" fill="#150623"/>
<path d="M128.818 40.112C129.27 39.7247 129.945 39.8785 130.326 40.2891C130.735 40.7317 130.804 41.4034 130.769 41.9733C130.706 42.9283 130.326 43.8313 129.833 44.638C129.32 45.4713 128.681 46.2149 128.031 46.943C127.478 47.5683 126.717 48.2057 126.337 48.9626C126.032 49.5701 126.235 50.1876 126.765 50.5826C127.419 51.0696 128.258 51.0375 128.953 51.4214C130.257 52.1418 129.048 53.4775 128.704 54.3871C128.4 55.1872 129.202 55.3255 129.802 55.4605C130.355 55.5856 130.923 55.6819 131.489 55.7571C131.773 55.7947 132.572 55.808 132.666 56.1843C132.716 56.3801 132.537 56.6977 132.424 56.8327C132.307 56.9505 132.177 57.0551 132.037 57.1448C131.022 57.8916 129.822 58.3448 128.567 58.455C128.288 58.4804 128.286 58.9198 128.567 58.8976C129.682 58.8047 130.761 58.4587 131.723 57.8862C132.322 57.5243 133.538 56.8283 133.051 55.9674C132.855 55.6265 132.474 55.4727 132.107 55.403C131.45 55.2791 130.779 55.2259 130.126 55.0854C129.772 55.0102 129.101 55.0057 129.148 54.479C129.164 54.2776 129.398 54.0175 129.494 53.836C129.73 53.3934 129.98 52.9165 129.997 52.4052C130.028 51.4546 129.233 50.9866 128.424 50.7597C127.955 50.628 127.448 50.5494 127.048 50.2496C126.273 49.6664 126.826 48.9615 127.314 48.4093C128.661 46.8778 130.236 45.3827 130.92 43.4086C131.269 42.4005 131.443 41.0847 130.787 40.1596C130.267 39.4259 129.215 39.2057 128.517 39.8066C128.302 39.9914 128.614 40.3001 128.827 40.1164L128.818 40.112Z" fill="#150623"/>
<g style="mix-blend-mode:multiply" opacity="0.4">
<g style="mix-blend-mode:multiply" opacity="0.4">
<path d="M123.32 30.0464H123.299C123.267 30.1858 123.237 30.3253 123.21 30.4625C123.253 30.3208 123.288 30.1847 123.32 30.0464Z" fill="#240A3A"/>
</g>
<g style="mix-blend-mode:multiply" opacity="0.4">
<path d="M103.097 38.3702C103.17 38.9634 103.324 39.5437 103.557 40.0943C104.459 42.3695 106.168 44.5683 104.413 47.1422C103.024 49.0445 101.413 50.472 99.6935 51.7689C99.4198 51.9747 99.1446 52.178 98.868 52.3786C97.8056 53.1477 96.7167 53.8914 95.6101 54.6793C94.8449 54.8242 94.0537 54.7315 93.3427 54.4137C92.6273 54.0699 92.0325 53.5179 91.6363 52.8301C91.5589 55.1086 90.7998 57.3218 88.9705 57.7645C88.2833 57.9282 87.4866 57.5431 86.8094 56.763C88.2734 56.0083 89.6057 55.0765 90.5275 53.5782C91.6972 51.6771 90.3815 49.4838 89.2118 47.5838C88.9196 46.9984 88.4814 46.268 88.9196 45.9748C92.4287 43.9287 96.6658 43.9287 99.7389 40.8579C99.8285 40.7749 99.9115 40.6896 99.989 40.6033C101.688 38.7033 100.673 35.9379 101.932 33.8398C102.696 32.6806 103.672 31.6763 104.809 30.8796C106.253 30.3795 107.727 29.9685 109.221 29.6491C105.71 31.33 102.76 34.5469 103.097 38.3702Z" fill="#240A3A"/>
</g>
</g>
<g style="mix-blend-mode:multiply" opacity="0.4">
<g style="mix-blend-mode:multiply" opacity="0.4">
<path d="M140.041 68.7773L140.243 68.8636C140.307 68.5946 140.394 68.3317 140.504 68.0779C140.316 68.287 140.16 68.5226 140.041 68.7773Z" fill="#240A3A"/>
</g>
<g style="mix-blend-mode:multiply" opacity="0.4">
<path d="M146.568 19.3732H146.547C146.515 19.5127 146.485 19.651 146.457 19.7893C146.5 19.6488 146.536 19.5116 146.568 19.3732Z" fill="#240A3A"/>
</g>
<g style="mix-blend-mode:multiply" opacity="0.4">
<path d="M133.655 65.5649C133.773 65.7014 133.889 65.8449 134.004 65.9953C133.931 65.8526 133.86 65.7098 133.791 65.5649H133.655Z" fill="#240A3A"/>
</g>
<g style="mix-blend-mode:multiply" opacity="0.4">
<path d="M134.216 66.4147L134.327 66.4568C134.223 66.2974 134.115 66.1425 134.005 65.9953L134.216 66.4147Z" fill="#240A3A"/>
</g>
<g style="mix-blend-mode:multiply" opacity="0.4">
<path d="M126.345 27.6971C126.637 30.6207 129.854 33.2533 127.661 36.4691C126.222 38.4388 124.548 39.8995 122.759 41.2274C121.1 42.4713 119.334 43.6055 117.572 44.9456C117.129 45.3883 117.129 46.1153 117.426 46.6996C118.503 49.1784 121.726 52.3709 121.179 54.874C121.043 54.9791 120.905 55.0787 120.762 55.1739C119.388 56.0891 117.594 56.5018 116.172 55.6752C115.052 55.0278 114.348 53.7221 114.054 52.3731C113.759 51.0242 113.82 49.6177 113.882 48.2333C113.566 50.5284 112.492 52.715 110.888 54.209C109.811 51.9559 109.246 49.3233 109.106 46.5424C110.933 45.6937 112.647 44.7121 113.771 42.8907C114.397 41.8748 114.311 40.7737 113.917 39.6815C113.575 38.7298 112.999 37.7826 112.455 36.8984C112.163 36.313 111.723 35.5827 112.163 35.2894C115.672 33.2433 119.909 33.2433 122.982 30.1725C125.029 28.2714 123.859 25.3477 125.175 23.1545C125.939 21.995 126.915 20.9902 128.052 20.1932C129.496 19.6947 130.969 19.2848 132.463 18.966C128.957 20.6569 126.007 23.8738 126.345 27.6971Z" fill="#240A3A"/>
</g>
</g>
<g style="mix-blend-mode:multiply" opacity="0.4">
<g style="mix-blend-mode:multiply" opacity="0.4">
<path d="M121.339 27.1238L121.36 27.1305C121.315 27.2666 121.269 27.4005 121.222 27.5333C121.256 27.395 121.295 27.2588 121.339 27.1238Z" fill="#240A3A"/>
</g>
<g style="mix-blend-mode:multiply" opacity="0.4">
<path d="M140.235 59.867C139.227 60.3893 139.479 60.8076 138.666 61.5347C137.879 62.234 137.338 63.0839 137.351 64.1805C137.357 64.6746 137.414 65.1667 137.521 65.649C134.556 66.3506 132.458 68.2705 131.487 69.8209C131.031 68.7821 130.689 67.6968 130.468 66.5841C131.091 66.2892 131.69 65.9466 132.261 65.5594C132.814 65.2086 133.189 64.5811 133.035 63.9802C131.33 59.7165 129.174 56.2064 128.749 51.5177C128.587 48.7125 130.68 47.6192 132.521 46.3411C133.231 45.8486 133.902 45.3285 134.392 44.6723C136.649 41.5738 135.775 37.2913 133.632 34.049C134.748 35.0909 135.8 36.1995 136.782 37.3687C137.347 38.6376 137.668 40.0015 137.727 41.389C137.727 43.9464 135.22 45.853 135.995 48.5354C137.048 52.7483 139.008 51.9205 140.962 55.4827C141.258 55.9153 140.787 59.5118 140.235 59.867Z" fill="#240A3A"/>
</g>
</g>
<path d="M135.116 39.5974C136.606 39.219 137.604 41.3226 138.033 42.4248C138.527 43.6985 138.697 45.1061 138.209 46.4086C137.752 47.617 136.809 48.5742 135.834 49.3864C135.375 49.7671 134.888 50.109 134.417 50.4753C134.035 50.773 133.623 51.1393 133.51 51.6328C133.282 52.6398 134.308 53.171 135.059 53.514C135.739 53.825 136.426 54.1238 137.101 54.4447C137.714 54.7368 138.378 55.0788 138.761 55.6619C139.593 56.9268 138.785 58.4694 138.181 59.6379C137.725 60.5232 137.555 61.4373 138.34 62.1709C138.703 62.5096 139.149 62.7386 139.558 63.0186C140.13 63.3942 140.537 63.9747 140.694 64.6409C141.007 65.7762 140.749 66.8364 140.676 67.9728C140.659 68.255 141.097 68.2539 141.119 67.9728C141.181 67.0057 141.387 66.0916 141.242 65.1123C141.073 63.9681 140.578 63.1547 139.617 62.5295C139.202 62.2595 138.706 62.0116 138.417 61.5955C137.908 60.8641 138.485 60.0463 138.823 59.3735C139.351 58.3222 139.839 57.0363 139.376 55.8744C138.914 54.7125 137.694 54.2278 136.638 53.7475C135.994 53.4543 135.317 53.1942 134.699 52.8479C134.39 52.6741 134.028 52.4362 133.944 52.0644C133.843 51.6217 134.183 51.251 134.487 50.9821C135.469 50.1157 136.576 49.4506 137.447 48.4502C138.222 47.5649 138.782 46.527 138.919 45.3517C139.093 43.8578 138.602 42.3573 137.877 41.067C137.301 40.0423 136.327 38.8372 135.006 39.1725C134.733 39.2411 134.849 39.6649 135.123 39.5952L135.116 39.5974Z" fill="#150623"/>
<path d="M141.091 40.0013L140.125 39.7612C139.851 39.6926 139.735 40.1153 140.008 40.1839L140.975 40.4252C141.248 40.4927 141.366 40.0699 141.086 40.0013H141.091Z" fill="#150623"/>
<path d="M140.684 36.2245C138.323 42.9073 129.729 43.3754 123.044 41.0139C116.359 38.6524 110.378 32.1998 112.738 25.5215C115.098 18.8432 121.71 13.3235 131.593 16.8203C143.396 20.9844 143.045 29.5462 140.684 36.2245Z" fill="#240A3A"/>
<path d="M129.859 16.3777C128.297 14.3515 125.028 15.9926 123.682 17.4411C122.856 18.3264 122.142 19.6178 122.485 20.8716C122.834 22.1419 124.168 22.8413 125.279 23.3426C125.931 23.6359 126.607 23.8184 127.277 24.0553C127.651 24.188 127.914 24.2943 127.48 24.7834C127.37 24.9051 127.156 25.0047 127.019 25.0877C126.652 25.3094 126.272 25.5083 125.88 25.6831C124.53 26.2961 123.088 26.6879 121.757 27.343C120.771 27.8299 119.654 28.6266 119.676 29.8527C119.695 31.153 120.918 32.3979 121.8 33.24C122.088 33.5142 122.39 33.7728 122.705 34.0146C122.855 34.1253 123.011 34.236 123.162 34.3466C123.535 34.6211 123.612 34.7494 123.45 35.1965C123.263 35.7133 123.146 36.1117 123.425 36.6351C124.231 38.1522 126.069 37.7029 127.367 37.226C127.631 37.1297 127.517 36.7059 127.257 36.8033C126.593 37.0478 125.87 37.3234 125.145 37.2614C124.451 37.2028 123.617 36.6428 123.68 35.8527C123.716 35.4012 124.164 35.0958 123.991 34.6144C123.804 34.0899 123.079 33.7623 122.681 33.4315C121.724 32.638 120.487 31.4872 120.178 30.2389C119.818 28.7815 121.395 27.9715 122.486 27.4879C123.675 26.9645 124.921 26.596 126.107 26.0593C126.699 25.7915 128.494 25.1231 128.159 24.2113C128.022 23.8395 127.605 23.6967 127.262 23.5894C126.603 23.3971 125.958 23.1605 125.331 22.8812C124.085 22.2958 122.614 21.4238 122.878 19.8192C123.111 18.3972 124.339 17.2032 125.558 16.547C126.665 15.9538 128.567 15.4072 129.486 16.599C129.657 16.8203 130.04 16.599 129.865 16.3777H129.859Z" fill="#150623"/>
<path d="M131.507 17.8594C132.583 17.0715 135.808 15.3585 136.302 17.5595C136.73 19.4673 135.096 21.0387 134.078 22.4286C133.803 22.8048 133.128 23.5197 133.534 24.0077C133.903 24.4503 134.829 24.6019 135.351 24.7668C136.954 25.2747 138.548 25.9719 138.682 27.8808C138.823 29.8903 137.318 31.4219 135.73 32.4056C135.697 32.4254 135.67 32.4532 135.652 32.4863C135.633 32.5194 135.623 32.5568 135.623 32.5949C135.623 32.6329 135.633 32.6703 135.652 32.7035C135.67 32.7366 135.697 32.7644 135.73 32.7841C136.658 33.5001 137.799 32.8328 138.813 33.2013C139.786 33.5554 139.313 34.4086 138.883 35.0405C138.485 35.6222 138.03 36.1621 137.524 36.6517C136.528 37.6233 135.256 38.5329 133.872 38.8217C132.561 39.0961 131.081 38.6657 130.478 37.3831C130.357 37.1275 129.98 37.3499 130.1 37.6045C130.713 38.9047 132.192 39.4768 133.565 39.3119C135.198 39.115 136.685 38.0759 137.838 36.9582C138.413 36.3995 138.926 35.7795 139.366 35.1091C139.722 34.5679 140.124 33.8918 139.68 33.2799C138.78 32.0372 137.011 33.2157 135.956 32.4023V32.7808C137.413 31.8822 138.786 30.5809 139.074 28.8169C139.34 27.1858 138.624 25.6974 137.137 24.9605C136.381 24.5853 135.554 24.3861 134.761 24.1084C134.578 24.0453 134.183 23.9601 134.048 23.8273C133.79 23.5717 134.035 23.2662 134.183 23.0438C134.515 22.5459 134.894 22.0844 135.261 21.613C136.238 20.3537 137.452 18.4039 136.478 16.8048C135.995 16.0103 135.131 15.9638 134.299 16.1287C133.207 16.3544 132.179 16.8172 131.286 17.4843C131.064 17.6492 131.278 18.0298 131.507 17.8638V17.8594Z" fill="#150623"/>
<path d="M138.588 21.1847C138.781 20.6226 139.641 21.0486 139.934 21.2367C140.274 21.4584 140.579 21.7299 140.839 22.0423C141.441 22.7557 141.791 23.6475 141.835 24.5798C141.906 26.4123 140.64 28.0855 138.918 28.641C138.689 28.7151 138.72 29.0781 138.976 29.0726C140.315 29.0427 142.738 29.1445 142.767 31.0213C142.78 31.8822 142.157 32.7277 141.701 33.4171C141.228 34.1264 140.703 34.7993 140.13 35.43C140.106 35.4539 140.089 35.4829 140.078 35.5146C140.068 35.5463 140.065 35.5799 140.069 35.613C140.074 35.6461 140.085 35.6778 140.104 35.7057C140.122 35.7336 140.146 35.757 140.175 35.7741C140.862 36.2544 141.921 36.3617 142.467 37.0202C143.012 37.6786 142.555 38.5561 141.941 38.9943C141.447 39.3484 140.852 39.5753 140.281 39.759C137.847 40.5336 135.226 40.2459 132.811 39.5587C132.538 39.4823 132.423 39.9051 132.7 39.9825C135.554 40.7937 138.748 41.0493 141.503 39.7512C142.479 39.2909 143.606 38.2573 143.026 37.0644C142.551 36.0795 141.224 35.9667 140.406 35.3957C140.421 35.5063 140.435 35.6258 140.451 35.7398C141.161 34.9571 141.801 34.1123 142.361 33.2157C142.832 32.4543 143.379 31.5558 143.17 30.6174C142.753 28.7561 140.514 28.6 138.986 28.6332C139.005 28.7771 139.024 28.921 139.044 29.0648C141.257 28.35 142.696 26.0349 142.17 23.7343C141.916 22.6337 141.275 21.661 140.364 20.9933C139.767 20.5606 138.517 20.0792 138.179 21.0685C138.087 21.3363 138.511 21.4503 138.602 21.1847H138.588Z" fill="#150623"/>
<path d="M125.501 15.8443C124.094 13.2604 120.631 13.4341 118.197 14.1357C117.219 14.4179 116.148 14.9501 115.827 15.9981C115.519 17.0029 116.063 18.1172 117.007 18.5433C117.045 18.4072 117.082 18.271 117.118 18.1349C115.361 18.2323 113.647 18.9837 112.459 20.3006C111.906 20.9125 111.456 21.6871 111.417 22.5281C111.38 23.3503 111.815 24.0243 112.36 24.5997C112.591 24.842 113.451 25.4252 113.144 25.8169C113.052 25.9354 112.746 26.0228 112.609 26.0903C112.403 26.1899 112.196 26.2884 111.991 26.3924C111.36 26.7144 110.721 27.1106 110.369 27.7491C109.539 29.2551 110.75 30.9294 112.293 31.2094C112.352 31.2205 112.449 31.2249 112.515 31.2415C112.697 31.2194 112.827 31.3046 112.902 31.4993C113.123 31.596 113.177 31.7166 113.065 31.8612C113.011 32.1113 112.747 32.3348 112.656 32.5805C112.54 32.8985 112.55 33.2488 112.684 33.5598C113.076 34.5226 114.134 34.7638 115.056 34.911C115.333 34.9552 115.451 34.5325 115.167 34.4883C114.366 34.3599 112.943 34.0954 113.004 32.9943C113.039 32.3614 113.92 31.818 113.467 31.133C113.331 30.9272 113.11 30.8641 112.881 30.8309C112.381 30.7568 111.961 30.7314 111.518 30.4591C110.692 29.9545 110.253 28.8612 110.743 27.9704C111.105 27.3064 111.831 26.9534 112.481 26.6347C112.883 26.4389 113.755 26.2076 113.748 25.6487C113.742 25.0523 112.851 24.5101 112.494 24.0995C111.797 23.2939 111.682 22.3644 112.188 21.4193C113.122 19.6786 115.205 18.6772 117.114 18.5709C117.311 18.561 117.439 18.2589 117.224 18.1626C116.296 17.7443 115.873 16.5979 116.435 15.7137C116.949 14.9059 118.014 14.6071 118.894 14.4123C121.041 13.9465 123.9 13.8281 125.118 16.0656C125.253 16.3135 125.631 16.0922 125.496 15.8443H125.501Z" fill="#150623"/>
<path d="M131.931 69.76C130.469 72.9149 133.259 76.2126 135.654 76.4416C138.048 76.6707 140.248 74.0514 140.58 70.5911C140.912 67.1307 139.247 64.1385 136.858 63.9083C134.468 63.6781 133.115 67.2027 131.931 69.76Z" fill="#A04F48"/>
<g style="mix-blend-mode:multiply" opacity="0.4">
<g style="mix-blend-mode:multiply" opacity="0.4">
<path d="M137.603 33.1061C136.726 31.9365 134.533 31.9365 134.533 30.7668C134.533 28.4274 137.603 26.9656 138.042 24.3341C138.353 22.361 137.631 20.5363 136.348 19.1198C134.958 18.2202 133.467 17.4857 131.907 16.931C133.96 17.9911 135.038 20.6868 133.945 22.8734C132.922 24.9195 130.875 26.0892 129.56 27.9903C129.413 28.2825 129.56 28.5757 129.852 28.8679C131.167 29.7454 132.922 30.0375 133.653 31.3533C135.115 33.9848 131.606 35.4477 130.436 37.4938C130.364 37.6289 130.326 37.7795 130.326 37.9326C130.326 38.0856 130.364 38.2362 130.436 38.3713C131.13 39.5886 132.182 40.849 132.559 42.1647C134.478 41.908 136.252 41.2961 137.694 40.2537C137.317 39.6937 136.912 39.1471 136.724 38.5174C136.14 36.7623 138.773 35.1533 137.603 33.1061Z" fill="#240A3A"/>
</g>
<g style="mix-blend-mode:multiply" opacity="0.4">
<path d="M120.204 31.9365C117.865 29.305 123.128 27.2577 124.152 24.3341C124.298 23.8915 124.298 23.1644 124.005 23.0184C122.982 21.7026 121.958 20.3869 122.836 18.7779C123.439 17.5728 124.341 16.3677 125.54 15.7358C125.049 15.7412 124.559 15.7722 124.071 15.8288C122.092 16.516 120.229 17.4588 119.327 19.3633C118.741 20.5329 119.911 21.8487 119.619 23.1644C118.889 25.6499 116.256 26.6735 114.502 28.4274C114.21 28.7207 114.356 29.1589 114.356 29.5971C114.648 30.914 115.672 31.9364 115.38 33.2489C115.204 33.8557 114.918 34.4246 114.534 34.9265C115.957 36.8276 117.923 38.4676 120.11 39.6849C121.756 37.3378 122.648 34.7306 120.204 31.9365Z" fill="#240A3A"/>
</g>
</g>
<path d="M109.528 97.8234C109.526 97.8462 109.526 97.8692 109.528 97.892C109.622 100.616 111.939 102.811 114.68 102.681C117.493 102.549 119.618 100.156 119.6 97.3697C119.601 97.312 119.586 97.2552 119.556 97.2059H119.529L119.233 97.2236H119.188L119.022 97.2336H118.998C118.981 97.2748 118.972 97.3193 118.973 97.3641C118.987 99.7909 117.156 101.932 114.68 102.045C114.109 102.071 113.539 101.983 113.002 101.787C112.466 101.592 111.973 101.292 111.552 100.905C111.132 100.518 110.792 100.052 110.552 99.5336C110.312 99.015 110.177 98.454 110.155 97.8831C110.155 97.8212 110.135 97.7609 110.099 97.7105L109.528 97.8234Z" fill="#FF808B"/>
<path d="M129.888 113.586C129.848 113.517 129.836 113.435 129.855 113.358C129.868 113.309 129.895 113.265 129.932 113.231C129.953 113.212 129.975 113.196 130 113.183C132.407 111.868 134.661 110.336 136.686 108.481C136.704 108.465 136.723 108.451 136.744 108.438L137.076 108.975C135.044 110.804 132.802 112.383 130.396 113.681L129.888 113.586Z" fill="#FF808B"/>
<path d="M101.508 114.575L101.254 114.533C98.5758 113.778 96.0174 112.708 93.7002 111.157L93.7256 111.096L93.771 110.985L93.875 110.734L93.9248 110.617L93.9436 110.57C93.9563 110.576 93.9685 110.583 93.9801 110.591C96.304 112.149 98.8492 113.214 101.535 113.961C101.548 113.964 101.56 113.968 101.571 113.974C101.594 113.981 101.615 113.992 101.633 114.006L101.508 114.575Z" fill="#FF808B"/>
<g style="mix-blend-mode:multiply" opacity="0.4">
<g style="mix-blend-mode:multiply" opacity="0.4">
<path d="M137.722 70.8434C137.295 72.4734 136.22 73.6032 135.32 73.3686C135.03 73.281 134.787 73.0821 134.643 72.8153C134.547 72.6482 134.472 72.4693 134.422 72.283C134.61 72.227 134.784 72.1331 134.935 72.0071C135.085 71.8811 135.208 71.7257 135.296 71.5505C135.421 71.3048 135.532 70.9308 135.348 70.7061C135.144 70.4583 134.845 70.5424 134.622 70.725H134.616C134.577 70.7602 134.529 70.7841 134.478 70.7939C134.426 70.8037 134.373 70.7989 134.324 70.7803C134.353 70.5117 134.403 70.2458 134.472 69.9846C134.536 69.7407 134.617 69.5015 134.714 69.2687C134.743 69.2056 134.77 69.1414 134.798 69.0772C134.798 69.0743 134.798 69.0713 134.798 69.0684C134.92 68.8028 135.068 68.5503 135.241 68.3148C135.727 67.6663 136.326 67.3188 136.863 67.4616C137.772 67.7017 138.15 69.2133 137.722 70.8434Z" fill="#A04F48"/>
</g>
</g>
<path d="M136.029 71.0105C136 71.8758 135.408 72.5464 134.643 72.8153C134.448 72.885 134.244 72.9271 134.037 72.9404C133.659 72.9636 133.663 72.3782 134.037 72.3539C134.167 72.3456 134.295 72.3218 134.42 72.2831C134.608 72.227 134.782 72.1331 134.932 72.0071C135.083 71.8811 135.206 71.7257 135.294 71.5505C135.419 71.3048 135.53 70.9308 135.346 70.7061C135.142 70.4583 134.842 70.5424 134.62 70.725H134.613C134.575 70.7603 134.527 70.7841 134.476 70.7939C134.424 70.8037 134.371 70.799 134.322 70.7803C134.282 70.7664 134.245 70.7444 134.213 70.7157C134.181 70.687 134.155 70.6521 134.137 70.6132C134.112 70.5686 134.102 70.5169 134.11 70.4662C134.117 70.4155 134.141 70.3687 134.178 70.3332C134.379 69.9902 134.557 69.6346 134.712 69.2687C134.741 69.2056 134.768 69.1414 134.796 69.0772C134.795 69.0743 134.795 69.0713 134.796 69.0684C134.884 68.8648 134.974 68.6623 135.067 68.462C135.082 68.4246 135.106 68.3915 135.137 68.3658C135.168 68.3401 135.205 68.3225 135.244 68.3148C135.3 68.3067 135.357 68.3139 135.409 68.3355C135.462 68.3572 135.507 68.3925 135.541 68.4377C135.575 68.483 135.596 68.5366 135.602 68.5928C135.609 68.6491 135.599 68.7059 135.576 68.7574C135.39 69.1525 135.225 69.5586 135.039 69.9559C135.153 69.9533 135.265 69.9728 135.371 70.0134C135.577 70.0809 135.755 70.2161 135.874 70.3972C135.993 70.5783 136.048 70.7944 136.029 71.0105Z" fill="#6B2F2E"/>
<g style="mix-blend-mode:multiply" opacity="0.4">
<g style="mix-blend-mode:multiply" opacity="0.4">
<path d="M109.131 112.801L109.098 109.676C108.494 108.861 107.943 108.006 107.451 107.119C106.001 104.463 105.431 101.508 105.356 98.5626L104.309 98.7474L106.215 112.775L109.131 112.801Z" fill="#4D4CAC"/>
</g>
</g>
<g style="mix-blend-mode:multiply" opacity="0.4">
<g style="mix-blend-mode:multiply" opacity="0.4">
<path d="M123.7 97.7271C123.76 102.279 123.351 107.094 121.54 111.188L121.657 113.269L124.565 113.048L125.783 98.0934L123.7 97.7271Z" fill="#4D4CAC"/>
</g>
</g>
<g style="mix-blend-mode:multiply">
<g style="mix-blend-mode:multiply" opacity="0.6">
<g style="mix-blend-mode:multiply" opacity="0.6">
<path d="M32.866 108.115C31.2931 105.682 30.1252 103.011 29.4079 100.205H28.7771C28.5916 100.205 28.4085 100.246 28.2409 100.325C28.0732 100.405 27.9251 100.52 27.8073 100.663C27.6895 100.806 27.6048 100.974 27.5593 101.154C27.5139 101.333 27.5088 101.521 27.5443 101.703L35.0792 140.206C35.1898 140.791 35.368 141.202 35.9645 141.202L86.6146 141.139C86.7796 141.141 86.9434 141.11 87.0965 141.048C87.2496 140.987 87.3889 140.895 87.5065 140.779C80.6862 139.478 73.9926 137.583 67.5025 135.116C53.2274 129.804 41.3868 121.173 32.866 108.115Z" fill="#DCD3D4"/>
</g>
</g>
<g style="mix-blend-mode:multiply" opacity="0.3">
<g style="mix-blend-mode:multiply" opacity="0.3">
<path d="M37.2923 102.692C36.8293 101.888 36.4125 101.057 36.0441 100.205H29.4045C30.1229 103.011 31.2919 105.683 32.866 108.115C41.3868 121.173 53.2274 129.804 67.5025 135.116C73.9926 137.583 80.6861 139.478 87.5065 140.779C87.6555 140.634 87.7658 140.453 87.8274 140.254C87.8891 140.055 87.9001 139.844 87.8595 139.64L85.2501 126.426C82.5161 126.164 79.7725 125.778 77.0192 125.267C61.1949 122.39 45.5918 116.857 37.2923 102.692Z" fill="#DCD3D4"/>
</g>
</g>
</g>
</g>
<defs>
<clipPath id="clip0_259_1399">
<rect width="218" height="148.838" fill="white"/>
</clipPath>
</defs>
</svg>
