<svg width="254" height="174" viewBox="0 0 254 174" fill="none" xmlns="http://www.w3.org/2000/svg">
<g clip-path="url(#clip0)">
<path d="M177.198 106.732V107.376C177.198 107.975 177.243 108.048 177.971 108.11V108.434H175.407V108.111C176.099 108.049 176.134 107.947 176.134 107.348V106.732H173.632V106.371C174.618 105.012 175.718 103.508 176.588 102.356H177.204V106.203H178.118V106.729L177.198 106.732ZM176.128 103.571C175.612 104.302 174.945 105.248 174.292 106.206H176.124L176.128 103.571Z" fill="#51B8F4"/>
<path d="M182.394 102.427L182.451 102.515L182.162 103.36H179.824C179.737 103.815 179.612 104.492 179.519 104.915C179.961 104.755 180.497 104.622 180.751 104.622C181.975 104.622 182.622 105.431 182.622 106.251C182.622 106.843 182.355 107.42 181.704 107.902C181.167 108.302 180.47 108.547 179.915 108.547C179.547 108.552 179.189 108.432 178.899 108.208C178.719 108.064 178.681 107.973 178.688 107.842C178.699 107.754 178.727 107.669 178.772 107.592C178.816 107.515 178.875 107.448 178.946 107.394C178.998 107.358 179.061 107.342 179.124 107.349C179.187 107.356 179.244 107.386 179.287 107.433C179.534 107.652 179.922 108.007 180.533 108.007C181.205 108.007 181.522 107.419 181.522 106.717C181.522 105.856 180.98 105.273 180.028 105.273C179.691 105.278 179.357 105.335 179.038 105.441L178.997 105.389C179.173 104.557 179.398 103.277 179.523 102.424L182.394 102.427Z" fill="#51B8F4"/>
<path d="M187.599 104.019L188.063 105.344L187.805 105.463L187.032 104.262L185.871 105.095L185.688 104.852L186.611 103.861L185.51 102.914L185.665 102.666L186.922 103.348L187.389 102.027L187.676 102.072L187.535 103.442L188.847 103.387L188.872 103.665L187.599 104.019Z" fill="#51B8F4"/>
<path d="M195.416 102.427L195.473 102.515L195.185 103.36H192.847C192.76 103.815 192.634 104.492 192.541 104.915C192.983 104.755 193.521 104.622 193.774 104.622C194.999 104.622 195.644 105.431 195.644 106.251C195.644 106.843 195.379 107.42 194.728 107.902C194.19 108.302 193.493 108.547 192.938 108.547C192.571 108.552 192.213 108.433 191.922 108.208C191.743 108.064 191.704 107.973 191.711 107.842C191.724 107.754 191.755 107.67 191.802 107.594C191.848 107.518 191.91 107.453 191.983 107.402C192.034 107.366 192.097 107.35 192.16 107.357C192.222 107.364 192.28 107.394 192.322 107.441C192.569 107.66 192.958 108.015 193.569 108.015C194.242 108.015 194.559 107.427 194.559 106.725C194.559 105.864 194.016 105.281 193.063 105.281C192.727 105.286 192.392 105.342 192.073 105.449L192.033 105.397C192.208 104.564 192.433 103.285 192.558 102.432L195.416 102.427Z" fill="#51B8F4"/>
<path d="M198.74 105.322V104.72H203.426V105.322H198.74ZM198.74 107.203V106.601H203.426V107.203H198.74Z" fill="#51B8F4"/>
<path d="M208.445 106.508C207.976 106.34 207.345 105.892 207.345 105.333C207.345 104.96 207.554 104.649 208.248 104.144C208.916 103.672 209.136 103.411 209.136 103.148C209.136 102.885 208.948 102.671 208.605 102.671C207.911 102.671 207.466 103.42 207.291 103.42C207.116 103.42 206.788 103.123 206.788 102.816C206.788 102.643 206.855 102.558 206.996 102.416C207.322 102.166 207.722 102.03 208.133 102.029C208.563 102.028 208.976 102.194 209.285 102.492C209.595 102.79 209.777 103.196 209.792 103.626C209.792 104.012 209.683 104.384 209.101 104.813C208.475 105.268 208.328 105.42 208.328 105.695C208.328 105.886 208.426 106.029 208.649 106.27L208.445 106.508ZM208.204 108.562C208.057 108.566 207.912 108.525 207.789 108.446C207.665 108.367 207.567 108.253 207.509 108.118C207.45 107.983 207.433 107.834 207.459 107.689C207.486 107.545 207.554 107.411 207.657 107.306C207.76 107.201 207.891 107.128 208.035 107.098C208.179 107.068 208.328 107.081 208.465 107.136C208.601 107.191 208.718 107.286 208.8 107.408C208.882 107.529 208.927 107.673 208.927 107.82C208.932 107.917 208.917 108.014 208.883 108.105C208.848 108.196 208.796 108.279 208.728 108.349C208.66 108.419 208.578 108.474 208.488 108.51C208.398 108.547 208.301 108.565 208.204 108.562Z" fill="#51B8F4"/>
<path d="M178.002 118.538C177.858 119.028 177.681 119.633 177.585 120.022H173.779V119.772C174.294 119.256 174.863 118.694 175.348 118.143C176.031 117.37 176.447 116.67 176.447 115.887C176.447 115.161 176.079 114.711 175.406 114.711C174.797 114.711 174.382 115.157 174.087 115.583L173.821 115.356L174.415 114.486C174.596 114.291 174.816 114.138 175.06 114.036C175.305 113.934 175.569 113.886 175.834 113.895C176.781 113.895 177.561 114.54 177.561 115.602C177.561 116.376 177.269 116.938 176.308 117.855C175.921 118.232 175.354 118.765 174.983 119.098H176.682C177.253 119.098 177.38 119.056 177.727 118.453L178.002 118.538Z" fill="#51B8F4"/>
<path d="M182.892 114.149C181.959 116.095 181.025 118.051 180.125 120.029L179.269 120.128L179.194 120.009C180.225 118.365 181.234 116.537 182.039 114.945H180.001C179.348 114.945 179.29 115.018 179.024 115.618H178.681C178.802 114.927 178.86 114.438 178.914 114.011H182.828L182.892 114.149Z" fill="#51B8F4"/>
<path d="M187.599 115.604L188.063 116.929L187.805 117.048L187.032 115.847L185.871 116.68L185.688 116.436L186.611 115.446L185.51 114.493L185.665 114.246L186.922 114.928L187.389 113.606L187.676 113.651L187.535 115.022L188.847 114.967L188.872 115.245L187.599 115.604Z" fill="#51B8F4"/>
<path d="M195.914 114.149C194.982 116.095 194.047 118.051 193.148 120.029L192.291 120.128L192.217 120.009C193.249 118.365 194.257 116.537 195.063 114.945H193.023C192.371 114.945 192.314 115.018 192.047 115.618H191.703C191.832 114.927 191.882 114.438 191.938 114.011H195.851L195.914 114.149Z" fill="#51B8F4"/>
<path d="M198.74 116.907V116.305H203.426V116.907H198.74ZM198.74 118.788V118.186H203.426V118.788H198.74Z" fill="#51B8F4"/>
<path d="M208.445 118.093C207.976 117.924 207.345 117.477 207.345 116.917C207.345 116.545 207.554 116.234 208.248 115.729C208.916 115.257 209.136 114.996 209.136 114.733C209.136 114.47 208.948 114.256 208.605 114.256C207.911 114.256 207.466 115.005 207.291 115.005C207.116 115.005 206.788 114.707 206.788 114.401C206.788 114.228 206.855 114.143 206.996 114.001C207.322 113.75 207.722 113.614 208.133 113.614C208.563 113.613 208.976 113.779 209.285 114.077C209.595 114.375 209.777 114.781 209.792 115.21C209.792 115.597 209.683 115.968 209.101 116.398C208.475 116.853 208.328 117.005 208.328 117.28C208.328 117.47 208.426 117.614 208.649 117.855L208.445 118.093ZM208.204 120.145C208.057 120.148 207.912 120.107 207.789 120.028C207.665 119.949 207.567 119.835 207.509 119.7C207.45 119.565 207.433 119.416 207.459 119.272C207.486 119.127 207.554 118.994 207.657 118.888C207.76 118.783 207.891 118.711 208.035 118.68C208.179 118.65 208.328 118.663 208.465 118.719C208.601 118.774 208.718 118.868 208.8 118.99C208.882 119.111 208.927 119.255 208.927 119.402C208.932 119.499 208.917 119.596 208.883 119.687C208.848 119.778 208.796 119.861 208.728 119.931C208.66 120.001 208.578 120.056 208.488 120.093C208.398 120.129 208.301 120.147 208.204 120.145Z" fill="#51B8F4"/>
<path d="M75.8738 49.0104L85.4381 28.8464L95.2101 48.9331L75.8738 49.0104ZM85.4536 31.6675L77.7472 47.9029L93.3147 47.841L85.4536 31.6675Z" fill="#51B8F4"/>
<path d="M97.0422 47.3588L89.0496 31.1905L90.0785 30.8282L87.3051 28.381V31.8068L88.2773 31.4638L96.2802 47.6515L97.0422 47.3588Z" fill="#51B8F4"/>
<path d="M83.5286 29.6741L82.7666 29.3801L74.7766 45.5368L73.7051 45.1616L73.8109 48.621L76.4824 46.1338L75.5502 45.8076L83.5286 29.6741Z" fill="#51B8F4"/>
<path d="M93.2773 92.8905V104.237C93.2773 104.834 92.8802 105.318 92.389 105.318H79.052C78.8849 105.325 78.7232 105.379 78.5861 105.475C78.449 105.571 78.3422 105.704 78.2784 105.859L77.6892 107.102L76.8447 108.89L75.9989 107.107L75.4084 105.864C75.3446 105.709 75.2378 105.576 75.1007 105.48C74.9636 105.385 74.8019 105.33 74.6348 105.324H74.0455C73.5543 105.324 73.1572 104.839 73.1572 104.242V92.8956C73.1572 92.2987 73.5543 91.8139 74.0455 91.8139H92.3799C92.8802 91.8087 93.2773 92.2935 93.2773 92.8905Z" fill="#51B8F4"/>
<path d="M90.8676 94.2508C85.7583 94.2508 80.6478 94.2474 75.536 94.2405V94.5873H75.723C75.7664 94.5836 75.8068 94.5637 75.8363 94.5316C75.8657 94.4995 75.8821 94.4575 75.8821 94.4139C75.8821 94.3703 75.8657 94.3283 75.8363 94.2962C75.8068 94.2641 75.7664 94.2442 75.723 94.2405H75.536C75.4926 94.2442 75.4522 94.2641 75.4227 94.2962C75.3933 94.3283 75.3769 94.3703 75.3769 94.4139C75.3769 94.4575 75.3933 94.4995 75.4227 94.5316C75.4522 94.5637 75.4926 94.5836 75.536 94.5873C80.6469 94.5873 85.7575 94.5908 90.8676 94.5976C90.911 94.5939 90.9514 94.574 90.9809 94.5419C91.0103 94.5098 91.0266 94.4678 91.0266 94.4242C91.0266 94.3806 91.0103 94.3387 90.9809 94.3065C90.9514 94.2744 90.911 94.2545 90.8676 94.2508Z" fill="white"/>
<path d="M90.8676 96.7985H85.0191C84.9757 96.8022 84.9353 96.8221 84.9058 96.8542C84.8764 96.8863 84.86 96.9283 84.86 96.9719C84.86 97.0154 84.8764 97.0574 84.9058 97.0895C84.9353 97.1217 84.9757 97.1415 85.0191 97.1453H85.2073C85.2508 97.1415 85.2912 97.1217 85.3206 97.0895C85.3501 97.0574 85.3664 97.0154 85.3664 96.9719C85.3664 96.9283 85.3501 96.8863 85.3206 96.8542C85.2912 96.8221 85.2508 96.8022 85.2073 96.7985H85.0191V97.1453H90.8676C90.911 97.1415 90.9514 97.1217 90.9808 97.0895C91.0103 97.0574 91.0266 97.0154 91.0266 96.9719C91.0266 96.9283 91.0103 96.8863 90.9808 96.8542C90.9514 96.8221 90.911 96.8022 90.8676 96.7985Z" fill="white"/>
<path d="M83.8883 96.7998H75.576C75.5326 96.8036 75.4921 96.8234 75.4627 96.8556C75.4332 96.8877 75.4169 96.9296 75.4169 96.9732C75.4169 97.0168 75.4332 97.0588 75.4627 97.0909C75.4921 97.123 75.5326 97.1429 75.576 97.1466H83.8883C83.9318 97.1429 83.9722 97.123 84.0016 97.0909C84.0311 97.0588 84.0474 97.0168 84.0474 96.9732C84.0474 96.9296 84.0311 96.8877 84.0016 96.8556C83.9722 96.8234 83.9318 96.8036 83.8883 96.7998Z" fill="white"/>
<path d="M90.8057 99.5371H88.6667C88.6232 99.5409 88.5828 99.5607 88.5534 99.5929C88.5239 99.625 88.5076 99.6669 88.5076 99.7105C88.5076 99.7541 88.5239 99.7961 88.5534 99.8282C88.5828 99.8603 88.6232 99.8802 88.6667 99.8839H90.8057C90.8491 99.8802 90.8895 99.8603 90.919 99.8282C90.9484 99.7961 90.9648 99.7541 90.9648 99.7105C90.9648 99.6669 90.9484 99.625 90.919 99.5929C90.8895 99.5607 90.8491 99.5409 90.8057 99.5371Z" fill="white"/>
<path d="M87.5965 99.5371H75.4767C75.4333 99.5409 75.3928 99.5607 75.3634 99.5929C75.3339 99.625 75.3176 99.6669 75.3176 99.7105C75.3176 99.7541 75.3339 99.7961 75.3634 99.8282C75.3928 99.8603 75.4333 99.8802 75.4767 99.8839H87.5965C87.6399 99.8802 87.6803 99.8603 87.7098 99.8282C87.7392 99.7961 87.7556 99.7541 87.7556 99.7105C87.7556 99.6669 87.7392 99.625 87.7098 99.5929C87.6803 99.5607 87.6399 99.5409 87.5965 99.5371Z" fill="white"/>
<path d="M90.7695 102.053H80.4755C80.432 102.056 80.3916 102.076 80.3622 102.108C80.3327 102.14 80.3164 102.182 80.3164 102.226C80.3164 102.27 80.3327 102.312 80.3622 102.344C80.3916 102.376 80.432 102.396 80.4755 102.399H80.6792C80.7226 102.396 80.763 102.376 80.7925 102.344C80.8219 102.312 80.8383 102.27 80.8383 102.226C80.8383 102.182 80.8219 102.14 80.7925 102.108C80.763 102.076 80.7226 102.056 80.6792 102.053H80.4755V102.399H90.7695C90.813 102.396 90.8534 102.376 90.8828 102.344C90.9123 102.312 90.9286 102.27 90.9286 102.226C90.9286 102.182 90.9123 102.14 90.8828 102.108C90.8534 102.076 90.813 102.056 90.7695 102.053Z" fill="white"/>
<path d="M78.9631 102.095H75.576C75.5326 102.099 75.4921 102.119 75.4627 102.151C75.4332 102.183 75.4169 102.225 75.4169 102.269C75.4169 102.312 75.4332 102.354 75.4627 102.386C75.4921 102.418 75.5326 102.438 75.576 102.442H78.9631C79.0065 102.438 79.0469 102.418 79.0764 102.386C79.1058 102.354 79.1222 102.312 79.1222 102.269C79.1222 102.225 79.1058 102.183 79.0764 102.151C79.0469 102.119 79.0065 102.099 78.9631 102.095Z" fill="white"/>
<path d="M209.224 84.4067H184.194V50.2843H209.224V84.4067ZM185.438 83.2463H207.98V51.4512H185.438V83.2463Z" fill="#51B8F4"/>
<path d="M188.049 56.9037C191.283 56.9037 194.516 56.9007 197.749 56.8947C198.548 56.8947 198.549 55.7266 197.749 55.7266H197.631C196.831 55.7266 196.829 56.8947 197.631 56.8947H197.749V55.7266C194.515 55.7266 191.283 55.7356 188.049 55.7356C187.25 55.7356 187.247 56.9037 188.049 56.9037Z" fill="#51B8F4"/>
<path d="M188.049 54.1935C191.283 54.1935 194.516 54.1905 197.749 54.1845C198.548 54.1845 198.549 53.0164 197.749 53.0164H197.631C196.831 53.0164 196.829 54.1845 197.631 54.1845H197.749V53.0164C194.515 53.0164 191.283 53.0254 188.049 53.0254C187.25 53.0254 187.247 54.1935 188.049 54.1935Z" fill="#51B8F4"/>
<path d="M188.28 59.7442C193.914 59.7442 199.548 59.7417 205.18 59.7365C205.981 59.7365 205.982 58.5684 205.18 58.5684H204.975C204.176 58.5684 204.175 59.7365 204.975 59.7365H205.18V58.5684C199.548 58.5684 193.914 58.5709 188.28 58.5761C187.48 58.5761 187.479 59.7442 188.28 59.7442Z" fill="#51B8F4"/>
<path d="M188.28 62.5627C193.914 62.5627 199.548 62.5601 205.18 62.555C205.981 62.555 205.982 61.3868 205.18 61.3868H204.975C204.176 61.3868 204.175 62.555 204.975 62.555H205.18V61.3868C199.548 61.3868 193.914 61.3894 188.28 61.3946C187.48 61.3946 187.479 62.5627 188.28 62.5627Z" fill="#51B8F4"/>
<path d="M188.396 65.2729C194.029 65.2729 199.662 65.2703 205.296 65.2652C206.097 65.2652 206.098 64.097 205.296 64.097H205.091C204.291 64.097 204.29 65.2652 205.091 65.2652H205.296V64.097C199.663 64.097 194.029 64.0996 188.396 64.1048C187.595 64.1048 187.594 65.2729 188.396 65.2729Z" fill="#51B8F4"/>
<path d="M188.28 68.206C193.914 68.206 199.548 68.2035 205.18 68.1983C205.981 68.1983 205.982 67.0302 205.18 67.0302H204.975C204.176 67.0302 204.175 68.1983 204.975 68.1983H205.18V67.0302C199.548 67.0302 193.914 67.0332 188.28 67.0392C187.48 67.0392 187.479 68.206 188.28 68.206Z" fill="#51B8F4"/>
<path d="M188.396 70.9137C194.029 70.9137 199.662 70.9111 205.296 70.9059C206.097 70.9059 206.098 69.7378 205.296 69.7378H205.091C204.291 69.7378 204.29 70.9059 205.091 70.9059H205.296V69.7378C199.663 69.7378 194.029 69.7408 188.396 69.7468C187.595 69.7468 187.594 70.9137 188.396 70.9137Z" fill="#51B8F4"/>
<path d="M188.396 73.6213C194.029 73.6213 199.662 73.6187 205.296 73.6136C206.097 73.6136 206.098 72.4454 205.296 72.4454H205.091C204.291 72.4454 204.29 73.6136 205.091 73.6136H205.296V72.4454C199.663 72.4454 194.029 72.4484 188.396 72.4545C187.595 72.4545 187.594 73.6149 188.396 73.6149V73.6213Z" fill="#51B8F4"/>
<path d="M188.396 76.329C194.029 76.329 199.662 76.3264 205.296 76.3212C206.097 76.3212 206.098 75.1531 205.296 75.1531H205.091C204.291 75.1531 204.29 76.3212 205.091 76.3212H205.296V75.1531C199.663 75.1531 194.029 75.1561 188.396 75.1621C187.595 75.1621 187.594 76.3225 188.396 76.3225V76.329Z" fill="#51B8F4"/>
<path d="M188.396 79.0366C194.029 79.0366 199.662 79.034 205.296 79.0289C206.097 79.0289 206.098 77.8607 205.296 77.8607H205.091C204.291 77.8607 204.29 79.0289 205.091 79.0289H205.296V77.8607C199.663 77.8607 194.029 77.8637 188.396 77.8697C187.595 77.8697 187.594 79.0302 188.396 79.0302V79.0366Z" fill="#51B8F4"/>
<path d="M188.396 81.7506C194.029 81.7506 199.662 81.748 205.296 81.7428C206.097 81.7428 206.098 80.5747 205.296 80.5747H205.091C204.291 80.5747 204.29 81.7428 205.091 81.7428H205.296V80.5747C199.663 80.5747 194.029 80.5777 188.396 80.5837C187.595 80.5837 187.594 81.7441 188.396 81.7441V81.7506Z" fill="#51B8F4"/>
<path d="M129.155 107.762C129.071 106.876 128.93 105.869 128.73 104.697C128.653 104.26 128.57 103.794 128.472 103.314C128.472 103.292 128.462 103.265 128.457 103.24L129.243 103.105L135.605 102.007C135.521 102.676 135.478 103.35 135.476 104.024C135.471 104.633 135.498 105.242 135.557 105.848C135.621 106.515 135.723 107.177 135.862 107.831C136.546 111.068 139.112 118.519 139.112 118.519L128.191 119.651C129.004 117.865 129.352 111.199 129.223 108.645C129.206 108.369 129.183 108.073 129.155 107.762Z" fill="#A04F48"/>
<g style="mix-blend-mode:multiply" opacity="0.4">
<g style="mix-blend-mode:multiply" opacity="0.4">
<path d="M135.555 105.855C135.496 105.249 135.469 104.64 135.474 104.03C135.476 103.356 135.519 102.683 135.602 102.014L129.241 103.111L128.454 103.247C128.454 103.271 128.466 103.298 128.47 103.32C128.564 103.806 128.647 104.266 128.728 104.703C128.928 105.875 129.068 106.882 129.152 107.768C129.18 108.079 129.203 108.376 129.219 108.657C129.246 109.165 129.254 109.838 129.242 110.6C131.627 110.368 134 109.928 136.126 108.971C136.02 108.557 135.927 108.174 135.856 107.838C135.718 107.183 135.618 106.521 135.555 105.855Z" fill="#A04F48"/>
</g>
</g>
<path d="M168.267 68.0668C168.267 81.347 156.501 102.679 139.922 94.3694C130.464 89.631 119.619 86.6333 109.787 82.8775C98.9375 78.731 98.1459 63.5851 102.383 51.7232C105.532 42.9054 118.124 36.2176 128.22 34.3519C128.804 34.2449 129.38 34.1533 129.945 34.0785C131.388 33.8778 132.846 33.8006 134.303 33.8478C148.923 34.4512 157.311 39.6279 162.091 46.1068C162.896 47.1983 163.619 48.3486 164.253 49.548C167.661 55.9767 168.267 63.0603 168.267 68.0668Z" fill="#240A3A"/>
<path d="M174.141 145.921C174.141 141.909 172.547 138.061 169.71 135.225C166.874 132.388 163.026 130.794 159.014 130.793H135.069C126.715 130.793 120.513 137.25 120.513 145.605V176.759C120.513 185.114 120.384 191.316 128.744 191.316H158.04C158.777 193.884 160.408 196.19 163.925 195.913C172.247 195.256 173.433 183.523 173.595 180.19C173.952 178.888 174.134 177.544 174.134 176.193L174.141 145.921Z" fill="#171E40"/>
<g style="mix-blend-mode:multiply" opacity="0.4">
<g style="mix-blend-mode:multiply" opacity="0.4">
<path d="M156.526 139.249C155.84 136.502 155.649 133.667 155.796 130.793H135.069C126.715 130.793 120.513 137.25 120.513 145.605V176.759C120.513 185.114 120.384 191.316 128.744 191.316H158.04C158.777 193.884 160.408 196.19 163.925 195.913C172.247 195.256 173.433 183.523 173.595 180.19C173.952 178.888 174.134 177.544 174.134 176.193V166.893C165.511 160.088 159.156 149.982 156.526 139.249Z" fill="#985BC0"/>
</g>
</g>
<path d="M64.3033 243.556L34.758 174.525L7.18937 243.538L4.16716 243.003L34.6549 166.686L67.3113 242.986L64.3033 243.556Z" fill="#FF7B47"/>
<g style="mix-blend-mode:multiply" opacity="0.4">
<g style="mix-blend-mode:multiply" opacity="0.4">
<path d="M108.027 67.1927C105.814 64.467 101.554 63.1042 101.213 59.3574C101.087 58.426 101.01 57.4887 100.982 56.5492C98.5327 67.3797 100.367 79.2777 109.787 82.8775C110.239 77.3759 111.739 71.7299 108.027 67.1927Z" fill="#240A3A"/>
</g>
<g style="mix-blend-mode:multiply" opacity="0.4">
<path d="M146.869 90.361C144.548 91.2893 142.624 92.9293 141.202 94.9562C157.105 101.577 168.267 81.0029 168.267 68.067C168.267 67.1774 168.247 66.2194 168.196 65.2124C167.233 70.5864 166.278 75.7644 163.053 80.3106C159.134 85.7619 152.831 88.1472 146.869 90.361Z" fill="#240A3A"/>
</g>
</g>
<path d="M228.251 243.556L198.705 174.525L171.137 243.538L168.115 243.003L198.601 166.686L231.259 242.986L228.251 243.556Z" fill="#FF7B47"/>
<path d="M146.05 186.558L122.656 186.043C121.939 186.043 121.228 185.901 120.565 185.627C119.902 185.352 119.3 184.95 118.793 184.442C118.286 183.935 117.883 183.332 117.609 182.669C117.334 182.007 117.193 181.296 117.193 180.578V168.011C117.193 166.562 117.769 165.173 118.793 164.148C119.818 163.124 121.207 162.548 122.656 162.548H146.715C148.164 162.548 149.554 163.124 150.578 164.148C151.603 165.173 152.178 166.562 152.178 168.011L152.694 178.126C152.945 182.217 149.067 186.558 146.05 186.558Z" fill="#270048"/>
<path d="M120.03 185.434C120.001 185.433 119.972 185.433 119.943 185.434L119.83 185.428L119.59 185.416L119.096 185.398L118.084 185.37C117.405 185.356 116.72 185.349 116.034 185.349C114.662 185.349 113.287 185.375 111.908 185.426C109.163 185.532 106.432 185.738 103.76 186.08C101.087 186.422 98.4734 186.904 96.0236 187.59C94.8475 187.916 93.693 188.315 92.5669 188.785C91.5847 189.189 90.6463 189.692 89.7665 190.286C89.1772 190.675 88.6547 191.156 88.2192 191.712C88.1522 191.804 88.0903 191.887 88.0491 191.97C88.0246 192.009 88.0039 192.049 87.9833 192.087C87.9627 192.126 87.9652 192.126 87.9536 192.148L87.8982 192.292C87.7219 192.787 87.5878 193.295 87.4972 193.812C87.2642 195.143 87.1267 196.49 87.0859 197.84C87.0266 199.289 87.0343 200.798 87.0859 202.327C87.1865 205.388 87.4547 208.529 87.8105 211.672C87.9893 213.245 88.1917 214.819 88.4178 216.394C88.5313 217.181 88.6495 217.967 88.7724 218.752L88.9606 219.924L89.154 221.068C87.2086 221.904 85.1939 222.569 83.1328 223.056C82.9562 222.825 82.7331 221.849 82.7331 221.849L82.3463 220.665C82.0962 219.876 81.8516 219.086 81.6127 218.293C81.133 216.709 80.6753 215.113 80.2395 213.504C79.3705 210.281 78.5814 207.015 77.9497 203.616C77.6351 201.916 77.3604 200.182 77.1593 198.378C76.9347 196.477 76.8408 194.563 76.8782 192.649C76.9022 191.545 77.0022 190.444 77.1773 189.354L77.2547 188.906L77.3836 188.382C77.4726 188.032 77.5706 187.687 77.6815 187.35C77.8971 186.689 78.1555 186.043 78.4551 185.416C79.0123 184.264 79.6983 183.18 80.5 182.182C81.204 181.309 81.9804 180.496 82.8208 179.752C84.283 178.473 85.8785 177.355 87.5797 176.417C89.0986 175.573 90.6697 174.827 92.2832 174.183C95.397 172.931 98.4721 172.033 101.534 171.29C104.596 170.547 107.644 169.989 110.689 169.537C112.214 169.311 113.738 169.115 115.27 168.946C116.035 168.86 116.805 168.784 117.578 168.718L118.746 168.621L119.34 168.579L119.647 168.559L119.992 168.541L120.03 185.434Z" fill="#A04F48"/>
<g style="mix-blend-mode:multiply" opacity="0.4">
<g style="mix-blend-mode:multiply" opacity="0.4">
<path d="M120.003 168.53L119.657 168.548L119.35 168.567L118.756 168.61L117.588 168.706C116.814 168.774 116.045 168.85 115.28 168.935C113.748 169.103 112.224 169.299 110.699 169.525C107.651 169.978 104.603 170.542 101.545 171.279C98.4863 172.015 95.4073 172.92 92.2936 174.172C90.68 174.816 89.109 175.562 87.59 176.405C86.6007 176.957 85.6438 177.565 84.7238 178.227C88.7969 178.636 92.9911 179.11 95.9411 182.182C97.986 184.396 95.0901 187.122 92.8751 188.485C92.545 188.692 92.2136 188.894 91.8835 189.092C92.113 188.985 92.3464 188.879 92.5875 188.779C93.7136 188.308 94.8681 187.909 96.0442 187.584C98.4837 186.898 101.106 186.423 103.78 186.074C106.454 185.724 109.184 185.526 111.929 185.42C113.301 185.368 114.676 185.343 116.055 185.343C116.741 185.343 117.425 185.343 118.105 185.363L119.117 185.392L119.611 185.41L119.851 185.421L119.964 185.428C119.993 185.426 120.022 185.426 120.05 185.428L120.003 168.53Z" fill="#A04F48"/>
</g>
</g>
<path d="M141.964 186.052C141.964 186.052 135.321 186.194 133.978 186.386C132.634 186.578 131.296 186.792 129.965 187.02C128.635 187.248 127.317 187.498 126.014 187.782C124.71 188.066 123.427 188.38 122.17 188.731C120.913 189.082 119.683 189.454 118.51 189.881C117.382 190.283 116.279 190.752 115.206 191.285C114.319 191.722 113.479 192.251 112.703 192.863C112.464 193.055 112.239 193.263 112.027 193.484C111.885 193.634 111.706 193.856 111.687 193.963C111.667 194.07 111.64 194.172 111.622 194.287C111.539 194.799 111.494 195.316 111.487 195.834C111.481 197.108 111.58 198.381 111.782 199.639C111.988 200.998 112.298 202.406 112.659 203.833C113.02 205.26 113.454 206.699 113.931 208.138C114.408 209.577 114.921 211.025 115.478 212.461C116.035 213.898 116.621 215.33 117.235 216.751C117.543 217.461 117.858 218.167 118.18 218.869L118.668 219.914L118.915 220.43L118.975 220.558C119.001 220.597 118.992 220.663 118.922 220.78C118.911 220.803 118.882 220.842 118.863 220.873C118.844 220.904 118.81 220.947 118.777 220.989C118.706 221.078 118.661 221.144 118.552 221.265L118.409 221.429L118.208 221.643L118.003 221.857C117.973 221.889 117.933 221.93 117.882 221.979L117.744 222.12L115.783 223.796L115.624 223.904C115.567 223.944 115.52 223.975 115.484 223.997L115.24 224.149L114.998 224.301L114.816 224.403C114.717 224.459 114.616 224.509 114.513 224.554C114.471 224.575 114.428 224.593 114.384 224.608C114.351 224.621 114.318 224.631 114.285 224.639C114.163 224.673 114.101 224.656 114.074 224.611L113.98 224.482L113.609 223.992L112.88 223.012C112.401 222.357 111.928 221.696 111.462 221.028C110.53 219.693 109.625 218.329 108.755 216.923C107.884 215.516 107.037 214.08 106.227 212.593C105.418 211.106 104.654 209.564 103.932 207.951C103.184 206.294 102.528 204.597 101.967 202.867C101.339 200.967 100.879 199.015 100.593 197.034C100.434 195.919 100.348 194.794 100.335 193.667C100.335 193.371 100.335 193.072 100.344 192.764C100.353 192.456 100.371 192.149 100.396 191.836L100.413 191.602V191.543L100.422 191.466L100.442 191.308C100.469 191.098 100.5 190.888 100.538 190.682C100.61 190.267 100.7 189.857 100.806 189.461C101.199 187.995 101.807 186.596 102.611 185.309C103.266 184.257 104.028 183.275 104.884 182.379C106.444 180.747 108.007 179.596 109.536 178.601C110.993 177.666 112.511 176.83 114.08 176.097C115.582 175.386 117.071 174.769 118.556 174.211C120.041 173.652 121.522 173.167 123 172.716C124.479 172.265 125.952 171.855 127.425 171.477C128.899 171.099 130.374 170.772 131.849 170.461C133.324 170.15 134.799 169.864 136.285 169.624C137.026 169.502 137.769 169.385 138.518 169.275C138.892 169.221 139.267 169.165 139.647 169.119L140.222 169.047L140.844 168.976L141.964 186.052Z" fill="#A04F48"/>
<path d="M154.894 88.8601C152.348 95.6434 147.438 101.28 141.069 104.732C134.699 108.185 127.297 109.222 120.223 107.652C116.613 106.852 113.118 105.356 110.261 103.002C107.403 100.647 105.232 97.3968 104.484 93.7751C104.352 93.1338 104.261 92.4848 104.212 91.832C104.204 91.7327 104.198 91.6361 104.192 91.5381C104.117 90.1183 104.165 88.6948 104.335 87.2832C104.335 87.2513 104.338 87.2194 104.342 87.1878C104.629 84.5627 105.165 81.9196 105.374 79.2893C105.682 75.4574 105.78 71.7944 105.333 68.268C104.852 64.48 103.74 60.8479 101.574 57.3319C119.729 54.7455 135.151 52.7147 152.641 55.3746C153.647 55.5277 154.659 55.6961 155.679 55.8801C155.362 56.0438 156.299 60.2638 155.984 60.425C157.178 69.9365 158.265 79.8902 154.894 88.8601Z" fill="#A04F48"/>
<g style="mix-blend-mode:multiply" opacity="0.4">
<g style="mix-blend-mode:multiply" opacity="0.4">
<path d="M140.849 168.98L140.227 169.051L139.652 169.123C139.266 169.169 138.897 169.225 138.523 169.279C137.774 169.388 137.031 169.506 136.288 169.628C134.804 169.868 133.331 170.161 131.854 170.465C130.378 170.769 128.904 171.11 127.431 171.481C125.957 171.852 124.483 172.269 123.006 172.72C121.528 173.171 120.048 173.665 118.561 174.214C117.075 174.764 115.587 175.39 114.085 176.101C112.516 176.834 110.999 177.67 109.541 178.605C108.012 179.6 106.447 180.751 104.889 182.382C104.152 183.155 103.483 183.991 102.889 184.88C106.189 184.797 109.938 187.113 110.754 190.359C111.436 192.915 109.903 195.47 110.584 198.196C110.797 199.144 111.275 200.013 111.964 200.699C111.897 200.34 111.837 199.985 111.783 199.634C111.581 198.376 111.482 197.103 111.488 195.829C111.495 195.31 111.54 194.793 111.623 194.282C111.641 194.167 111.662 194.059 111.688 193.958C111.714 193.857 111.886 193.629 112.028 193.478C112.24 193.257 112.466 193.05 112.704 192.857C113.481 192.245 114.32 191.717 115.208 191.28C116.28 190.747 117.383 190.278 118.511 189.876C119.686 189.449 120.916 189.071 122.171 188.726C123.427 188.38 124.713 188.061 126.016 187.777C127.32 187.493 128.637 187.242 129.967 187.015C131.296 186.788 132.634 186.568 133.979 186.381C135.324 186.194 141.965 186.047 141.965 186.047L140.849 168.98Z" fill="#A04F48"/>
</g>
</g>
<g style="mix-blend-mode:multiply" opacity="0.4">
<g style="mix-blend-mode:multiply" opacity="0.4">
<path d="M153.456 80.9357C153.42 81.1861 153.328 81.425 153.186 81.6343C153.044 81.8437 152.856 82.0179 152.637 82.1437C152.417 82.2695 152.172 82.3436 151.92 82.3604C151.667 82.3771 151.414 82.3361 151.18 82.2405C149.094 81.3947 147.209 73.4962 144.654 70.7653C141.758 68.0397 136.818 66.878 133.411 67.0172C125.063 67.3589 121.486 68.0397 113.309 65.314C110.063 64.2323 107.39 66.8612 105.338 68.264C104.857 64.4759 103.745 60.8439 101.579 57.3278C119.735 54.7414 135.156 52.7107 152.646 55.3706C152.813 56.6716 153.126 58.4418 152.922 58.5476C153.795 65.5242 154.437 73.8791 153.456 80.9357Z" fill="#A04F48"/>
</g>
</g>
<path d="M120.187 127.544L119.78 128.393L119.381 129.206C119.116 129.746 118.84 130.278 118.564 130.809C118.009 131.87 117.44 132.922 116.855 133.964C115.687 136.053 114.434 138.101 113.094 140.109C111.752 142.152 110.294 144.118 108.729 145.996C107.117 147.889 105.376 149.735 103.185 151.354C102.08 152.154 100.864 152.912 99.4172 153.464C99.0471 153.606 98.6696 153.728 98.2864 153.83C98.093 153.884 97.8932 153.931 97.6882 153.97L97.3826 154.031L97.1492 154.065C96.5381 154.145 95.9243 154.235 95.3158 154.304C92.8867 154.585 90.4975 154.691 88.12 154.74C85.7424 154.789 83.3804 154.74 81.0286 154.642C79.8514 154.6 78.6768 154.521 77.5023 154.444C76.3277 154.366 75.1647 154.271 73.9669 154.143C73.4707 154.091 73.0128 153.853 72.6858 153.476C72.3588 153.099 72.1871 152.613 72.2054 152.114C72.2238 151.615 72.4308 151.143 72.7846 150.791C73.1384 150.439 73.6127 150.235 74.1113 150.22H74.1397C75.2588 150.184 76.4179 150.141 77.559 150.091C78.7 150.041 79.8476 149.972 80.9886 149.904C83.2721 149.762 85.5464 149.588 87.7989 149.352C88.3611 149.29 88.9258 149.237 89.4841 149.166L91.1602 148.951L92.8157 148.707L94.4481 148.424C94.9857 148.321 95.513 148.202 96.0455 148.092L96.2402 148.051L96.3588 148.016C96.4416 147.997 96.523 147.972 96.6025 147.942C96.7781 147.884 96.9503 147.817 97.1183 147.74C97.821 147.43 98.5791 146.915 99.3101 146.313C100.792 145.086 102.203 143.488 103.511 141.785C104.834 140.034 106.067 138.217 107.207 136.341C108.368 134.449 109.451 132.482 110.504 130.501C111.028 129.508 111.537 128.507 112.032 127.498L112.761 125.985L113.116 125.231L113.448 124.504L113.484 124.425C113.684 123.981 113.97 123.581 114.325 123.248C114.68 122.915 115.097 122.655 115.553 122.484C116.008 122.313 116.494 122.233 116.98 122.25C117.467 122.267 117.945 122.379 118.388 122.582C118.831 122.784 119.229 123.072 119.561 123.428C119.892 123.785 120.15 124.204 120.319 124.66C120.488 125.117 120.565 125.602 120.545 126.089C120.526 126.575 120.411 127.053 120.206 127.495L120.187 127.544Z" fill="#A04F48"/>
<path d="M161.628 76.2386C161.158 76.2914 160.691 76.3736 160.231 76.4849C156.776 77.3023 154.331 79.5393 153.201 81.3457C152.669 80.1354 152.271 78.8709 152.013 77.5744C151.795 76.5429 151.626 75.447 151.414 74.1963C151.175 72.7626 151.068 68.9899 151.759 67.738C150.777 68.999 148.357 69.565 146.531 69.1653C144.597 68.745 143.777 67.2493 143.308 65.1593C143.117 64.3238 143.179 62.9545 143.397 61.4989C142.811 62.4347 142.067 63.2611 141.197 63.9409C141.038 64.0634 140.877 64.1794 140.711 64.2903C139.109 65.3566 137.019 65.8375 135.363 64.8744C134.058 64.1201 133.238 62.5987 132.895 61.027C132.552 59.4553 132.623 57.8165 132.695 56.2036C132.326 58.8777 131.076 61.4254 129.206 63.166C128.713 63.6285 128.169 64.0346 127.585 64.3767C124.822 65.9884 121.225 65.8723 118.689 63.8713C117.541 62.9364 116.668 61.7067 116.166 60.314C116.063 60.0368 115.974 59.7544 115.899 59.4695C115.73 60.0136 115.497 60.5356 115.204 61.0244C115.076 61.2396 114.934 61.4467 114.781 61.6446C113.947 62.7244 112.744 63.4589 111.403 63.7075C110.511 63.8764 109.589 63.7684 108.761 63.3981C107.927 62.9975 107.234 62.3544 106.773 61.553C106.679 64.2091 105.794 66.7878 103.663 67.3035C102.862 67.4943 101.934 67.0456 101.145 66.1366C98.7983 63.429 97.7178 56.6819 105.122 50.8915C107.166 49.2953 111.706 48.1039 116.501 47.3084C117.886 47.0802 119.291 46.8829 120.663 46.7179C124.821 46.2202 128.676 46.0204 130.733 46.108C131.322 46.1325 131.996 46.1815 132.734 46.2486C136.207 46.5936 139.651 47.1934 143.037 48.0433C146.412 48.9046 149.527 50.0354 151.321 51.4072C152.443 52.2646 153.473 53.1182 154.415 53.9859C158.179 57.489 160.475 61.3493 161.12 67.2983C161.142 67.4995 161.409 69.4438 161.567 71.6821C161.674 73.2216 161.732 74.8913 161.628 76.2386Z" fill="#240A3A"/>
<g style="mix-blend-mode:multiply" opacity="0.4">
<g style="mix-blend-mode:multiply" opacity="0.4">
<path d="M118.569 130.809C118.845 130.277 119.121 129.746 119.386 129.206L119.78 128.392L120.182 127.543C120.182 127.534 120.2 127.505 120.204 127.496C120.421 127.053 120.548 126.571 120.576 126.078C120.604 125.585 120.533 125.092 120.367 124.627C120.201 124.162 119.943 123.735 119.61 123.372C119.276 123.008 118.873 122.714 118.424 122.509C117.976 122.304 117.49 122.19 116.997 122.175C116.503 122.161 116.012 122.245 115.552 122.423C115.092 122.601 114.672 122.87 114.317 123.213C113.962 123.556 113.68 123.967 113.486 124.421L113.45 124.5L113.119 125.227L112.763 125.981L112.035 127.494C111.54 128.5 111.03 129.501 110.507 130.497C110.21 131.053 109.909 131.607 109.604 132.16C111.27 133.85 113.472 135.049 115.818 135.757C116.169 135.16 116.513 134.558 116.849 133.952C117.444 132.917 118.017 131.869 118.569 130.809Z" fill="#A04F48"/>
</g>
</g>
<path d="M118.764 132.334L118.413 132.839L118.347 132.932C118.058 133.34 117.754 133.754 117.433 134.174C117.433 134.174 111.502 133.563 108.893 130.223C108.893 130.223 109.101 129.67 109.479 128.781C109.56 128.583 109.652 128.369 109.75 128.142C111.574 123.957 115.996 114.991 120.089 115.959C122.937 116.626 125.753 122.153 118.764 132.334Z" fill="#51B8F4"/>
<g style="mix-blend-mode:multiply" opacity="0.4">
<g style="mix-blend-mode:multiply" opacity="0.4">
<path d="M120.089 115.959C119.769 115.885 119.438 115.869 119.112 115.91C118.291 118.774 117.776 121.723 116.427 124.42C114.751 127.495 112.157 129.372 109.163 130.546C111.894 133.6 117.433 134.173 117.433 134.173C117.755 133.752 118.059 133.338 118.347 132.931L118.413 132.838L118.764 132.333C125.753 122.153 122.937 116.626 120.089 115.959Z" fill="#FFA395"/>
</g>
</g>
<path d="M118.271 133.496C118.159 134.586 118.043 135.775 117.928 137.031C117.918 137.142 117.908 137.253 117.899 137.364C117.864 137.745 117.83 138.132 117.795 138.524C117.74 139.156 117.686 139.802 117.633 140.458C117.616 140.654 117.601 140.853 117.585 141.05C117.514 141.938 117.446 142.842 117.383 143.758C117.338 144.402 117.294 145.047 117.254 145.703C117.148 147.396 117.058 149.092 116.996 150.739C116.988 150.904 116.982 151.068 116.977 151.232C116.953 151.887 116.934 152.532 116.917 153.166C116.903 153.8 116.892 154.423 116.886 155.03C116.886 155.601 116.886 156.16 116.886 156.706C116.886 156.794 116.886 156.882 116.886 156.964C116.886 157.128 116.886 157.292 116.894 157.453C116.902 157.614 116.894 157.783 116.904 157.945C116.975 160.804 117.217 163.085 117.703 164.31C119.784 169.547 150.356 169.43 152.128 164.243C152.4 163.392 152.596 162.518 152.715 161.633C152.769 161.269 152.817 160.888 152.86 160.488L152.868 160.421C152.911 160.027 152.948 159.617 152.979 159.191V159.139C152.996 158.932 153.01 158.72 153.023 158.505C153.023 158.491 153.023 158.475 153.023 158.46C153.036 158.245 153.047 158.025 153.058 157.804C153.211 154.654 153.138 150.821 152.871 146.67C152.871 146.638 152.871 146.606 152.864 146.574C152.843 146.249 152.82 145.924 152.797 145.597C152.774 145.271 152.749 144.942 152.724 144.61L152.685 144.113C152.606 143.132 152.517 142.14 152.419 141.138C152.413 141.08 152.406 141.02 152.401 140.961C152.342 140.361 152.272 139.759 152.212 139.156L152.2 139.044C151.956 136.824 151.669 134.577 151.34 132.352C151.327 132.262 151.314 132.172 151.3 132.081C151.287 131.988 151.273 131.894 151.258 131.802C151.185 131.319 151.111 130.838 151.035 130.359C150.282 125.631 150.8 117.799 148.893 115.574C148.671 115.333 148.409 115.133 148.119 114.981C147.354 114.553 146.237 114.193 145.025 113.916C143.014 113.457 140.729 113.222 139.305 113.271H139.289C139.152 113.271 139.023 113.283 138.902 113.294H138.848C138.8 113.294 138.739 113.302 138.666 113.303H138.653C138.534 113.303 138.385 113.303 138.208 113.303C137.95 113.303 137.649 113.293 137.306 113.284C135.477 113.241 132.513 113.176 130.36 113.521L129.098 113.721L128.636 113.797L128.289 113.859L127.903 113.929L127.754 113.957L127.625 113.98H127.6L127.335 114.031C127.102 114.076 126.861 114.123 126.616 114.174L126.318 114.234C126.15 114.269 125.981 114.304 125.811 114.341L125.641 114.377C124.69 114.581 123.707 114.808 122.788 115.039L122.641 115.076L122.036 115.233L121.787 115.302C121.143 115.476 120.57 115.649 120.102 115.818C120.011 115.849 119.923 115.881 119.844 115.912H119.831H119.821C119.728 115.947 119.642 115.98 119.563 116.014C117.598 116.832 119.553 121.44 119.176 125.366C119.069 126.506 118.979 127.53 118.876 128.296C118.738 129.327 118.555 130.887 118.36 132.794C118.36 132.848 118.347 132.904 118.342 132.959L118.271 133.496Z" fill="#51B8F4"/>
<path d="M129.131 113.485C129.504 113.423 129.875 113.367 130.239 113.31C132.404 112.962 135.327 112.998 137.315 113.044L137.464 113.521L137.604 113.958C137.181 115.574 135.806 117.42 133.43 117.477C131.508 117.525 129.835 116.149 129.081 114.167L129.131 113.485Z" fill="#A04F48"/>
<g style="mix-blend-mode:multiply" opacity="0.4">
<g style="mix-blend-mode:multiply" opacity="0.4">
<path d="M153.021 158.46C153.021 158.475 153.021 158.491 153.021 158.505C153.007 158.72 152.993 158.932 152.978 159.139V159.191C152.945 159.616 152.908 160.028 152.867 160.421L152.859 160.488C152.815 160.888 152.767 161.269 152.713 161.633C152.595 162.518 152.399 163.392 152.127 164.243C150.359 169.43 119.786 169.547 117.701 164.31C117.215 163.085 116.974 160.804 116.903 157.945C116.903 157.783 116.895 157.618 116.893 157.453C116.89 157.288 116.893 157.128 116.885 156.964C116.885 156.878 116.885 156.79 116.885 156.706C116.885 156.436 116.885 156.161 116.885 155.882C116.885 155.604 116.885 155.323 116.885 155.037C116.885 154.429 116.901 153.807 116.916 153.172C116.932 152.538 116.951 151.892 116.975 151.238C116.975 151.075 116.987 150.911 116.995 150.746C117.059 149.098 117.149 147.402 117.253 145.71C117.294 145.065 117.338 144.41 117.382 143.764C117.445 142.854 117.51 141.95 117.584 141.056C117.599 140.859 117.615 140.661 117.632 140.465C117.685 139.81 117.739 139.164 117.794 138.531C117.828 138.139 117.862 137.752 117.897 137.37C117.906 137.259 117.917 137.148 117.927 137.037C118.73 135.267 119.545 133.503 120.423 131.777C123.029 126.783 121.155 121.242 119.806 115.918L119.829 115.909L120.087 115.815C120.555 115.651 121.132 115.478 121.772 115.299L122.021 115.231L122.625 115.074L122.772 115.036C123.688 114.805 124.674 114.578 125.626 114.375L125.796 114.339C125.966 114.301 126.135 114.266 126.302 114.232L126.6 114.171C126.845 114.121 127.086 114.073 127.32 114.028L127.584 113.978L127.735 113.949L127.883 113.921C128.141 113.873 128.387 113.829 128.617 113.792C128.756 114.205 128.885 114.622 129.058 115.01C130.605 118.878 127.64 126.099 132.668 126.357C139.244 126.795 138.368 119.04 138.194 113.298C138.489 113.298 138.71 113.298 138.839 113.288C140.187 113.159 142.77 113.392 145.013 113.904C142.266 121.558 146.063 133.028 152.013 138.863L152.199 139.037C152.269 139.679 152.336 140.319 152.4 140.956C152.4 141.015 152.412 141.074 152.418 141.132C152.516 142.134 152.604 143.128 152.684 144.108L152.722 144.605C152.748 144.936 152.773 145.265 152.796 145.592C152.819 145.92 152.841 146.245 152.863 146.568C152.863 146.601 152.863 146.633 152.869 146.665C153.154 151.111 153.219 155.188 153.021 158.46Z" fill="#51B8F4"/>
</g>
</g>
<path d="M102.964 163.082L44.2128 162.51C43.8765 162.506 43.5519 162.386 43.2936 162.17C43.0353 161.955 42.8591 161.657 42.7945 161.327L34.143 117.133C34.1018 116.921 34.1079 116.702 34.1611 116.493C34.2142 116.283 34.313 116.088 34.4504 115.921C34.5878 115.755 34.7604 115.62 34.9558 115.528C35.1512 115.436 35.3646 115.388 35.5806 115.388H94.1425C94.4815 115.388 94.81 115.506 95.072 115.721C95.3339 115.936 95.5131 116.235 95.5788 116.568L104.419 161.334C104.461 161.548 104.455 161.768 104.401 161.979C104.348 162.191 104.248 162.387 104.108 162.555C103.969 162.722 103.794 162.857 103.596 162.948C103.398 163.039 103.182 163.085 102.964 163.082Z" fill="#C2BDBD"/>
<path d="M121.535 192.942C127.355 190.75 134.104 188.833 140.323 188.745C144.218 188.69 148.615 188.874 151.401 186.156C153.254 184.351 154.286 178.895 154.732 176.343C156.186 168.035 153.967 148.764 153.967 148.764C153.967 148.764 148.349 143.911 146.305 130.632C146.305 130.632 127.754 130.746 122.3 130.632C121.535 135.739 120.769 148.764 116.427 149.019C116.17 151.062 116.693 158.86 113.873 162.557C112.485 164.377 108.608 166.597 106.467 167.409C99.3411 170.117 89.8683 172.261 85.0165 177.113C97.019 179.153 111.576 185.794 121.535 192.942Z" fill="#4D4CAC"/>
<g style="mix-blend-mode:multiply" opacity="0.4">
<g style="mix-blend-mode:multiply" opacity="0.57">
<g style="mix-blend-mode:multiply" opacity="0.57">
<path d="M149.641 142.234C148.351 139.433 147.074 135.63 146.305 130.63C146.305 130.63 142.943 130.65 138.66 130.666C141.835 137.86 142.43 146.626 137.186 153.3C135.768 154.976 134.22 156.137 132.028 156.781C126.665 158.314 121.028 159.163 115.552 158.681C115.195 160.149 114.666 161.517 113.876 162.549C112.487 164.368 108.61 166.588 106.47 167.4C101.249 169.382 94.7717 171.066 89.7716 173.731C93.3663 172.442 97.3117 173.411 100.829 174.701C107.147 177.021 112.82 180.503 119.524 181.534C124.424 182.179 129.323 181.405 134.094 180.116C139.122 178.826 143.893 175.861 146.085 171.09C149.05 164.644 149.953 157.681 150.211 150.719C150.391 147.894 149.927 145.064 149.641 142.234Z" fill="#4D4CAC"/>
</g>
</g>
<g style="mix-blend-mode:multiply" opacity="0.4">
<path d="M153.967 148.764C153.967 148.764 151.775 146.875 149.641 142.234C149.927 145.064 150.391 147.894 150.208 150.724C149.95 157.686 149.048 164.649 146.082 171.096C143.89 175.866 139.12 178.832 134.091 180.121C129.321 181.41 124.421 182.184 119.522 181.539C112.817 180.508 107.144 177.026 100.826 174.706C97.3091 173.416 93.3637 172.447 89.769 173.736C87.9446 174.71 86.3149 175.812 85.0165 177.109C97.019 179.153 111.577 185.791 121.535 192.942C127.355 190.75 134.104 188.833 140.323 188.745C144.218 188.69 148.615 188.874 151.401 186.156C153.254 184.351 154.286 178.895 154.732 176.343C156.186 168.035 153.967 148.764 153.967 148.764Z" fill="#4D4CAC"/>
</g>
</g>
<path d="M217.307 164.464H17.2398C15.958 164.464 14.919 165.503 14.919 166.785V171.469C14.919 172.751 15.958 173.79 17.2398 173.79H217.307C218.588 173.79 219.628 172.751 219.628 171.469V166.785C219.628 165.503 218.588 164.464 217.307 164.464Z" fill="#51B8F4"/>
<g style="mix-blend-mode:multiply" opacity="0.4">
<g style="mix-blend-mode:multiply" opacity="0.4">
<path d="M219.628 169.106V171.469C219.628 172.085 219.383 172.675 218.948 173.11C218.513 173.546 217.922 173.79 217.307 173.79H17.2398C16.6243 173.79 16.034 173.546 15.5987 173.11C15.1635 172.675 14.919 172.085 14.919 171.469V169.106H219.628Z" fill="#FFBD77"/>
</g>
</g>
<path d="M133.647 160.142H101.129C100.625 160.142 100.215 160.552 100.215 161.057V163.55C100.215 164.055 100.625 164.464 101.129 164.464H133.647C134.151 164.464 134.561 164.055 134.561 163.55V161.057C134.561 160.552 134.151 160.142 133.647 160.142Z" fill="#C2BDBD"/>
<path d="M34.9089 115.549L32.6835 117.023L36.3001 116.926L38.1194 115.561L34.9089 115.549Z" fill="#C2BDBD"/>
<path d="M100.918 164.446L41.9036 164.52C41.2086 164.52 41.001 164.041 40.8721 163.359L32.093 118.498C32.0515 118.286 32.0575 118.067 32.1104 117.858C32.1634 117.648 32.2621 117.453 32.3994 117.286C32.5367 117.12 32.7092 116.985 32.9045 116.893C33.0999 116.8 33.3132 116.752 33.5293 116.752H92.0911C92.4303 116.752 92.759 116.87 93.021 117.085C93.283 117.301 93.462 117.601 93.5275 117.933L102.374 162.699C102.416 162.913 102.41 163.134 102.356 163.345C102.302 163.556 102.202 163.752 102.062 163.92C101.923 164.087 101.748 164.221 101.55 164.312C101.352 164.404 101.136 164.449 100.918 164.446Z" fill="#DCD3D4"/>
<path d="M68.2145 145.202C69.636 143.781 69.636 141.476 68.2145 140.055C66.7931 138.633 64.4885 138.633 63.0671 140.055C61.6456 141.476 61.6456 143.781 63.0671 145.202C64.4885 146.624 66.7931 146.624 68.2145 145.202Z" fill="#F3EEEE"/>
<path d="M131.407 81.7442C131.495 83.7723 132.215 85.3892 133.015 85.3543C133.814 85.3195 134.391 83.646 134.304 81.6153C134.218 79.5846 133.496 77.969 132.696 78.0051C131.897 78.0412 131.318 79.7186 131.407 81.7442Z" fill="black"/>
<path d="M134.027 76.735C134.019 76.9607 133.534 76.7583 132.632 76.735C131.729 76.7118 131.237 76.8382 131.243 76.6061C131.25 76.374 131.75 76.0968 132.652 76.1252C133.555 76.1535 134.035 76.5094 134.027 76.735Z" fill="black"/>
<path d="M113.53 81.721C113.623 83.7504 113.051 85.4252 112.251 85.4601C111.452 85.4949 110.729 83.8819 110.636 81.8499C110.543 79.8179 111.115 78.1469 111.915 78.1108C112.714 78.0747 113.437 79.6916 113.53 81.721Z" fill="black"/>
<path d="M110.472 76.9632C110.5 77.1876 110.964 76.9426 111.862 76.8343C112.759 76.726 113.261 76.8124 113.234 76.588C113.207 76.3637 112.688 76.1239 111.786 76.2335C110.883 76.343 110.445 76.7389 110.472 76.9632Z" fill="black"/>
<path d="M110.351 66.4397C112.659 65.755 114.303 65.8363 114.661 67.0482C115.019 68.2602 113.325 68.9822 111.016 69.6695C108.707 70.3567 106.661 70.7383 106.302 69.5263C105.944 68.3144 108.047 67.123 110.351 66.4397Z" fill="#240A3A"/>
<path d="M131.781 66.0903C129.22 65.492 127.435 65.6867 127.121 67.0302C126.808 68.3737 128.702 69.0558 131.261 69.654C133.821 70.2523 136.077 70.5398 136.39 69.195C136.704 67.8502 134.34 66.6886 131.781 66.0903Z" fill="#240A3A"/>
<path d="M140.035 92.4937C142.968 92.3133 145.271 90.956 145.179 89.462C145.087 87.968 142.635 86.9031 139.703 87.0835C136.77 87.2639 134.467 88.6213 134.559 90.1152C134.651 91.6092 137.103 92.6741 140.035 92.4937Z" fill="#863F3B"/>
<path d="M112.454 90.4188C112.286 91.9067 109.783 92.8428 106.863 92.5114C105.951 92.4138 105.057 92.1845 104.211 91.8307C104.211 91.734 104.198 91.636 104.19 91.538C104.116 90.1182 104.164 88.6948 104.333 87.2832C105.364 87.0479 106.427 86.9938 107.476 87.1233C110.393 87.4572 112.625 88.931 112.454 90.4188Z" fill="#863F3B"/>
<path d="M119.416 88.5223C118.934 89.4506 119.098 91.0533 120.834 90.1327C120.834 90.1327 122.293 91.9829 124.174 89.947C124.174 89.947 125.81 91.0068 125.44 88.9155C125.07 86.8242 120.295 86.8332 119.416 88.5223Z" fill="#863F3B"/>
<g style="mix-blend-mode:screen" opacity="0.5">
<g style="mix-blend-mode:screen" opacity="0.5">
<path d="M123.64 88.4152C123.627 88.1006 123.029 87.8686 122.303 87.8995C121.577 87.9304 121.001 88.2077 121.014 88.5235C121.027 88.8394 121.625 89.0702 122.351 89.0393C123.077 89.0083 123.648 88.7311 123.64 88.4152Z" fill="#863F3B"/>
</g>
</g>
<path d="M157.312 124.916L157.773 125.85L158.212 126.765C158.502 127.375 158.784 127.988 159.063 128.6C159.62 129.826 160.163 131.058 160.69 132.298C161.742 134.781 162.715 137.309 163.61 139.882C164.054 141.171 164.477 142.479 164.863 143.809C165.248 145.14 165.586 146.5 165.866 147.908C166.172 149.37 166.362 150.855 166.433 152.347C166.47 153.192 166.433 154.039 166.324 154.878C166.195 155.781 165.982 156.78 165.375 157.872C165.296 158.001 165.217 158.143 165.135 158.274C165.052 158.406 164.941 158.545 164.841 158.678L164.687 158.874L164.511 159.066C164.391 159.195 164.27 159.324 164.142 159.436C163.877 159.673 163.59 159.885 163.286 160.07C163.135 160.159 162.98 160.253 162.826 160.328C162.671 160.403 162.512 160.467 162.354 160.532C162.202 160.595 162.045 160.649 161.886 160.691C161.731 160.736 161.575 160.777 161.418 160.819C161.26 160.862 161.122 160.87 160.974 160.893L160.752 160.924L160.649 160.937H160.583L159.538 161.003C159.191 161.022 158.836 161.053 158.496 161.061L157.465 161.093C157.123 161.102 156.78 161.116 156.441 161.121H155.426C152.718 161.139 150.055 161.061 147.395 160.942C144.735 160.823 142.087 160.64 139.443 160.446C138.121 160.348 136.8 160.228 135.481 160.109C134.162 159.99 132.847 159.863 131.517 159.714C131.017 159.66 130.557 159.416 130.231 159.033C129.906 158.649 129.739 158.156 129.766 157.654C129.794 157.152 130.012 156.679 130.377 156.333C130.742 155.987 131.225 155.794 131.728 155.794H131.751L135.677 155.801L139.608 155.782C142.228 155.773 144.841 155.734 147.45 155.665C150.057 155.603 152.655 155.497 155.216 155.331L156.177 155.268C156.495 155.246 156.808 155.212 157.124 155.186L158.071 155.101C158.386 155.075 158.687 155.029 158.996 154.994L159.918 154.882H159.975C159.994 154.882 159.986 154.882 159.994 154.882L160.015 154.873C160.029 154.869 160.043 154.866 160.057 154.865C160.057 154.858 160.057 154.854 160.065 154.851C160.073 154.849 160.074 154.851 160.065 154.851C160.062 154.849 160.059 154.848 160.055 154.848C160.052 154.848 160.049 154.849 160.046 154.851C160.046 154.851 160.02 154.851 160.011 154.86C160.002 154.869 159.957 154.876 159.944 154.903C159.932 154.903 159.922 154.903 159.916 154.916C159.912 154.919 159.909 154.924 159.908 154.928H159.9C159.897 154.919 159.897 154.909 159.9 154.9C159.982 154.65 160.03 154.39 160.042 154.126C160.072 153.656 160.065 153.184 160.021 152.715C159.904 151.579 159.7 150.455 159.41 149.351C159.119 148.19 158.755 147.004 158.359 145.823C157.964 144.642 157.537 143.452 157.08 142.268C156.166 139.9 155.146 137.547 154.075 135.208C153.544 134.038 152.997 132.873 152.435 131.714L151.585 129.984L151.157 129.125L150.733 128.293L150.703 128.234C150.29 127.365 150.232 126.368 150.543 125.457C150.853 124.546 151.506 123.792 152.364 123.355C153.222 122.918 154.216 122.833 155.135 123.118C156.055 123.404 156.827 124.036 157.287 124.882L157.312 124.916Z" fill="#A04F48"/>
<path d="M130.054 159.914C129.804 159.76 129.501 159.584 129.218 159.422C128.934 159.259 128.639 159.097 128.346 158.938C127.761 158.622 127.169 158.318 126.576 158.036C125.983 157.753 125.387 157.486 124.795 157.254C124.236 157.028 123.66 156.842 123.074 156.699C123.006 156.682 122.94 156.668 122.877 156.656L122.78 156.637H122.758L122.77 156.629C122.784 156.61 122.731 156.593 122.651 156.594C122.417 156.612 122.186 156.665 121.968 156.752C121.386 156.972 120.825 157.244 120.292 157.564C119.132 158.251 118.02 159.016 116.963 159.852L116.943 159.869C116.788 159.992 116.593 160.052 116.396 160.039C116.198 160.026 116.013 159.941 115.875 159.799C115.737 159.657 115.657 159.469 115.649 159.272C115.642 159.074 115.708 158.881 115.834 158.729C116.75 157.606 117.741 156.546 118.8 155.556C119.365 155.025 119.976 154.544 120.626 154.119C121.015 153.864 121.435 153.658 121.875 153.506C122.169 153.406 122.476 153.347 122.786 153.33H122.928H123.042H123.204C123.315 153.33 123.421 153.34 123.525 153.348C124.312 153.415 125.093 153.542 125.862 153.727C126.602 153.897 127.316 154.097 128.017 154.315C128.719 154.533 129.411 154.767 130.096 155.016C130.437 155.145 130.778 155.274 131.118 155.403C131.459 155.532 131.786 155.661 132.15 155.824L132.181 155.837C132.462 155.955 132.718 156.127 132.933 156.344C133.148 156.562 133.317 156.819 133.432 157.102C133.546 157.385 133.604 157.688 133.6 157.994C133.597 158.299 133.533 158.601 133.412 158.881C133.292 159.162 133.116 159.416 132.897 159.628C132.677 159.84 132.418 160.007 132.134 160.118C131.849 160.23 131.546 160.284 131.24 160.277C130.935 160.27 130.634 160.203 130.355 160.079C130.251 160.031 130.151 159.976 130.054 159.914Z" fill="#A04F48"/>
<g style="mix-blend-mode:multiply" opacity="0.4">
<g style="mix-blend-mode:multiply" opacity="0.4">
<path d="M160.155 130.905C159.74 129.945 159.497 129.553 159.063 128.6C158.784 127.988 158.502 127.375 158.212 126.765L157.773 125.85L157.312 124.916L157.289 124.871C156.829 124.026 156.057 123.393 155.138 123.108C154.219 122.823 153.224 122.908 152.367 123.345C151.509 123.781 150.855 124.536 150.545 125.447C150.235 126.358 150.293 127.354 150.706 128.224L150.735 128.283L151.16 129.115L151.588 129.974L152.437 131.704C152.639 132.119 153.144 133.209 153.34 133.626C155.556 133.12 157.886 131.899 160.155 130.905Z" fill="#A04F48"/>
</g>
<g style="mix-blend-mode:multiply" opacity="0.4">
<path d="M159.899 154.925H159.907C159.908 154.92 159.911 154.915 159.914 154.912C159.914 154.904 159.931 154.903 159.943 154.899C159.946 154.893 159.95 154.888 159.956 154.885H159.921H159.9C159.897 154.891 159.895 154.898 159.895 154.905C159.894 154.912 159.896 154.918 159.899 154.925Z" fill="#A04F48"/>
</g>
</g>
<path d="M159.322 126.336C159.268 126.247 159.21 126.154 159.148 126.056C157.178 122.928 152.089 115.471 148.112 114.968C147.609 114.897 147.097 114.96 146.626 115.15C143.911 116.274 142.016 122.251 150.737 131.266C150.904 131.442 151.077 131.616 151.252 131.793L151.381 131.921C151.557 132.096 151.737 132.271 151.92 132.446L152.178 132.696C152.178 132.696 157.931 131.139 159.971 127.422C159.971 127.422 159.876 127.257 159.699 126.963L159.322 126.336Z" fill="#51B8F4"/>
<path d="M217.18 155.159H184.418C184.091 155.158 183.769 155.245 183.487 155.412C183.205 155.579 182.973 155.819 182.817 156.107C183.178 156.174 183.533 156.274 183.877 156.405C185.566 157.049 186.725 158.384 186.725 159.919C186.725 161.455 185.564 162.788 183.877 163.434C183.533 163.566 183.179 163.666 182.817 163.732C182.973 164.02 183.205 164.26 183.487 164.427C183.769 164.594 184.09 164.682 184.418 164.681H217.18C217.421 164.681 217.66 164.634 217.883 164.542C218.105 164.45 218.308 164.314 218.478 164.144C218.648 163.974 218.784 163.771 218.876 163.549C218.968 163.326 219.015 163.087 219.015 162.846V156.993C219.015 156.752 218.968 156.513 218.876 156.29C218.784 156.068 218.648 155.866 218.478 155.695C218.308 155.525 218.105 155.39 217.883 155.298C217.66 155.206 217.421 155.159 217.18 155.159Z" fill="#FFB159"/>
<path d="M211.563 157.59V162.251C211.562 162.565 211.437 162.867 211.214 163.09C210.992 163.312 210.69 163.437 210.375 163.438H183.98C183.945 163.44 183.911 163.44 183.877 163.438C185.566 162.793 185.482 161.667 185.482 160.131C185.482 158.595 185.566 157.055 183.877 156.409C183.911 156.407 183.945 156.407 183.98 156.409H210.375C210.689 156.409 210.989 156.534 211.212 156.755C211.434 156.976 211.56 157.276 211.563 157.59Z" fill="#D3BDBE"/>
<path d="M208.252 150.399C208.252 148.852 209.368 147.525 210.992 146.879C211.579 146.648 211.699 146.492 212.39 146.465C212.068 145.961 212.031 145.637 211.385 145.637H178.623C178.382 145.637 178.143 145.685 177.92 145.777C177.698 145.869 177.496 146.004 177.325 146.175C177.155 146.345 177.02 146.547 176.928 146.77C176.836 146.993 176.789 147.231 176.789 147.472V153.326C176.789 153.567 176.836 153.805 176.928 154.028C177.02 154.25 177.156 154.452 177.326 154.623C177.496 154.793 177.698 154.928 177.921 155.02C178.143 155.112 178.382 155.159 178.623 155.159H211.385C212.029 155.159 212.068 154.836 212.39 154.331C211.699 154.302 211.579 154.15 210.992 153.918C209.368 153.272 208.252 151.938 208.252 150.399Z" fill="#4D4CAC"/>
<path d="M210.992 153.918H185.429C185.114 153.917 184.812 153.791 184.589 153.569C184.366 153.346 184.241 153.044 184.24 152.729V148.068C184.241 147.753 184.366 147.451 184.589 147.228C184.812 147.005 185.114 146.88 185.429 146.879H210.992C209.368 147.524 209.493 149.071 209.493 150.605C209.493 152.14 209.368 153.272 210.992 153.918Z" fill="#D3BDBE"/>
<path d="M186.103 159.557C191.847 159.686 197.591 159.663 203.337 159.686C203.936 159.686 203.936 158.756 203.337 158.755C197.591 158.738 191.847 158.755 186.103 158.626C185.504 158.613 185.504 159.544 186.103 159.557Z" fill="#E1D2D3"/>
<path d="M192.274 162.512C198.004 162.69 203.735 162.729 209.468 162.63C210.066 162.619 210.067 161.687 209.468 161.697C203.735 161.798 198.004 161.759 192.274 161.58C191.675 161.562 191.676 162.493 192.274 162.512Z" fill="#E1D2D3"/>
<path d="M186.274 149.21C192.946 149.268 199.618 149.264 206.289 149.197C206.889 149.191 206.877 148.26 206.276 148.265C199.605 148.333 192.934 148.338 186.262 148.279C185.662 148.279 185.674 149.205 186.274 149.21Z" fill="#E1D2D3"/>
<path d="M193.93 151.755C199.051 151.911 204.166 151.793 209.286 151.699C209.885 151.687 209.887 150.756 209.286 150.766C204.166 150.861 199.051 150.98 193.93 150.823C193.33 150.805 193.331 151.736 193.93 151.755Z" fill="#E1D2D3"/>
<path d="M215.177 141.451C215.177 139.911 216.23 137.832 217.991 137.832C219.355 137.832 218.992 136.691 218.341 136.691H185.269C185.027 136.689 184.787 136.736 184.563 136.827C184.339 136.919 184.135 137.053 183.963 137.224C183.791 137.394 183.655 137.596 183.561 137.82C183.467 138.043 183.419 138.282 183.418 138.524V144.378C183.419 144.62 183.467 144.859 183.561 145.083C183.654 145.306 183.791 145.509 183.963 145.679C184.135 145.85 184.339 145.984 184.563 146.076C184.787 146.167 185.027 146.214 185.269 146.212H218.341C218.985 146.212 219.129 144.882 217.944 144.97C216.188 145.1 215.177 142.988 215.177 141.451Z" fill="#985BC0"/>
<path d="M218.218 145.02L186.644 145.11C185.818 145.11 185.145 144.565 185.145 143.898V139.146C185.145 138.479 185.818 137.935 186.644 137.935L218.218 137.832C216.854 138.527 216.626 140.204 216.626 141.773C216.626 143.342 216.626 145.02 218.218 145.02Z" fill="#D3BDBE"/>
<path d="M186.372 140.183C194.477 140.294 202.585 140.343 210.695 140.329C211.423 140.329 211.418 139.397 210.688 139.398C202.58 139.412 194.472 139.363 186.365 139.251C185.637 139.242 185.643 140.173 186.365 140.183H186.372Z" fill="#E1D2D3"/>
<path d="M196.466 143.256C202.688 143.413 208.905 143.293 215.128 143.199C215.855 143.189 215.857 142.257 215.128 142.268C208.905 142.363 202.688 142.481 196.466 142.325C195.737 142.306 195.737 143.238 196.466 143.256Z" fill="#E1D2D3"/>
<path d="M179.39 164.243H169.54L167.832 149.397H180.796L179.39 164.243Z" fill="#C8E6E4"/>
<path d="M180.796 149.547C180.796 150.743 177.894 151.626 174.315 151.626C170.736 151.626 167.832 150.657 167.832 149.459C167.832 148.261 170.734 147.293 174.315 147.293C177.895 147.293 180.796 148.349 180.796 149.547Z" fill="#C8E6E4"/>
<path d="M176.235 159.016L171.712 158.918L172.752 142.807L175.456 142.974L176.235 159.016Z" fill="#FF5C1D"/>
<g style="mix-blend-mode:multiply" opacity="0.4">
<g style="mix-blend-mode:multiply" opacity="0.4">
<path d="M175.456 142.974L172.757 142.807C174.213 144.94 175.889 148.197 174.069 150.702C173.52 151.444 172.862 152.099 172.117 152.644L171.712 158.918L176.235 159.016L175.456 142.974Z" fill="#AF6CF6"/>
</g>
</g>
<g style="mix-blend-mode:multiply" opacity="0.2">
<g style="mix-blend-mode:multiply" opacity="0.2">
<path d="M172.757 142.807L172.64 144.627C173.353 145.3 174.02 146.303 173.672 147.44C173.426 148.274 172.96 149.027 172.323 149.619L172.127 152.644C172.872 152.099 173.531 151.444 174.079 150.702C175.889 148.197 174.213 144.94 172.757 142.807Z" fill="#AF6CF6"/>
</g>
</g>
<path d="M172.752 142.807L173.65 139.813L174.101 138.306L174.543 139.828L175.456 142.974L172.752 142.807Z" fill="#FADC8A"/>
<path d="M173.65 139.813L174.101 138.306L174.543 139.828L173.65 139.813Z" fill="black"/>
<path d="M171.712 158.894C171.723 158.386 172.743 158.005 173.993 158.042C175.242 158.08 176.245 158.523 176.235 159.031C176.224 159.539 175.203 159.922 173.954 159.883C172.705 159.845 171.701 159.404 171.712 158.894Z" fill="#F89EDA"/>
<path d="M173.518 159.001C173.518 158.881 173.704 158.79 173.928 158.798C174.152 158.805 174.33 158.906 174.328 159.026C174.325 159.146 174.142 159.237 173.919 159.231C173.696 159.224 173.516 159.121 173.518 159.001Z" fill="black"/>
<path d="M179.347 150.788C178.433 154.511 177.305 157.27 177.782 157.44C178.259 157.61 179.387 154.732 180.303 151.007C181.218 147.283 181.573 144.13 181.096 143.96C180.619 143.79 180.261 147.066 179.347 150.788Z" fill="#6A3688"/>
<path d="M167.429 143.126L171.93 142.584L172.47 158.729L169.769 158.946L167.429 143.126Z" fill="#FF9420"/>
<path d="M176.205 143.738L180.579 145.131L175.441 162.306L173.82 161.872L176.205 143.738Z" fill="#FF356B"/>
<path d="M172.47 158.729L171.87 161.829L171.569 163.389L170.982 161.941L169.769 158.946L172.47 158.729Z" fill="#FADC8A"/>
<path d="M171.87 161.829L171.569 163.389L170.982 161.941L171.87 161.829Z" fill="black"/>
<g style="mix-blend-mode:multiply" opacity="0.2">
<g style="mix-blend-mode:multiply" opacity="0.2">
<path d="M167.679 144.823L168.049 147.317C169.975 149.211 170.733 152.539 169.209 155.182L169.596 157.761C170.47 156.92 171.159 155.937 171.227 154.621C171.353 151.12 170.533 146.492 167.679 144.823Z" fill="#FF9420"/>
</g>
</g>
<g style="mix-blend-mode:multiply" opacity="0.4">
<g style="mix-blend-mode:multiply" opacity="0.4">
<path d="M171.93 142.583L167.429 143.126L167.679 144.823C170.533 146.499 171.349 151.12 171.223 154.622C171.155 155.937 170.466 156.92 169.592 157.761L169.769 158.951L172.476 158.735L171.93 142.583Z" fill="#FF9420"/>
</g>
</g>
<path d="M171.931 142.601C171.97 143.108 170.994 143.632 169.749 143.77C168.505 143.908 167.466 143.612 167.429 143.105C167.391 142.598 168.366 142.074 169.609 141.936C170.852 141.798 171.892 142.099 171.931 142.601Z" fill="#FADC8A"/>
<g style="mix-blend-mode:multiply" opacity="0.4">
<g style="mix-blend-mode:multiply" opacity="0.4">
<path d="M162.091 46.1068C158.432 51.9398 149.558 52.1512 142.512 49.6602C135.55 47.204 129.247 40.9378 129.945 34.0785C131.388 33.8778 132.846 33.8006 134.303 33.8478C148.919 34.4512 157.311 39.6279 162.091 46.1068Z" fill="#240A3A"/>
</g>
</g>
<path d="M170.127 142.756C170.136 142.874 169.963 142.992 169.74 143.014C169.517 143.036 169.329 142.962 169.32 142.843C169.311 142.725 169.484 142.607 169.707 142.586C169.93 142.564 170.118 142.636 170.127 142.756Z" fill="black"/>
<path d="M174.27 163.822C174.9 164.039 175.441 162.306 175.441 162.306L173.82 161.872C173.82 161.872 173.722 163.634 174.27 163.822Z" fill="#FF6072"/>
<path d="M177.229 155.204L175.099 154.56C174.583 154.405 174.259 153.786 174.361 153.163L175.76 144.509C175.871 143.83 176.433 143.403 176.99 143.576L179.92 144.478C180.474 144.65 180.796 145.347 180.624 146.005L178.424 154.386C178.265 155.006 177.742 155.358 177.229 155.204Z" fill="#6A3688"/>
<g style="mix-blend-mode:multiply" opacity="0.4">
<g style="mix-blend-mode:multiply" opacity="0.4">
<path d="M179.92 144.487L178.29 143.982C178.761 145.635 178.892 147.366 178.677 149.071C178.406 150.702 177.457 151.681 176.373 152.495C176.084 152.663 175.757 152.753 175.423 152.755C175.089 152.757 174.76 152.671 174.47 152.507L174.363 153.167C174.261 153.795 174.584 154.409 175.1 154.564L177.23 155.208C177.746 155.362 178.262 155.01 178.425 154.404L180.625 146.023C180.796 145.356 180.474 144.664 179.92 144.487Z" fill="#2A438A"/>
</g>
</g>
<g style="mix-blend-mode:multiply" opacity="0.2">
<g style="mix-blend-mode:multiply" opacity="0.2">
<path d="M178.29 143.982L177.534 143.747C177.835 145.851 178.695 148.667 176.503 149.397C175.995 149.57 175.462 149.657 174.926 149.655L174.464 152.512C174.755 152.677 175.084 152.762 175.418 152.76C175.751 152.758 176.079 152.668 176.368 152.501C177.452 151.686 178.401 150.707 178.672 149.076C178.889 147.37 178.76 145.637 178.29 143.982Z" fill="#2A438A"/>
</g>
</g>
<g opacity="0.49">
<path opacity="0.49" d="M180.797 149.397H180.78C180.78 149.419 180.787 149.441 180.79 149.463L180.797 149.397Z" fill="#C8E6E4"/>
</g>
<g opacity="0.49">
<path opacity="0.49" d="M167.837 149.397V149.423C167.836 149.415 167.837 149.405 167.837 149.397Z" fill="#C8E6E4"/>
</g>
<g opacity="0.74">
<path opacity="0.74" d="M179.39 164.243H169.54L167.832 149.397H180.796L179.39 164.243Z" fill="#C8E6E4"/>
</g>
<path d="M133.238 93.9245C133.265 94.2997 133.289 94.6801 133.295 95.0553C133.295 95.2229 133.295 95.3918 133.295 95.5556C133.294 95.9537 133.265 96.3514 133.209 96.7456C133.117 97.3829 132.949 98.007 132.709 98.6048C132.432 99.2969 132.04 99.9369 131.549 100.498C130.21 102 128.083 102.866 125.95 103.076C124.74 103.192 123.518 103.112 122.333 102.838C120.927 102.525 119.6 101.927 118.436 101.079C117.27 100.222 116.357 99.0653 115.794 97.732C115.751 97.6327 115.708 97.5295 115.665 97.4277C115.566 97.1698 115.48 96.9042 115.408 96.6347C115.355 96.4518 115.347 96.2589 115.385 96.0724C115.423 95.8859 115.506 95.7113 115.625 95.5635C115.745 95.4156 115.899 95.2989 116.074 95.2232C116.248 95.1475 116.439 95.1152 116.629 95.1288C122.383 95.5581 126.513 95.063 131.604 92.9253C131.777 92.8528 131.964 92.8224 132.15 92.8365C132.337 92.8506 132.517 92.9089 132.677 93.0065C132.837 93.1041 132.971 93.2382 133.068 93.3979C133.166 93.5575 133.224 93.738 133.238 93.9245Z" fill="#7F332F"/>
<g style="mix-blend-mode:multiply" opacity="0.4">
<g style="mix-blend-mode:multiply" opacity="0.4">
<path d="M133.284 95.9798C133.284 95.8406 133.296 95.7 133.297 95.5556C133.298 95.4112 133.297 95.223 133.297 95.0554C133.297 94.6802 133.268 94.2998 133.24 93.9246C133.227 93.7378 133.169 93.557 133.071 93.397C132.974 93.2371 132.839 93.1027 132.68 93.0049C132.52 92.9071 132.339 92.8488 132.152 92.8347C131.966 92.8207 131.778 92.8513 131.606 92.9241C126.514 95.0618 122.384 95.5569 116.63 95.1276C116.44 95.1139 116.25 95.1463 116.075 95.222C115.9 95.2977 115.747 95.4144 115.627 95.5622C115.507 95.7101 115.424 95.8847 115.387 96.0712C115.349 96.2577 115.356 96.4506 115.409 96.6335C115.486 96.903 115.573 97.166 115.667 97.4265C115.705 97.5283 115.748 97.6315 115.796 97.7307C115.908 97.9914 116.034 98.2461 116.172 98.494C121.73 100.135 128.711 99.6274 133.284 95.9798Z" fill="#7F332F"/>
</g>
</g>
<path d="M133.238 93.9246C133.265 94.2998 133.289 94.6801 133.295 95.0553C131.551 95.9269 128.632 97.4058 124.937 97.8235C121.848 98.1808 118.723 98.0468 115.676 97.4264C115.576 97.1686 115.49 96.9029 115.418 96.6335C115.365 96.4506 115.358 96.2576 115.396 96.0711C115.434 95.8846 115.516 95.71 115.636 95.5622C115.756 95.4144 115.909 95.2976 116.084 95.222C116.259 95.1463 116.449 95.1139 116.639 95.1275C122.393 95.5569 126.523 95.0618 131.615 92.924C131.787 92.8536 131.973 92.8248 132.158 92.84C132.343 92.8552 132.522 92.914 132.681 93.0115C132.839 93.109 132.972 93.2426 133.069 93.4013C133.165 93.5599 133.223 93.7392 133.238 93.9246Z" fill="white"/>
<g style="mix-blend-mode:multiply" opacity="0.2">
<g style="mix-blend-mode:multiply" opacity="0.2">
<path d="M130.396 100.866C130.866 100.722 131.316 100.52 131.736 100.264C132.14 99.7615 132.469 99.2025 132.712 98.6048C132.951 98.007 133.119 97.3829 133.212 96.7456C133.249 96.4917 133.274 96.2361 133.284 95.9797C128.711 99.6273 121.73 100.135 116.171 98.4939C116.731 99.5066 117.503 100.386 118.435 101.073C118.704 101.27 118.983 101.455 119.27 101.624C122.771 99.537 126.758 101.743 130.396 100.866Z" fill="#7F332F"/>
</g>
</g>
<path d="M132.712 98.605C132.435 99.297 132.043 99.937 131.551 100.498C130.213 102 128.086 102.866 125.953 103.076C124.742 103.192 123.52 103.112 122.335 102.838C122.277 100.922 124.976 98.3097 127.758 97.9964C129.561 97.7888 131.486 97.9603 132.712 98.605Z" fill="#C22005"/>
<path d="M121.535 115.054L123.755 131.398L127.152 131.43L126.972 114.094L121.535 115.054Z" fill="#4D4CAC"/>
<g style="mix-blend-mode:multiply" opacity="0.4">
<g style="mix-blend-mode:multiply" opacity="0.4">
<path d="M145.55 115.912C144.406 117.072 145.309 120.167 150.737 131.255C150.844 131.473 151.078 131.606 151.252 131.782C151.553 132.08 151.862 132.383 152.185 132.685C152.185 132.685 156.388 131.546 158.889 128.895C152.629 126.981 147.234 122.277 145.55 115.912Z" fill="#FFA395"/>
</g>
</g>
<path d="M146.561 114.288L145.136 131.713L141.747 131.974L140.688 113.267L146.561 114.288Z" fill="#4D4CAC"/>
<path d="M134.187 149.331C132.212 149.331 130.595 148.648 129.383 147.299C126.238 143.801 126.879 137.085 126.907 136.802L126.936 136.527H141.118L141.157 136.785C141.2 137.065 142.147 143.693 139.126 147.219C137.93 148.621 136.266 149.331 134.187 149.331ZM127.49 137.137C127.406 138.426 127.214 143.978 129.834 146.892C130.926 148.107 132.391 148.722 134.187 148.722C136.082 148.722 137.591 148.077 138.67 146.824C141.189 143.884 140.733 138.393 140.594 137.137H127.49Z" fill="#56CCF2"/>
<path d="M125.169 134.22C124.854 134.221 124.546 134.127 124.284 133.953C124.022 133.778 123.818 133.529 123.697 133.238C123.576 132.947 123.545 132.627 123.606 132.318C123.667 132.009 123.819 131.725 124.042 131.502C124.265 131.279 124.549 131.128 124.858 131.066C125.167 131.005 125.487 131.036 125.778 131.157C126.069 131.278 126.317 131.482 126.492 131.744C126.667 132.006 126.76 132.314 126.76 132.629C126.76 133.051 126.592 133.456 126.294 133.754C125.995 134.052 125.591 134.22 125.169 134.22ZM125.169 131.568C124.959 131.568 124.754 131.63 124.58 131.747C124.405 131.864 124.269 132.029 124.189 132.223C124.108 132.417 124.087 132.63 124.128 132.836C124.169 133.042 124.27 133.231 124.419 133.38C124.567 133.528 124.756 133.629 124.962 133.67C125.168 133.711 125.381 133.69 125.575 133.61C125.769 133.529 125.935 133.393 126.051 133.219C126.168 133.044 126.23 132.839 126.23 132.629C126.23 132.348 126.118 132.078 125.919 131.879C125.72 131.68 125.45 131.568 125.169 131.568Z" fill="#56CCF2"/>
<path d="M143.66 134.22C143.345 134.22 143.037 134.127 142.775 133.952C142.513 133.777 142.309 133.528 142.188 133.237C142.068 132.946 142.036 132.626 142.098 132.317C142.159 132.008 142.311 131.724 142.534 131.502C142.757 131.279 143.041 131.127 143.35 131.066C143.659 131.005 143.979 131.037 144.27 131.157C144.561 131.278 144.809 131.482 144.984 131.744C145.159 132.006 145.252 132.314 145.252 132.629C145.251 133.051 145.083 133.456 144.785 133.754C144.486 134.052 144.082 134.22 143.66 134.22ZM143.66 131.568C143.45 131.568 143.245 131.63 143.07 131.747C142.896 131.864 142.76 132.029 142.679 132.223C142.599 132.417 142.578 132.63 142.619 132.836C142.66 133.042 142.761 133.231 142.909 133.38C143.058 133.528 143.247 133.629 143.453 133.67C143.658 133.711 143.872 133.69 144.066 133.61C144.26 133.529 144.425 133.393 144.542 133.219C144.658 133.044 144.721 132.839 144.721 132.629C144.721 132.348 144.609 132.078 144.41 131.879C144.211 131.68 143.941 131.568 143.66 131.568Z" fill="#56CCF2"/>
<path d="M133.087 38.1051C130.207 37.7338 127.128 37.3637 124.375 38.5409C122.266 39.4435 120.391 41.8081 121.796 44.0967C122.094 44.5608 122.461 44.9765 122.884 45.3293C123.109 45.524 123.438 45.6993 123.625 45.9301C123.708 46.0491 123.766 46.1845 123.794 46.3274C123.822 46.4703 123.819 46.6174 123.786 46.7592C123.711 46.9668 123.27 47.1718 123.087 47.3046C121.938 48.1194 120.662 48.7228 119.403 49.3507C118.759 49.6718 118.114 49.9954 117.483 50.3603C117.021 50.6311 116.492 50.9482 116.266 51.4614C115.785 52.5522 117.051 53.4328 117.718 54.0762C118.234 54.5674 119.442 55.381 119.232 56.1842C119.031 56.9578 117.89 57.4594 117.28 57.8604C116.148 58.594 114.664 59.2709 114.113 60.586C113.984 60.889 114.481 61.0206 114.606 60.7214C114.872 60.0845 115.428 59.6796 115.985 59.3032C116.676 58.8429 117.379 58.4006 118.075 57.9468C118.808 57.4723 119.916 56.8482 119.782 55.8103C119.723 55.3591 119.414 55.0109 119.104 54.7028C118.568 54.169 118.013 53.652 117.469 53.1259C116.825 52.4993 116.292 51.8237 117.233 51.121C117.792 50.7033 118.459 50.3977 119.078 50.0831C120.301 49.4629 121.555 48.8956 122.718 48.1645C123.363 47.7584 124.793 47.0518 124.38 46.0887C124.192 45.649 123.753 45.3873 123.399 45.0959C122.86 44.655 122.345 44.1392 122.054 43.4958C121.384 42.0196 122.277 40.4401 123.503 39.593C126.247 37.6951 129.987 38.2173 133.09 38.6157C133.414 38.6582 133.412 38.1464 133.09 38.1L133.087 38.1051Z" fill="#150623"/>
<path d="M141.615 39.8406C139.423 39.4474 136.705 40.8411 135.97 43.0085C135.123 45.5137 137.712 46.7089 139.507 47.5883C140.086 47.8706 141.239 48.3503 141.129 49.1355C141.029 49.8446 140.016 50.4519 139.519 50.8722L137.852 52.2789C137.328 52.7224 136.704 53.1466 136.294 53.7075C135.731 54.4811 135.938 55.3681 136.665 55.9445C137.58 56.6704 139.58 56.5131 139.918 57.8269C140.119 58.6095 139.119 59.6023 138.694 60.2122C138.395 60.6428 137.792 61.2295 137.823 61.8071C137.845 62.2906 138.271 62.5807 138.665 62.7689C139.388 63.0986 140.153 63.3251 140.939 63.442C141.26 63.4948 141.399 63.0023 141.068 62.9495C140.458 62.8535 139.86 62.6958 139.282 62.4788C138.837 62.3087 138.613 62.279 138.52 61.7994C138.447 61.4126 138.439 61.4654 138.623 61.1972C138.744 61.0253 138.865 60.8534 138.986 60.6815C139.361 60.1413 139.759 59.6114 140.113 59.0569C140.349 58.6869 140.526 58.2911 140.453 57.8424C140.324 57.0198 139.55 56.5298 138.826 56.2745C138.286 56.085 137.691 55.9999 137.196 55.6995C136.413 55.2263 136.273 54.4553 136.897 53.7797C137.766 52.8397 138.895 52.0623 139.874 51.2371C140.519 50.6904 141.62 49.9993 141.648 49.0362C141.677 48.073 140.57 47.5522 139.856 47.195C138.863 46.6986 137.751 46.3273 136.98 45.4892C134.554 42.8512 139.024 39.8973 141.468 40.3319C141.789 40.3886 141.927 39.8961 141.597 39.838L141.615 39.8406Z" fill="#150623"/>
<path d="M150.091 46.736C150.617 46.2847 151.403 46.4639 151.848 46.9423C152.324 47.458 152.405 48.2406 152.364 48.9046C152.29 50.0173 151.848 51.0694 151.273 52.0094C150.676 52.9802 149.931 53.8467 149.174 54.6951C148.529 55.4235 147.642 56.1662 147.2 57.0481C146.844 57.756 147.081 58.4754 147.699 58.9357C148.461 59.503 149.438 59.4656 150.248 59.913C151.767 60.7524 150.359 62.3086 149.958 63.3685C149.603 64.3007 150.538 64.4618 151.237 64.6191C151.882 64.7648 152.543 64.877 153.203 64.9647C153.533 65.0085 154.464 65.024 154.574 65.4624C154.632 65.6906 154.424 66.0606 154.293 66.2179C154.156 66.3551 154.005 66.477 153.841 66.5815C152.659 67.4516 151.26 67.9797 149.798 68.1081C149.473 68.1377 149.471 68.6496 149.798 68.6238C151.097 68.5155 152.355 68.1125 153.475 67.4454C154.173 67.0237 155.59 66.2127 155.023 65.2096C154.794 64.8125 154.351 64.6333 153.923 64.5521C153.157 64.4077 152.376 64.3458 151.615 64.182C151.202 64.0944 150.421 64.0892 150.475 63.4755C150.494 63.2408 150.766 62.9378 150.879 62.7264C151.153 62.2106 151.445 61.6549 151.464 61.0593C151.5 59.9517 150.574 59.4063 149.632 59.142C149.085 58.9886 148.495 58.897 148.028 58.5476C147.125 57.8681 147.77 57.0468 148.339 56.4034C149.908 54.619 151.742 52.8771 152.539 50.5769C152.947 49.4023 153.149 47.8693 152.385 46.7914C151.779 45.9366 150.554 45.68 149.74 46.3801C149.49 46.5954 149.854 46.9552 150.101 46.7411L150.091 46.736Z" fill="#150623"/>
<g style="mix-blend-mode:multiply" opacity="0.4">
<g style="mix-blend-mode:multiply" opacity="0.4">
<path d="M143.685 35.0082H143.661C143.623 35.1706 143.589 35.3331 143.556 35.493C143.607 35.3279 143.648 35.1693 143.685 35.0082Z" fill="#240A3A"/>
</g>
<g style="mix-blend-mode:multiply" opacity="0.4">
<path d="M120.123 44.7066C120.207 45.3977 120.387 46.0738 120.658 46.7154C121.709 49.3663 123.701 51.9282 121.656 54.9272C120.038 57.1436 118.16 58.8068 116.157 60.3179C115.838 60.5577 115.517 60.7945 115.195 61.0283C113.957 61.9244 112.688 62.7909 111.399 63.7089C110.507 63.8778 109.586 63.7698 108.757 63.3994C107.924 62.9989 107.231 62.3557 106.769 61.5544C106.679 64.2091 105.794 66.7878 103.663 67.3036C102.862 67.4944 101.934 67.0457 101.145 66.1367C102.851 65.2574 104.403 64.1717 105.477 62.426C106.84 60.2109 105.307 57.6554 103.944 55.4416C103.604 54.7596 103.093 53.9086 103.604 53.5669C107.692 51.1829 112.629 51.1829 116.21 47.605C116.314 47.5083 116.411 47.409 116.501 47.3085C118.48 45.0947 117.298 41.8726 118.765 39.428C119.655 38.0774 120.793 36.9072 122.117 35.979C123.8 35.3962 125.517 34.9174 127.258 34.5453C123.167 36.5038 119.729 40.2519 120.123 44.7066Z" fill="#240A3A"/>
</g>
</g>
<g style="mix-blend-mode:multiply" opacity="0.4">
<g style="mix-blend-mode:multiply" opacity="0.4">
<path d="M163.167 80.1351L163.402 80.2356C163.476 79.9222 163.578 79.6159 163.706 79.3202C163.487 79.5637 163.306 79.8383 163.167 80.1351Z" fill="#240A3A"/>
</g>
<g style="mix-blend-mode:multiply" opacity="0.4">
<path d="M170.772 22.5725H170.747C170.71 22.735 170.675 22.8961 170.643 23.0573C170.693 22.8936 170.734 22.7337 170.772 22.5725Z" fill="#240A3A"/>
</g>
<g style="mix-blend-mode:multiply" opacity="0.4">
<path d="M155.727 76.3921C155.864 76.5511 155.999 76.7183 156.133 76.8936C156.048 76.7273 155.965 76.561 155.885 76.3921H155.727Z" fill="#240A3A"/>
</g>
<g style="mix-blend-mode:multiply" opacity="0.4">
<path d="M156.38 77.3823L156.509 77.4313C156.388 77.2457 156.263 77.0652 156.134 76.8937L156.38 77.3823Z" fill="#240A3A"/>
</g>
</g>
<g style="mix-blend-mode:multiply" opacity="0.4">
<g style="mix-blend-mode:multiply" opacity="0.4">
<path d="M141.376 31.603L141.401 31.6108C141.349 31.7694 141.295 31.9254 141.241 32.0801C141.279 31.9189 141.326 31.7603 141.376 31.603Z" fill="#240A3A"/>
</g>
<g style="mix-blend-mode:multiply" opacity="0.4">
<path d="M163.393 69.7535C162.218 70.362 162.512 70.8494 161.565 71.6965C160.648 72.5114 160.017 73.5016 160.033 74.7793C160.04 75.3549 160.107 75.9283 160.231 76.4903C156.776 77.3077 154.331 79.5447 153.201 81.3511C152.669 80.1408 152.271 78.8763 152.013 77.5798C152.739 77.2361 153.437 76.837 154.102 76.3858C154.747 75.9771 155.184 75.2461 155.004 74.5459C153.018 69.5781 150.506 65.4883 150.011 60.0254C149.821 56.7569 152.261 55.483 154.405 53.9939C155.233 53.4201 156.014 52.8141 156.585 52.0495C159.215 48.4394 158.197 43.4496 155.699 39.6719C157 40.8859 158.226 42.1776 159.37 43.5399C160.028 45.0182 160.402 46.6074 160.471 48.2241C160.471 51.2037 157.55 53.4253 158.453 56.5506C159.68 61.4591 161.963 60.4947 164.24 64.6451C164.586 65.1492 164.036 69.3396 163.393 69.7535Z" fill="#240A3A"/>
</g>
</g>
<path d="M157.428 46.1364C159.165 45.6955 160.328 48.1465 160.827 49.4307C161.403 50.9147 161.601 52.5548 161.032 54.0723C160.5 55.4803 159.401 56.5956 158.265 57.542C157.73 57.9855 157.163 58.3839 156.615 58.8107C156.169 59.1575 155.689 59.5843 155.558 60.1593C155.292 61.3326 156.487 61.9515 157.363 62.3512C158.154 62.7135 158.955 63.0616 159.741 63.4355C160.456 63.7759 161.229 64.1743 161.675 64.8538C162.645 66.3275 161.704 68.1249 161 69.4864C160.469 70.5179 160.27 71.5829 161.186 72.4377C161.608 72.8322 162.128 73.0991 162.604 73.4253C163.271 73.863 163.744 74.5394 163.928 75.3155C164.293 76.6384 163.992 77.8736 163.907 79.1977C163.887 79.5265 164.397 79.5252 164.423 79.1977C164.495 78.0708 164.735 77.0058 164.566 75.8648C164.369 74.5316 163.793 73.5839 162.673 72.8554C162.19 72.5408 161.611 72.252 161.275 71.7672C160.681 70.915 161.354 69.9622 161.748 69.1782C162.363 67.9534 162.931 66.4552 162.392 65.1014C161.853 63.7475 160.433 63.1828 159.203 62.6232C158.452 62.2816 157.663 61.9786 156.942 61.575C156.583 61.3726 156.161 61.0954 156.063 60.6622C155.946 60.1464 156.341 59.7145 156.696 59.4012C157.84 58.3916 159.13 57.6167 160.145 56.4512C161.048 55.4197 161.7 54.2103 161.86 52.841C162.062 51.1004 161.49 49.3521 160.645 47.8487C159.975 46.6548 158.84 45.2507 157.301 45.6413C156.982 45.7213 157.118 46.2151 157.437 46.1339L157.428 46.1364Z" fill="#150623"/>
<path d="M164.391 46.6071L163.265 46.3273C162.946 46.2474 162.81 46.7399 163.129 46.8199L164.255 47.1009C164.574 47.1796 164.711 46.6871 164.384 46.6071H164.391Z" fill="#150623"/>
<path d="M153.718 81.28C152.014 84.9559 155.265 88.7981 158.055 89.065C160.845 89.3319 163.408 86.28 163.795 82.2483C164.182 78.2165 162.242 74.7301 159.458 74.462C156.674 74.1938 155.097 78.3003 153.718 81.28Z" fill="#A04F48"/>
<path d="M127.615 113.978C127.612 114.004 127.612 114.031 127.615 114.058C127.725 117.232 130.425 119.789 133.618 119.638C136.896 119.483 139.371 116.696 139.351 113.449C139.352 113.382 139.334 113.316 139.299 113.258H139.268L138.923 113.279H138.871L138.678 113.29H138.649C138.629 113.338 138.619 113.39 138.62 113.443C138.636 116.27 136.502 118.765 133.618 118.896C132.953 118.926 132.289 118.824 131.663 118.596C131.038 118.368 130.464 118.019 129.974 117.568C129.484 117.118 129.088 116.575 128.808 115.97C128.529 115.366 128.372 114.712 128.346 114.047C128.345 113.975 128.322 113.905 128.28 113.846L127.615 113.978Z" fill="#1070B7"/>
<path d="M151.338 132.343C151.291 132.263 151.277 132.168 151.299 132.077C151.314 132.02 151.346 131.969 151.389 131.929C151.413 131.907 151.439 131.889 151.468 131.874C154.272 130.342 156.899 128.556 159.258 126.395C159.279 126.377 159.301 126.36 159.325 126.345L159.712 126.97C157.345 129.101 154.733 130.942 151.929 132.454L151.338 132.343Z" fill="#1070B7"/>
<path d="M118.271 133.496L117.975 133.447C114.854 132.567 111.873 131.321 109.174 129.513L109.203 129.442L109.256 129.313L109.377 129.02L109.435 128.884L109.457 128.83C109.472 128.837 109.486 128.845 109.5 128.854C112.207 130.669 115.173 131.91 118.302 132.78C118.317 132.784 118.331 132.789 118.345 132.796C118.371 132.804 118.395 132.817 118.417 132.833L118.271 133.496Z" fill="#1070B7"/>
<g style="mix-blend-mode:multiply" opacity="0.4">
<g style="mix-blend-mode:multiply" opacity="0.4">
<path d="M160.465 82.5423C159.967 84.4415 158.715 85.7579 157.667 85.4846C157.329 85.3825 157.045 85.1507 156.878 84.8399C156.765 84.6453 156.679 84.4368 156.62 84.2198C156.839 84.1544 157.042 84.045 157.218 83.8982C157.393 83.7515 157.536 83.5704 157.639 83.3662C157.784 83.08 157.913 82.6442 157.699 82.3824C157.462 82.0936 157.113 82.1916 156.853 82.4044H156.846C156.801 82.4455 156.745 82.4733 156.685 82.4847C156.625 82.4961 156.564 82.4906 156.507 82.4688C156.54 82.1559 156.598 81.846 156.678 81.5418C156.753 81.2576 156.847 80.9788 156.96 80.7076C156.994 80.6341 157.026 80.5593 157.058 80.4845C157.058 80.4811 157.058 80.4776 157.058 80.4742C157.2 80.1648 157.373 79.8706 157.574 79.5962C158.14 78.8406 158.839 78.4358 159.464 78.6021C160.523 78.8819 160.964 80.6431 160.465 82.5423Z" fill="#A04F48"/>
</g>
</g>
<path d="M158.492 82.737C158.459 83.7452 157.769 84.5266 156.878 84.8399C156.65 84.921 156.412 84.9701 156.171 84.9856C155.732 85.0127 155.736 84.3306 156.171 84.3022C156.323 84.2926 156.473 84.2649 156.617 84.2197C156.836 84.1544 157.04 84.045 157.215 83.8982C157.39 83.7514 157.533 83.5704 157.636 83.3662C157.782 83.0799 157.911 82.6441 157.697 82.3824C157.459 82.0936 157.11 82.1916 156.851 82.4043H156.843C156.798 82.4454 156.743 82.4732 156.683 82.4846C156.623 82.496 156.561 82.4905 156.504 82.4688C156.457 82.4526 156.413 82.427 156.376 82.3935C156.339 82.3601 156.31 82.3194 156.289 82.2741C156.259 82.2222 156.248 82.1619 156.256 82.1028C156.265 82.0437 156.293 81.9892 156.336 81.9479C156.57 81.5482 156.777 81.1339 156.958 80.7076C156.991 80.6341 157.024 80.5593 157.056 80.4845C157.055 80.4811 157.055 80.4776 157.056 80.4742C157.159 80.2369 157.263 80.001 157.372 79.7676C157.389 79.724 157.417 79.6855 157.453 79.6555C157.489 79.6256 157.532 79.6052 157.578 79.5961C157.643 79.5868 157.71 79.5951 157.771 79.6203C157.832 79.6455 157.885 79.6867 157.924 79.7394C157.964 79.7921 157.988 79.8545 157.996 79.9201C158.003 79.9856 157.992 80.0519 157.965 80.1119C157.748 80.5722 157.556 81.0454 157.339 81.5082C157.472 81.5052 157.603 81.528 157.726 81.5753C157.966 81.6538 158.173 81.8115 158.312 82.0224C158.451 82.2334 158.515 82.4853 158.492 82.737Z" fill="#6B2F2E"/>
<g style="mix-blend-mode:multiply" opacity="0.4">
<g style="mix-blend-mode:multiply" opacity="0.4">
<path d="M127.152 131.429L127.115 127.788C126.41 126.838 125.769 125.842 125.195 124.808C123.506 121.714 122.842 118.271 122.754 114.839L121.535 115.054L123.755 131.398L127.152 131.429Z" fill="#4D4CAC"/>
</g>
</g>
<g style="mix-blend-mode:multiply" opacity="0.4">
<g style="mix-blend-mode:multiply" opacity="0.4">
<path d="M144.128 113.865C144.197 119.169 143.721 124.78 141.611 129.549L141.747 131.974L145.136 131.716L146.554 114.292L144.128 113.865Z" fill="#4D4CAC"/>
</g>
</g>
<g style="mix-blend-mode:multiply">
<g style="mix-blend-mode:multiply" opacity="0.6">
<g style="mix-blend-mode:multiply" opacity="0.6">
<path d="M38.2934 125.969C36.4608 123.135 35.1 120.022 34.2642 116.752H33.5293C33.3132 116.752 33.0999 116.8 32.9045 116.893C32.7092 116.985 32.5367 117.12 32.3994 117.286C32.2621 117.453 32.1634 117.648 32.1104 117.858C32.0575 118.067 32.0515 118.286 32.093 118.498L40.8721 163.359C41.001 164.041 41.2086 164.52 41.9036 164.52L100.918 164.446C101.11 164.449 101.301 164.413 101.479 164.341C101.658 164.269 101.82 164.162 101.957 164.027C94.0105 162.511 86.2116 160.303 78.6498 157.428C62.0173 151.24 48.2213 141.183 38.2934 125.969Z" fill="#DCD3D4"/>
</g>
</g>
<g style="mix-blend-mode:multiply" opacity="0.3">
<g style="mix-blend-mode:multiply" opacity="0.3">
<path d="M43.4508 119.651C42.9112 118.713 42.4256 117.745 41.9964 116.752H34.2603C35.0973 120.022 36.4594 123.135 38.2934 125.969C48.2213 141.183 62.0173 151.24 78.6497 157.428C86.2116 160.303 94.0105 162.511 101.957 164.027C102.131 163.858 102.259 163.647 102.331 163.415C102.403 163.183 102.416 162.937 102.368 162.699L99.3282 147.303C96.1427 146.998 92.9459 146.548 89.7381 145.953C71.3005 142.601 53.1208 136.154 43.4508 119.651Z" fill="#DCD3D4"/>
</g>
</g>
</g>
</g>
<defs>
<clipPath id="clip0">
<rect width="254" height="173.416" fill="white"/>
</clipPath>
</defs>
</svg>
