<svg width="598" height="405" viewBox="0 0 598 405" fill="none" xmlns="http://www.w3.org/2000/svg">
<path d="M121.31 127.28H6.89001C5.71511 127.28 4.58832 126.813 3.75754 125.982C2.92675 125.152 2.46002 124.025 2.46002 122.85V122.85C2.46002 122.269 2.57467 121.693 2.79742 121.156C3.02018 120.619 3.34665 120.132 3.75814 119.721C4.16964 119.31 4.65807 118.985 5.19549 118.764C5.7329 118.542 6.30873 118.429 6.89001 118.43H121.31C122.482 118.43 123.607 118.896 124.435 119.725C125.264 120.554 125.73 121.678 125.73 122.85V122.85C125.731 123.431 125.618 124.007 125.396 124.545C125.175 125.082 124.85 125.57 124.439 125.982C124.028 126.393 123.541 126.72 123.004 126.943C122.467 127.165 121.891 127.28 121.31 127.28V127.28Z" fill="#1070B7"/>
<path d="M332.16 9.05001H257.62C256.419 9.05001 255.266 8.57274 254.417 7.72321C253.567 6.87367 253.09 5.72144 253.09 4.52001V4.52001C253.09 3.92559 253.207 3.33702 253.435 2.78797C253.663 2.23893 253.997 1.7402 254.417 1.32035C254.838 0.900499 255.338 0.567764 255.887 0.341201C256.437 0.114639 257.026 -0.00130402 257.62 1.10629e-05H332.16C332.754 -0.00130402 333.343 0.114639 333.893 0.341201C334.442 0.567764 334.942 0.900499 335.363 1.32035C335.783 1.7402 336.117 2.23893 336.345 2.78797C336.573 3.33702 336.69 3.92559 336.69 4.52001V4.52001C336.69 5.72144 336.213 6.87367 335.363 7.72321C334.514 8.57274 333.361 9.05001 332.16 9.05001V9.05001Z" fill="#1070B7"/>
<path d="M57.84 160.76H44.69C41.2327 160.76 38.43 163.563 38.43 167.02V179.37C38.43 182.827 41.2327 185.63 44.69 185.63H57.84C61.2973 185.63 64.1 182.827 64.1 179.37V167.02C64.1 163.563 61.2973 160.76 57.84 160.76Z" fill="#171E40"/>
<path d="M440.49 391.32H433.3C431.417 391.32 429.89 392.847 429.89 394.73V401.48C429.89 403.363 431.417 404.89 433.3 404.89H440.49C442.373 404.89 443.9 403.363 443.9 401.48V394.73C443.9 392.847 442.373 391.32 440.49 391.32Z" fill="#1070B7"/>
<path d="M569.2 103.63H562.01C560.127 103.63 558.6 105.157 558.6 107.04V113.79C558.6 115.673 560.127 117.2 562.01 117.2H569.2C571.083 117.2 572.61 115.673 572.61 113.79V107.04C572.61 105.157 571.083 103.63 569.2 103.63Z" fill="#1070B7"/>
<path d="M67.37 325.36L31.13 344.13L41.57 349.19L28.6 364.68L38.72 372.97L51.24 356.32L59.64 365.32L67.37 325.36Z" fill="#FEFEF4"/>
<path d="M193.55 403.46H151.21C149.709 403.455 148.271 402.855 147.21 401.793C146.149 400.73 145.553 399.291 145.55 397.79V397.79C145.55 396.284 146.148 394.839 147.214 393.774C148.279 392.708 149.724 392.11 151.23 392.11H193.55C195.056 392.11 196.501 392.708 197.566 393.774C198.632 394.839 199.23 396.284 199.23 397.79C199.23 398.535 199.083 399.274 198.797 399.962C198.512 400.651 198.093 401.276 197.566 401.803C197.038 402.329 196.412 402.747 195.723 403.031C195.034 403.316 194.295 403.461 193.55 403.46Z" fill="#1070B7"/>
<path d="M465.3 64.91H124.29C120.341 64.91 117.14 68.1112 117.14 72.06V356.09C117.14 360.039 120.341 363.24 124.29 363.24H465.3C469.249 363.24 472.45 360.039 472.45 356.09V72.06C472.45 68.1112 469.249 64.91 465.3 64.91Z" fill="#BDE6FF"/>
<path d="M117.14 100.81H472.45" stroke="#FEFEF4" stroke-width="1.94" stroke-miterlimit="10"/>
<path d="M465.3 64.91H124.29C120.341 64.91 117.14 68.1112 117.14 72.06V356.09C117.14 360.039 120.341 363.24 124.29 363.24H465.3C469.249 363.24 472.45 360.039 472.45 356.09V72.06C472.45 68.1112 469.249 64.91 465.3 64.91Z" stroke="#FEFEF4" stroke-width="1.94" stroke-miterlimit="10"/>
<path d="M147.17 88.23C149.937 88.23 152.18 85.987 152.18 83.22C152.18 80.4531 149.937 78.21 147.17 78.21C144.403 78.21 142.16 80.4531 142.16 83.22C142.16 85.987 144.403 88.23 147.17 88.23Z" stroke="#FEFEF4" stroke-width="1.94" stroke-miterlimit="10"/>
<path d="M166.64 88.23C169.407 88.23 171.65 85.987 171.65 83.22C171.65 80.4531 169.407 78.21 166.64 78.21C163.873 78.21 161.63 80.4531 161.63 83.22C161.63 85.987 163.873 88.23 166.64 88.23Z" stroke="#FEFEF4" stroke-width="1.94" stroke-miterlimit="10"/>
<path d="M186.11 88.23C188.877 88.23 191.12 85.987 191.12 83.22C191.12 80.4531 188.877 78.21 186.11 78.21C183.343 78.21 181.1 80.4531 181.1 83.22C181.1 85.987 183.343 88.23 186.11 88.23Z" stroke="#FEFEF4" stroke-width="1.94" stroke-miterlimit="10"/>
<path d="M190.91 221.83H10.35C4.63386 221.83 0 226.464 0 232.18V299.12C0 304.836 4.63386 309.47 10.35 309.47H190.91C196.626 309.47 201.26 304.836 201.26 299.12V232.18C201.26 226.464 196.626 221.83 190.91 221.83Z" fill="#1070B7"/>
<path d="M24.4 238.11C24.4 238.864 24.1766 239.6 23.7579 240.227C23.3393 240.853 22.7442 241.342 22.0481 241.63C21.3519 241.918 20.5858 241.994 19.8467 241.847C19.1077 241.7 18.4288 241.337 17.896 240.804C17.3631 240.271 17.0002 239.592 16.8532 238.853C16.7062 238.114 16.7817 237.348 17.0701 236.652C17.3584 235.956 17.8468 235.361 18.4733 234.942C19.0999 234.523 19.8365 234.3 20.59 234.3C21.6005 234.3 22.5696 234.701 23.2841 235.416C23.9986 236.13 24.4 237.1 24.4 238.11V238.11Z" stroke="#FEFEF4" stroke-width="1.48" stroke-miterlimit="10"/>
<path d="M35.4 241.91C37.5042 241.91 39.21 240.204 39.21 238.1C39.21 235.996 37.5042 234.29 35.4 234.29C33.2958 234.29 31.59 235.996 31.59 238.1C31.59 240.204 33.2958 241.91 35.4 241.91Z" stroke="#FEFEF4" stroke-width="1.48" stroke-miterlimit="10"/>
<path d="M50.21 241.91C52.3142 241.91 54.02 240.204 54.02 238.1C54.02 235.996 52.3142 234.29 50.21 234.29C48.1058 234.29 46.4 235.996 46.4 238.1C46.4 240.204 48.1058 241.91 50.21 241.91Z" stroke="#FEFEF4" stroke-width="1.48" stroke-miterlimit="10"/>
<path d="M0 252.53H201.26" stroke="#FEFEF4" stroke-width="1.48" stroke-miterlimit="10"/>
<path d="M515.39 20.77H434.39C427.63 20.77 422.15 26.2501 422.15 33.01V98.35C422.15 105.11 427.63 110.59 434.39 110.59H515.39C522.15 110.59 527.63 105.11 527.63 98.35V33.01C527.63 26.2501 522.15 20.77 515.39 20.77Z" fill="#1070B7"/>
<path d="M468.23 75.9C464.624 75.9 461.1 74.8308 458.102 72.8277C455.104 70.8246 452.767 67.9774 451.388 64.6463C450.008 61.3152 449.647 57.6498 450.35 54.1135C451.054 50.5772 452.79 47.329 455.339 44.7795C457.889 42.2299 461.137 40.4937 464.673 39.7903C468.21 39.0869 471.875 39.4479 475.206 40.8277C478.537 42.2075 481.385 44.5441 483.388 47.542C485.391 50.5399 486.46 54.0645 486.46 57.67C486.457 62.5041 484.536 67.1394 481.118 70.5576C477.699 73.9759 473.064 75.8974 468.23 75.9V75.9ZM468.23 43.58C465.441 43.58 462.714 44.4072 460.395 45.957C458.076 47.5068 456.269 49.7095 455.202 52.2865C454.135 54.8635 453.857 57.6991 454.402 60.4345C454.947 63.1699 456.29 65.6822 458.263 67.6538C460.236 69.6253 462.75 70.9674 465.485 71.5103C468.221 72.0532 471.057 71.7726 473.633 70.7038C476.209 69.6351 478.41 67.8263 479.959 65.5063C481.507 63.1862 482.332 60.4592 482.33 57.67C482.327 53.9322 480.841 50.3484 478.197 47.7063C475.553 45.0642 471.968 43.58 468.23 43.58V43.58Z" fill="#FEFEF4"/>
<path d="M481.109 67.6523L478.189 70.5726L483.57 75.9537L486.49 73.0334L481.109 67.6523Z" fill="#FEFEF4"/>
<path d="M482.794 78.7253L493.443 89.3744C494.572 90.503 496.402 90.503 497.53 89.3744L499.899 87.0056C501.028 85.8769 501.028 84.0471 499.899 82.9185L489.25 72.2694C488.121 71.1408 486.291 71.1408 485.163 72.2694L482.794 74.6382C481.665 75.7669 481.665 77.5967 482.794 78.7253Z" fill="#FEFEF4"/>
<path d="M86.23 14.69H39.67C31.8662 14.69 25.54 21.0162 25.54 28.82V68.3C25.54 76.1038 31.8662 82.43 39.67 82.43H86.23C94.0338 82.43 100.36 76.1038 100.36 68.3V28.82C100.36 21.0162 94.0338 14.69 86.23 14.69Z" fill="#171E40"/>
<path d="M62.95 63.16C59.8147 63.162 56.7493 62.2341 54.1415 60.4937C51.5336 58.7533 49.5005 56.2785 48.2993 53.3825C47.0982 50.4865 46.7829 47.2992 47.3933 44.224C48.0038 41.1487 49.5125 38.3236 51.7288 36.1059C53.9451 33.8883 56.7692 32.3777 59.8441 31.7653C62.919 31.1529 66.1064 31.4662 69.0032 32.6656C71.9 33.8649 74.376 35.8965 76.1181 38.5032C77.8601 41.1099 78.79 44.1748 78.79 47.31C78.7847 51.5103 77.1145 55.5373 74.1453 58.5083C71.1762 61.4793 67.1503 63.1521 62.95 63.16V63.16ZM62.95 36.22C60.7561 36.218 58.611 36.8668 56.786 38.0842C54.9609 39.3015 53.5379 41.0329 52.697 43.0591C51.8561 45.0854 51.6351 47.3155 52.0618 49.4674C52.4886 51.6193 53.5441 53.5963 55.0946 55.1483C56.6452 56.7003 58.6212 57.7575 60.7727 58.1862C62.9243 58.6149 65.1546 58.3959 67.1816 57.5568C69.2086 56.7177 70.9413 55.2963 72.1603 53.4723C73.3793 51.6484 74.03 49.5038 74.03 47.31C74.0273 44.3713 72.8594 41.5536 70.7824 39.4747C68.7054 37.3957 65.8887 36.2253 62.95 36.22V36.22Z" fill="#FEFEF4"/>
<path d="M72.29 36.22L54.11 58.39" stroke="#FEFEF4" stroke-width="4.52" stroke-miterlimit="10"/>
<path d="M584.07 168.82H415.44C408.233 168.82 402.39 174.663 402.39 181.87V307.7C402.39 314.907 408.233 320.75 415.44 320.75H584.07C591.277 320.75 597.12 314.907 597.12 307.7V181.87C597.12 174.663 591.277 168.82 584.07 168.82Z" fill="#171E40"/>
<path d="M422.54 186.85C424.578 186.85 426.23 185.198 426.23 183.16C426.23 181.122 424.578 179.47 422.54 179.47C420.502 179.47 418.85 181.122 418.85 183.16C418.85 185.198 420.502 186.85 422.54 186.85Z" stroke="#FEFEF4" stroke-width="1.43" stroke-miterlimit="10"/>
<path d="M436.89 186.85C438.928 186.85 440.58 185.198 440.58 183.16C440.58 181.122 438.928 179.47 436.89 179.47C434.852 179.47 433.2 181.122 433.2 183.16C433.2 185.198 434.852 186.85 436.89 186.85Z" stroke="#FEFEF4" stroke-width="1.43" stroke-miterlimit="10"/>
<path d="M451.23 186.85C453.268 186.85 454.92 185.198 454.92 183.16C454.92 181.122 453.268 179.47 451.23 179.47C449.192 179.47 447.54 181.122 447.54 183.16C447.54 185.198 449.192 186.85 451.23 186.85Z" stroke="#FEFEF4" stroke-width="1.43" stroke-miterlimit="10"/>
<path d="M402.39 198.55H597.13" stroke="#FEFEF4" stroke-width="1.43" stroke-miterlimit="10"/>
<path d="M313.36 257.16L312.62 247.16L250.07 250.23V259.92C250.07 259.92 236 273.3 230.45 362.34H343.04C343.04 362.34 355.39 283.51 313.36 257.16Z" fill="#1070B7"/>
<path d="M250.07 259.88L313.36 257.16" stroke="black" stroke-width="1.55" stroke-miterlimit="10"/>
<path d="M263 300.94L275.97 306.22L282.91 362.31" stroke="black" stroke-width="1.55" stroke-miterlimit="10"/>
<path d="M181.69 237.79L198.97 180.79L236.97 195.03L218.73 249.66C217.097 254.499 213.627 258.502 209.068 260.804C204.51 263.107 199.228 263.523 194.365 261.965C189.501 260.406 185.446 256.997 183.074 252.474C180.703 247.951 180.206 242.677 181.69 237.79V237.79Z" fill="#F26E5A"/>
<path d="M208.35 150.26C209.127 147.626 210.422 145.174 212.159 143.048C213.897 140.921 216.041 139.163 218.467 137.877C220.893 136.591 223.552 135.802 226.287 135.556C229.022 135.311 231.778 135.615 234.394 136.449C237.01 137.284 239.433 138.632 241.521 140.416C243.609 142.2 245.319 144.382 246.552 146.836C247.785 149.289 248.515 151.965 248.701 154.704C248.886 157.444 248.522 160.193 247.63 162.79L236.98 194.95L198.98 180.71L208.35 150.26Z" fill="#FEFEF4"/>
<path d="M211.04 233.49L167.63 151.18C167.63 151.18 168.63 136.31 143.92 135.42C143.59 135.42 143.25 135.37 142.92 135.37H134.67C133.922 135.355 133.193 135.609 132.617 136.086C132.04 136.564 131.655 137.232 131.53 137.97C131.462 138.373 131.478 138.787 131.575 139.184C131.673 139.581 131.851 139.954 132.099 140.28C132.346 140.606 132.657 140.878 133.013 141.079C133.37 141.28 133.763 141.407 134.17 141.45L142.5 142.63L131.17 145.63L129.05 146.41L113.62 136.22C113.094 135.843 112.443 135.684 111.802 135.778C111.162 135.871 110.583 136.209 110.186 136.72C109.79 137.232 109.608 137.877 109.677 138.521C109.747 139.164 110.063 139.755 110.56 140.17C111.56 140.97 113.05 142.28 114.72 143.73L111.31 141.73C110.754 141.368 110.078 141.242 109.429 141.378C108.78 141.515 108.212 141.904 107.85 142.46C107.488 143.016 107.362 143.692 107.498 144.341C107.635 144.99 108.024 145.558 108.58 145.92L111.58 148.06L110.4 147.6C109.772 147.327 109.069 147.278 108.409 147.46C107.748 147.642 107.17 148.044 106.77 148.6C106.52 148.96 106.353 149.371 106.283 149.804C106.212 150.237 106.239 150.68 106.362 151.101C106.485 151.522 106.7 151.91 106.992 152.237C107.284 152.563 107.646 152.821 108.05 152.99L124.91 160.05C127.82 161.27 130.61 162.05 134.03 161.22L149.03 157.67L182.72 251.79L211.04 233.49Z" fill="#F26E5A"/>
<path d="M193.22 199.7L201.26 214.93" stroke="#DB5749" stroke-width="1.5" stroke-miterlimit="10"/>
<path d="M242.14 135.91L226 137.12C226 137.12 202.64 168.79 250.07 250.2L312.62 247.13L317.33 159.43L309.61 134.54H281.55L242.14 135.91Z" fill="#FEFEF4"/>
<path d="M223.83 190.04C223.83 190.04 219.17 180.25 222.16 158.57" stroke="#FCE7E4" stroke-width="1.55" stroke-miterlimit="10"/>
<path d="M369.01 226.31L343.01 172.67L307.69 192.67L334.26 243.79C336.603 248.356 340.654 251.81 345.533 253.402C350.411 254.993 355.721 254.592 360.305 252.286C364.889 249.98 368.377 245.956 370.007 241.091C371.638 236.225 371.279 230.913 369.01 226.31Z" fill="#F26E5A"/>
<path d="M329.02 144.05C327.821 141.602 326.148 139.415 324.099 137.618C322.049 135.82 319.663 134.447 317.079 133.577C314.496 132.707 311.765 132.359 309.045 132.551C306.326 132.744 303.672 133.474 301.236 134.699C298.801 135.924 296.632 137.62 294.856 139.688C293.081 141.757 291.733 144.157 290.89 146.75C290.048 149.343 289.729 152.077 289.95 154.794C290.171 157.511 290.929 160.158 292.18 162.58L307.72 192.68L343.04 172.68L329.02 144.05Z" fill="#FEFEF4"/>
<path d="M307.72 192.68L294.89 167.82" stroke="#FCE7E4" stroke-width="1.55" stroke-miterlimit="10"/>
<path d="M423.23 134.54C422.825 133.993 422.248 133.598 421.592 133.417C420.936 133.236 420.238 133.279 419.61 133.54L412.06 136.48L419.15 130.48C419.732 130.01 420.118 129.338 420.231 128.598C420.344 127.858 420.176 127.103 419.76 126.48C419.524 126.155 419.225 125.882 418.882 125.675C418.538 125.468 418.156 125.332 417.759 125.275C417.362 125.218 416.957 125.241 416.569 125.343C416.181 125.446 415.818 125.625 415.5 125.87L408.91 131.18L414.55 123.79C415.008 123.209 415.234 122.479 415.186 121.74C415.138 121.002 414.819 120.307 414.29 119.79C413.995 119.514 413.646 119.302 413.265 119.167C412.885 119.033 412.48 118.978 412.077 119.007C411.674 119.036 411.282 119.149 410.924 119.337C410.567 119.525 410.252 119.785 410 120.1L398.9 131.62L387.57 128.62L395.9 127.44C396.303 127.39 396.692 127.259 397.044 127.057C397.396 126.854 397.704 126.583 397.95 126.26C398.196 125.937 398.375 125.568 398.476 125.175C398.577 124.781 398.599 124.372 398.54 123.97C398.414 123.233 398.027 122.566 397.451 122.089C396.875 121.612 396.148 121.357 395.4 121.37H387.14C382.266 121.331 377.549 123.089 373.89 126.31L373.71 126.44C368.65 130.44 370.49 138.62 370.49 138.62L339.38 226.7L370.21 240.38L387.97 145.79H399.32C400.022 145.85 400.728 145.85 401.43 145.79H401.55C402.778 145.68 403.982 145.383 405.12 144.91L421.98 138.91C422.372 138.729 422.72 138.466 423 138.138C423.281 137.811 423.488 137.426 423.607 137.011C423.725 136.597 423.753 136.161 423.688 135.735C423.623 135.308 423.467 134.901 423.23 134.54Z" fill="#F26E5A"/>
<path d="M351.45 190.04L344.73 213.49" stroke="#DB5749" stroke-width="1.5" stroke-miterlimit="10"/>
<path d="M240.89 63.25C238.94 64.59 225.89 67.98 225.64 70.34C225.64 70.34 229.93 87.11 225.54 90.24C213.66 98.7 209.86 115.29 209.86 115.29C209.86 115.29 241.2 138.79 324.55 114.12C324.55 114.12 325.55 104.12 310.4 96.89C305.994 94.9016 302.297 91.6196 299.8 87.48C298.357 85.1727 297.445 82.5733 297.13 79.87C295.69 71.64 272.99 41.23 240.89 63.25Z" fill="black"/>
<path d="M242.12 88.39C242.26 90.3638 241.811 92.3347 240.83 94.0532C239.849 95.7718 238.381 97.1607 236.61 98.0443C234.84 98.9278 232.847 99.2662 230.884 99.0167C228.921 98.7671 227.076 97.9409 225.583 96.6424C224.09 95.344 223.016 93.6318 222.496 91.7225C221.976 89.8132 222.035 87.7927 222.664 85.9166C223.293 84.0406 224.465 82.3934 226.031 81.1836C227.596 79.9737 229.486 79.2555 231.46 79.12C234.102 78.9386 236.708 79.8127 238.707 81.5506C240.705 83.2885 241.933 85.7482 242.12 88.39V88.39Z" fill="#DB5749"/>
<path d="M246.63 112.86L248.01 134.58C248.48 142.21 251.6 147.41 259.11 146.89C265.52 146.44 273.11 141.31 273.49 134.89L269.67 100.79L246.63 112.86Z" fill="#F26E5A"/>
<path d="M242.14 135.91L281.55 134.54C281.55 134.54 280.6 153.93 257.15 152.11C240.89 150.85 242.14 135.91 242.14 135.91Z" fill="#F26E5A"/>
<path d="M247.77 130.75L272.98 106.1L246.44 110.63L247.77 130.75Z" fill="#DB5749"/>
<path d="M253.24 116.37C240.41 116.37 229.81 106.3 229.42 95.82L228.67 71.08C228.439 64.7604 230.674 58.5987 234.903 53.8964C239.131 49.1941 245.021 46.3195 251.33 45.88C264.75 44.95 278.74 54.88 279.68 68.34L280.07 88.24C280.37 103.63 268.6 115.3 253.24 116.37Z" fill="#F26E5A"/>
<path d="M242.88 87.11L242.14 93.25L245.31 93.37" stroke="black" stroke-width="1.24" stroke-linecap="round" stroke-linejoin="round"/>
<path d="M255.55 72.12C255.55 72.12 248.46 71.54 248.39 74.42C248.39 74.42 248.39 76.42 254.58 76.76C260.77 77.1 262.38 76.7 262.95 74.86C263.52 73.02 258.89 72.14 255.55 72.12Z" fill="black"/>
<path d="M235.01 76.33C235.01 76.33 240.38 75.9 240.88 78.5C240.88 78.5 241.18 80.25 236.48 80.5C231.78 80.75 230.32 80.19 230.23 78.7C230.12 76.95 232.45 76.31 235.01 76.33Z" fill="black"/>
<path d="M238.12 84.79C238.134 85.2386 238.014 85.6813 237.776 86.0619C237.538 86.4426 237.193 86.7441 236.783 86.9285C236.374 87.1129 235.92 87.1718 235.477 87.0978C235.034 87.0238 234.623 86.8202 234.296 86.5127C233.969 86.2052 233.741 85.8077 233.639 85.3704C233.538 84.9331 233.569 84.4756 233.728 84.0557C233.887 83.6359 234.166 83.2726 234.532 83.0117C234.897 82.7508 235.331 82.604 235.78 82.59C236.078 82.5806 236.375 82.6302 236.654 82.7357C236.933 82.8412 237.189 83.0007 237.406 83.205C237.623 83.4093 237.798 83.6545 237.921 83.9264C238.043 84.1984 238.111 84.4918 238.12 84.79V84.79Z" fill="black"/>
<path d="M257.18 84.14C257.196 84.589 257.078 85.0325 256.841 85.4145C256.604 85.7964 256.26 86.0995 255.851 86.2854C255.442 86.4713 254.987 86.5317 254.543 86.4588C254.1 86.386 253.688 86.1832 253.36 85.8762C253.032 85.5692 252.803 85.1718 252.701 84.7342C252.599 84.2967 252.629 83.8387 252.787 83.4183C252.946 82.9979 253.225 82.6339 253.591 82.3725C253.956 82.1112 254.391 81.9641 254.84 81.95C255.44 81.9311 256.024 82.151 256.462 82.5615C256.901 82.972 257.159 83.5396 257.18 84.14V84.14Z" fill="black"/>
<path d="M250.55 97.64C250.55 97.64 247.2 96.11 243.15 99.64" stroke="black" stroke-width="1.24" stroke-linecap="round" stroke-linejoin="round"/>
<path d="M259.27 41.63C256.064 41.4612 252.851 41.7986 249.75 42.63C242.06 44.63 228.25 50.37 225.89 65.13C225.1 69.03 225.64 70.33 225.64 70.33C225.64 70.33 251.43 71.33 266.64 64.15C268.84 73.43 270.86 79.15 280.04 88.23L288.19 75.98L297.36 84.21C297.45 84.53 297.43 43.66 259.27 41.63Z" fill="black"/>
<path d="M293.45 88.49C293.59 90.4638 293.141 92.4347 292.16 94.1533C291.179 95.8718 289.711 97.2608 287.94 98.1443C286.17 99.0278 284.177 99.3663 282.214 99.1167C280.251 98.8672 278.406 98.0409 276.913 96.7424C275.42 95.444 274.346 93.7318 273.826 91.8225C273.306 89.9132 273.365 87.8927 273.994 86.0167C274.623 84.1406 275.795 82.4935 277.361 81.2836C278.926 80.0737 280.816 79.3556 282.79 79.22C285.432 79.0386 288.038 79.9128 290.037 81.6507C292.035 83.3885 293.263 85.8482 293.45 88.49Z" fill="#F26E5A"/>
<path d="M279.67 92.04C279.67 92.04 279.17 84.81 286.15 85.47" stroke="black" stroke-width="1.24" stroke-linecap="round" stroke-linejoin="round"/>
<path d="M437.99 295.98H440.42V287.772L447.44 295.98H449.15V283.38H446.72V291.588L439.7 283.38H437.99V295.98ZM458.047 293.262C457.633 293.712 456.841 294.27 455.851 294.27C454.609 294.27 453.619 293.424 453.493 292.2H459.541C459.577 292.002 459.595 291.768 459.595 291.534C459.595 289.104 457.885 287.07 455.473 287.07C452.881 287.07 451.225 289.194 451.225 291.624C451.225 294.36 453.187 296.16 455.797 296.16C457.147 296.16 458.533 295.602 459.379 294.594L458.047 293.262ZM453.601 290.49C453.709 289.698 454.501 288.96 455.473 288.96C456.427 288.96 457.129 289.716 457.201 290.49H453.601ZM467.612 294C467.45 294.036 467 294.09 466.658 294.09C466.082 294.09 465.704 293.928 465.47 293.658C465.272 293.424 465.182 293.1 465.182 292.56V289.23H468.062V287.25H465.182V284.82H462.842V287.25H460.412V289.23H462.842V292.29C462.842 293.532 463.04 294.306 463.49 294.9C464.084 295.692 465.11 296.16 466.514 296.16C466.964 296.16 467.666 296.088 467.972 295.98L467.612 294ZM477.089 290.904L479.285 295.98H480.905L484.577 287.25H482.219L480.077 292.344L477.899 287.25H476.279L474.083 292.344L471.959 287.25H469.601L473.273 295.98H474.893L477.089 290.904ZM485.115 291.624C485.115 294.144 487.113 296.16 489.759 296.16C492.405 296.16 494.403 294.144 494.403 291.624C494.403 289.104 492.405 287.07 489.759 287.07C487.113 287.07 485.115 289.104 485.115 291.624ZM487.455 291.624C487.455 290.31 488.391 289.23 489.759 289.23C491.127 289.23 492.063 290.31 492.063 291.624C492.063 292.938 491.127 294 489.759 294C488.391 294 487.455 292.938 487.455 291.624ZM501.962 287.142C501.71 287.106 501.512 287.07 501.17 287.07C500.108 287.07 499.154 287.484 498.632 288.132V287.25H496.382V295.98H498.722V290.49C499.01 289.968 499.82 289.23 500.846 289.23C501.188 289.23 501.53 289.266 501.692 289.32L501.962 287.142ZM512.405 287.25H509.111L506.105 290.076V283.2H503.765V295.98H506.105V292.2L509.795 295.98H512.945L508.139 291.174L512.405 287.25ZM526.972 285.54V283.38H519.412V295.98H527.152V293.82H521.842V290.31H525.712V288.15H521.842V285.54H526.972ZM534.798 287.142C534.546 287.106 534.348 287.07 534.006 287.07C532.944 287.07 531.99 287.484 531.468 288.132V287.25H529.218V295.98H531.558V290.49C531.846 289.968 532.656 289.23 533.682 289.23C534.024 289.23 534.366 289.266 534.528 289.32L534.798 287.142ZM542.181 287.142C541.929 287.106 541.731 287.07 541.389 287.07C540.327 287.07 539.373 287.484 538.851 288.132V287.25H536.601V295.98H538.941V290.49C539.229 289.968 540.039 289.23 541.065 289.23C541.407 289.23 541.749 289.266 541.911 289.32L542.181 287.142ZM543 291.624C543 294.144 544.998 296.16 547.644 296.16C550.29 296.16 552.288 294.144 552.288 291.624C552.288 289.104 550.29 287.07 547.644 287.07C544.998 287.07 543 289.104 543 291.624ZM545.34 291.624C545.34 290.31 546.276 289.23 547.644 289.23C549.012 289.23 549.948 290.31 549.948 291.624C549.948 292.938 549.012 294 547.644 294C546.276 294 545.34 292.938 545.34 291.624ZM559.847 287.142C559.595 287.106 559.397 287.07 559.055 287.07C557.993 287.07 557.039 287.484 556.517 288.132V287.25H554.267V295.98H556.607V290.49C556.895 289.968 557.705 289.23 558.731 289.23C559.073 289.23 559.415 289.266 559.577 289.32L559.847 287.142Z" fill="#FEFEFE"/>
<path d="M445.55 231.14V225.38H425.39V258.98H446.03V253.22H431.87V243.86H442.19V238.1H431.87V231.14H445.55ZM460.612 244.1L472.564 258.98H480.58L468.004 243.572C469.348 243.14 470.452 242.468 471.364 241.604C473.188 239.876 474.34 237.428 474.34 234.74C474.34 232.052 473.188 229.604 471.364 227.876C469.684 226.34 467.476 225.38 464.02 225.38H451.78V258.98H458.26V244.1H460.612ZM458.26 238.34V231.14H463.636C465.508 231.14 466.324 231.572 466.9 232.196C467.476 232.82 467.86 233.78 467.86 234.788C467.86 235.748 467.476 236.708 466.9 237.332C466.324 237.956 465.508 238.34 463.636 238.34H458.26ZM492.769 244.1L504.721 258.98H512.737L500.161 243.572C501.505 243.14 502.609 242.468 503.521 241.604C505.345 239.876 506.497 237.428 506.497 234.74C506.497 232.052 505.345 229.604 503.521 227.876C501.841 226.34 499.633 225.38 496.177 225.38H483.937V258.98H490.417V244.1H492.769ZM490.417 238.34V231.14H495.793C497.665 231.14 498.481 231.572 499.057 232.196C499.633 232.82 500.017 233.78 500.017 234.788C500.017 235.748 499.633 236.708 499.057 237.332C498.481 237.956 497.665 238.34 495.793 238.34H490.417ZM518.251 242.18C518.251 235.844 522.955 230.66 529.291 230.66C535.627 230.66 540.331 235.844 540.331 242.18C540.331 248.516 535.627 253.7 529.291 253.7C522.955 253.7 518.251 248.516 518.251 242.18ZM511.771 242.18C511.771 251.732 518.923 259.46 529.291 259.46C539.659 259.46 546.811 251.732 546.811 242.18C546.811 232.628 539.659 224.9 529.291 224.9C518.923 224.9 511.771 232.628 511.771 242.18ZM560.925 244.1L572.877 258.98H580.893L568.317 243.572C569.661 243.14 570.765 242.468 571.677 241.604C573.501 239.876 574.653 237.428 574.653 234.74C574.653 232.052 573.501 229.604 571.677 227.876C569.997 226.34 567.789 225.38 564.333 225.38H552.093V258.98H558.573V244.1H560.925ZM558.573 238.34V231.14H563.949C565.821 231.14 566.637 231.572 567.213 232.196C567.789 232.82 568.173 233.78 568.173 234.788C568.173 235.748 567.789 236.708 567.213 237.332C566.637 237.956 565.821 238.34 563.949 238.34H558.573Z" fill="#FEFEFE"/>
</svg>
